<?xml version="1.0" encoding="UTF-8"?>
<svg width="48px" height="48px" viewBox="0 0 48 48" version="1.1" xmlns="http://www.w3.org/2000/svg" xmlns:xlink="http://www.w3.org/1999/xlink">
    <!-- Generator: Sketch 56.2 (81672) - https://sketch.com -->
    <title>delay</title>
    <desc>Created with Sketch.</desc>
    <g id="icons" stroke="none" stroke-width="1" fill="none" fill-rule="evenodd">
        <g id="delay">
            <g>
                <rect id="Rectangle-3" fill="#E5F4F6" x="0" y="0" width="48" height="48" rx="24"></rect>
                <g id="hourglass" transform="translate(16.000000, 15.000000)" stroke="#0099A7" stroke-width="2">
                    <path d="M2.43478261,13.9130435 L13.2173913,13.9130435" id="Shape"></path>
                    <path d="M13.9130435,19.1304348 C13.9130435,18.8695652 13.9130435,18.5217391 13.9130435,18.2608696 C13.9130435,14.4347826 12.4347826,11.0434783 10.3478261,9.56521739 C12.4347826,8.08695652 13.9130435,4.69565217 13.9130435,0.869565217 C13.9130435,0.608695652 13.9130435,0.260869565 13.9130435,0" id="Shape" stroke-linecap="square"></path>
                    <path d="M1.73913043,0 C1.73913043,0.260869565 1.73913043,0.608695652 1.73913043,0.869565217 C1.73913043,4.69565217 3.2173913,8.08695652 5.30434783,9.56521739 C3.2173913,11.0434783 1.73913043,14.4347826 1.73913043,18.2608696 C1.73913043,18.5217391 1.73913043,18.8695652 1.73913043,19.1304348" id="Shape" stroke-linecap="square"></path>
                    <path d="M0,0 L15.6521739,0" id="Shape" stroke-linecap="square"></path>
                    <path d="M0,19.1304348 L15.6521739,19.1304348" id="Shape" stroke-linecap="square"></path>
                </g>
            </g>
        </g>
    </g>
</svg>