<?xml version="1.0" encoding="UTF-8"?>
<svg width="48px" height="48px" viewBox="0 0 48 48" version="1.1" xmlns="http://www.w3.org/2000/svg" xmlns:xlink="http://www.w3.org/1999/xlink">
    <!-- Generator: Sketch 56.2 (81672) - https://sketch.com -->
    <title>restart</title>
    <desc>Created with Sketch.</desc>
    <defs>
        <path d="M17.5811341,18.3098299 C18.9705869,16.8256417 19.0310371,16.737222 19.9179411,14.9101818 L21.5410746,15.6978391 C20.5720666,17.6954031 20.4204899,17.9173546 18.8975053,19.5431948 L17.5811341,18.3098299 Z M11.6064871,20.1964181 C13.7682591,20.1431858 13.9622412,20.1034872 15.9570984,19.3771823 L16.5751342,21.0724952 C14.3862949,21.8700771 14.01006,21.9422565 11.650697,22 L11.6064871,20.1964181 Z M5.88176118,17.0872919 C7.39662561,18.6355393 7.57978076,18.7672667 9.51057879,19.7308612 L8.70307213,21.3449723 C6.57648757,20.2830333 6.24987594,20.0412325 4.59245726,18.3495286 L5.88176118,17.0872919 Z M7.40564804,5.5900212 L9.86064871,7.88442279 L3,8.84260387 L3.58284838,2 L6.0730365,4.33500248 C7.83240854,2.90946001 10.0086164,2.13172734 12.3048225,2.13172734 C17.7769206,2.13172734 22.2294853,6.58429197 22.2294853,12.0563901 C22.2294853,12.3369874 22.2105382,12.6130735 22.1870799,12.8882573 L20.3970316,12.6085623 C20.409663,12.4254071 20.4250011,12.2431542 20.4250011,12.0563901 C20.4250011,7.57856273 16.7826499,3.93621149 12.3048225,3.93621149 C10.510263,3.93621149 8.81043894,4.52266883 7.40564804,5.5900212 Z" id="path-1"></path>
    </defs>
    <g id="UX-177" stroke="none" stroke-width="1" fill="none" fill-rule="evenodd">
        <g id="Artboard" transform="translate(-163.000000, -75.000000)">
            <g id="restart" transform="translate(163.000000, 75.000000)">
                <rect id="Rectangle-3" fill="#F5F5F6" x="0" y="0" width="48" height="48" rx="24"></rect>
                <g id="atoms/icons/redo" transform="translate(12.000000, 12.000000)">
                    <mask id="mask-2" fill="white">
                        <use xlink:href="#path-1"></use>
                    </mask>
                    <use id="Combined-Shape" fill="#5F6574" fill-rule="evenodd" transform="translate(12.614743, 12.000000) scale(-1, 1) translate(-12.614743, -12.000000)" xlink:href="#path-1"></use>
                </g>
            </g>
        </g>
    </g>
</svg>