<?xml version="1.0" encoding="UTF-8"?>
<svg width="48px" height="48px" viewBox="0 0 48 48" version="1.1" xmlns="http://www.w3.org/2000/svg" xmlns:xlink="http://www.w3.org/1999/xlink">
    <!-- Generator: sketchtool 58 (101010) - https://sketch.com -->
    <title>B3DCB44D-2D31-4208-9669-FDA4BA4A6399</title>
    <desc>Created with sketchtool.</desc>
    <defs>
        <path d="M21,2 L21,12 L19,12 L19,4 L5,4 L5,20 L10.4,20 L10.4,22 L3,22 L3,2 L21,2 Z M18,17 L18,19 L16,19 L16,17 L18,17 Z M8.5,14 L8.5,16 L6.5,16 L6.5,14 L8.5,14 Z M17.5,10 L17.5,12 L9.5,12 L9.5,10 L17.5,10 Z M8.5,10 L8.5,12 L6.5,12 L6.5,10 L8.5,10 Z M17.5,6 L17.5,8 L9.5,8 L9.5,6 L17.5,6 Z M8.5,6 L8.5,8 L6.5,8 L6.5,6 L8.5,6 Z M19.2203315,17.6571313 L20.0844666,17.3593606 L19.7403715,16.2367442 L18.8770717,16.5342199 C18.5783549,16.0372467 18.1095394,15.6686484 17.5569272,15.5175497 L17.5569272,14.5548856 L16.4433512,14.5548856 L16.4433512,15.5175497 C15.890739,15.6686484 15.4219235,16.0372467 15.1229283,16.5339247 L14.2596285,16.2367442 L13.9155334,17.3593606 L14.7796685,17.6571313 C14.7434773,18.2913328 14.9369611,18.8609041 15.2818913,19.3038713 L14.7493235,20.0806132 L15.6502066,20.7744279 L16.1836095,19.9962104 C16.7120014,20.2172513 17.286885,20.2175464 17.8161121,19.9962104 L18.349515,20.7744279 L19.2503981,20.0806132 L18.7178303,19.3038713 C19.0624821,18.8614944 19.2568011,18.2928083 19.2203315,17.6571313 Z M20.5217178,19.2003802 L21.3553053,20.4161547 L18.0003135,23 L17.1195489,21.7149932 C17.039773,21.7176512 16.9599439,21.717652 16.8801708,21.714996 L15.9994081,23 L12.6444163,20.4161547 L13.4782353,19.2000425 C13.4314786,19.0726245 13.3912015,18.9425697 13.3575856,18.8102942 L12,18.3424862 L13.2550371,14.2479046 L14.6618614,14.7321868 C14.7392416,14.6685729 14.8190526,14.6080924 14.9011179,14.5509048 L14.9011179,13 L19.0991605,13 L19.0991605,14.5509461 C19.1811639,14.6081012 19.2609142,14.6685457 19.338235,14.7321207 L20.7448205,14.2474399 L22,18.3424862 L20.6425619,18.8102434 C20.6089017,18.9426636 20.5685589,19.0728461 20.5217178,19.2003802 Z" id="path-1"></path>
    </defs>
    <g id="Ideation" stroke="none" stroke-width="1" fill="none" fill-rule="evenodd">
        <g id="COM-18102-[01][01]---Create-Task" transform="translate(-1312.000000, -469.000000)">
            <g id="page">
                <g id="organisms/actions-menu" transform="translate(870.000000, 128.000000)">
                    <g id="Actions-menu">
                        <g id="options" transform="translate(24.000000, 65.000000)">
                            <g id="option-smartplan" transform="translate(360.000000, 260.000000)">
                                <g id="smartplan" transform="translate(58.000000, 16.000000)">
                                    <rect id="Rectangle-3" fill="#E5F4F6" x="0" y="0" width="48" height="48" rx="24"></rect>
                                    <g id="atoms/icons/smart-plan" transform="translate(12.000000, 12.000000)">
                                        <mask id="mask-2" fill="white">
                                            <use xlink:href="#path-1"></use>
                                        </mask>
                                        <use id="Combined-Shape" fill="#0099A7" fill-rule="nonzero" xlink:href="#path-1"></use>
                                    </g>
                                </g>
                            </g>
                        </g>
                    </g>
                </g>
            </g>
        </g>
    </g>
</svg>