<?xml version="1.0" encoding="UTF-8"?>
<svg width="195px" height="197px" viewBox="0 0 195 197" version="1.1" xmlns="http://www.w3.org/2000/svg" xmlns:xlink="http://www.w3.org/1999/xlink">
    <!-- Generator: Sketch 62 (91390) - https://sketch.com -->
    <title>Illustration/data-driven-video</title>
    <desc>Created with Sketch.</desc>
    <defs>
        <circle id="path-1" cx="96.9491525" cy="96.9491525" r="96.9491525"></circle>
        <path d="M3.52542373,169.220339 L132.20339,169.220339 L132.20339,169.220339 L132.20339,0 L3.52542373,0 C1.57838597,3.57665034e-16 5.09062716e-15,1.57838597 0,3.52542373 L0,165.694915 C2.38443356e-16,167.641953 1.57838597,169.220339 3.52542373,169.220339 Z" id="path-3"></path>
        <rect id="path-5" x="0" y="0" width="49.3559322" height="70.5084746" rx="3.52542373"></rect>
        <circle id="path-7" cx="96.9491525" cy="96.9491525" r="96.9491525"></circle>
    </defs>
    <g id="Page-1" stroke="none" stroke-width="1" fill="none" fill-rule="evenodd">
        <g id="What's-Next-01" transform="translate(-1007.000000, -403.000000)">
            <g id="Group-3-Copy-2" transform="translate(954.000000, 400.000000)">
                <g id="Text-Copy-2">
                    <g id="Illustration/advertising" transform="translate(46.000000, 0.000000)">
                        <rect id="Background" x="0" y="0" width="208" height="208"></rect>
                        <g id="mask" stroke-width="1" fill-rule="evenodd" transform="translate(7.932203, 3.525424)">
                            <mask id="mask-2" fill="white">
                                <use xlink:href="#path-1"></use>
                            </mask>
                            <use id="Oval" fill="#E5F4F6" xlink:href="#path-1"></use>
                            <path d="M62.6565474,79.3220339 C65.8014936,81.2965002 59.1682747,92.4904553 59.1682747,92.4904553 C59.1682747,92.4904553 75.721921,88.2979818 90.3679873,86.6767136 C89.0996395,91.1726568 76.6842467,94.7186631 76.6842467,94.7186631 L94.5296351,106.578849 C94.5296351,106.578849 89.1186078,108.511875 83.7025223,106.269641 C78.2864368,104.028045 74.4624251,101.142532 74.4624251,101.142532 L59.7360595,106.017175 L72.3291222,112.957453 L76.6779661,127.79661 L69.096408,127.79661 L69.096408,127.79661 C67.7951818,122.880527 66.2282806,119.030674 66.2282806,119.030674 L53.1414096,114.010034 L48.6876498,117.86716 C48.6876498,117.86716 50.2803558,125.587151 54.1113226,127.494038 C57.763355,129.312307 66.0303779,133.19876 67.9189895,134.174199 C71.1037692,135.819056 67.9961273,138.71732 65.5884162,138.559847 C63.6821008,138.436164 50.7773256,136.25386 45.0444693,135.297547 C39.311613,134.340597 32.9357309,127.60497 30.072148,129.534171 C28.7527504,130.423639 24.090031,134.160889 19.4449616,137.932861 L18.4589222,146.80357 L-16.7457627,166.213255 L-16.7450541,166.121428 C-16.7280462,164.662919 -16.3028494,146.08815 -5.67293081,128.918075 C3.90287997,121.782045 22.1220339,113.860713 22.1220339,113.860713 L22.0742373,114.280034 L50.2531679,93.7846647 C50.2531679,93.7846647 60.7508643,83.8192522 62.6565474,79.3220339 Z" id="Combined-Shape" fill="#CCEBED" mask="url(#mask-2)"></path>
                            <rect id="Rectangle" fill="#CCEBED" fill-rule="nonzero" mask="url(#mask-2)" x="68.7457627" y="140.135593" width="156.881356" height="30.8474576" rx="3.52542373"></rect>
                            <g id="calendar" mask="url(#mask-2)">
                                <g transform="translate(59.050847, 26.440678)">
                                    <g id="mask" stroke="none" stroke-width="1" fill="none" fill-rule="evenodd" transform="translate(7.050847, 8.813559)">
                                        <mask id="mask-4" fill="white">
                                            <use xlink:href="#path-3"></use>
                                        </mask>
                                        <use id="Fill-4" fill="#FFFFFF" xlink:href="#path-3"></use>
                                        <path d="M-3.44514753,44.0677966 C-0.300201326,46.0422629 -6.93342019,57.236218 -6.93342019,57.236218 C-6.93342019,57.236218 9.62022609,53.0437445 24.2662924,51.4224763 C22.9979446,55.9184195 10.5825518,59.4644258 10.5825518,59.4644258 L28.4279402,71.3246118 C28.4279402,71.3246118 23.0169129,73.2576379 17.6008274,71.0154042 C12.1847419,68.773808 8.36073014,65.8882948 8.36073014,65.8882948 L-6.36563537,70.7629377 L6.22742727,77.7032153 L10.5762712,92.5423729 L2.99471311,92.5423729 L2.99471311,92.5423729 C1.69348687,87.6262898 0.126585704,83.7764364 0.126585704,83.7764364 L-12.9602853,78.7557965 L-17.4140451,82.612923 C-17.4140451,82.612923 -15.8213391,90.3329141 -11.9903723,92.2398009 C-8.33833987,94.0580695 -0.0713170228,97.944523 1.81729462,98.9199616 C5.00207428,100.564819 1.89443242,103.463083 -0.513278703,103.30561 C-2.4195941,103.181927 -15.3243693,100.999622 -21.0572256,100.04331 C-26.7900819,99.08636 -33.165964,92.3507332 -36.0295469,94.279934 C-37.3489446,95.169402 -42.0116639,98.9066521 -46.6567334,102.678623 L-47.6427727,111.549333 L-82.8474576,130.959018 L-82.846749,130.867191 C-82.8297411,129.408682 -82.4045444,110.833913 -71.7746257,93.6638374 C-62.1988149,86.5278079 -43.979661,78.6064753 -43.979661,78.6064753 L-44.0274576,79.0257966 L-15.848527,58.5304274 C-15.848527,58.5304274 -5.35083066,48.5650149 -3.44514753,44.0677966 Z" id="Combined-Shape" fill="#F5F5F6" mask="url(#mask-4)"></path>
                                    </g>
                                    <rect id="Rectangle" stroke="none" fill-opacity="0.4" fill="#D7D9DC" fill-rule="nonzero" x="77.559322" y="123.389831" width="14.1016949" height="14.1016949" rx="1.76271186"></rect>
                                    <path d="M63.1050847,123.389831 C61.8177638,123.404328 60.6246063,124.067193 59.9322034,125.152542 C59.2398005,124.067193 58.046643,123.404328 56.759322,123.389831 C54.6257481,123.408332 52.9005036,125.133053 52.8813559,127.266621 C52.8813559,131.144588 59.9322034,136.873401 59.9322034,136.873401 C59.9322034,136.873401 66.9830508,131.144588 66.9830508,127.266621 C66.9639032,125.133053 65.2386587,123.408332 63.1050847,123.389831 Z" id="Path" stroke="none" fill="#373F51" fill-rule="nonzero"></path>
                                    <g id="share" stroke="none" stroke-width="1" fill="none" fill-rule="evenodd" transform="translate(33.491525, 123.389831)">
                                        <rect id="Rectangle" fill="#373F51" fill-rule="nonzero" x="0" y="0" width="14.1016949" height="14.1016949" rx="1.76271186"></rect>
                                        <path d="M8.37288136,6.16949153 C9.10176271,6.16949153 9.69491525,5.57633898 9.69491525,4.84745763 C9.69491525,4.11857627 9.10176271,3.52542373 8.37288136,3.52542373 C7.644,3.52542373 7.05084746,4.11857627 7.05084746,4.84745763 C7.05084746,4.94572881 7.06362712,5.04091525 7.08389831,5.13345763 L5.66491525,6.02010169 C5.43928814,5.84074576 5.15769492,5.72881356 4.84745763,5.72881356 C4.11857627,5.72881356 3.52542373,6.3219661 3.52542373,7.05084746 C3.52542373,7.77972881 4.11857627,8.37288136 4.84745763,8.37288136 C5.15769492,8.37288136 5.43928814,8.26094915 5.66491525,8.08159322 L7.08389831,8.96823729 C7.06362712,9.06077966 7.05084746,9.1559661 7.05084746,9.25423729 C7.05084746,9.98311864 7.644,10.5762712 8.37288136,10.5762712 C9.10176271,10.5762712 9.69491525,9.98311864 9.69491525,9.25423729 C9.69491525,8.52535593 9.10176271,7.93220339 8.37288136,7.93220339 C8.06264407,7.93220339 7.78105085,8.04413559 7.55542373,8.22349153 L6.13644068,7.33684746 C6.15671186,7.24430508 6.16949153,7.14911864 6.16949153,7.05084746 C6.16949153,6.95257627 6.15671186,6.85738983 6.13644068,6.76484746 L7.55542373,5.87820339 C7.78105085,6.05755932 8.06264407,6.16949153 8.37288136,6.16949153 Z" id="Shape" fill="#FFFFFF" fill-rule="nonzero"></path>
                                    </g>
                                    <rect id="Rectangle" stroke="none" fill-opacity="0.4" fill="#D7D9DC" fill-rule="nonzero" x="96.9491525" y="123.389831" width="29.9661017" height="14.1016949" rx="1.76271186"></rect>
                                    <rect id="Rectangle" stroke="none" fill-opacity="0.4" fill="#D7D9DC" fill-rule="nonzero" x="77.559322" y="42.3050847" width="49.3559322" height="29.9661017" rx="3.52542373"></rect>
                                    <path d="M21.1525424,42.3050847 L63.4576271,42.3050847 C65.4046649,42.3050847 66.9830508,43.8834707 66.9830508,45.8305085 L66.9830508,109.288136 C66.9830508,111.235173 65.4046649,112.813559 63.4576271,112.813559 L21.1525424,112.813559 C19.2055046,112.813559 17.6271186,111.235173 17.6271186,109.288136 L17.6271186,45.8305085 C17.6271186,43.8834707 19.2055046,42.3050847 21.1525424,42.3050847 Z" id="Rectangle" stroke="#D7D9DC" stroke-width="1.76271186" fill-opacity="0.4" fill="#EFF0F1" fill-rule="nonzero" stroke-linecap="round" stroke-linejoin="round" stroke-dasharray="3.525423728813559"></path>
                                    <rect id="Rectangle" stroke="none" fill-opacity="0.4" fill="#D7D9DC" fill-rule="nonzero" x="77.559322" y="82.8474576" width="49.3559322" height="29.9661017" rx="3.52542373"></rect>
                                    <path d="M3.52542373,28.2033898 L132.20339,28.2033898 L132.20339,28.2033898 L132.20339,0 L3.52542373,0 C1.57838597,3.57665034e-16 4.64653795e-15,1.57838597 0,3.52542373 L0,24.6779661 C-1.49087357e-15,26.6250039 1.57838597,28.2033898 3.52542373,28.2033898 Z" id="Fill-5" stroke="none" fill="#373F51" fill-rule="evenodd"></path>
                                    <circle id="Oval" stroke="none" fill="#FFFFFF" fill-rule="evenodd" cx="14.9830508" cy="14.1016949" r="3.52542373"></circle>
                                    <circle id="Oval" stroke="none" fill="#FFFFFF" fill-rule="evenodd" cx="25.559322" cy="14.1016949" r="3.52542373"></circle>
                                    <polygon id="Fill-9" stroke="none" fill="#373F51" fill-rule="evenodd" points="40.5423729 28.2033898 158.644068 28.2033898 158.644068 0 40.5423729 0"></polygon>
                                </g>
                            </g>
                            <g id="crafting" transform="translate(47.593220, 125.152542)">
                                <g id="mask">
                                    <mask id="mask-6" fill="white">
                                        <use xlink:href="#path-5"></use>
                                    </mask>
                                    <use id="Rectangle" fill="#3EC5D3" fill-rule="nonzero" xlink:href="#path-5"></use>
                                    <path d="M15.063327,-45.8305085 C18.2082732,-43.8560422 11.5750544,-32.6620871 11.5750544,-32.6620871 C11.5750544,-32.6620871 28.1287007,-36.8545606 42.774767,-38.4758288 C41.5064192,-33.9798856 29.0910264,-30.4338793 29.0910264,-30.4338793 L46.9364147,-18.5736933 C46.9364147,-18.5736933 41.5253875,-16.6406672 36.109302,-18.8829009 C30.6932165,-21.1244971 26.8692047,-24.0100103 26.8692047,-24.0100103 L12.1428392,-19.1353674 L24.7359018,-12.1950898 L29.0847458,1.56319402e-13 L21.5031877,1.56319402e-13 L21.5031877,1.56319402e-13 C20.2019615,-4.91608313 18.6350603,-6.12186865 18.6350603,-6.12186865 L5.54818924,-11.1425086 L1.09442948,-7.28538204 C1.09442948,-7.28538204 2.68713545,0.434608966 6.51810228,2.34149583 C10.1701347,4.15976442 18.4371576,8.0462179 20.3257692,9.02165652 C23.5105489,10.6665138 20.402907,13.5647778 17.9951959,13.4073051 C16.0888805,13.283622 3.18410523,11.1013172 -2.54875107,10.1450048 C-8.28160737,9.18805487 -14.6574895,2.45242807 -17.5210724,4.38162889 C-18.84047,5.27109688 -23.5031893,9.00834701 -28.1482588,12.7803183 L-29.1342981,21.6510275 L-64.3389831,41.0607126 L-64.3382744,40.9688859 C-64.3212665,39.5103765 -63.8960698,20.9356077 -53.2661511,3.76553232 C-43.6903404,-3.37049715 -25.4711864,-11.2918297 -25.4711864,-11.2918297 L-25.5189831,-10.8725085 L2.65994753,-31.3678777 C2.65994753,-31.3678777 13.1576439,-41.3332902 15.063327,-45.8305085 Z" id="Combined-Shape" fill="#33B8C6" mask="url(#mask-6)"></path>
                                </g>
                                <g id="pic" transform="translate(7.050847, 22.915254)" fill="#FFFFFF" fill-rule="nonzero">
                                    <ellipse id="Oval" cx="14.4523402" cy="4.3866591" rx="4.39853833" ry="4.3866591"></ellipse>
                                    <path d="M34.9837583,20.7142845 L25.2100205,8.74910941 C24.8405732,8.29627355 24.0303303,8.29627355 23.660883,8.74910941 L15.6043909,18.6111749 L9.5603114,11.4964977 C9.18988674,11.0593086 8.40407821,11.0593086 8.03365355,11.4964977 L0.214663263,20.7004785 C-0.294548479,21.3014985 0.158952957,22.1961254 0.978969563,22.1961254 L34.2096783,22.1961254 C35.0199211,22.1961254 35.4783094,21.318986 34.9837583,20.7142845 Z" id="Shape"></path>
                                </g>
                            </g>
                            <g id="hand-mask">
                                <mask id="mask-8" fill="white">
                                    <use xlink:href="#path-7"></use>
                                </mask>
                                <g id="Oval"></g>
                                <g id="hand" mask="url(#mask-8)">
                                    <g transform="translate(-16.745763, 76.677966)">
                                        <path d="M24.9992931,45.0123482 L66.9989306,14.4626308 C66.9989306,14.4626308 77.496627,4.49721831 79.4023101,0 C82.5472563,1.97446628 75.9140374,13.1684214 75.9140374,13.1684214 C75.9140374,13.1684214 92.4676837,8.97594792 107.11375,7.35467968 C105.845402,11.8506229 93.4300094,15.3966292 93.4300094,15.3966292 L111.275398,27.2568152 C111.275398,27.2568152 105.864371,29.1898413 100.448285,26.9476075 C95.0321996,24.7060113 91.2081878,21.8204981 91.2081878,21.8204981 L76.4818223,26.6951411 L89.0748849,33.6354187 L93.4237288,48.4745763 C93.4237288,48.4745763 85.8421707,48.4745763 85.8421707,48.4745763 C84.5409445,43.5584931 82.9740433,39.7086398 82.9740433,39.7086398 L69.8871723,34.6879999 L65.4334125,38.5451264 C65.4334125,38.5451264 67.0261185,46.2651174 70.8570853,48.1720043 C74.5091178,49.9902729 82.7761406,53.8767264 84.6647522,54.852165 C87.8495319,56.4970223 84.7418901,59.3952863 82.3341789,59.2378135 C80.4278635,59.1141305 67.5230883,56.9318256 61.790232,55.9755133 C56.0573757,55.0185633 49.6814936,48.2829365 46.8179107,50.2121374 C43.9543278,52.1426133 25.3419873,67.4876016 25.3419873,67.4876016 L24.9992931,45.0123482 Z" id="Fill-19" fill="#FEC3BD"></path>
                                        <path d="M35.2046849,67.481536 L0,86.8912211 C0,86.8912211 0,67.481536 11.0728319,49.5960408 C20.6486427,42.4600113 38.8677966,34.5386787 38.8677966,34.5386787 L35.2046849,67.481536 Z" id="Fill-22" fill="#0099A7"></path>
                                    </g>
                                </g>
                            </g>
                        </g>
                    </g>
                </g>
            </g>
        </g>
    </g>
</svg>