<?xml version="1.0" encoding="UTF-8"?>
<svg width="194px" height="194px" viewBox="0 0 194 194" version="1.1" xmlns="http://www.w3.org/2000/svg" xmlns:xlink="http://www.w3.org/1999/xlink">
    <!-- Generator: Sketch 62 (91390) - https://sketch.com -->
    <title>Illustration/App</title>
    <desc>Created with Sketch.</desc>
    <defs>
        <circle id="path-1" cx="96.9491525" cy="96.9491525" r="96.9491525"></circle>
    </defs>
    <g id="Page-1" stroke="none" stroke-width="1" fill="none" fill-rule="evenodd">
        <g id="Introduction" transform="translate(-240.000000, -407.000000)">
            <g id="Group-4" transform="translate(186.000000, 400.000000)">
                <g id="Group-3">
                    <g id="Illustration/App" transform="translate(47.000000, 0.000000)">
                        <rect id="Rectangle-Copy-4" x="0" y="0" width="208" height="208"></rect>
                        <g id="mask" stroke-width="1" fill-rule="evenodd" transform="translate(7.050847, 7.050847)">
                            <mask id="mask-2" fill="white">
                                <use xlink:href="#path-1"></use>
                            </mask>
                            <use id="Oval" fill="#E5F4F6" xlink:href="#path-1"></use>
                            <path d="M144.475319,65.9199785 C139.402501,66.7527888 135.079076,62.428686 135.91053,57.3551895 C136.414421,54.2830148 138.892506,51.8056077 141.964681,51.3010386 C147.037499,50.4689066 151.361602,54.7930094 150.52947,59.8658276 C150.026257,62.9386805 147.547494,65.4160876 144.475319,65.9199785 L144.475319,65.9199785 Z M167.457627,61.1211467 L167.457627,55.0046029 L160.68121,53.6868909 C160.18071,51.9100481 159.417753,50.2437494 158.434386,48.7327549 L162.133881,43.2476006 L157.808421,38.9228195 L152.085225,42.7830444 C150.516584,41.902083 148.805525,41.246957 146.992739,40.8637829 L145.731316,34.3728814 L139.614772,34.3728814 L138.29706,41.1499767 C136.519539,41.6497985 134.853241,42.4127557 133.342246,43.3961229 L127.857092,39.6966278 L123.532311,44.022087 L127.392536,49.745284 C126.512252,51.3139241 125.856448,53.024983 125.472596,54.8377696 L118.983051,56.0998705 L118.983051,62.2157361 L125.75879,63.5334481 C126.259968,65.3109691 127.022925,66.9772678 128.005614,68.4882623 L124.306797,73.9734166 L128.631578,78.2981976 L134.354775,74.438651 C135.923415,75.318256 137.634474,75.9740602 139.447261,76.3579125 L140.709362,82.8474576 L146.825906,82.8474576 L148.143618,76.0717187 C149.92046,75.5705405 151.586759,74.8075832 153.097754,73.8248942 L158.582908,77.5237112 L162.907689,73.1989302 L159.047464,67.4757332 C159.928425,65.907093 160.583551,64.1960341 160.966726,62.3832476 L167.457627,61.1211467 Z" id="Fill-32" fill="#CCEBED" mask="url(#mask-2)"></path>
                            <path d="M74.0847458,111.050847 C77.950739,111.050847 81.0847458,114.184854 81.0847458,118.050847 L81.0847458,139.305085 C81.0847458,143.171078 77.950739,146.305085 74.0847458,146.305085 L66.156678,146.304847 L66.1568573,155.41485 C66.1568573,155.635863 66.0836928,155.849334 65.9507766,156.022879 L65.863964,156.121957 C65.4734397,156.512481 64.8402748,156.512481 64.4497505,156.121957 L64.4497505,156.121957 L54.632678,146.304847 L33.440678,146.305085 C29.5746847,146.305085 26.440678,143.171078 26.440678,139.305085 L26.440678,118.050847 C26.440678,114.184854 29.5746847,111.050847 33.440678,111.050847 L74.0847458,111.050847 Z" id="Combined-Shape" fill="#CCEBED" mask="url(#mask-2)"></path>
                            <path d="M65.220339,12.3389831 L135.728814,12.3389831 C141.569927,12.3389831 146.305085,16.4930079 146.305085,21.6172573 L146.305085,173.162404 C146.305085,178.286653 141.569927,182.440678 135.728814,182.440678 L65.220339,182.440678 C59.3792257,182.440678 54.6440678,178.286653 54.6440678,173.162404 L54.6440678,21.6172573 C54.6440678,16.4930079 59.3792257,12.3389831 65.220339,12.3389831 Z" id="Rectangle" fill="#CCEBED" mask="url(#mask-2)"></path>
                        </g>
                        <g id="Phone" stroke-width="1" fill-rule="evenodd" transform="translate(58.169492, 15.864407)">
                            <path d="M89.1610169,160.823421 C89.1610169,162.662048 88.2803027,164.306751 86.9146196,165.504828 C85.4226248,166.813714 83.3558464,167.601695 81.0847458,167.601695 L10.5762712,167.601695 C8.30517054,167.601695 6.23839217,166.813714 4.74639735,165.504828 C3.38071421,164.306751 2.5,162.662048 2.5,160.823421 L2.5,9.27827427 C2.5,7.43964644 3.38071421,5.79494367 4.74639735,4.5968671 C6.23839217,3.28798073 8.30517054,2.5 10.5762712,2.5 L81.0847458,2.5 C83.3558464,2.5 85.4226248,3.28798073 86.9146196,4.5968671 C88.2803027,5.79494367 89.1610169,7.43964644 89.1610169,9.27827427 L89.1610169,160.823421 Z" id="Rectangle" stroke="#373F51" stroke-width="5" fill="#FFFFFF"></path>
                            <rect id="Rectangle" fill-opacity="0.4" fill="#D7D9DC" fill-rule="nonzero" x="14.1016949" y="23.7966102" width="21.1525424" height="49.3559322" rx="3"></rect>
                            <rect id="Rectangle" fill-opacity="0.4" fill="#D7D9DC" fill-rule="nonzero" x="14.1016949" y="80.2033898" width="12.3389831" height="12.3389831" rx="3"></rect>
                            <rect id="Rectangle" fill-opacity="0.4" fill="#D7D9DC" fill-rule="nonzero" x="30.8474576" y="80.2033898" width="12.3389831" height="12.3389831" rx="3"></rect>
                            <rect id="Rectangle" fill-opacity="0.4" fill="#D7D9DC" fill-rule="nonzero" x="48.4745763" y="80.2033898" width="12.3389831" height="12.3389831" rx="3"></rect>
                            <rect id="Rectangle" fill="#0099A7" fill-rule="nonzero" x="65.220339" y="80.2033898" width="12.3389831" height="12.3389831" rx="3"></rect>
                            <rect id="Rectangle" fill-opacity="0.4" fill="#D7D9DC" fill-rule="nonzero" x="42.3050847" y="23.7966102" width="35.2542373" height="21.1525424" rx="3"></rect>
                            <rect id="Rectangle" fill-opacity="0.4" fill="#D7D9DC" fill-rule="nonzero" x="42.3050847" y="52" width="35.2542373" height="21.1525424" rx="3"></rect>
                            <rect id="Rectangle" fill-opacity="0.4" fill="#D7D9DC" fill-rule="nonzero" x="14.1016949" y="110.169492" width="45.8305085" height="7.05084746" rx="3"></rect>
                            <rect id="Rectangle" fill-opacity="0.4" fill="#D7D9DC" fill-rule="nonzero" x="14.1016949" y="99.5932203" width="45.8305085" height="7.05084746" rx="3"></rect>
                            <rect id="Rectangle" fill="#CACFD3" fill-rule="nonzero" x="37.0169492" y="124.271186" width="45.8305085" height="7.05084746" rx="3"></rect>
                            <rect id="Rectangle" fill="#CACFD3" fill-rule="nonzero" x="54.6440678" y="134.847458" width="28.2033898" height="7.05084746" rx="3"></rect>
                            <path d="M21.1525424,0.881355932 L70.5084746,0.881355932 L70.5084746,6.16949153 C70.5084746,8.11652929 68.9300886,9.69491525 66.9830508,9.69491525 L24.6779661,9.69491525 C22.7309283,9.69491525 21.1525424,8.11652929 21.1525424,6.16949153 L21.1525424,0.881355932 Z" id="Rectangle" fill="#373F51"></path>
                        </g>
                        <g id="speech-bubble" stroke-width="1" fill-rule="evenodd" transform="translate(36.135593, 115.457627)">
                            <g id="Speech-bubble">
                                <path d="M47.6440678,0 C51.510061,-4.14386321e-15 54.6440678,3.13400675 54.6440678,7 L54.6440678,28.2542373 C54.6440678,32.1202305 51.510061,35.2542373 47.6440678,35.2542373 L39.716,35.254 L39.7161793,44.3640023 C39.7161793,44.585016 39.6430148,44.7984863 39.5100987,44.9720318 L39.4232861,45.0711091 C39.0327618,45.4616333 38.3995968,45.4616333 38.0090725,45.0711091 L38.0090725,45.0711091 L28.192,35.254 L7,35.2542373 C3.13400675,35.2542373 4.73447626e-16,32.1202305 0,28.2542373 L0,7 C-4.73447626e-16,3.13400675 3.13400675,7.10171439e-16 7,0 L47.6440678,0 Z" id="Combined-Shape" fill="#3EC5D3"></path>
                                <rect id="Rectangle-48" fill="#FFFFFF" x="8.81355932" y="10.5762712" width="34.3728814" height="3.52542373" rx="1.76271186"></rect>
                                <path d="M10.5762712,17.6271186 L29.7046643,17.6271186 C30.6781832,17.6271186 31.4673762,18.4163116 31.4673762,19.3898305 C31.4673762,20.3633494 30.6781832,21.1525424 29.7046643,21.1525424 L10.5762712,21.1525424 C9.60275231,21.1525424 8.81355932,20.3633494 8.81355932,19.3898305 C8.81355932,18.4163116 9.60275231,17.6271186 10.5762712,17.6271186 Z" id="Rectangle-48-Copy" fill="#FFFFFF"></path>
                                <path d="M35.197216,17.6271186 L40.0605965,17.6271186 C41.0341154,17.6271186 41.8233084,18.4163116 41.8233084,19.3898305 C41.8233084,20.3633494 41.0341154,21.1525424 40.0605965,21.1525424 L35.197216,21.1525424 C34.2236971,21.1525424 33.4345041,20.3633494 33.4345041,19.3898305 C33.4345041,18.4163116 34.2236971,17.6271186 35.197216,17.6271186 Z" id="Rectangle-48-Copy-2" fill="#FFFFFF"></path>
                            </g>
                            <circle id="Oval" fill="#D7D9DC" cx="39.6610169" cy="52.8813559" r="3.52542373"></circle>
                            <circle id="Oval" fill="#D7D9DC" cx="50.2372881" cy="52.8813559" r="3.52542373"></circle>
                            <circle id="Oval" fill="#D7D9DC" cx="60.8135593" cy="52.8813559" r="3.52542373"></circle>
                        </g>
                        <g id="gear" stroke-width="1" fill-rule="evenodd" transform="translate(124.271186, 39.661017)">
                            <path d="M25.4922681,31.5470972 C20.4194499,32.3799074 16.0960252,28.0558046 16.9274791,22.9823082 C17.43137,19.9101335 19.9094553,17.4327264 22.98163,16.9281573 C28.0544482,16.0960252 32.3785511,20.420128 31.546419,25.4929463 C31.0432063,28.5657992 28.5644428,31.0432063 25.4922681,31.5470972 L25.4922681,31.5470972 Z M48.4745763,26.7482654 L48.4745763,20.6317215 L41.6981592,19.3140095 C41.1976592,17.5371668 40.4347019,15.870868 39.4513347,14.3598735 L43.1508298,8.87471921 L38.8253706,4.54993819 L33.1021737,8.41016299 C31.5335335,7.52920164 29.8224746,6.87407565 28.0096881,6.49090154 L26.7482654,0 L20.6317215,0 L19.3140095,6.7770953 C17.5364886,7.2769171 15.8701898,8.03987439 14.3591953,9.02324156 L8.87404103,5.32374643 L4.54926001,9.64920564 L8.40948481,15.3724026 C7.52920164,16.9410428 6.87339746,18.6521017 6.48954517,20.4648882 L0,21.7269891 L0,27.8428547 L6.77573893,29.1605668 C7.2769171,30.9380877 8.03987439,32.6043864 9.02256338,34.115381 L5.32374643,39.6005352 L9.64852745,43.9253163 L15.3717244,40.0657696 C16.9403646,40.9453746 18.6514235,41.6011788 20.46421,41.9850311 L21.7263109,48.4745763 L27.8428547,48.4745763 L29.1605668,41.6988373 C30.9374095,41.1976592 32.6037082,40.4347019 34.1147028,39.4520129 L39.5998571,43.1508298 L43.9246381,38.8260488 L40.0644133,33.1028519 C40.9453746,31.5342117 41.6005006,29.8231528 41.9836747,28.0103663 L48.4745763,26.7482654 Z" id="Fill-32" fill="#373F51"></path>
                            <path d="M25.4922681,31.5470972 C20.4194499,32.3799074 16.0960252,28.0558046 16.9274791,22.9823082 C17.43137,19.9101335 19.9094553,17.4327264 22.98163,16.9281573 C28.0544482,16.0960252 32.3785511,20.420128 31.546419,25.4929463 C31.0432063,28.5657992 28.5644428,31.0432063 25.4922681,31.5470972 L25.4922681,31.5470972 Z" id="Path" fill="#FFFFFF"></path>
                        </g>
                    </g>
                </g>
            </g>
        </g>
    </g>
</svg>