<?xml version="1.0" encoding="UTF-8"?>
<svg width="194px" height="194px" viewBox="0 0 194 194" version="1.1" xmlns="http://www.w3.org/2000/svg" xmlns:xlink="http://www.w3.org/1999/xlink">
    <!-- Generator: Sketch 62 (91390) - https://sketch.com -->
    <title>Illustration/Guide</title>
    <desc>Created with Sketch.</desc>
    <defs>
        <circle id="path-1" cx="104" cy="104" r="96.9491525"></circle>
        <path d="M2.65,66.1016949 L89.0110169,66.1016949 C90.4745715,66.1016949 91.6610169,64.9152495 91.6610169,63.4516949 L91.6610169,4 C91.6610169,1.790861 89.8701559,-4.05812251e-16 87.6610169,0 L6.625,0 C2.96611353,6.7212654e-16 -4.4808436e-16,2.96611353 0,6.625 L0,63.4516949 C4.07892654e-15,64.9152495 1.18644541,66.1016949 2.65,66.1016949 Z" id="path-3"></path>
        <path d="M2.74180791,0.0918079096 L88.919209,0.0918079096 C90.3827636,0.0918079096 91.569209,1.27825332 91.569209,2.74180791 L91.569209,7.87711864 L91.569209,7.87711864 L0.0918079096,7.87711864 L0.0918079096,2.74180791 C0.0918079096,1.27825332 1.27825332,0.0918079096 2.74180791,0.0918079096 Z" id="path-5"></path>
    </defs>
    <g id="Page-1" stroke="none" stroke-width="1" fill="none" fill-rule="evenodd">
        <g id="Education-01" transform="translate(-239.000000, -407.000000)">
            <g id="Group" transform="translate(186.000000, 400.000000)">
                <g id="Illustration/All-in-one-App" transform="translate(46.000000, 0.000000)">
                    <rect id="Rectangle" fill="#F5F5F6" fill-rule="nonzero" x="109.288136" y="33.4915254" width="91.6610169" height="69.6271186" rx="4"></rect>
                    <mask id="mask-2" fill="white">
                        <use xlink:href="#path-1"></use>
                    </mask>
                    <use id="Oval" fill="#E5F4F6" fill-rule="evenodd" xlink:href="#path-1"></use>
                    <g id="BACKGROUND" stroke-width="1" fill-rule="evenodd" mask="url(#mask-2)">
                        <g transform="translate(0.000000, 104.881356)">
                            <path d="M4,102.217017 L45.5489492,102.217017 C47.7580882,102.217017 49.5489492,100.426156 49.5489492,98.2170169 L49.5489492,23.8860339 C49.5489492,21.6768949 47.7580882,19.8860339 45.5489492,19.8860339 L4,19.8860339 C1.790861,19.8860339 -2.705415e-16,21.6768949 0,23.8860339 L0,98.2170169 C-1.73547709e-16,100.426156 1.790861,102.217017 4,102.217017 Z" id="Fill-6" fill="#CCEBED"></path>
                            <path d="M63.4580339,58.0390508 L123.340949,58.0390508 C125.550088,58.0390508 127.340949,56.2481898 127.340949,54.0390508 L127.340949,23.3898305 C127.340949,21.1806915 125.550088,19.3898305 123.340949,19.3898305 L63.4580339,19.3898305 C61.2488949,19.3898305 59.4580339,21.1806915 59.4580339,23.3898305 L59.4580339,54.0390508 C59.4580339,56.2481898 61.2488949,58.0390508 63.4580339,58.0390508 Z" id="Fill-8" fill="#CCEBED"></path>
                            <path d="M63.4580339,115.464678 L123.340949,115.464678 C125.550088,115.464678 127.340949,113.673817 127.340949,111.464678 L127.340949,71.4536949 C127.340949,69.2445559 125.550088,67.4536949 123.340949,67.4536949 L63.4580339,67.4536949 C61.2488949,67.4536949 59.4580339,69.2445559 59.4580339,71.4536949 L59.4580339,111.464678 C59.4580339,113.673817 61.2488949,115.464678 63.4580339,115.464678 Z" id="Fill-9" fill="#CCEBED"></path>
                            <path d="M131.340949,37.4514576 L204.553492,37.4514576 C206.762631,37.4514576 208.553492,35.6605966 208.553492,33.4514576 L208.553492,23.3907119 C208.553492,21.1815729 206.762631,19.3907119 204.553492,19.3907119 L131.340949,19.3907119 C129.13181,19.3907119 127.340949,21.1815729 127.340949,23.3907119 L127.340949,33.4514576 C127.340949,35.6605966 129.13181,37.4514576 131.340949,37.4514576 Z" id="Fill-10" fill="#CCEBED"></path>
                            <path d="M139.764068,73.971322 L210.05139,73.971322 C212.260529,73.971322 214.05139,72.180461 214.05139,69.971322 L214.05139,49.2329492 C214.05139,47.0238102 212.260529,45.2329492 210.05139,45.2329492 L139.764068,45.2329492 C137.554929,45.2329492 135.764068,47.0238102 135.764068,49.2329492 L135.764068,69.971322 C135.764068,72.180461 137.554929,73.971322 139.764068,73.971322 Z" id="Fill-11" fill="#CCEBED"></path>
                            <g id="a-item/illustration/house-teal" fill="none" transform="translate(66.101695, 66.101695)" stroke-width="1">
                                <g id="a-item/illustration/house" transform="translate(0.949153, 0.000000)" fill="#0099A7">
                                    <path d="M18.1740896,0.53648321 L18.1859275,0.548321044 L18.1859275,0.548321044 L24.9865255,7.50285124 L24.9874724,5.83862429 C24.9874724,5.42441072 25.3232588,5.08862429 25.7374724,5.08862429 L30.0149226,5.08862429 C30.4291362,5.08862429 30.7649226,5.42441072 30.7649226,5.83862429 L30.7645255,13.4108512 L34.830206,17.568344 C35.119812,17.8644879 35.1145121,18.3393321 34.8183682,18.6289382 C34.6791542,18.7650787 34.4924502,18.8417404 34.2977354,18.8427128 L28.4745255,18.8708512 L28.4745763,35.3855932 C28.4745763,35.765289 28.1924224,36.0790842 27.8263468,36.1287466 L27.7245763,36.1355932 L21.6313559,36.1355932 C21.2171424,36.1355932 20.8813559,35.7998068 20.8813559,35.3855932 L20.8813559,35.3855932 L20.8813559,26.4252899 C20.8813559,26.0110764 20.5455695,25.6752899 20.1313559,25.6752899 L20.1313559,25.6752899 L14.0381356,25.6752899 C13.623922,25.6752899 13.2881356,26.0110764 13.2881356,26.4252899 L13.2881356,26.4252899 L13.2881356,35.3855932 C13.2881356,35.7998068 12.9523492,36.1355932 12.5381356,36.1355932 L12.5381356,36.1355932 L6.44491525,36.1355932 C6.03070169,36.1355932 5.69491525,35.7998068 5.69491525,35.3855932 L5.69491525,35.3855932 L5.69452555,18.9848512 L0.845809889,19.0097694 C0.431601491,19.0118379 0.094142368,18.6777325 0.0920738408,18.2635241 C0.0910885007,18.0662165 0.167895071,17.8764683 0.305848517,17.7354006 L17.1134955,0.548321044 C17.4031016,0.25217714 17.8779457,0.246877162 18.1740896,0.53648321 Z" id="Combined-Shape" fill-rule="nonzero"></path>
                                </g>
                            </g>
                            <g id="a-item/illustration/house-white" fill="none" transform="translate(8.813559, 0.000000)" stroke-width="1">
                                <g id="a-item/illustration/house" transform="translate(0.700565, 0.000000)" fill="#FFFFFF">
                                    <path d="M13.4485306,0.427225193 L13.4543138,0.4330084 L18.4422212,5.48942773 L18.4431344,4.32338362 C18.4431344,3.99201277 18.7117635,3.72338362 19.0431344,3.72338362 L22.1074429,3.72338362 C22.4388137,3.72338362 22.7074429,3.99201277 22.7074429,4.32338362 L22.7072212,9.81342773 L25.6209,12.7665811 C25.8536121,13.0024872 25.8510229,13.3823774 25.6151168,13.6150895 C25.5035712,13.7251248 25.3534076,13.7871607 25.1967246,13.7879364 L21.0162212,13.8084277 L21.0169492,25.840678 C21.0169492,26.1389117 20.7993595,26.3863247 20.5142723,26.432825 L20.4169492,26.440678 L16.0124294,26.440678 C15.6810585,26.440678 15.4124294,26.1720488 15.4124294,25.840678 L15.4124294,25.840678 L15.4124294,19.3867975 C15.4124294,19.0554267 15.1438002,18.7867975 14.8124294,18.7867975 L14.8124294,18.7867975 L10.4079096,18.7867975 C10.0765388,18.7867975 9.8079096,19.0554267 9.8079096,19.3867975 L9.8079096,19.3867975 L9.8079096,25.840678 C9.8079096,26.1720488 9.53928045,26.440678 9.2079096,26.440678 L9.2079096,26.440678 L4.80338983,26.440678 C4.47201898,26.440678 4.20338983,26.1720488 4.20338983,25.840678 L4.20338983,25.840678 L4.20322124,13.8914277 L0.744133618,13.908994 C0.412766829,13.9106345 0.142811082,13.6433385 0.141170582,13.3119718 C0.140384705,13.1532315 0.202537379,13.0006489 0.314017411,12.8876388 L12.6000222,0.4330084 C12.8327343,0.197102279 13.2126245,0.194513049 13.4485306,0.427225193 Z" id="Combined-Shape" fill-rule="nonzero"></path>
                                </g>
                            </g>
                            <g id="a-item/illustration/house-white" fill="none" transform="translate(146.305085, 24.677966)" stroke-width="1">
                                <g id="a-item/illustration/house" transform="translate(1.016949, 0.000000)" fill="#FFFFFF">
                                    <path d="M19.3860562,0.487456116 L19.4758193,0.564872034 C19.4760002,0.565052802 19.476181,0.565233657 19.4758193,0.565956642 L26.7720631,7.86974642 L26.7722918,6.13684986 C26.7722918,5.69502206 27.130464,5.33684986 27.5722918,5.33684986 L32.1624171,5.33684986 C32.6042449,5.33684986 32.9624171,5.69502206 32.9624171,6.13684986 L32.9620631,14.0647464 L37.2893332,18.3965642 C37.6016028,18.7091334 37.6013598,19.2156653 37.2887906,19.5279349 C37.139742,19.6768406 36.9379702,19.7609388 36.7272872,19.7619687 L30.5080631,19.7917464 L30.5084746,37.0983051 C30.5084746,37.5061461 30.2032864,37.8427067 29.8088249,37.8920719 L29.7084746,37.8983051 L23.1728814,37.8983051 C22.7310536,37.8983051 22.3728814,37.5401329 22.3728814,37.0983051 L22.3728814,37.0983051 L22.3728814,27.7277431 C22.3728814,27.2859153 22.0147092,26.9277431 21.5728814,26.9277431 L21.5728814,26.9277431 L15.0372881,26.9277431 C14.5954603,26.9277431 14.2372881,27.2859153 14.2372881,27.7277431 L14.2372881,27.7277431 L14.2372881,37.0983051 C14.2372881,37.5401329 13.8791159,37.8983051 13.4372881,37.8983051 L13.4372881,37.8983051 L6.90169492,37.8983051 C6.45986712,37.8983051 6.10169492,37.5401329 6.10169492,37.0983051 L6.10169492,37.0983051 L6.10106309,19.9117464 L0.926504893,19.936976 C0.484682372,19.9391358 0.124763596,19.5827188 0.122603805,19.1408963 C0.121560662,18.9275032 0.205816476,18.7225374 0.356637605,18.5715715 L18.3449911,0.565956642 C18.6283793,0.281310036 19.0727633,0.255232316 19.3860562,0.487456116 Z" id="Combined-Shape" fill-rule="nonzero"></path>
                                </g>
                            </g>
                            <path d="M139.268746,111.65722 L177.349559,111.65722 C179.558698,111.65722 181.349559,109.866359 181.349559,107.65722 L181.349559,85.3271186 C181.349559,83.1179796 179.558698,81.3271186 177.349559,81.3271186 L139.268746,81.3271186 C137.059607,81.3271186 135.268746,83.1179796 135.268746,85.3271186 L135.268746,107.65722 C135.268746,109.866359 137.059607,111.65722 139.268746,111.65722 Z" id="Fill-12" fill="#CCEBED"></path>
                        </g>
                    </g>
                    <rect id="Rectangle" fill="#CCEBED" fill-rule="nonzero" mask="url(#mask-2)" x="110.169492" y="55.5254237" width="91.6610169" height="47.5932203" rx="4"></rect>
                    <g id="man" stroke-width="1" fill-rule="evenodd" mask="url(#mask-2)">
                        <g transform="translate(14.983051, 43.186441)">
                            <path d="M73.5093153,61.3207708 L11.224861,61.4659302 L26.2897017,162.97513 C26.2897017,162.97513 50.1247087,175.616032 69.4305763,175.28604 L69.4305763,168.421381 L72.9857898,107.834418 L73.5093153,61.3207708 Z" id="Fill-4" fill="#373F51"></path>
                            <path d="M16.3753993,62.8189261 C19.4578536,65.1636854 17.7492569,124.036499 16.8830603,155.839082 C10.4912908,151.623909 5.20447729,145.782635 0.663290847,140.917021 C0.663290847,123.520906 1.21775186,81.3033397 2.05539254,71.5435566 C2.89303322,61.7845668 12.126118,59.58576 16.3753993,62.8189261" id="Fill-7" fill="#373F51"></path>
                            <path d="M85.8247749,69.9161064 L101.789816,116.441912 L122.706744,72.2478569 C122.706744,72.2478569 125.574236,74.6711451 126.744236,75.8332129 C128.365578,84.3650908 127.437511,103.038291 121.033049,117.496318 C116.001653,128.855233 109.723314,137.678223 105.093287,143.318813 C101.660652,147.498766 95.7283505,142.166316 94.6422459,141.125694 L94.5129173,141.076696 L59.1908156,61.4714827 L69.4297037,61.2271708 C76.141141,60.8432522 83.5878936,63.4926081 85.8247749,69.9161064 Z" id="Combined-Shape" fill="#373F51"></path>
                            <path d="M160.465936,72.2475397 C160.465936,72.2475397 156.435584,85.3221905 141.700723,85.3221905 C126.965862,85.3221905 122.631706,72.3205159 122.631706,72.3205159 L160.465936,72.2475397 Z" id="Fill-13" fill="#FEC3BD"></path>
                            <path d="M68.0857505,12.5146373 C68.0857505,12.5146373 67.9358319,30.5350169 67.5289098,38.9669492 C66.982381,50.3234847 64.1283742,51.8052203 56.4087539,52.2867051 C53.9880025,52.4377195 51.7791678,52.4374813 49.918778,52.3327151 L49.9189424,61.4904407 L35.7456814,61.4904407 L35.745936,34.877996 C34.8790577,30.1348004 34.589642,24.9589891 34.589642,19.548122 L34.589642,19.548122 L37.7926658,12.5146373 Z" id="Combined-Shape" fill="#FEC3BD"></path>
                            <path d="M63.4576271,39.6610169 C63.4576271,39.6610169 61.8185696,46.7118644 55.6401565,46.7118644 C49.4613913,46.7118644 47.5932203,40.0686871 47.5932203,39.7021479 L63.4576271,39.6610169 Z" id="Fill-31" fill="#FFFFFF" transform="translate(55.525424, 43.186441) rotate(-360.000000) translate(-55.525424, -43.186441) "></path>
                            <path d="M34.3731722,24.8783247 L37.7919519,27.3190637 C37.7919519,27.3190637 36.9352739,18.3112536 44.6295112,18.2882502 C52.9868807,18.2644536 59.8236468,17.8186637 65.5221417,17.8186637 C71.2198434,17.8186637 74.3086434,8.99805356 73.169579,0.526460339 C66.0464603,0.371782373 54.1259451,0.526460339 46.1493214,0.526460339 C38.1719044,0.526460339 30.9543925,4.76225695 30.9543925,13.2338502 C30.9543925,15.5873349 30.57444,26.2894637 30.57444,26.2894637 L34.3731722,24.8783247 Z" id="Fill-19" fill="#373F51"></path>
                            <path d="M38.2989783,27.0744346 C38.2989783,30.0307668 36.2881647,32.4270854 33.808558,32.4270854 C31.328158,32.4270854 29.3181376,30.0307668 29.3181376,27.0744346 C29.3181376,24.1181024 31.328158,21.7217837 33.808558,21.7217837 C36.2881647,21.7217837 38.2989783,24.1181024 38.2989783,27.0744346" id="Fill-20" fill="#FEC3BD"></path>
                            <polygon id="Fill-21" fill="#373F51" points="29.6180542 61.3207708 59.7334576 61.3207708 49.8935593 138.357696"></polygon>
                            <polygon id="Fill-22" fill="#3EC5D3" points="38.130647 61.3527293 49.8179555 61.1909123 46.55982 71.3898305 54.988993 101.195077 49.8179555 141.078219 40.3308122 102.565009 44.6757559 71.3898305"></polygon>
                        </g>
                    </g>
                    <g id="kw" stroke-width="1" fill-rule="evenodd" transform="translate(104.881356, 33.491525)">
                        <mask id="mask-4" fill="white">
                            <use xlink:href="#path-3"></use>
                        </mask>
                        <use id="Fill-4" fill="#FFFFFF" xlink:href="#path-3"></use>
                        <rect id="Rectangle" fill-opacity="0.4" fill="#D7D9DC" fill-rule="nonzero" mask="url(#mask-4)" x="32.9957627" y="15.6624294" width="21.4096045" height="7.78531073" rx="2.20833333"></rect>
                        <rect id="Rectangle" fill-opacity="0.4" fill="#D7D9DC" fill-rule="nonzero" mask="url(#mask-4)" x="32.9957627" y="27.3403955" width="8.75847458" height="7.78531073" rx="2"></rect>
                        <rect id="Rectangle" fill-opacity="0.4" fill="#D7D9DC" fill-rule="nonzero" mask="url(#mask-4)" x="45.6468927" y="27.3403955" width="8.75847458" height="7.78531073" rx="2"></rect>
                        <g id="house" mask="url(#mask-4)">
                            <g transform="translate(7.877119, 15.662429)">
                                <rect id="Rectangle-Copy-13" fill="#3EC5D3" x="0" y="0" width="19.4632768" height="19.4632768" rx="2.20833333"></rect>
                                <g id="a-item/illustration/house-white" fill="none" transform="translate(4.325173, 4.595496)" stroke-width="1">
                                    <g id="a-item/illustration/house" transform="translate(0.277255, 0.000000)" fill="#FFFFFF">
                                        <path d="M5.37569508,0.224874473 C5.37727616,0.226422543 5.37884087,0.227987252 5.38038894,0.229568339 L7.29852543,2.18899115 L7.29903018,1.79919043 C7.29903018,1.62545413 7.43987128,1.48461303 7.61360758,1.48461303 L8.67208981,1.48461303 C8.84582611,1.48461303 8.98666721,1.62545413 8.98666721,1.79919043 L8.98652543,3.91199115 L10.0158168,4.96386036 C10.1373639,5.08799981 10.1352624,5.28716811 10.0111229,5.40871522 C9.95271843,5.46590007 9.87434899,5.49810664 9.79261146,5.49851434 L8.31752543,5.50499115 L8.31763967,10.2280309 C8.31763967,10.3769477 8.21416458,10.5016966 8.07519199,10.5343001 L8.00306228,10.5426083 L6.41417983,10.5426083 C6.24044353,10.5426083 6.09960243,10.4017672 6.09960243,10.2280309 L6.09960243,10.2280309 L6.09960243,7.80537802 C6.09960243,7.63164172 5.95876133,7.49080062 5.78502503,7.49080062 L5.78502503,7.49080062 L4.19614258,7.49080062 C4.02240628,7.49080062 3.88156518,7.63164172 3.88156518,7.80537802 L3.88156518,7.80537802 L3.88156518,10.2280309 C3.88156518,10.4017672 3.74072408,10.5426083 3.56698778,10.5426083 L3.56698778,10.5426083 L1.97810533,10.5426083 C1.80436903,10.5426083 1.66352793,10.4017672 1.66352793,10.2280309 L1.66352793,10.2280309 L1.66352543,5.53799115 L0.476257695,5.54498281 C0.302523557,5.54584936 0.160981726,5.4057125 0.160115168,5.23197836 C0.159702057,5.14915455 0.191969466,5.06950949 0.24991429,5.01032882 L4.93084022,0.229568339 C5.05238732,0.105428887 5.25155562,0.103327371 5.37569508,0.224874473 Z" id="Combined-Shape" fill-rule="nonzero"></path>
                                    </g>
                                </g>
                            </g>
                        </g>
                        <g id="Diagram" mask="url(#mask-4)">
                            <g transform="translate(7.877119, 42.911017)">
                                <rect id="Rectangle-3" stroke="none" fill="#EFF0F1" fill-rule="evenodd" x="0" y="0" width="75.9067797" height="15.5706215" rx="2.20833333"></rect>
                                <polyline id="Path-2" stroke="#FFFFFF" stroke-width="1" fill="none" stroke-linecap="round" stroke-linejoin="round" points="3.89265537 12.6511299 10.8455891 12.6511299 11.7907967 2.91949153 15.7357698 12.6511299 20.5294578 5.88308589 25.612544 10.8819964 32.5234177 12.6511299 38.4470237 3.80546205 51.2815033 12.6511299 58.192377 7.34372921 64.115983 9.11286278 72.0141243 4.6886251"></polyline>
                            </g>
                        </g>
                        <g id="bar-chart" mask="url(#mask-4)" fill="#EFF0F1">
                            <g transform="translate(60.427966, 15.662429)">
                                <polygon id="Fill-17-Copy-7" points="3.15389202e-13 18.490113 23.3559322 18.490113 23.3559322 18.9766949 3.15389202e-13 18.9766949"></polygon>
                                <polygon id="Fill-17-Copy-8" points="7.08761361e-13 12.6511299 23.3559322 12.6511299 23.3559322 13.1377119 7.08761361e-13 13.1377119"></polygon>
                                <polygon id="Fill-17-Copy-9" points="7.08761361e-13 5.83898305 23.3559322 5.83898305 23.3559322 6.32556497 7.08761361e-13 6.32556497"></polygon>
                                <polygon id="Fill-17-Copy-10" points="7.08761361e-13 -2.10197443e-13 23.3559322 -2.03282698e-13 23.3559322 0.486581921 7.08761361e-13 0.486581921"></polygon>
                                <polygon id="Rectangle-2" points="1.94632768 7.78531073 5.83898305 7.78531073 5.83898305 18.490113 1.94632768 18.490113"></polygon>
                                <rect id="Rectangle-2-Copy" x="9.73163842" y="0" width="3.89265537" height="18.490113"></rect>
                                <rect id="Rectangle-2-Copy-2" x="17.5169492" y="9.73163842" width="3.89265537" height="8.75847458"></rect>
                            </g>
                        </g>
                        <mask id="mask-6" fill="white">
                            <use xlink:href="#path-5"></use>
                        </mask>
                        <use id="Rectangle" fill="#373F51" xlink:href="#path-5"></use>
                        <rect id="Rectangle-4" fill="#CE011F" mask="url(#mask-6)" transform="translate(5.444209, 3.984463) rotate(-180.000000) translate(-5.444209, -3.984463) " x="0.0918079096" y="0.0918079096" width="10.7048023" height="7.78531073"></rect>
                    </g>
                </g>
            </g>
        </g>
    </g>
</svg>