<?xml version="1.0" encoding="UTF-8"?>
<svg width="202px" height="195px" viewBox="0 0 202 195" version="1.1" xmlns="http://www.w3.org/2000/svg" xmlns:xlink="http://www.w3.org/1999/xlink">
    <!-- Generator: Sketch 62 (91390) - https://sketch.com -->
    <title>Illustration/data-driven-video</title>
    <desc>Created with Sketch.</desc>
    <defs>
        <circle id="path-1" cx="96.9491525" cy="96.9491525" r="96.9491525"></circle>
        <path d="M0.258254496,7.86477803 C0.258254496,12.1477149 3.75656866,15.6197394 8.07193519,15.6197394 C12.3871955,15.6197394 15.8855096,12.1477149 15.8855096,7.86477803 C15.8855096,3.58194664 12.3871955,0.109922084 8.07193519,0.109922084 C3.75656866,0.109922084 0.258254496,3.58194664 0.258254496,7.86477803" id="path-3"></path>
        <path d="M0.541547474,6.50051881 C0.541547474,10.0367542 3.42996727,12.9035732 6.9930847,12.9035732 C10.5560959,12.9035732 13.4444095,10.0367542 13.4444095,6.50051881 C13.4444095,2.96428341 10.5560959,0.0975699067 6.9930847,0.0975699067 C3.42996727,0.0975699067 0.541547474,2.96428341 0.541547474,6.50051881" id="path-5"></path>
        <path d="M7.34832369,0.453245641 C10.4674014,0.453245641 12.9958455,2.9313864 12.9958455,5.98829776 C12.9958455,7.39914285 12.4572703,8.68672542 11.5706225,9.66430402 C13.1370769,10.892564 14.1408124,12.7824109 14.1408124,14.9019839 C14.1408124,18.6043839 11.0783708,21.605788 7.30077045,21.605788 C3.52307713,21.605788 0.460635516,18.6043839 0.460635516,14.9019839 C0.460635516,12.7574238 1.48817594,10.8480383 3.08706772,9.6209417 C2.22386501,8.64974858 1.70061592,7.3788984 1.70061592,5.98829776 C1.70061592,2.9313864 4.22915298,0.453245641 7.34832369,0.453245641 Z" id="path-7"></path>
        <path d="M0.325209366,9.83097254 C0.325209366,15.1846436 4.73049387,19.5246743 10.1646591,19.5246743 C15.5986906,19.5246743 20.0039751,15.1846436 20.0039751,9.83097254 C20.0039751,4.47743331 15.5986906,0.137402605 10.1646591,0.137402605 C4.73049387,0.137402605 0.325209366,4.47743331 0.325209366,9.83097254" id="path-9"></path>
        <path d="M0.681948672,8.12564852 C0.681948672,12.5459428 4.31921804,16.1294664 8.80610666,16.1294664 C13.2928615,16.1294664 16.9299971,12.5459428 16.9299971,8.12564852 C16.9299971,3.70535427 13.2928615,0.121962383 8.80610666,0.121962383 C4.31921804,0.121962383 0.681948672,3.70535427 0.681948672,8.12564852" id="path-11"></path>
    </defs>
    <g id="Page-1" stroke="none" stroke-width="1" fill="none" fill-rule="evenodd">
        <g id="What's-Next-01" transform="translate(-616.000000, -403.000000)">
            <g id="Group" transform="translate(570.000000, 400.000000)">
                <g id="Illustration/data-driven-video" transform="translate(46.000000, 0.000000)">
                    <rect id="Background" x="0" y="0" width="208" height="208"></rect>
                    <g id="mask" stroke-width="1" fill-rule="evenodd" transform="translate(7.932203, 3.525424)">
                        <mask id="mask-2" fill="white">
                            <use xlink:href="#path-1"></use>
                        </mask>
                        <use id="Oval" fill="#E5F4F6" xlink:href="#path-1"></use>
                        <rect id="Rectangle" fill="#CCEBED" fill-rule="nonzero" mask="url(#mask-2)" x="30.8474576" y="136.610169" width="141.898305" height="42.3050847" rx="3.52542373"></rect>
                        <rect id="Rectangle" fill="#373F51" fill-rule="nonzero" mask="url(#mask-2)" x="-7.93220339" y="44.9491525" width="201.830508" height="128.677966" rx="3.52542373"></rect>
                        <rect id="Rectangle" fill="#FFFFFF" fill-rule="nonzero" mask="url(#mask-2)" x="-0.881355932" y="50.2372881" width="201.830508" height="116.338983" rx="3.52542373"></rect>
                        <rect id="Rectangle" fill="#EFF0F1" fill-rule="nonzero" mask="url(#mask-2)" x="131.322034" y="114.576271" width="63.4576271" height="35.2542373" rx="1.76271186"></rect>
                        <g id="a-item/illustration/tree-teal" mask="url(#mask-2)">
                            <g transform="translate(172.745763, 78.440678)">
                                <g transform="translate(3.399516, 5.620241)">
                                    <g id="B" transform="translate(0.166685, 9.110978)">
                                        <mask id="mask-4" fill="white">
                                            <use xlink:href="#path-3"></use>
                                        </mask>
                                        <use id="Fill-29" fill="#3EC5D3" xlink:href="#path-3"></use>
                                        <polygon id="Stroke-8" fill="#FAFAFA" fill-rule="nonzero" mask="url(#mask-4)" points="-2.59971377 2.37161807 8.38553805 13.2285068 7.58573608 14.0247859 -3.39951574 3.16789718"></polygon>
                                        <polygon id="Stroke-12" fill="#FAFAFA" fill-rule="nonzero" mask="url(#mask-4)" points="18.6341622 -2.24809629 19.4339642 -1.45181718 8.44871238 9.40507153 7.64891041 8.60879241"></polygon>
                                    </g>
                                    <g id="A" transform="translate(1.299857, 0.163885)">
                                        <mask id="mask-6" fill="white">
                                            <use xlink:href="#path-5"></use>
                                        </mask>
                                        <use id="Fill-30" fill="#3EC5D3" xlink:href="#path-5"></use>
                                        <polygon id="Stroke-4" fill="#FAFAFA" fill-rule="nonzero" mask="url(#mask-6)" points="-3.73288568 -5.62024073 7.25236614 5.23664797 6.45256416 6.03292709 -4.53268765 -4.82396161"></polygon>
                                        <polygon id="Stroke-6" fill="#FAFAFA" fill-rule="nonzero" mask="url(#mask-6)" points="-3.73288568 1.23933513 7.25236614 12.0962238 6.45256416 12.892503 -4.53268765 2.03561425"></polygon>
                                        <polygon id="Stroke-10" fill="#FAFAFA" fill-rule="nonzero" mask="url(#mask-6)" points="17.5009903 -2.96040519 18.3007923 -2.16412607 7.31554047 8.69276263 6.5157385 7.89648351"></polygon>
                                    </g>
                                    <polygon id="tree-corp" fill="#FFFFFF" fill-rule="nonzero" points="8.78208232 0.121463078 8.78208232 33.0450474 7.64891041 33.0450474 7.64891041 0.121463078"></polygon>
                                </g>
                            </g>
                        </g>
                        <path d="M133.084746,153.355932 L193.016949,153.355932 C193.990468,153.355932 194.779661,154.145125 194.779661,155.118644 L194.779661,163.050847 C194.779661,164.024366 193.990468,164.813559 193.016949,164.813559 L131.322034,164.813559 L131.322034,164.813559 L131.322034,155.118644 C131.322034,154.145125 132.111227,153.355932 133.084746,153.355932 Z" id="Rectangle-Copy-10" fill="#EFF0F1" mask="url(#mask-2)"></path>
                        <rect id="Rectangle" fill="#CCEBED" fill-rule="nonzero" mask="url(#mask-2)" x="-7.93220339" y="-3.52542373" width="100.474576" height="42.3050847" rx="3.52542373"></rect>
                        <rect id="Rectangle" fill="#CCEBED" fill-rule="nonzero" mask="url(#mask-2)" x="99.5932203" y="-3.52542373" width="100.474576" height="42.3050847" rx="3.52542373"></rect>
                    </g>
                    <path d="M3.52542373,48.4745763 L163.050847,48.4745763 L163.050847,48.4745763 L163.050847,177.152542 L3.52542373,177.152542 C1.57838597,177.152542 1.24612616e-14,175.574156 0,173.627119 L0,52 C-6.82532566e-16,50.0529622 1.57838597,48.4745763 3.52542373,48.4745763 Z" id="Rectangle" fill="#373F51" fill-rule="nonzero"></path>
                    <path d="M7.05084746,53.7627119 L180.677966,53.7627119 L180.677966,53.7627119 L180.677966,171.864407 L7.05084746,171.864407 C6.07732858,171.864407 5.28813559,171.075214 5.28813559,170.101695 L5.28813559,55.5254237 C5.28813559,54.5519048 6.07732858,53.7627119 7.05084746,53.7627119 Z" id="Rectangle" fill="#FFFFFF" fill-rule="nonzero"></path>
                    <g id="a-item/illustration/tree-gray" transform="translate(18.508475, 99.593220)" fill-rule="evenodd" stroke-width="1">
                        <g>
                            <g id="A" transform="translate(0.190801, 0.553103)">
                                <mask id="mask-8" fill="white">
                                    <use xlink:href="#path-7"></use>
                                </mask>
                                <use id="Combined-Shape" fill="#F5F5F6" xlink:href="#path-7"></use>
                                <path d="M-1.68447694,-8.8817842e-16 L8.08707796,9.61479199 L7.16580693,10.5212833 L-2.60574797,0.906491282 L-1.68447694,-8.8817842e-16 Z M16.9373618,-1.9229584 L17.8586329,-1.01646712 L8.08707796,8.59832487 L7.16580693,7.69183359 L16.9373618,-1.9229584 Z M-1.68447694,-3.20493066 L8.08707796,6.40986133 L7.16580693,7.31635261 L-2.60574797,-2.29843938 L-1.68447694,-3.20493066 Z" id="Combined-Shape" fill="#FFFFFF" fill-rule="nonzero" mask="url(#mask-8)"></path>
                                <path d="M-1.68447694,10.2557781 L8.08707796,19.8705701 L7.16580693,20.7770614 L-2.60574797,11.1622694 L-1.68447694,10.2557781 Z M16.9373618,6.40986133 L17.8586329,7.31635261 L8.08707796,16.9311446 L7.16580693,16.0246533 L16.9373618,6.40986133 Z" id="Combined-Shape" fill="#FFFFFF" fill-rule="nonzero" mask="url(#mask-8)"></path>
                            </g>
                            <polygon id="Stroke-1" fill="#FFFFFF" fill-rule="nonzero" points="8.36010808 1.00634823 8.36010808 27.6115041 7.05723409 27.6115041 7.05723409 1.00634823"></polygon>
                        </g>
                    </g>
                    <g id="a-item/illustration/tree-teal" transform="translate(32.610169, 80.203390)" fill-rule="evenodd" stroke-width="1">
                        <g transform="translate(4.280872, 7.025301)">
                            <g id="B" transform="translate(0.209900, 11.388723)">
                                <mask id="mask-10" fill="white">
                                    <use xlink:href="#path-9"></use>
                                </mask>
                                <use id="Fill-29" fill="#3EC5D3" xlink:href="#path-9"></use>
                                <polygon id="Stroke-8" fill="#FAFAFA" fill-rule="nonzero" mask="url(#mask-10)" points="-3.27371363 2.96452258 10.5595664 16.5356335 9.55240839 17.5309824 -4.28087167 3.95987147"></polygon>
                                <polygon id="Stroke-12" fill="#FAFAFA" fill-rule="nonzero" mask="url(#mask-10)" points="23.4652413 -2.81012036 24.4723994 -1.81477147 10.6391193 11.7563394 9.63196126 10.7609905"></polygon>
                            </g>
                            <g id="A" transform="translate(1.636857, 0.204856)">
                                <mask id="mask-12" fill="white">
                                    <use xlink:href="#path-11"></use>
                                </mask>
                                <use id="Fill-30" fill="#3EC5D3" xlink:href="#path-11"></use>
                                <polygon id="Stroke-4" fill="#FAFAFA" fill-rule="nonzero" mask="url(#mask-12)" points="-4.70067086 -7.02530091 9.13260921 6.54580997 8.12545117 7.54115886 -5.70782889 -6.02995202"></polygon>
                                <polygon id="Stroke-6" fill="#FAFAFA" fill-rule="nonzero" mask="url(#mask-12)" points="-4.70067086 1.54916892 9.13260921 15.1202798 8.12545117 16.1156287 -5.70782889 2.54451781"></polygon>
                                <polygon id="Stroke-10" fill="#FAFAFA" fill-rule="nonzero" mask="url(#mask-12)" points="22.0382841 -3.70050649 23.0454421 -2.70515759 9.21216207 10.8659533 8.20500404 9.87060439"></polygon>
                            </g>
                            <polygon id="tree-corp" fill="#FFFFFF" fill-rule="nonzero" points="11.0589185 0.151828847 11.0589185 41.3063092 9.63196126 41.3063092 9.63196126 0.151828847"></polygon>
                        </g>
                    </g>
                    <path d="M112.534418,96.3908692 L125.883345,123.088723 C126.536401,124.394836 126.006994,125.983056 124.700882,126.636113 C124.333738,126.819684 123.928897,126.915254 123.518419,126.915254 L96.8205644,126.915254 C95.3602861,126.915254 94.1764966,125.731465 94.1764966,124.271186 C94.1764966,123.860708 94.2720667,123.455867 94.4556383,123.088723 L107.804565,96.3908692 C108.457622,95.0847566 110.045842,94.5553498 111.351955,95.2084061 C111.863654,95.4642559 112.278568,95.8791696 112.534418,96.3908692 Z" id="Triangle" fill="#373F51" fill-rule="evenodd" transform="translate(110.169492, 109.288136) rotate(90.000000) translate(-110.169492, -109.288136) "></path>
                    <path d="M141.016949,118.101695 L185.966102,118.101695 L185.966102,118.101695 L185.966102,153.355932 L141.016949,153.355932 C140.04343,153.355932 139.254237,152.566739 139.254237,151.59322 L139.254237,119.864407 C139.254237,118.890888 140.04343,118.101695 141.016949,118.101695 Z" id="Rectangle" fill="#EFF0F1" fill-rule="nonzero"></path>
                    <g id="a-item/illustration/house-teal" transform="translate(154.237288, 109.288136)" fill="#0099A7" fill-rule="evenodd" stroke-width="1">
                        <g id="a-item/illustration/house" transform="translate(0.858757, 0.000000)">
                            <path d="M16.5763215,0.619896786 L16.5884416,0.632016889 L16.5884416,0.632016889 L22.6071422,6.77006087 L22.6077131,5.45996975 C22.6077131,4.98069891 22.9962389,4.59217314 23.4755097,4.59217314 L26.9671334,4.59217314 C27.4464042,4.59217314 27.83493,4.98069891 27.83493,5.45996975 L27.8341422,12.1020609 L31.1963243,15.5313216 C31.5318565,15.8735476 31.5264302,16.4229792 31.1842042,16.7585115 C31.0230493,16.9165143 30.8066786,17.0055182 30.5809918,17.0066423 L25.7621422,17.0300609 L25.7627119,31.7423729 C25.7627119,32.1847767 25.4316603,32.5498593 25.0037698,32.6034081 L24.8949153,32.6101695 L19.760452,32.6101695 C19.2811811,32.6101695 18.8926554,32.2216437 18.8926554,31.7423729 L18.8926554,31.7423729 L18.8926554,24.0381802 C18.8926554,23.5589094 18.5041296,23.1703836 18.0248588,23.1703836 L18.0248588,23.1703836 L12.8903955,23.1703836 C12.4111246,23.1703836 12.0225989,23.5589094 12.0225989,24.0381802 L12.0225989,24.0381802 L12.0225989,31.7423729 C12.0225989,32.2216437 11.6340731,32.6101695 11.1548023,32.6101695 L11.1548023,32.6101695 L6.02033898,32.6101695 C5.54106815,32.6101695 5.15254237,32.2216437 5.15254237,31.7423729 L5.15254237,31.7423729 L5.15214216,17.1320609 L1.22184576,17.1528834 C0.74258087,17.1552707 0.352124648,16.768685 0.349737379,16.2894201 C0.348598301,16.0607405 0.437770206,15.8408546 0.597868229,15.6775627 L15.3491316,0.632016889 C15.6846639,0.289790885 16.2340955,0.28436453 16.5763215,0.619896786 Z" id="Combined-Shape" fill-rule="nonzero"></path>
                        </g>
                    </g>
                    <path d="M141.016949,156.881356 L180.677966,156.881356 L180.677966,156.881356 L180.677966,160.872203 L173.698987,168.338983 L139.254237,168.338983 L139.254237,158.644068 C139.254237,157.670549 140.04343,156.881356 141.016949,156.881356 Z" id="Rectangle-Copy-10" fill="#EFF0F1" fill-rule="nonzero"></path>
                    <rect id="Rectangle-Copy-13" fill="#0299A7" fill-rule="evenodd" x="8.81355932" y="126.033898" width="63.4576271" height="63.4576271" rx="3.52542373"></rect>
                    <g id="a-item/illustration/house-white" transform="translate(22.915254, 141.016949)" fill="#FFFFFF" fill-rule="evenodd" stroke-width="1">
                        <g id="a-item/illustration/house" transform="translate(0.903955, 0.000000)">
                            <path d="M17.441662,0.646188701 C17.4462053,0.650637162 17.4507016,0.655133436 17.4551501,0.659676774 L23.7968339,7.13595605 L23.7975927,5.74435351 C23.7975927,5.24511306 24.2023071,4.84039871 24.7015475,4.84039871 L28.3959715,4.84039871 C28.895212,4.84039871 29.2999263,5.24511306 29.2999263,5.74435351 L29.2998339,12.7569561 L32.8564369,16.3894415 C33.2057089,16.7461627 33.1996701,17.3184834 32.8429488,17.6677554 C32.6751204,17.8320791 32.4499217,17.9246264 32.2150446,17.925798 L27.1178339,17.9509561 L27.1186441,33.4689266 C27.1186441,33.9297639 26.7737987,34.3100583 26.3280794,34.3658383 L26.2146893,34.3728814 L20.7909605,34.3728814 C20.29172,34.3728814 19.8870056,33.968167 19.8870056,33.4689266 L19.8870056,33.4689266 L19.8870056,25.3267916 C19.8870056,24.8275511 19.4822913,24.4228368 18.9830508,24.4228368 L18.9830508,24.4228368 L13.559322,24.4228368 C13.0600816,24.4228368 12.6553672,24.8275511 12.6553672,25.3267916 L12.6553672,25.3267916 L12.6553672,33.4689266 C12.6553672,33.968167 12.2506529,34.3728814 11.7514124,34.3728814 L11.7514124,34.3728814 L6.32768362,34.3728814 C5.82844316,34.3728814 5.42372881,33.968167 5.42372881,33.4689266 L5.42372881,33.4689266 L5.42283386,18.0589561 L1.26130282,18.0801902 C0.762068576,18.0826803 0.355340636,17.6799896 0.352850536,17.1807554 C0.351663437,16.9427568 0.444385547,16.7138925 0.610893066,16.5438337 L16.163348,0.659676774 C16.51262,0.302955486 17.0849407,0.29691667 17.441662,0.646188701 Z" id="Combined-Shape" fill-rule="nonzero"></path>
                        </g>
                    </g>
                    <path d="M77.559322,147.186441 L133.966102,147.186441 C134.939621,147.186441 135.728814,147.975634 135.728814,148.949153 L135.728814,168.338983 L135.728814,168.338983 L75.7966102,168.338983 L75.7966102,148.949153 C75.7966102,147.975634 76.5858032,147.186441 77.559322,147.186441 Z" id="Rectangle-Copy-12" fill="#EFF0F1" fill-rule="nonzero"></path>
                </g>
            </g>
        </g>
    </g>
</svg>