<?xml version="1.0" encoding="UTF-8"?>
<svg width="194px" height="194px" viewBox="0 0 194 194" version="1.1" xmlns="http://www.w3.org/2000/svg" xmlns:xlink="http://www.w3.org/1999/xlink">
    <!-- Generator: Sketch 62 (91390) - https://sketch.com -->
    <title>Illustration/Guide</title>
    <desc>Created with Sketch.</desc>
    <defs>
        <circle id="path-1" cx="96.9491525" cy="96.9491525" r="96.9491525"></circle>
        <path d="M4,169.220339 L158.644068,169.220339 L158.644068,169.220339 L158.644068,0 L4,0 C1.790861,4.05812251e-16 -2.705415e-16,1.790861 0,4 L0,165.220339 C-1.54263352e-14,167.429478 1.790861,169.220339 4,169.220339 Z" id="path-3"></path>
        <rect id="path-5" x="0" y="0" width="158.644068" height="49.3559322" rx="4"></rect>
    </defs>
    <g id="Page-1" stroke="none" stroke-width="1" fill="none" fill-rule="evenodd">
        <g id="Education-01" transform="translate(-1007.000000, -407.000000)">
            <g id="Group-3" transform="translate(954.000000, 400.000000)">
                <g id="Illustration/Paid-Ad" transform="translate(46.000000, 0.000000)">
                    <g id="Group-6-Copy">
                        <rect id="Background" x="0" y="0" width="208" height="208"></rect>
                        <g id="mask" transform="translate(7.050847, 7.050847)">
                            <mask id="mask-2" fill="white">
                                <use xlink:href="#path-1"></use>
                            </mask>
                            <use id="Oval" fill="#E5F4F6" xlink:href="#path-1"></use>
                            <g id="calendar" mask="url(#mask-2)">
                                <g transform="translate(35.254237, 35.254237)">
                                    <g id="mask" stroke-width="1" fill="none" transform="translate(7.050847, 8.813559)">
                                        <mask id="mask-4" fill="white">
                                            <use xlink:href="#path-3"></use>
                                        </mask>
                                        <use id="Fill-4" fill="#FFFFFF" xlink:href="#path-3"></use>
                                        <rect id="Rectangle" fill-opacity="0.4" fill="#D7D9DC" fill-rule="nonzero" mask="url(#mask-4)" x="70.5084746" y="121.627119" width="35.2542373" height="7.93220339" rx="3.96610169"></rect>
                                        <rect id="Rectangle" fill-opacity="0.4" fill="#D7D9DC" fill-rule="nonzero" mask="url(#mask-4)" x="109.288136" y="121.627119" width="35.2542373" height="7.93220339" rx="3.96610169"></rect>
                                        <rect id="Rectangle" fill-opacity="0.4" fill="#D7D9DC" fill-rule="nonzero" mask="url(#mask-4)" x="70.5084746" y="89.8983051" width="137.491525" height="21.1525424" rx="4"></rect>
                                        <g id="stats" mask="url(#mask-4)">
                                            <g transform="translate(70.508475, 29.966102)">
                                                <mask id="mask-6" fill="white">
                                                    <use xlink:href="#path-5"></use>
                                                </mask>
                                                <use id="Rectangle-3" stroke="none" fill="#EFF0F1" fill-rule="evenodd" xlink:href="#path-5"></use>
                                                <polyline id="Path-2" stroke="#D7D9DC" stroke-width="3" fill="none" stroke-linecap="round" stroke-linejoin="round" mask="url(#mask-6)" transform="translate(74.033898, 18.508475) scale(-1, 1) translate(-74.033898, -18.508475) " points="7.05084746 33.4915254 36.7608514 21.3467766 61.8409782 -5.28813559 74.3771411 14.9830508 101.540128 21.3467766 114.380528 14.9830508 127.162422 21.3467766 141.016949 42.3050847"></polyline>
                                                <polyline id="Path-2" stroke="#D7D9DC" stroke-width="3" fill="none" opacity="0.578292411" stroke-linecap="round" stroke-linejoin="round" mask="url(#mask-6)" points="7.05084746 42.3050847 36.7608514 30.1603359 61.8409782 36.2327103 74.3771411 23.7966102 101.540128 30.1603359 114.380528 23.7966102 127.162422 30.1603359 141.016949 23.7966102"></polyline>
                                            </g>
                                        </g>
                                        <path d="M36.1016949,63.0169492 L7.96610169,63.0169492 C5.7569627,63.0169492 3.96610169,64.8078102 3.96610169,67.0169492 L3.96610169,124.643008 L3.96610169,124.643008 L0.161929433,128.891496 C-0.18032363,129.273723 -0.177781896,129.852953 0.167812443,130.232162 L3.96610169,134.399894 L3.96610169,134.399894 L3.96610169,149.79661 C3.96610169,152.005749 5.7569627,153.79661 7.96610169,153.79661 L36.1016949,153.79661 C38.3108339,153.79661 40.1016949,152.005749 40.1016949,149.79661 L40.1016949,67.0169492 C40.1016949,64.8078102 38.3108339,63.0169492 36.1016949,63.0169492 Z" id="Fill-19-Copy" fill="#F5F5F6" opacity="0.652273996" mask="url(#mask-4)" transform="translate(19.830508, 108.406780) rotate(-270.000000) translate(-19.830508, -108.406780) "></path>
                                        <rect id="Rectangle" fill-opacity="0.4" fill="#D7D9DC" fill-rule="nonzero" mask="url(#mask-4)" x="10.5762712" y="29.9661017" width="49.3559322" height="49.3559322" rx="4"></rect>
                                        <circle id="Oval" fill="#FFFFFF" fill-rule="nonzero" mask="url(#mask-4)" cx="24.2372881" cy="44.5084746" r="4.84745763"></circle>
                                        <path d="M56.1608618,68.8033077 L44.4104012,55.0348793 C43.9662338,54.5137973 42.9921206,54.5137973 42.5479532,55.0348793 L32.8620486,66.3832416 L25.5955638,58.1963223 C25.1502214,57.6932451 24.2054844,57.6932451 23.7601419,58.1963223 L14.3597735,68.787421 C13.7475745,69.4790198 14.2927959,70.5084746 15.2786595,70.5084746 L55.2302253,70.5084746 C56.2043385,70.5084746 56.7554351,69.4991429 56.1608618,68.8033077 Z" id="Shape" fill="#FFFFFF" fill-rule="nonzero" mask="url(#mask-4)"></path>
                                    </g>
                                    <path d="M4,28.2033898 L132.20339,28.2033898 L132.20339,28.2033898 L132.20339,0 L4,0 C1.790861,4.05812251e-16 -2.705415e-16,1.790861 0,4 L0,24.2033898 C2.705415e-16,26.4125288 1.790861,28.2033898 4,28.2033898 Z" id="Fill-5" fill="#373F51"></path>
                                    <circle id="Oval" fill="#FFFFFF" cx="14.9830508" cy="14.1016949" r="3.52542373"></circle>
                                    <circle id="Oval" fill="#FFFFFF" cx="25.559322" cy="14.1016949" r="3.52542373"></circle>
                                    <polygon id="Fill-9" fill="#373F51" points="40.5423729 28.2033898 158.644068 28.2033898 158.644068 0 40.5423729 0"></polygon>
                                </g>
                            </g>
                        </g>
                        <g id="1" transform="translate(63.898305, 154.237288) scale(-1, 1) translate(-63.898305, -154.237288) translate(18.508475, 133.966102)">
                            <path d="M61.6610169,-25.1186441 L33.5254237,-25.1186441 C31.3162847,-25.1186441 29.5254237,-23.3277831 29.5254237,-21.1186441 L29.5254237,36.5074153 L29.5254237,36.5074153 L25.7212515,40.7559029 C25.3789984,41.1381301 25.3815401,41.7173598 25.7271345,42.0965686 L29.5254237,46.2643008 L29.5254237,46.2643008 L29.5254237,61.6610169 C29.5254237,63.8701559 31.3162847,65.6610169 33.5254237,65.6610169 L61.6610169,65.6610169 C63.8701559,65.6610169 65.6610169,63.8701559 65.6610169,61.6610169 L65.6610169,-21.1186441 C65.6610169,-23.3277831 63.8701559,-25.1186441 61.6610169,-25.1186441 Z" id="Fill-19-Copy" fill="#3EC5D3" transform="translate(45.389831, 20.271186) rotate(-270.000000) translate(-45.389831, -20.271186) "></path>
                            <path d="M11.6949153,10.5762712 L35.8983051,10.5762712 C37.0028746,10.5762712 37.8983051,11.4717017 37.8983051,12.5762712 L37.8983051,17.3898305 C37.8983051,18.4944 37.0028746,19.3898305 35.8983051,19.3898305 L11.6949153,19.3898305 C10.5903458,19.3898305 9.69491525,18.4944 9.69491525,17.3898305 L9.69491525,12.5762712 C9.69491525,11.4717017 10.5903458,10.5762712 11.6949153,10.5762712 Z" id="Rectangle-3-Copy-8" fill="#FFFFFF"></path>
                            <path d="M11.6949153,25.559322 L35.8983051,25.559322 C37.0028746,25.559322 37.8983051,26.4547525 37.8983051,27.559322 L37.8983051,32.3728814 C37.8983051,33.4774509 37.0028746,34.3728814 35.8983051,34.3728814 L11.6949153,34.3728814 C10.5903458,34.3728814 9.69491525,33.4774509 9.69491525,32.3728814 L9.69491525,27.559322 C9.69491525,26.4547525 10.5903458,25.559322 11.6949153,25.559322 Z" id="Rectangle-3-Copy-11" fill="#373F51"></path>
                            <g id="Group" transform="translate(44.949153, 10.576271)">
                                <path d="M35.2542373,11.8983051 C35.2542373,17.9826853 30.3216683,22.9152542 24.2372881,22.9152542 C18.1529079,22.9152542 13.220339,17.9826853 13.220339,11.8983051 C13.220339,5.81392489 18.1529079,0.881355932 24.2372881,0.881355932 C26.0090728,0.881355932 27.682785,1.29956796 29.1655367,2.04267198 C27.2615487,5.84978398 24.1832835,11.8983051 24.1832835,11.8983051 L35.2542373,11.8983051 Z" id="Fill-33" fill="#FFFFFF"></path>
                                <path d="M38.77848,10.5762712 C34.6195525,10.560742 27.3220339,10.5762712 27.3220339,10.5762712 C27.3220339,10.5762712 29.428758,6.14315285 32.4762712,0 C36.5255404,2.07496977 38.8396011,6.25825133 38.77848,10.5762712 Z" id="Fill-34" fill="#373F51"></path>
                                <path d="M7.05084746,1.76271186 L0,1.76271186 L0,22.0338983 L6.79483153,22.0338983" id="Path-2" stroke="#FFFFFF" stroke-width="2" stroke-linecap="round" stroke-dasharray="3" transform="translate(3.525424, 11.898305) scale(-1, 1) translate(-3.525424, -11.898305) "></path>
                            </g>
                        </g>
                    </g>
                </g>
            </g>
        </g>
    </g>
</svg>