<?xml version="1.0" encoding="UTF-8"?>
<svg width="195px" height="195px" viewBox="0 0 195 195" version="1.1" xmlns="http://www.w3.org/2000/svg" xmlns:xlink="http://www.w3.org/1999/xlink">
    <!-- Generator: Sketch 62 (91390) - https://sketch.com -->
    <title>Illustration/data-driven-video</title>
    <desc>Created with Sketch.</desc>
    <defs>
        <circle id="path-1" cx="96.9491525" cy="96.9491525" r="96.9491525"></circle>
    </defs>
    <g id="Page-1" stroke="none" stroke-width="1" fill="none" fill-rule="evenodd">
        <g id="What's-Next-01" transform="translate(-239.000000, -403.000000)">
            <g id="Group-2" transform="translate(186.000000, 400.000000)">
                <g id="Illustration/social-post" transform="translate(46.000000, 0.000000)">
                    <rect id="Background" x="0" y="0" width="208" height="208"></rect>
                    <g id="mask" stroke-width="1" fill-rule="evenodd" transform="translate(7.932203, 3.525424)">
                        <mask id="mask-2" fill="white">
                            <use xlink:href="#path-1"></use>
                        </mask>
                        <use id="Oval" fill="#E5F4F6" xlink:href="#path-1"></use>
                        <rect id="Rectangle" fill="#CCEBED" fill-rule="nonzero" mask="url(#mask-2)" x="29.0847458" y="-3.52542373" width="62.5762712" height="30.8474576" rx="3.52542373"></rect>
                        <rect id="Rectangle" fill="#CCEBED" fill-rule="nonzero" mask="url(#mask-2)" x="98.7118644" y="-3.52542373" width="62.5762712" height="30.8474576" rx="3.52542373"></rect>
                        <rect id="Rectangle" fill="#CCEBED" fill-rule="nonzero" mask="url(#mask-2)" x="168.338983" y="34.3728814" width="62.5762712" height="61.6949153" rx="3.52542373"></rect>
                        <rect id="Rectangle" fill="#CCEBED" fill-rule="nonzero" mask="url(#mask-2)" x="168.338983" y="103.118644" width="62.5762712" height="61.6949153" rx="3.52542373"></rect>
                        <rect id="Rectangle" fill="#CCEBED" fill-rule="nonzero" mask="url(#mask-2)" x="-40.5423729" y="34.3728814" width="62.5762712" height="61.6949153" rx="3.52542373"></rect>
                        <rect id="Rectangle" fill="#CCEBED" fill-rule="nonzero" mask="url(#mask-2)" x="-40.5423729" y="103.118644" width="62.5762712" height="61.6949153" rx="3.52542373"></rect>
                        <rect id="Rectangle" fill="#CCEBED" fill-rule="nonzero" mask="url(#mask-2)" x="29.0847458" y="172.745763" width="62.5762712" height="30.8474576" rx="3.52542373"></rect>
                        <rect id="Rectangle" fill="#CCEBED" fill-rule="nonzero" mask="url(#mask-2)" x="98.7118644" y="172.745763" width="62.5762712" height="30.8474576" rx="3.52542373"></rect>
                    </g>
                    <g id="card" stroke-width="1" fill-rule="evenodd" transform="translate(37.016949, 37.898305)">
                        <rect id="Rectangle" fill="#373F51" x="0" y="0" width="132.20339" height="131.322034" rx="3.52542373"></rect>
                        <rect id="Rectangle" fill="#FFFFFF" fill-rule="nonzero" x="5.28813559" y="5.28813559" width="121.627119" height="120.745763" rx="1.76271186"></rect>
                        <path d="M12.3389831,10.5762712 L119.864407,10.5762712 C120.837926,10.5762712 121.627119,11.3654642 121.627119,12.3389831 L121.627119,96.0677966 L121.627119,96.0677966 L10.5762712,96.0677966 L10.5762712,12.3389831 C10.5762712,11.3654642 11.3654642,10.5762712 12.3389831,10.5762712 Z" id="Rectangle-Copy-12" fill="#E6E7E9" fill-rule="nonzero"></path>
                        <g id="pic" transform="translate(21.152542, 21.152542)" fill="#FFFFFF" fill-rule="nonzero">
                            <circle id="Oval" cx="22.0338983" cy="10.5762712" r="10.5762712"></circle>
                            <path d="M88.4994969,60.7391863 L63.7745695,31.6725042 C62.8399673,30.5724421 60.7902708,30.5724421 59.8556686,31.6725042 L39.4749109,55.6301579 L24.1850159,38.3466616 C23.2479411,37.2846098 21.2600569,37.2846098 20.3229822,38.3466616 L0.543040305,60.7056478 C-0.745128411,62.1656896 0.402108219,64.3389831 2.47652962,64.3389831 L86.5412827,64.3389831 C88.5909791,64.3389831 89.7505782,62.2081717 88.4994969,60.7391863 Z" id="Shape"></path>
                        </g>
                        <rect id="Rectangle" fill-opacity="0.64" fill="#D7D9DC" x="10.5762712" y="101.355932" width="56.4067797" height="7.05084746" rx="2.82033898"></rect>
                        <rect id="Rectangle" fill="#E6E7E9" x="114.576271" y="101.355932" width="7.05084746" height="7.05084746" rx="1.76271186"></rect>
                        <rect id="Rectangle" fill="#E6E7E9" x="104" y="101.355932" width="7.05084746" height="7.05084746" rx="1.76271186"></rect>
                        <rect id="Rectangle" fill="#3EC5D3" x="93.4237288" y="101.355932" width="7.05084746" height="7.05084746" rx="1.76271186"></rect>
                        <rect id="Rectangle-Copy-3" fill-opacity="0.64" fill="#D7D9DC" x="10.5762712" y="113.694915" width="118.101695" height="7.05084746" rx="2.82033898"></rect>
                    </g>
                    <g id="like" stroke-width="1" fill-rule="evenodd" transform="translate(18.508475, 68.745763)" fill="#3EC5D3">
                        <path d="M30.6711864,8.45425425e-14 C26.8092237,0.0434912759 23.2297512,2.03208711 21.1525424,5.28813559 C19.0753336,2.03208711 15.4958611,0.0434912759 11.6338983,8.45425425e-14 C5.23317649,0.055503107 0.057443011,5.22966818 0,11.6303729 C0,23.2642712 21.1525424,40.4507119 21.1525424,40.4507119 C21.1525424,40.4507119 42.3050847,23.2642712 42.3050847,11.6303729 C42.2476417,5.22966818 37.0719083,0.055503107 30.6711864,8.45425425e-14 Z" id="Path" fill-rule="nonzero"></path>
                    </g>
                    <g id="share" stroke-width="1" fill-rule="evenodd" transform="translate(145.423729, 145.423729)">
                        <circle id="Oval" fill="#373F51" cx="21.1525424" cy="21.1525424" r="21.1525424"></circle>
                        <path d="M25.1186441,18.5084746 C27.3052881,18.5084746 29.0847458,16.7290169 29.0847458,14.5423729 C29.0847458,12.3557288 27.3052881,10.5762712 25.1186441,10.5762712 C22.932,10.5762712 21.1525424,12.3557288 21.1525424,14.5423729 C21.1525424,14.8371864 21.1908814,15.1227458 21.2516949,15.4003729 L16.9947458,18.0603051 C16.3178644,17.5222373 15.4730847,17.1864407 14.5423729,17.1864407 C12.3557288,17.1864407 10.5762712,18.9658983 10.5762712,21.1525424 C10.5762712,23.3391864 12.3557288,25.1186441 14.5423729,25.1186441 C15.4730847,25.1186441 16.3178644,24.7828475 16.9947458,24.2447797 L21.2516949,26.9047119 C21.1908814,27.182339 21.1525424,27.4678983 21.1525424,27.7627119 C21.1525424,29.9493559 22.932,31.7288136 25.1186441,31.7288136 C27.3052881,31.7288136 29.0847458,29.9493559 29.0847458,27.7627119 C29.0847458,25.5760678 27.3052881,23.7966102 25.1186441,23.7966102 C24.1879322,23.7966102 23.3431525,24.1324068 22.6662712,24.6704746 L18.409322,22.0105424 C18.4701356,21.7329153 18.5084746,21.4473559 18.5084746,21.1525424 C18.5084746,20.8577288 18.4701356,20.5721695 18.409322,20.2945424 L22.6662712,17.6346102 C23.3431525,18.172678 24.1879322,18.5084746 25.1186441,18.5084746 Z" id="Shape" fill="#FFFFFF" fill-rule="nonzero"></path>
                    </g>
                </g>
            </g>
        </g>
    </g>
</svg>