<?xml version="1.0" encoding="UTF-8"?>
<svg width="207px" height="184px" viewBox="0 0 207 184" version="1.1" xmlns="http://www.w3.org/2000/svg" xmlns:xlink="http://www.w3.org/1999/xlink">
    <!-- Generator: Sketch 62 (91390) - https://sketch.com -->
    <title>Image</title>
    <desc>Created with Sketch.</desc>
    <defs>
        <path d="M197.241379,90.5603455 C197.241379,140.574554 153.088902,181.12069 98.6231673,181.12069 C44.157432,181.12069 0.00273685128,140.579104 0,90.5648958 C-0.00273685128,40.5506873 44.147521,0.00377085113 98.6132561,1.87191259e-13 C124.770982,-0.0036203002 149.858595,9.53615065 168.355598,26.5200985 C186.8526,43.5040463 197.241379,66.540511 197.241379,90.5603455" id="path-1"></path>
    </defs>
    <g id="Page-1" stroke="none" stroke-width="1" fill="none" fill-rule="evenodd">
        <g id="Introduction" transform="translate(-1001.000000, -413.000000)">
            <g id="Group-4" transform="translate(186.000000, 400.000000)">
                <g id="Group" transform="translate(768.000000, 0.000000)">
                    <g id="Image" transform="translate(46.000000, 0.000000)">
                        <rect id="Background" x="0" y="0" width="208" height="208"></rect>
                        <g id="Illustration/smartplans" transform="translate(0.000000, 9.000000)">
                            <g id="Combined-Shape" transform="translate(5.379310, 4.939655)">
                                <mask id="mask-2" fill="white">
                                    <use xlink:href="#path-1"></use>
                                </mask>
                                <use id="Mask" fill="#E5F4F6" xlink:href="#path-1"></use>
                                <path d="M138.692282,164.713239 C137.664253,164.713239 136.83087,165.478738 136.83087,166.423028 L136.83087,166.423028 L136.83087,185.967951 C136.83087,189.272967 133.914031,191.952212 130.315928,191.952212 L68.8893268,191.952212 C65.2912234,191.952212 62.3743842,189.272967 62.3743842,185.967951 L62.3743842,151.03493 C62.3743842,150.09064 61.5410016,149.325141 60.5129721,149.325141 L-0.9136289,149.325141 C-4.5117323,149.325141 -7.42857143,146.645897 -7.42857143,143.340881 L-7.42857143,25.8438912 C-7.42857143,22.5388755 -4.5117323,19.859631 -0.9136289,19.859631 L200.118883,19.859631 C203.716987,19.859631 206.633826,22.5388755 206.633826,25.8438912 L206.633826,158.728979 C206.633826,162.033995 203.716987,164.713239 200.118883,164.713239 Z" fill="#CCEBED" fill-rule="nonzero" mask="url(#mask-2)"></path>
                            </g>
                            <g id="Group" transform="translate(0.896552, 17.288793)">
                                <g id="Group-2" transform="translate(141.191447, 6.985371)">
                                    <path d="M64.189922,119.131028 L1.69090897,119.131028 C0.88734124,119.131028 0.235920887,118.535129 0.235920887,117.800051 L0.235920887,5.11288162 L65.6449101,5.11288162 L65.6449101,117.800051 C65.6449101,118.153048 65.4916171,118.491587 65.2187539,118.741193 C64.9458907,118.9908 64.5758088,119.131028 64.189922,119.131028 Z" id="Path" fill="#FFFFFF"></path>
                                    <rect id="Rectangle" fill="#D7D9DC" fill-rule="nonzero" x="0.235920887" y="48.6424849" width="65.4089892" height="6.18238823"></rect>
                                    <path d="M0.235920887,54.8248731 L65.6449101,54.8248731 L65.6449101,136.105815 C65.6449101,138.049858 64.0689524,139.625815 62.1249101,139.625815 L3.79229559,139.625815 C1.84825327,139.625815 0.272295589,138.049858 0.272295589,136.105815 L0.272295589,54.8248731 L0.272295589,54.8248731 L0.235920887,54.8248731 Z" id="Path" fill="#FFFFFF" fill-rule="nonzero"></path>
                                    <rect id="Rectangle" fill="#EBEBED" fill-rule="nonzero" x="47.5521333" y="10.303692" width="12.1637004" height="6.18238823" rx="3.09119412"></rect>
                                    <rect id="Rectangle" fill="#878C97" fill-rule="nonzero" x="49.1817199" y="11.6413239" width="4.0521418" height="3.70677099" rx="1.85338549"></rect>
                                    <rect id="Rectangle" fill="#D7D9DC" fill-rule="nonzero" x="5.64847655" y="10.303692" width="32.4462342" height="6.18238823" rx="1.76"></rect>
                                    <rect id="Rectangle" fill-opacity="0.4" fill="#D7D9DC" fill-rule="nonzero" x="5.64847655" y="35.0398998" width="14.8699782" height="4.94457961" rx="1.76"></rect>
                                    <rect id="Rectangle" fill-opacity="0.4" fill="#D7D9DC" fill-rule="nonzero" x="25.247166" y="35.0398998" width="14.8699782" height="4.94457961" rx="1.76"></rect>
                                    <rect id="Rectangle" fill-opacity="0.4" fill="#D7D9DC" fill-rule="nonzero" x="44.8458554" y="35.0398998" width="14.8699782" height="4.94457961" rx="1.76"></rect>
                                    <rect id="Rectangle" fill-opacity="0.4" fill="#D7D9DC" fill-rule="nonzero" x="5.64847655" y="20.1995061" width="54.074632" height="11.1269678" rx="2.64"></rect>
                                    <rect id="Rectangle" fill="#373F51" fill-rule="nonzero" x="0.235920887" y="48.6424849" width="32.4462342" height="6.18238823"></rect>
                                    <rect id="Rectangle" fill="#D7D9DC" fill-rule="nonzero" x="20.5184547" y="61.0072614" width="37.8515149" height="2.47561725" rx="0.88"></rect>
                                    <path d="M-16.9273967,95.0625371 L39.0785609,95.0625371 C39.3215662,95.0625371 39.5185609,95.2595318 39.5185609,95.5025371 L39.5185609,95.975676 C39.5185609,96.2186813 39.3215662,96.415676 39.0785609,96.415676 L-16.9273967,96.415676 C-17.170402,96.415676 -17.3673967,96.2186813 -17.3673967,95.975676 L-17.3673967,95.5025371 C-17.3673967,95.2595318 -17.170402,95.0625371 -16.9273967,95.0625371 Z" id="Rectangle" fill="#F5F5F6" fill-rule="nonzero" transform="translate(11.075582, 95.739107) rotate(90.000000) translate(-11.075582, -95.739107) "></path>
                                    <rect id="Rectangle" fill-opacity="0.4" fill="#D7D9DC" fill-rule="nonzero" x="20.5184547" y="65.951841" width="27.7611726" height="2.47561725" rx="0.88"></rect>
                                    <ellipse id="Oval" fill="#FC6A59" fill-rule="nonzero" cx="11.0537573" cy="64.7140323" rx="5.40528072" ry="4.94457961"></ellipse>
                                    <path d="M11.0537573,62.24507 C12.1490056,62.24507 13.1362699,62.848961 13.5547204,63.774853 C13.973171,64.7007451 13.7402968,65.7660723 12.9647976,66.4735674 C12.1892984,67.1810625 11.0240889,67.39122 10.0130588,67.0059438 C9.00202867,66.6206676 8.34453522,65.7159273 8.34746959,64.7140323 C8.35148965,63.3493863 9.56195773,62.24507 11.0537573,62.24507 L11.0537573,62.24507 Z M11.0537573,59.7694482 C8.86326159,59.7667613 6.88695612,60.9721032 6.04733001,62.8228557 C5.2077039,64.6736081 5.67031665,66.8048352 7.2192324,68.2217342 C8.76814814,69.6386333 11.0979479,70.0618168 13.1211404,69.2937534 C15.144333,68.5256901 16.4619802,66.7178284 16.4590429,64.7140323 C16.4590429,61.9832164 14.0390114,59.7694482 11.0537573,59.7694482 L11.0537573,59.7694482 Z" id="Shape" fill="#FEE1DE" fill-rule="nonzero"></path>
                                    <rect id="Rectangle" fill="#D7D9DC" fill-rule="nonzero" x="20.5184547" y="75.7811062" width="37.8515149" height="2.47561725" rx="0.88"></rect>
                                    <rect id="Rectangle" fill-opacity="0.4" fill="#D7D9DC" fill-rule="nonzero" x="20.5184547" y="80.7256858" width="27.7611726" height="2.47561725" rx="0.88"></rect>
                                    <ellipse id="Oval" fill="#00DDA6" fill-rule="nonzero" cx="11.0537573" cy="79.4878772" rx="5.40528072" ry="4.94457961"></ellipse>
                                    <path d="M11.0537573,77.0388795 C12.5483932,77.0388795 13.7600351,78.1472511 13.7600351,79.5144967 C13.7600351,80.8817424 12.5483932,81.990114 11.0537573,81.990114 C9.55912129,81.990114 8.34747944,80.8817424 8.34747944,79.5144967 C8.34747944,78.1472511 9.55912129,77.0388795 11.0537573,77.0388795 L11.0537573,77.0388795 Z M11.0537573,74.5699171 C8.06850316,74.5699171 5.64847655,76.7836808 5.64847655,79.5144967 C5.64847655,82.2453127 8.06850316,84.4590764 11.0537573,84.4590764 C14.0390114,84.4590764 16.459038,82.2453127 16.459038,79.5144967 C16.459038,76.7836808 14.0390114,74.5699171 11.0537573,74.5699171 L11.0537573,74.5699171 Z" id="Shape" fill="#CCF8ED" fill-rule="nonzero"></path>
                                    <rect id="Rectangle" fill="#D7D9DC" fill-rule="nonzero" x="20.5184547" y="90.5482962" width="37.8515149" height="2.47561725" rx="0.88"></rect>
                                    <rect id="Rectangle" fill-opacity="0.4" fill="#D7D9DC" fill-rule="nonzero" x="20.5184547" y="95.4928758" width="27.7611726" height="2.47561725" rx="0.88"></rect>
                                    <ellipse id="Oval" fill="#33ADB9" fill-rule="nonzero" cx="11.0537573" cy="94.2617221" rx="5.40528072" ry="4.94457961"></ellipse>
                                    <path d="M11.0537573,91.7861048 C12.5483932,91.7861048 13.7600351,92.8944764 13.7600351,94.2617221 C13.7600351,95.6289677 12.5483932,96.7373393 11.0537573,96.7373393 C9.55912129,96.7373393 8.34747944,95.6289677 8.34747944,94.2617221 C8.34747944,92.8944764 9.55912129,91.7861048 11.0537573,91.7861048 L11.0537573,91.7861048 Z M11.0537573,89.3104831 C8.86392323,89.3077951 6.8880774,90.5124161 6.04802394,92.3623509 C5.20797049,94.2122857 5.66924835,96.3429905 7.21665457,97.7604139 C8.76406079,99.1778372 11.0926672,99.602665 13.1160939,98.8366995 C15.1395206,98.0707341 16.4590429,96.2649147 16.4590429,94.2617221 C16.4609691,92.9491854 15.8923385,91.6898019 14.8784423,90.7610735 C13.8645461,89.8323451 12.4885882,89.3104831 11.0537573,89.3104831 Z" id="Shape" fill="#CCEBED" fill-rule="nonzero"></path>
                                    <rect id="Rectangle" fill="#D7D9DC" fill-rule="nonzero" x="20.5184547" y="105.322141" width="37.8515149" height="2.47561725" rx="0.88"></rect>
                                    <rect id="Rectangle" fill-opacity="0.4" fill="#D7D9DC" fill-rule="nonzero" x="20.5184547" y="110.266721" width="27.7611726" height="2.47561725" rx="0.88"></rect>
                                    <rect id="Rectangle" fill="#D7D9DC" fill-rule="nonzero" x="20.5184547" y="120.15588" width="37.8515149" height="2.47561725" rx="0.88"></rect>
                                    <rect id="Rectangle" fill-opacity="0.4" fill="#D7D9DC" fill-rule="nonzero" x="20.5184547" y="125.107114" width="27.7611726" height="2.47561725" rx="0.88"></rect>
                                    <ellipse id="Oval" fill="#EC7618" fill-rule="nonzero" cx="11.0537573" cy="109.028912" rx="5.40528072" ry="4.94457961"></ellipse>
                                    <path d="M11.0537573,106.553295 C12.5483932,106.553295 13.7600351,107.661666 13.7600351,109.028912 C13.7600351,110.396158 12.5483932,111.504529 11.0537573,111.504529 C9.55912129,111.504529 8.34747944,110.396158 8.34747944,109.028912 C8.34747944,107.661666 9.55912129,106.553295 11.0537573,106.553295 L11.0537573,106.553295 Z M11.0537573,104.084332 C8.06850316,104.084332 5.64847655,106.298096 5.64847655,109.028912 C5.64847655,111.759728 8.06850316,113.973492 11.0537573,113.973492 C14.0390114,113.973492 16.459038,111.759728 16.459038,109.028912 C16.459038,106.298096 14.0390114,104.084332 11.0537573,104.084332 Z" id="Shape" fill="#FCE9DA" fill-rule="nonzero"></path>
                                    <ellipse id="Oval" fill="#9290D9" fill-rule="nonzero" cx="11.0537573" cy="123.935855" rx="5.40528072" ry="4.94457961"></ellipse>
                                    <path d="M11.0537573,121.466883 C12.1490056,121.466883 13.1362699,122.070783 13.5547204,122.996675 C13.973171,123.922567 13.7402968,124.987895 12.9647976,125.69539 C12.1892984,126.402885 11.0240889,126.613042 10.0130588,126.227766 C9.00202867,125.84249 8.34453522,124.93775 8.34746959,123.935855 C8.34746959,123.27989 8.63283367,122.65089 9.14056942,122.187678 C9.64830518,121.724465 10.3366776,121.465124 11.0537573,121.466883 L11.0537573,121.466883 Z M11.0537573,118.991271 C8.86326159,118.988584 6.88695612,120.193926 6.04733001,122.044678 C5.2077039,123.89543 5.67031665,126.026657 7.2192324,127.443557 C8.76814814,128.860456 11.0979479,129.283639 13.1211404,128.515576 C15.144333,127.747512 16.4619802,125.939651 16.4590429,123.935855 C16.4590429,121.205039 14.0390114,118.991271 11.0537573,118.991271 L11.0537573,118.991271 Z" id="Shape" fill="#E4E3F5" fill-rule="nonzero"></path>
                                    <path d="M65.6303602,4.02770115 L65.6303602,5.35245749 L65.6303602,5.35245749 L0.235920887,5.35245749 L0.235920887,4.02770115 C0.235920887,2.08365883 1.81187857,0.507701153 3.75592089,0.507701153 L62.1103602,0.507701153 C64.0544025,0.507701153 65.6303602,2.08365883 65.6303602,4.02770115 Z" id="Path" fill="#373F51" fill-rule="nonzero"></path>
                                </g>
                                <g id="Group-3" transform="translate(70.616618, 0.000000)">
                                    <path d="M64.5046118,118.507882 L1.68874427,118.507882 C0.881008628,118.507882 0.226209517,117.911934 0.226209517,117.176795 L0.226209517,4.48033116 L65.9671465,4.48033116 L65.9671465,117.176795 C65.9671465,117.911934 65.3123474,118.507882 64.5046118,118.507882 Z" id="Path" fill="#FFFFFF"></path>
                                    <rect id="Rectangle" fill="#D7D9DC" fill-rule="nonzero" x="0.226209517" y="48.6770564" width="65.740937" height="6.18754153"></rect>
                                    <path d="M0.226209517,54.8645979 L65.9671465,54.8645979 L65.9671465,167.49232 C65.9671465,168.950351 64.7851783,170.13232 63.3271465,170.13232 L2.89545696,170.13232 C1.43742522,170.13232 0.255456958,168.950351 0.255456958,167.49232 L0.255456958,54.8645979 L0.255456958,54.8645979 L0.226209517,54.8645979 Z" id="Path" fill="#FFFFFF" fill-rule="nonzero"></path>
                                    <rect id="Rectangle" fill="#EBEBED" fill-rule="nonzero" x="47.5983553" y="9.78393819" width="12.5681203" height="6.18754153" rx="3.09377076"></rect>
                                    <rect id="Rectangle" fill="#878C97" fill-rule="nonzero" x="49.5319123" y="11.1142241" width="3.86711394" height="3.53573802" rx="1.76786901"></rect>
                                    <rect id="Rectangle" fill="#D7D9DC" fill-rule="nonzero" x="5.06010194" y="9.78393819" width="32.8704685" height="6.18754153" rx="1.76"></rect>
                                    <rect id="Rectangle" fill-opacity="0.4" fill="#D7D9DC" fill-rule="nonzero" x="6.02688043" y="34.5341043" width="14.5016773" height="5.30360703" rx="1.76"></rect>
                                    <rect id="Rectangle" fill-opacity="0.4" fill="#D7D9DC" fill-rule="nonzero" x="25.3624501" y="34.5341043" width="14.5016773" height="5.30360703" rx="1.76"></rect>
                                    <rect id="Rectangle" fill-opacity="0.4" fill="#D7D9DC" fill-rule="nonzero" x="44.6980199" y="34.5341043" width="14.5016773" height="5.30360703" rx="1.76"></rect>
                                    <rect id="Rectangle" fill-opacity="0.4" fill="#D7D9DC" fill-rule="nonzero" x="6.02688043" y="19.5072177" width="54.1395952" height="11.4911486" rx="2.64"></rect>
                                    <rect id="Rectangle" fill="#373F51" fill-rule="nonzero" x="0.226209517" y="48.6770564" width="32.8704685" height="6.18754153"></rect>
                                    <rect id="Rectangle" fill="#D7D9DC" fill-rule="nonzero" x="20.5285577" y="60.1682049" width="37.7043609" height="2.65180351" rx="0.88"></rect>
                                    <path d="M-31.9705959,107.859246 L54.6589201,107.859246 C54.9019253,107.859246 55.0989201,108.056241 55.0989201,108.299246 L55.0989201,108.386025 C55.0989201,108.62903 54.9019253,108.826025 54.6589201,108.826025 L-31.9705959,108.826025 C-32.2136011,108.826025 -32.4105959,108.62903 -32.4105959,108.386025 L-32.4105959,108.299246 C-32.4105959,108.056241 -32.2136011,107.859246 -31.9705959,107.859246 Z" id="Rectangle" fill="#F5F5F6" fill-rule="nonzero" transform="translate(11.344162, 108.342635) rotate(90.000000) translate(-11.344162, -108.342635) "></path>
                                    <rect id="Rectangle" fill-opacity="0.4" fill="#D7D9DC" fill-rule="nonzero" x="20.5285577" y="65.471812" width="28.0365761" height="2.65180351" rx="0.88"></rect>
                                    <ellipse id="Oval" fill="#FFCE24" fill-rule="nonzero" cx="11.3441621" cy="108.342635" rx="5.31728167" ry="4.86163977"></ellipse>
                                    <path d="M11.3441621,105.908535 C12.4215757,105.905896 13.3945116,106.497261 13.8088284,107.406606 C14.2231452,108.315951 13.9971469,109.363968 13.2363237,110.061471 C12.4755005,110.758974 11.3298733,110.968426 10.3341913,110.592062 C9.33850933,110.215697 8.68909952,109.327728 8.68909952,108.342635 C8.69300849,107.002357 9.8782865,105.915726 11.3441621,105.908535 L11.3441621,105.908535 Z M11.3441621,103.480996 C8.40750852,103.480996 6.02688043,105.657626 6.02688043,108.342635 C6.02688043,111.027645 8.40750852,113.204275 11.3441621,113.204275 C14.2808157,113.204275 16.6614438,111.027645 16.6614438,108.342635 C16.6614438,105.657626 14.2808157,103.480996 11.3441621,103.480996 Z" id="Shape" fill="#FFF5D3" fill-rule="nonzero"></path>
                                    <rect id="Rectangle" fill="#D7D9DC" fill-rule="nonzero" x="20.5285577" y="75.1950915" width="37.7043609" height="2.65180351" rx="0.88"></rect>
                                    <rect id="Rectangle" fill-opacity="0.4" fill="#D7D9DC" fill-rule="nonzero" x="20.5285577" y="80.4986985" width="28.0365761" height="2.65180351" rx="0.88"></rect>
                                    <ellipse id="Oval" fill="#EC7618" fill-rule="nonzero" cx="11.3441621" cy="79.1727968" rx="5.31728167" ry="4.86163977"></ellipse>
                                    <path d="M11.3441621,76.7386964 C12.4215757,76.7360572 13.3945116,77.3274226 13.8088284,78.2367675 C14.2231452,79.1461123 13.9971469,80.1941299 13.2363237,80.8916325 C12.4755005,81.5891352 11.3298733,81.7985878 10.3341913,81.4222233 C9.33850933,81.0458588 8.68909952,80.1578896 8.68909952,79.1727968 C8.69300849,77.8325187 9.8782865,76.745887 11.3441621,76.7386964 L11.3441621,76.7386964 Z M11.3441621,74.311157 C8.40750852,74.311157 6.02688043,76.4877873 6.02688043,79.1727968 C6.02688043,81.8578063 8.40750852,84.0344365 11.3441621,84.0344365 C14.2808157,84.0344365 16.6614438,81.8578063 16.6614438,79.1727968 C16.6614438,76.4877873 14.2808157,74.311157 11.3441621,74.311157 L11.3441621,74.311157 Z" id="Shape" fill="#FCE9DA" fill-rule="nonzero"></path>
                                    <rect id="Rectangle" fill="#D7D9DC" fill-rule="nonzero" x="20.5285577" y="90.2219781" width="37.7043609" height="2.65180351" rx="0.88"></rect>
                                    <rect id="Rectangle" fill-opacity="0.4" fill="#D7D9DC" fill-rule="nonzero" x="20.5285577" y="94.6416506" width="28.0365761" height="2.65180351" rx="0.88"></rect>
                                    <ellipse id="Oval" fill="#F1335C" fill-rule="nonzero" cx="11.3441621" cy="94.1996833" rx="5.31728167" ry="4.86163977"></ellipse>
                                    <path d="M11.3513862,91.7688233 C12.427336,91.7661877 13.3989501,92.3567496 13.812704,93.2648589 C14.2264578,94.1729681 14.0007666,95.2195617 13.2409771,95.9161166 C12.4811876,96.6126715 11.3371168,96.8218396 10.3427876,96.4459864 C9.34845832,96.0701333 8.6999308,95.1833706 8.6999308,94.1996163 C8.70383447,92.8611594 9.88750215,91.7760041 11.3513862,91.7688233 L11.3513862,91.7688233 Z M11.3513862,89.3380436 C9.20012979,89.3354043 7.25909182,90.5182098 6.43383732,92.3346425 C5.60858283,94.1510752 6.0617345,96.2431933 7.58188055,97.6349473 C9.1020266,99.0267013 11.3896107,99.4438355 13.3773913,98.6917416 C15.3651719,97.9396476 16.6614438,96.1665314 16.6614438,94.1996163 C16.6614438,91.517196 14.2852057,89.3416534 11.3513862,89.3380436 Z" id="Shape" fill="#FCCCD6" fill-rule="nonzero"></path>
                                    <rect id="Rectangle" fill="#D7D9DC" fill-rule="nonzero" x="20.5285577" y="105.248865" width="37.7043609" height="2.65180351" rx="0.88"></rect>
                                    <rect id="Rectangle" fill-opacity="0.4" fill="#D7D9DC" fill-rule="nonzero" x="20.5285577" y="109.668537" width="28.0365761" height="2.65180351" rx="0.88"></rect>
                                    <rect id="Rectangle" fill="#D7D9DC" fill-rule="nonzero" x="20.5285577" y="119.391817" width="37.7043609" height="2.65180351" rx="0.88"></rect>
                                    <rect id="Rectangle" fill-opacity="0.4" fill="#D7D9DC" fill-rule="nonzero" x="20.5285577" y="124.695424" width="28.0365761" height="2.65180351" rx="0.88"></rect>
                                    <rect id="Rectangle" fill="#D7D9DC" fill-rule="nonzero" x="20.5285577" y="134.418703" width="37.7043609" height="2.65180351" rx="0.88"></rect>
                                    <rect id="Rectangle" fill-opacity="0.4" fill="#D7D9DC" fill-rule="nonzero" x="20.5285577" y="139.72231" width="28.0365761" height="2.65180351" rx="0.88"></rect>
                                    <rect id="Rectangle" fill="#D7D9DC" fill-rule="nonzero" x="20.5285577" y="149.44559" width="37.7043609" height="2.65180351" rx="0.88"></rect>
                                    <rect id="Rectangle" fill-opacity="0.4" fill="#D7D9DC" fill-rule="nonzero" x="20.5285577" y="153.865262" width="28.0365761" height="2.65180351" rx="0.88"></rect>
                                    <ellipse id="Oval" fill="#00DDA6" fill-rule="nonzero" cx="11.3441621" cy="64.1459102" rx="5.31728167" ry="4.86163977"></ellipse>
                                    <path d="M11.3513818,61.7150504 C12.4279812,61.7124166 13.4000461,62.3036875 13.8133791,63.2126003 C14.226712,64.1215131 13.9997079,65.1686195 13.2384345,65.8646589 C12.477161,66.5606982 11.3319178,66.7682502 10.33782,66.390336 C9.34372222,66.0124219 8.69703638,65.1236539 8.69991695,64.1393092 C8.7038534,62.8019229 9.88865314,61.7186495 11.3513818,61.7150504 L11.3513818,61.7150504 Z M11.3513818,59.2842704 C9.19947555,59.2816321 7.25798619,60.4651456 6.43315158,62.2823813 C5.60831696,64.099617 6.06277998,66.192248 7.58440884,67.5834874 C9.1060377,68.9747267 11.394794,69.3902464 13.3823444,68.6360925 C15.3698948,67.8819386 16.6643294,66.1068169 16.6614438,64.1393092 C16.6614438,61.4579478 14.2840454,59.2842704 11.3513818,59.2842704 L11.3513818,59.2842704 Z" id="Shape" fill="#CCF8ED" fill-rule="nonzero"></path>
                                    <ellipse id="Oval" fill="#33ADB9" fill-rule="nonzero" cx="11.3441621" cy="123.369522" rx="5.31728167" ry="4.86163977"></ellipse>
                                    <path d="M11.3513818,120.938662 C12.4279812,120.936028 13.4000461,121.527299 13.8133791,122.436212 C14.226712,123.345125 13.9997079,124.392231 13.2384345,125.088271 C12.477161,125.78431 11.3319178,125.991862 10.33782,125.613948 C9.34372222,125.236034 8.69703638,124.347266 8.69991695,123.362921 C8.7038534,122.025535 9.88865314,120.942261 11.3513818,120.938662 L11.3513818,120.938662 Z M11.3513818,118.507882 C9.19947555,118.505244 7.25798619,119.688757 6.43315158,121.505993 C5.60831696,123.323229 6.06277998,125.41586 7.58440884,126.807099 C9.1060377,128.198338 11.394794,128.613858 13.3823444,127.859704 C15.3698948,127.10555 16.6643294,125.330429 16.6614438,123.362921 C16.6614438,120.68156 14.2840454,118.507882 11.3513818,118.507882 Z" id="Shape" fill="#CCEBED" fill-rule="nonzero"></path>
                                    <ellipse id="Oval" fill="#9290D9" fill-rule="nonzero" cx="11.3441621" cy="138.396409" rx="5.31728167" ry="4.86163977"></ellipse>
                                    <path d="M11.3441621,135.962308 C12.4215757,135.959669 13.3945116,136.551034 13.8088284,137.460379 C14.2231452,138.369724 13.9971469,139.417742 13.2363237,140.115244 C12.4755005,140.812747 11.3298733,141.0222 10.3341913,140.645835 C9.33850933,140.269471 8.68909952,139.381501 8.68909952,138.396409 C8.69300849,137.05613 9.8782865,135.969499 11.3441621,135.962308 L11.3441621,135.962308 Z M11.3441621,133.534769 C8.40750852,133.534769 6.02688043,135.711399 6.02688043,138.396409 C6.02688043,141.081418 8.40750852,143.258048 11.3441621,143.258048 C14.2808157,143.258048 16.6614438,141.081418 16.6614438,138.396409 C16.6614438,135.711399 14.2808157,133.534769 11.3441621,133.534769 L11.3441621,133.534769 Z" id="Shape" fill="#E4E3F5" fill-rule="nonzero"></path>
                                    <ellipse id="Oval" fill="#FC6A59" fill-rule="nonzero" cx="11.3441621" cy="153.423295" rx="5.31728167" ry="4.86163977"></ellipse>
                                    <path d="M11.3513862,150.992435 C12.427336,150.989799 13.3989501,151.580361 13.812704,152.488471 C14.2264578,153.39658 14.0007666,154.443173 13.2409771,155.139728 C12.4811876,155.836283 11.3371168,156.045451 10.3427876,155.669598 C9.34845832,155.293745 8.6999308,154.406982 8.6999308,153.423228 C8.70383447,152.084771 9.88750215,150.999616 11.3513862,150.992435 L11.3513862,150.992435 Z M11.3513862,148.561655 C9.20012979,148.559016 7.25909182,149.741822 6.43383732,151.558254 C5.60858283,153.374687 6.0617345,155.466805 7.58188055,156.858559 C9.1020266,158.250313 11.3896107,158.667447 13.3773913,157.915353 C15.3651719,157.163259 16.6614438,155.390143 16.6614438,153.423228 C16.6614438,150.740808 14.2852057,148.565265 11.3513862,148.561655 Z" id="Shape" fill="#FEE1DE" fill-rule="nonzero"></path>
                                    <path d="M65.9671465,4.03024602 L65.9671465,5.36426567 L65.9671465,5.36426567 L0.226209517,5.36426567 L0.226209517,4.03024602 C0.226209517,2.0862037 1.8021672,0.510246019 3.74620952,0.510246019 L62.4471465,0.510246019 C64.3911889,0.510246019 65.9671465,2.0862037 65.9671465,4.03024602 Z" id="Path" fill="#373F51" fill-rule="nonzero"></path>
                                </g>
                                <g id="Group-4" transform="translate(0.000000, 6.985371)">
                                    <path d="M64.1023948,118.986355 L1.89596484,118.986355 C1.09615893,118.986355 0.447788141,118.391175 0.447788141,117.656983 L0.447788141,5.10572222 L65.5505715,5.10572222 L65.5505715,117.656983 C65.5505715,118.391175 64.9022007,118.986355 64.1023948,118.986355 Z" id="Path" fill="#FFFFFF"></path>
                                    <rect id="Rectangle" fill="#D7D9DC" fill-rule="nonzero" x="0.447788141" y="48.5828259" width="65.1027833" height="6.17493186"></rect>
                                    <path d="M0.447788141,54.7577577 L65.5505715,54.7577577 L65.5505715,121.122354 C65.5505715,123.066396 63.9746138,124.642354 62.0305715,124.642354 L3.96778814,124.642354 C2.02374582,124.642354 0.447788141,123.066396 0.447788141,121.122354 L0.447788141,54.7577577 L0.447788141,54.7577577 Z" id="Path" fill="#FFFFFF" fill-rule="nonzero"></path>
                                    <rect id="Rectangle" fill="#CCF8ED" fill-rule="nonzero" x="47.5424943" y="10.2902721" width="12.1067572" height="6.17493186" rx="3.08746593"></rect>
                                    <rect id="Rectangle" fill="#00C392" fill-rule="nonzero" x="54.5444286" y="11.6262907" width="4.0331721" height="3.70230037" rx="1.85115019"></rect>
                                    <rect id="Rectangle" fill="#D7D9DC" fill-rule="nonzero" x="5.82776457" y="10.2902721" width="32.2943403" height="6.17493186" rx="1.76"></rect>
                                    <rect id="Rectangle" fill-opacity="0.4" fill="#D7D9DC" fill-rule="nonzero" x="5.82776457" y="34.9966464" width="14.8003658" height="4.93861612" rx="1.76"></rect>
                                    <rect id="Rectangle" fill-opacity="0.4" fill="#D7D9DC" fill-rule="nonzero" x="25.3419455" y="34.9966464" width="14.8003658" height="4.93861612" rx="1.76"></rect>
                                    <rect id="Rectangle" fill-opacity="0.4" fill="#D7D9DC" fill-rule="nonzero" x="44.8488856" y="34.9966464" width="14.8003658" height="4.93861612" rx="1.76"></rect>
                                    <rect id="Rectangle" fill-opacity="0.4" fill="#D7D9DC" fill-rule="nonzero" x="5.82776457" y="20.1741512" width="53.8214869" height="11.113548" rx="2.64"></rect>
                                    <rect id="Rectangle" fill="#373F51" fill-rule="nonzero" x="0.447788141" y="48.5828259" width="32.2943403" height="6.17493186"></rect>
                                    <rect id="Rectangle" fill="#D7D9DC" fill-rule="nonzero" x="20.6281304" y="60.9326896" width="37.6743167" height="2.47263149" rx="0.88"></rect>
                                    <path d="M-8.1768688,84.0351015 L30.6647596,84.0351015 C30.9077649,84.0351015 31.1047596,84.2320962 31.1047596,84.4751015 L31.1047596,84.9419058 C31.1047596,85.1849111 30.9077649,85.3819058 30.6647596,85.3819058 L-8.1768688,85.3819058 C-8.41987409,85.3819058 -8.6168688,85.1849111 -8.6168688,84.9419058 L-8.6168688,84.4751015 C-8.6168688,84.2320962 -8.41987409,84.0351015 -8.1768688,84.0351015 Z" id="Rectangle" fill="#F5F5F6" fill-rule="nonzero" transform="translate(11.243945, 84.708504) rotate(90.000000) translate(-11.243945, -84.708504) "></path>
                                    <rect id="Rectangle" fill-opacity="0.4" fill="#D7D9DC" fill-rule="nonzero" x="20.6281304" y="65.8713057" width="27.6312114" height="2.47263149" rx="0.88"></rect>
                                    <ellipse id="Oval" fill="#FC6A59" fill-rule="nonzero" cx="11.2149819" cy="64.63499" rx="5.37997642" ry="4.93861612"></ellipse>
                                    <path d="M11.2149819,62.1690053 C12.305103,62.1690053 13.2877454,62.772168 13.704237,63.6969434 C14.1207286,64.6217187 13.8889446,65.6857611 13.1170759,66.3924029 C12.3452071,67.0990447 11.1854524,67.3089488 10.1791553,66.9241372 C9.17285824,66.5393257 8.51844279,65.6356765 8.52136342,64.63499 C8.52536466,63.2719898 9.73016605,62.1690053 11.2149819,62.1690053 L11.2149819,62.1690053 Z M11.2149819,59.6963694 C9.03474079,59.6936856 7.0676872,60.8975739 6.23199172,62.7460942 C5.39629623,64.5946145 5.85674331,66.7232712 7.39840796,68.1384613 C8.94007261,69.5536515 11.2589657,69.9763246 13.2726868,69.2091876 C15.2864079,68.4420506 16.5978868,66.6363693 16.5949632,64.63499 C16.5909695,61.9089857 14.184607,59.7000354 11.2149819,59.6963694 L11.2149819,59.6963694 Z" id="Shape" fill="#FEE1DE" fill-rule="nonzero"></path>
                                    <rect id="Rectangle" fill="#D7D9DC" fill-rule="nonzero" x="20.6281304" y="75.6887162" width="37.6743167" height="2.47263149" rx="0.88"></rect>
                                    <rect id="Rectangle" fill-opacity="0.4" fill="#D7D9DC" fill-rule="nonzero" x="20.6281304" y="80.6273323" width="27.6312114" height="2.47263149" rx="0.88"></rect>
                                    <ellipse id="Oval" fill="#33ADB9" fill-rule="nonzero" cx="11.2149819" cy="79.3910166" rx="5.37997642" ry="4.93861612"></ellipse>
                                    <path d="M11.2149819,76.9449725 C12.7026209,76.9449725 13.9085905,78.0520074 13.9085905,79.417604 C13.9085905,80.7832007 12.7026209,81.8902355 11.2149819,81.8902355 C9.72734289,81.8902355 8.52137322,80.7832007 8.52137322,79.417604 C8.52137322,78.0520074 9.72734289,76.9449725 11.2149819,76.9449725 L11.2149819,76.9449725 Z M11.2149819,74.4789879 C8.24370294,74.4789879 5.83500545,76.6900817 5.83500545,79.417604 C5.83500545,82.1451264 8.24370294,84.3562201 11.2149819,84.3562201 C14.1862608,84.3562201 16.5949583,82.1451264 16.5949583,79.417604 C16.5909695,76.6915997 14.184607,74.4826494 11.2149819,74.4789879 Z" id="Shape" fill="#CCEBED" fill-rule="nonzero"></path>
                                    <rect id="Rectangle" fill="#D7D9DC" fill-rule="nonzero" x="20.6281304" y="90.438096" width="37.6743167" height="2.47263149" rx="0.88"></rect>
                                    <rect id="Rectangle" fill-opacity="0.4" fill="#D7D9DC" fill-rule="nonzero" x="20.6281304" y="95.3767121" width="27.6312114" height="2.47263149" rx="0.88"></rect>
                                    <ellipse id="Oval" fill="#F1335C" fill-rule="nonzero" cx="11.2149819" cy="94.1470432" rx="5.37997642" ry="4.93861612"></ellipse>
                                    <path d="M11.2149819,91.6744117 C12.7026209,91.6744117 13.9085905,92.7814465 13.9085905,94.1470432 C13.9085905,95.5126399 12.7026209,96.6196747 11.2149819,96.6196747 C9.72734289,96.6196747 8.52137322,95.5126399 8.52137322,94.1470432 C8.52137322,92.7814465 9.72734289,91.6744117 11.2149819,91.6744117 L11.2149819,91.6744117 Z M11.2149819,89.2017757 C9.03539933,89.199091 7.06880323,90.4022591 6.2326824,92.2499628 C5.39656158,94.0976664 5.85568001,96.2258015 7.3958422,97.6415153 C8.93600439,99.0572292 11.2537096,99.4815446 13.2676639,98.7165029 C15.2816181,97.9514613 16.5949583,96.1478198 16.5949583,94.1470432 C16.5949583,91.4184435 14.1874317,89.2054477 11.2149819,89.2017757 L11.2149819,89.2017757 Z" id="Shape" fill="#FCCCD6" fill-rule="nonzero"></path>
                                    <rect id="Rectangle" fill="#D7D9DC" fill-rule="nonzero" x="20.6281304" y="105.194123" width="37.6743167" height="2.47263149" rx="0.88"></rect>
                                    <rect id="Rectangle" fill-opacity="0.4" fill="#D7D9DC" fill-rule="nonzero" x="20.6281304" y="110.132739" width="27.6312114" height="2.47263149" rx="0.88"></rect>
                                    <ellipse id="Oval" fill="#00DDA6" fill-rule="nonzero" cx="11.2149819" cy="108.896423" rx="5.37997642" ry="4.93861612"></ellipse>
                                    <path d="M11.2149819,106.423791 C12.7026209,106.423791 13.9085905,107.530826 13.9085905,108.896423 C13.9085905,110.26202 12.7026209,111.369054 11.2149819,111.369054 C9.72734289,111.369054 8.52137322,110.26202 8.52137322,108.896423 C8.52137322,107.530826 9.72734289,106.423791 11.2149819,106.423791 L11.2149819,106.423791 Z M11.2149819,103.957807 C8.24370294,103.957807 5.83500545,106.168901 5.83500545,108.896423 C5.83500545,111.623945 8.24370294,113.835039 11.2149819,113.835039 C14.1862608,113.835039 16.5949583,111.623945 16.5949583,108.896423 C16.5909695,106.170419 14.184607,103.961468 11.2149819,103.957807 Z" id="Shape" fill="#CCF8ED" fill-rule="nonzero"></path>
                                    <path d="M65.5360897,4.02609591 L65.5360897,5.34500914 L65.5360897,5.34500914 L0.447788141,5.34500914 L0.447788141,4.02609591 C0.447788141,2.08205359 2.02374582,0.506095905 3.96778814,0.506095905 L62.0160897,0.506095905 C63.960132,0.506095905 65.5360897,2.08205359 65.5360897,4.02609591 Z" id="Path" fill="#373F51" fill-rule="nonzero"></path>
                                </g>
                            </g>
                        </g>
                    </g>
                </g>
            </g>
        </g>
    </g>
</svg>