<?xml version="1.0" encoding="UTF-8"?>
<svg width="76px" height="78px" viewBox="0 0 76 78" version="1.1" xmlns="http://www.w3.org/2000/svg" xmlns:xlink="http://www.w3.org/1999/xlink">
    <!-- Generator: sketchtool 53 (72520) - https://sketchapp.com -->
    <title>BEE4A95E-F27E-47E3-8832-643E84208A55</title>
    <desc>Created with sketchtool.</desc>
    <defs>
        <polygon id="path-1" points="0.164300078 0.12211827 77.6819134 0.12211827 77.6819134 80.4726637 0.164300078 80.4726637"></polygon>
        <path d="M76.4358974,40.4434552 C76.4358974,61.8375982 59.703965,79.1809967 39.0641026,79.1809967 C18.4242402,79.1809967 1.69230769,61.8375982 1.69230769,40.4434552 C1.69230769,19.0493121 18.4242402,1.70591363 39.0641026,1.70591363 C59.703965,1.70591363 76.4358974,19.0493121 76.4358974,40.4434552" id="path-3"></path>
        <path d="M37.4516149,77.7674441 C70.9844092,77.7674441 77.5573322,76.5369059 77.5677681,67.5726 C77.5609989,61.7645998 74.8705118,52.8210514 74.8705118,38.9810776 C74.8705118,17.5602397 58.117512,0.195003321 37.4516149,0.195003321 C16.7859998,0.195003321 0.0329999996,17.5602397 0.0329999996,38.9810776 C0.0329999996,60.4025001 16.7859998,77.7674441 37.4516149,77.7674441 Z" id="path-5"></path>
        <path d="M26.2396815,51.5759517 L3.76414352,51.5759517 C1.759041,51.5759517 0.13329744,49.891088 0.13329744,47.8127092 L0.13329744,0.13220465 L26.2396815,0.13220465 L26.2396815,51.5759517 Z" id="path-7"></path>
        <path d="M58.5816543,48.994948 L51.6242956,45.0481043 L0.103117946,45.0481043 L0.103117946,0.0736744198 L53.0971673,0.0736744198 C56.1261159,0.0736744198 58.5816543,2.61895005 58.5816543,5.75829875 L58.5816543,48.994948 Z" id="path-9"></path>
        <polygon id="path-11" points="4.75961551e-05 0.116179901 17.518764 0.116179901 17.518764 21.9269113 4.75961551e-05 21.9269113"></polygon>
        <path d="M44.1410237,82.7375392 C23.5011624,82.7375392 6.76923077,65.3941412 6.76923077,43.9999987 C6.76923077,22.6058563 17.2859489,1.60839039 59.7090668,1.60839039 C84.7874803,1.60839039 81.5128167,22.6058563 81.5128167,43.9999987 C81.5128167,65.3941412 64.7808851,82.7375392 44.1410237,82.7375392 Z" id="path-13"></path>
        <polygon id="path-15" points="0.000134859398 0.00016158367 9.84210574 0.00016158367 9.84210574 11.5485574 0.000134859398 11.5485574"></polygon>
        <path d="M8.83912624,5.730782 C8.51466125,6.07534773 7.84664509,6.76008281 7.29420633,7.32446719 C7.32230542,6.57433606 7.25285294,5.77034936 7.06835324,4.94987626 C6.36004404,1.79383006 4.25579313,-0.395014106 2.36838238,0.0600104903 C0.480971637,0.515035087 -0.47439751,3.4424699 0.233911691,6.59851611 C0.942220892,9.75456231 3.04647181,11.943956 4.93388255,11.4889314 C4.99220142,11.4746432 5.04680909,11.4510127 5.10353745,11.4323281 C5.40149386,11.3971571 5.75193726,11.2641669 6.16865211,10.9932404 C7.71675306,9.98757008 8.53003623,8.38014623 9.36505643,7.01782017 C10.4333521,5.27465831 9.46154765,5.06967743 8.83912624,5.730782" id="path-17"></path>
    </defs>
    <g id="KelleGuides-Onboarding-2" stroke="none" stroke-width="1" fill="none" fill-rule="evenodd">
        <g id="[OW][01]-Base" transform="translate(-74.000000, -46.000000)">
            <g id="Header">
                <g id="Group-9">
                    <g id="Illustration/ListingExperience/Onboarding-Copy-46" transform="translate(68.000000, 41.000000)">
                        <g id="Page-1" transform="translate(5.076923, 3.508306)">
                            <g id="Group-3" transform="translate(0.000000, 0.048239)">
                                <mask id="mask-2" fill="white">
                                    <use xlink:href="#path-1"></use>
                                </mask>
                                <g id="Clip-2"></g>
                                <mask id="mask-4" fill="white">
                                    <use xlink:href="#path-3"></use>
                                </mask>
                                <use id="Fill-1" fill="#F5F5F6" xlink:href="#path-3"></use>
                                <g id="Map" mask="url(#mask-4)">
                                    <g transform="translate(-0.846154, 7.601329)">
                                        <g id="Group-31" stroke-width="1" fill="none" fill-rule="evenodd" transform="translate(0.000000, 14.422937)">
                                            <g id="Group-6" transform="translate(2.820513, 0.000000)">
                                                <mask id="mask-6" fill="white">
                                                    <use xlink:href="#path-5"></use>
                                                </mask>
                                                <g id="Clip-5"></g>
                                                <g id="Group-2" mask="url(#mask-6)">
                                                    <g transform="translate(43.435897, 22.803987)">
                                                        <mask id="mask-8" fill="white">
                                                            <use xlink:href="#path-7"></use>
                                                        </mask>
                                                        <use id="Fill-4" stroke="none" fill="#CCEBED" fill-rule="evenodd" xlink:href="#path-7"></use>
                                                    </g>
                                                </g>
                                            </g>
                                            <polygon id="Fill-7" fill="#FFFFFF" points="49.1048459 28.4532351 70.9446405 28.4532351 70.9446405 27.5156404 49.1048459 27.5156404"></polygon>
                                            <polygon id="Fill-9" fill="#FFFFFF" points="49.0526671 35.021369 64.3062828 35.021369 64.3062828 34.0837743 49.0526671 34.0837743"></polygon>
                                            <polygon id="Fill-10" fill="#FFFFFF" points="49.0526671 43.8348164 70.8924617 43.8348164 70.8924617 42.8972217 49.0526671 42.8972217"></polygon>
                                            <polygon id="Fill-11" fill="#FFFFFF" points="64.555335 54.9777793 70.8924633 54.9777793 70.8924633 54.0401847 64.555335 54.0401847"></polygon>
                                            <polygon id="Fill-13" fill="#FFFFFF" points="64.0549755 73.1338497 64.9595139 73.1338497 64.9595139 24.6423395 64.0549755 24.6423395"></polygon>
                                            <path d="M62.0750571,74.379939 L50.0100318,74.379939 C47.9527498,74.379939 46.2852627,72.6515137 46.2852627,70.519341 L46.2852627,22.9361919 L62.0750571,22.9361919 L62.0750571,74.379939 Z" id="Fill-14" fill="#01707B" style="mix-blend-mode: multiply;" opacity="0.132645089"></path>
                                            <path d="M58.5816545,59.0139679 L51.6242957,66.2893164 L1.31936098,66.2893164 L11.3851689,21.3148867 L53.0971675,21.3148867 C56.1261161,21.3148867 58.5816545,23.8601623 58.5816545,26.999511 L58.5816545,59.0139679 Z" id="Fill-15" fill="#F5F5F6"></path>
                                            <g id="Group" transform="translate(0.000000, 14.033223)">
                                                <mask id="mask-10" fill="white">
                                                    <use xlink:href="#path-9"></use>
                                                </mask>
                                                <use id="Fill-16" fill="#E5F4F6" xlink:href="#path-9"></use>
                                            </g>
                                            <polygon id="Fill-17" fill="#FFFFFF" points="36.5270527 57.1099532 37.4315911 57.1099532 37.4315911 15.5055413 36.5270527 15.5055413"></polygon>
                                            <polygon id="Fill-18" fill="#FFFFFF" points="46.0254102 57.1099532 46.9299487 57.1099532 46.9299487 15.5055413 46.0254102 15.5055413"></polygon>
                                            <polygon id="Fill-19" fill="#FFFFFF" points="0.141307689 33.0236812 36.9391272 33.0236812 36.9391272 32.0860865 0.141307689 32.0860865"></polygon>
                                            <polygon id="Fill-20" fill="#FFFFFF" points="0.0612051262 25.7705522 15.4414612 25.7705522 15.4414612 24.8329575 0.0612051262 24.8329575"></polygon>
                                            <polygon id="Fill-21" fill="#FFFFFF" points="23.9988969 21.6842519 46.2047953 21.6842519 46.2047953 20.7463649 23.9988969 20.7463649"></polygon>
                                            <polygon id="Fill-22" fill="#FFFFFF" points="24.1348462 38.8255398 51.5524873 38.8255398 51.5524873 37.8879451 24.1348462 37.8879451"></polygon>
                                            <polygon id="Fill-23" fill="#FFFFFF" points="0 43.8856856 46.4239471 43.8856856 46.4239471 42.9480909 0 42.9480909"></polygon>
                                            <polygon id="Fill-24" fill="#FFFFFF" points="30.7602302 57.1099554 31.6647687 57.1099554 31.6647687 15.6186845 30.7602302 15.6186845"></polygon>
                                            <polygon id="Fill-25" fill="#FFFFFF" points="23.5236411 57.1099532 24.4281796 57.1099532 24.4281796 15.6151759 23.5236411 15.6151759"></polygon>
                                            <polygon id="Fill-26" fill="#FFFFFF" points="14.8167184 57.1099532 15.7212568 57.1099532 15.7212568 15.38392 14.8167184 15.38392"></polygon>
                                            <path d="M58.581657,42.1582284 C58.6022467,41.9942151 58.6081698,40.7929128 58.6050672,40.6233447 C58.581657,39.3322882 56.9401185,37.8856968 54.9149902,37.8856968 L46.406349,37.8856968 L46.406349,38.8843945 L54.9149902,38.8843945 C56.7762467,38.8843945 58.3450159,40.2959028 58.581657,42.1582284" id="Fill-27" fill="#FFFFFF"></path>
                                            <path d="M58.5772585,36.4846248 C58.5978483,36.3206115 58.6037713,35.1193091 58.6006688,34.949741 C58.5772585,33.6586845 56.935438,32.2120931 54.9103097,32.2120931 L46.4019505,32.2120931 L46.4019505,33.2107908 L54.9103097,33.2107908 C56.7718482,33.2107908 58.3406175,34.6222991 58.5772585,36.4846248" id="Fill-28" fill="#FFFFFF"></path>
                                            <path d="M58.5687112,55.757472 C58.589583,55.5934587 58.5955061,54.3921563 58.5921215,54.2225882 C58.5687112,52.9315317 56.9271727,51.4849403 54.9020445,51.4849403 L46.3934033,51.4849403 L46.3934033,52.483638 L54.9020445,52.483638 C56.7633009,52.483638 58.3323522,53.8951464 58.5687112,55.757472" id="Fill-29" fill="#FFFFFF"></path>
                                        </g>
                                        <g id="Pin-Copy-4" stroke-width="1" fill="none" fill-rule="evenodd" transform="translate(6.769231, 33.573023)">
                                            <path d="M20.6610406,9.41800172 L20.6610406,9.41800172 C19.2125137,6.05159066 14.8189351,4.85346466 10.8483808,6.7421746 C6.87782647,8.63051326 4.95541195,12.9678259 6.40393893,16.334237 L8.90483294,22.3519706 L16.0944555,18.9328375 C20.065368,17.0441276 22.1099258,12.7844128 20.6610406,9.41800172" id="Page-1" fill="#01707B" opacity="0.475656703" style="mix-blend-mode: multiply;"></path>
                                            <g id="Group-3">
                                                <mask id="mask-12" fill="white">
                                                    <use xlink:href="#path-11"></use>
                                                </mask>
                                                <g id="Clip-2"></g>
                                                <path d="M2.56571827,15.5385209 L8.75956444,21.927106 L14.9530933,15.5385209 C18.3739875,12.0105793 18.3739875,6.29027403 14.9530933,2.76233245 L14.9530933,2.76200518 C11.5325164,-0.765936408 5.9862952,-0.765936408 2.56571827,2.76200518 L2.56571827,2.76233245 C-0.855175963,6.29027403 -0.855175963,12.0105793 2.56571827,15.5385209" id="Fill-1" fill="#6662CE" mask="url(#mask-12)"></path>
                                                <ellipse id="Oval" fill="#FFFFFF" fill-rule="nonzero" mask="url(#mask-12)" cx="8.74358974" cy="8.77076412" rx="3.66666667" ry="3.80066445"></ellipse>
                                            </g>
                                        </g>
                                        <path d="M30.8447909,0.877076412 L35.5384615,0.877076412 C41.925139,0.877076412 47.1025641,6.05450148 47.1025641,12.441179 L47.1025641,14.6179402 L30.8447909,14.6179402 C27.0503561,14.6179402 23.974359,11.5419431 23.974359,7.74750831 L23.974359,7.74750831 C23.974359,3.95307355 27.0503561,0.877076412 30.8447909,0.877076412 Z" id="Rectangle" fill="#D7D9DC" fill-rule="nonzero" opacity="0.347321429"></path>
                                        <path d="M31.6909447,0 L36.3846154,0 C42.7712929,-1.17321362e-15 47.9487179,5.17742507 47.9487179,11.5641026 L47.9487179,13.7408638 L31.6909447,13.7408638 C27.89651,13.7408638 24.8205128,10.6648667 24.8205128,6.87043189 L24.8205128,6.87043189 C24.8205128,3.07599713 27.89651,2.4733832e-15 31.6909447,1.77635684e-15 Z" id="Rectangle" fill="#FFFFFF" fill-rule="nonzero"></path>
                                        <ellipse id="Oval-2" fill="#D7D9DC" fill-rule="nonzero" cx="30.7435897" cy="7.0166113" rx="1.41025641" ry="1.46179402"></ellipse>
                                        <ellipse id="Oval-2-Copy" fill="#D7D9DC" fill-rule="nonzero" cx="36.9487179" cy="7.0166113" rx="1.41025641" ry="1.46179402"></ellipse>
                                        <ellipse id="Oval-2-Copy-2" fill="#D7D9DC" fill-rule="nonzero" cx="43.1538462" cy="7.0166113" rx="1.41025641" ry="1.46179402"></ellipse>
                                    </g>
                                </g>
                            </g>
                        </g>
                        <mask id="mask-14" fill="white">
                            <use xlink:href="#path-13"></use>
                        </mask>
                        <g id="Fill-1"></g>
                        <g id="Man" mask="url(#mask-14)">
                            <g transform="translate(26.512821, 8.770764)">
                                <path d="M56.5132709,41.3780581 C55.8320004,36.7552719 53.1136915,26.4481935 51.2453668,26.4481935 C48.514983,26.4481935 47.2935868,30.5437464 47.9345643,36.7618665 C49.0945798,48.0193291 57.2968646,71.9883547 57.2968646,71.9883547 C57.2968646,71.9883547 59.8236624,63.8440737 56.5132709,41.3780581 Z" id="Fill-110" fill="#3EC5D3" fill-rule="evenodd"></path>
                                <polygon id="Fill-112" fill="#3EC5D3" fill-rule="evenodd" points="51.3049694 26.423634 26.4531768 26.1363266 29.1936337 72.710459 43.9366449 72.710459"></polygon>
                                <path d="M10.5344078,61.3873747 C10.5344078,61.3873747 9.5827498,52.4061343 14.8139528,42.318107 C18.9864032,34.2716454 23.3975338,25.61118 27.3038381,26.0348805 C31.2101423,26.4585809 26.8504383,34.7777778 24.4514119,38.4487492 L10.5344078,61.3873747 Z" id="Fill-114" fill="#3EC5D3" fill-rule="evenodd"></path>
                                <path d="M10.5449535,61.2975851 C7.63166064,44.7029255 5.50832347,30.6284867 5.50832347,30.6284867 C5.50832347,30.6284867 6.61797258,30.2146781 7.58818657,31.491275 C9.88276916,34.5088355 14.3081113,42.5377118 13.2191389,56.1510809 C13.0563762,58.190998 11.7526843,59.1713892 10.5449535,61.2975851" id="Fill-116" fill="#3EC5D3" fill-rule="evenodd"></path>
                                <polygon id="Fill-118" fill="#FFFFFF" fill-rule="evenodd" points="45.2843929 26.2309131 33.2701751 26.1363266 37.231617 58.6994367"></polygon>
                                <polygon id="Fill-120" fill="#0F98AE" fill-rule="evenodd" points="41.0344327 27.8523974 36.3864182 27.7853527 38.4334108 32.4136343 35.3191828 42.7780835 37.256007 64.8174315 40.9814155 43.4062153 38.9874401 32.3784633"></polygon>
                                <g id="Page-1" stroke-width="1" fill="none" fill-rule="evenodd" transform="translate(0.000000, 20.590414)">
                                    <mask id="mask-16" fill="white">
                                        <use xlink:href="#path-15"></use>
                                    </mask>
                                    <g id="Clip-2"></g>
                                    <path d="M8.83912624,5.730782 C8.51466125,6.07534773 7.84664509,6.76008281 7.29420633,7.32446719 C7.32230542,6.57433606 7.25285294,5.77034936 7.06835324,4.94987626 C6.36004404,1.79383006 4.25579313,-0.395014106 2.36838238,0.0600104903 C0.480971637,0.515035087 -0.47439751,3.4424699 0.233911691,6.59851611 C0.942220892,9.75456231 3.04647181,11.943956 4.93388255,11.4889314 C4.99220142,11.4746432 5.04680909,11.4510127 5.10353745,11.4323281 C5.40149386,11.3971571 5.75193726,11.2641669 6.16865211,10.9932404 C7.71675306,9.98757008 8.53003623,8.38014623 9.36505643,7.01782017 C10.4333521,5.27465831 9.46154765,5.06967743 8.83912624,5.730782" id="Fill-1" fill="#FEC3BD" mask="url(#mask-16)"></path>
                                    <g id="Oval" mask="url(#mask-16)">
                                        <mask id="mask-18" fill="white">
                                            <use xlink:href="#path-17"></use>
                                        </mask>
                                        <use id="Mask" fill="#FEC3BD" xlink:href="#path-17"></use>
                                    </g>
                                </g>
                                <polygon id="Fill-122" fill="#FEC3BD" fill-rule="evenodd" points="36.8739616 26.1208602 42.3007977 26.1208602 42.3007977 11.5371819 36.8739616 11.5371819"></polygon>
                                <path d="M42.7432803,7.80894742 C42.7432803,12.8944517 39.7594746,16.8577819 39.0681308,20.366637 C38.9610362,20.9106881 36.8281559,20.9601473 34.3888364,20.8024274 C31.4331299,20.6111852 30.3404462,20.0231704 30.1310284,15.5157891 C29.9756882,12.1695998 29.9184296,5.01725064 29.9184296,5.01725064 L41.5169934,5.01725064 L42.7432803,7.80894742 Z" id="Fill-124" fill="#FEC3BD" fill-rule="evenodd"></path>
                                <path d="M33.8461538,19.0033223 C34.9365622,19.0033223 35.8205128,18.3488548 35.8205128,17.5415282 C35.8205128,16.7342017 34.9365622,16.0797342 33.8461538,16.0797342 C33.5421342,16.0797342 32.8840146,16.0797342 31.8717949,16.0797342 C31.8717949,16.7411387 31.8717949,17.2284034 31.8717949,17.5415282 C31.8717949,18.3488548 32.7557455,19.0033223 33.8461538,19.0033223 Z" id="Oval" fill="#FFFFFF" fill-rule="nonzero"></path>
                                <path d="M42.8260952,9.92448233 L41.5171015,10.893333 C41.5171015,10.893333 41.8447476,7.31798269 38.8991142,7.30918994 C35.6995286,7.29984765 33.0815413,7.12234409 30.8998852,7.12234409 C28.7182291,7.12234409 27.5354162,3.62173208 27.9717475,0.25960582 C30.6989501,0.198606145 35.2631974,0.25960582 38.317516,0.25960582 C41.3718345,0.25960582 44.1350889,1.9412185 44.1350889,5.30334475 C44.1350889,6.23702447 44.280886,10.4850199 44.280886,10.4850199 L42.8260952,9.92448233 Z" id="Fill-125" fill="#373F51" fill-rule="evenodd"></path>
                                <path d="M41.3231123,10.7960083 C41.3231123,11.9692903 42.0929214,12.920006 43.0424588,12.920006 C43.9919961,12.920006 44.7618052,11.9692903 44.7618052,10.7960083 C44.7618052,9.62272626 43.9919961,8.67201061 43.0424588,8.67201061 C42.0929214,8.67201061 41.3231123,9.62272626 41.3231123,10.7960083" id="Fill-126" fill="#FEC3BD" fill-rule="evenodd"></path>
                            </g>
                        </g>
                    </g>
                </g>
            </g>
        </g>
    </g>
</svg>