<?xml version="1.0" encoding="UTF-8"?>
<svg width="224px" height="217px" viewBox="0 0 224 217" version="1.1" xmlns="http://www.w3.org/2000/svg" xmlns:xlink="http://www.w3.org/1999/xlink">
    <!-- Generator: sketchtool 55 (78076) - https://sketchapp.com -->
    <title>B61FB837-84C0-4DC4-A53B-B98B06F4D423@2x</title>
    <desc>Created with sketchtool.</desc>
    <defs>
        <ellipse id="path-1" cx="108.963923" cy="108.5" rx="108.470874" ry="108.5"></ellipse>
        <rect id="path-3" x="0" y="0" width="277.257503" height="164.885086" rx="4"></rect>
        <filter x="-9.0%" y="-13.9%" width="118.0%" height="130.3%" filterUnits="objectBoundingBox" id="filter-5">
            <feOffset dx="0" dy="2" in="SourceAlpha" result="shadowOffsetOuter1"></feOffset>
            <feGaussianBlur stdDeviation="8" in="shadowOffsetOuter1" result="shadowBlurOuter1"></feGaussianBlur>
            <feColorMatrix values="0 0 0 0 0.215686275   0 0 0 0 0.247058824   0 0 0 0 0.317647059  0 0 0 0.08 0" type="matrix" in="shadowBlurOuter1"></feColorMatrix>
        </filter>
        <rect id="path-6" x="0" y="0" width="259.513023" height="124.777903" rx="5"></rect>
        <path d="M147.260332,296.347519 C279.111801,296.347519 304.956637,291.658321 304.997671,257.498142 C304.971054,235.365661 294.392017,201.284583 294.392017,148.544751 C294.392017,66.9166067 228.518961,0.743096975 147.260332,0.743096975 C66.0028122,0.743096975 0.129756512,66.9166067 0.129756512,148.544751 C0.129756512,230.175124 66.0028122,296.347519 147.260332,296.347519 Z" id="path-8"></path>
        <path d="M0.129756512,148.544751 C0.129756512,230.175124 66.0028122,296.347519 147.260332,296.347519 L147.260332,296.347519 C279.111801,296.347519 304.956637,291.658321 304.997671,257.498142 L304.997671,257.498142 L304.997671,257.325458 C304.971054,235.365661 294.392017,201.284583 294.392017,148.544751 L294.392017,148.544751 C294.392017,66.9166067 228.518961,0.743096975 147.260332,0.743096975 L147.260332,0.743096975 C66.0028122,0.743096975 0.129756512,66.9166067 0.129756512,148.544751 L0.129756512,148.544751 Z" id="path-10"></path>
        <linearGradient x1="100%" y1="63.8325086%" x2="2.33697616%" y2="36.8140163%" id="linearGradient-12">
            <stop stop-color="#1CA1D4" offset="0%"></stop>
            <stop stop-color="#68D0CB" offset="100%"></stop>
        </linearGradient>
        <path d="M4,0 L52.2154094,0 L52.2154094,8.90559866 C41.4951756,8.90559866 30.7765346,8.90559866 20.0594862,8.90559866 C13.8970815,8.90559866 11.2877672,8.88508071 10.0635045,10.1844201 C8.83924176,11.4837594 8.86126107,14.3205342 8.86010288,18.216383 C8.83948459,87.5711068 8.8404295,123.378082 8.86293762,125.637307 C8.89817929,129.174648 8.542862,129.580026 10.0857604,131.644976 C11.6286587,133.709926 14.1371067,133.59178 16.3941008,133.59178 C28.3272809,133.59178 40.2677171,133.58918 52.2154094,133.58398 L52.2154094,164.753575 L4,164.753575 C1.790861,164.753575 2.705415e-16,162.962714 0,160.753575 L0,4 C-2.705415e-16,1.790861 1.790861,4.05812251e-16 4,0 Z" id="path-13"></path>
        <filter x="-47.9%" y="-14.0%" width="195.8%" height="130.3%" filterUnits="objectBoundingBox" id="filter-15">
            <feOffset dx="0" dy="2" in="SourceAlpha" result="shadowOffsetOuter1"></feOffset>
            <feGaussianBlur stdDeviation="8" in="shadowOffsetOuter1" result="shadowBlurOuter1"></feGaussianBlur>
            <feColorMatrix values="0 0 0 0 0.215686275   0 0 0 0 0.247058824   0 0 0 0 0.317647059  0 0 0 0.08 0" type="matrix" in="shadowBlurOuter1"></feColorMatrix>
        </filter>
        <path d="M5,0 L43.3524718,0 L43.3524718,124.678381 L5,124.678381 C2.23857625,124.678381 3.38176876e-16,122.439805 0,119.678381 L0,5 C-3.38176876e-16,2.23857625 2.23857625,1.39544373e-15 5,8.8817842e-16 Z" id="path-16"></path>
        <path d="M16.0441328,133.59178 L130.848534,133.58398 L130.848534,164.753575 L20.0441328,164.753575 C17.8349938,164.753575 16.0441328,162.962714 16.0441328,160.753575 L16.0441328,133.59178 Z" id="path-18"></path>
    </defs>
    <g id="-V_2" stroke="none" stroke-width="1" fill="none" fill-rule="evenodd">
        <g id="Step3_16" transform="translate(-606.000000, -392.000000)">
            <g id="Group-14" transform="translate(563.000000, 392.000000)">
                <g id="Group-12" transform="translate(48.970732, 0.000000)">
                    <g id="Group-47" transform="translate(0.029268, 0.000000)">
                        <mask id="mask-2" fill="white">
                            <use xlink:href="#path-1"></use>
                        </mask>
                        <use id="Mask" fill="#F1F1FA" xlink:href="#path-1"></use>
                        <g mask="url(#mask-2)">
                            <g transform="translate(10.017321, 32.814634)">
                                <g id="Snapshot" stroke="none" stroke-width="1" fill="none">
                                    <g>
                                        <mask id="mask-4" fill="white">
                                            <use xlink:href="#path-3"></use>
                                        </mask>
                                        <g id="Mask">
                                            <use fill="black" fill-opacity="1" filter="url(#filter-5)" xlink:href="#path-3"></use>
                                            <use fill="#FFFFFF" fill-rule="evenodd" xlink:href="#path-3"></use>
                                        </g>
                                        <g id="tile-email" mask="url(#mask-4)">
                                            <g transform="translate(8.872240, 8.912707)">
                                                <mask id="mask-7" fill="white">
                                                    <use xlink:href="#path-6"></use>
                                                </mask>
                                                <use id="Mask" stroke="none" fill="#E5F4F6" fill-rule="evenodd" xlink:href="#path-6"></use>
                                                <g id="Group-31" stroke="none" stroke-width="1" fill="none" fill-rule="evenodd" mask="url(#mask-7)">
                                                    <g transform="translate(-12.199330, -46.791714)">
                                                        <g id="Group-6" stroke="none" stroke-width="1" fill="none" fill-rule="evenodd">
                                                            <mask id="mask-9" fill="white">
                                                                <use xlink:href="#path-8"></use>
                                                            </mask>
                                                            <g id="Clip-5"></g>
                                                            <path d="M273.965459,283.4388 L185.591293,283.4388 C177.707199,283.4388 171.31475,277.018308 171.31475,269.098253 L171.31475,87.4026874 L273.965459,87.4026874 L273.965459,283.4388 Z" id="Fill-4" fill="#CCEBED" mask="url(#mask-9)"></path>
                                                        </g>
                                                        <mask id="mask-11" fill="white">
                                                            <use xlink:href="#path-10"></use>
                                                        </mask>
                                                        <g id="Clip-8" stroke="none" fill="none"></g>
                                                        <polygon id="Fill-7" stroke="none" fill="#FFFFFF" fill-rule="evenodd" mask="url(#mask-11)" points="181.990716 108.426427 267.865128 108.426427 267.865128 104.853546 181.990716 104.853546"></polygon>
                                                        <polygon id="Fill-9" stroke="none" fill="#FFFFFF" fill-rule="evenodd" mask="url(#mask-11)" points="181.785546 133.455538 241.762998 133.455538 241.762998 129.882656 181.785546 129.882656"></polygon>
                                                        <polygon id="Fill-10" stroke="none" fill="#FFFFFF" fill-rule="evenodd" mask="url(#mask-11)" points="181.785546 167.040847 267.659958 167.040847 267.659958 163.467965 181.785546 163.467965"></polygon>
                                                        <path d="M232.989794,283.4388 L185.549926,283.4388 C177.460661,283.4388 170.904076,276.852309 170.904076,268.727262 L170.904076,87.4026874 L232.989794,87.4026874 L232.989794,283.4388 Z" id="Fill-14" stroke="none" fill="#01707B" fill-rule="evenodd" style="mix-blend-mode: multiply;" opacity="0.132645089" mask="url(#mask-11)"></path>
                                                        <path d="M219.253681,224.883872 L191.897238,252.607962 L-5.90255232,252.607962 L33.6763618,81.2243987 L197.688592,81.2243987 C209.598466,81.2243987 219.253681,90.9236524 219.253681,102.886734 L219.253681,224.883872 Z" id="Fill-15" stroke="none" fill="#F5F5F6" fill-rule="evenodd" mask="url(#mask-11)"></path>
                                                        <path d="M219.253681,240.180752 L191.897238,225.140558 L-10.6848388,225.140558 L-10.6848388,53.7569943 L197.688592,53.7569943 C209.598466,53.7569943 219.253681,63.4562481 219.253681,75.4193295 L219.253681,240.180752 Z" id="Fill-16" stroke="none" fill="#E5F4F6" fill-rule="evenodd" mask="url(#mask-11)"></path>
                                                        <polygon id="Fill-17" stroke="none" fill="#FFFFFF" fill-rule="evenodd" mask="url(#mask-11)" points="132.534632 217.62826 136.091291 217.62826 136.091291 59.0867933 132.534632 59.0867933"></polygon>
                                                        <polygon id="Fill-18" stroke="none" fill="#FFFFFF" fill-rule="evenodd" mask="url(#mask-11)" points="169.882326 217.62826 173.438986 217.62826 173.438986 59.0867933 169.882326 59.0867933"></polygon>
                                                        <polygon id="Fill-19" stroke="none" fill="#FFFFFF" fill-rule="evenodd" mask="url(#mask-11)" points="-10.5346761 125.842971 134.154925 125.842971 134.154925 122.27009 -10.5346761 122.27009"></polygon>
                                                        <polygon id="Fill-20" stroke="none" fill="#FFFFFF" fill-rule="evenodd" mask="url(#mask-11)" points="-10.8496406 98.2035518 49.625766 98.2035518 49.625766 94.6306702 -10.8496406 94.6306702"></polygon>
                                                        <polygon id="Fill-21" stroke="none" fill="#FFFFFF" fill-rule="evenodd" mask="url(#mask-11)" points="83.2737366 82.631938 170.58767 82.631938 170.58767 79.0579423 83.2737366 79.0579423"></polygon>
                                                        <polygon id="Fill-22" stroke="none" fill="#FFFFFF" fill-rule="evenodd" mask="url(#mask-11)" points="83.8082891 147.952056 191.614879 147.952056 191.614879 144.379174 83.8082891 144.379174"></polygon>
                                                        <polygon id="Fill-23" stroke="none" fill="#FFFFFF" fill-rule="evenodd" mask="url(#mask-11)" points="-11.0903001 167.234698 171.449386 167.234698 171.449386 163.661817 -11.0903001 163.661817"></polygon>
                                                        <polygon id="Fill-24" stroke="none" fill="#FFFFFF" fill-rule="evenodd" mask="url(#mask-11)" points="109.859404 217.62826 113.416063 217.62826 113.416063 59.5179456 109.859404 59.5179456"></polygon>
                                                        <polygon id="Fill-25" stroke="none" fill="#FFFFFF" fill-rule="evenodd" mask="url(#mask-11)" points="81.405021 217.62826 84.9616803 217.62826 84.9616803 59.5045765 81.405021 59.5045765"></polygon>
                                                        <polygon id="Fill-26" stroke="none" fill="#FFFFFF" fill-rule="evenodd" mask="url(#mask-11)" points="47.1692645 217.62826 50.7259238 217.62826 50.7259238 58.6233326 47.1692645 58.6233326"></polygon>
                                                        <path d="M219.253681,160.651884 C219.33464,160.026881 219.35793,155.449091 219.34573,154.80292 C219.253681,149.883105 212.799126,144.370596 204.836291,144.370596 L171.380182,144.370596 L171.380182,148.176322 L204.836291,148.176322 C212.15478,148.176322 218.323205,153.555141 219.253681,160.651884" id="Fill-27" stroke="none" fill="#FFFFFF" fill-rule="evenodd" mask="url(#mask-11)"></path>
                                                        <path d="M219.23638,139.03155 C219.317339,138.406546 219.340629,133.828757 219.32843,133.182586 C219.23638,128.262771 212.780716,122.750262 204.817881,122.750262 L171.362882,122.750262 L171.362882,126.555988 L204.817881,126.555988 C212.137479,126.555988 218.305904,131.934807 219.23638,139.03155" id="Fill-28" stroke="none" fill="#FFFFFF" fill-rule="evenodd" mask="url(#mask-11)"></path>
                                                        <path d="M219.202776,212.474375 C219.284845,211.849372 219.308134,207.271582 219.294826,206.625411 C219.202776,201.705597 212.748222,196.193087 204.785386,196.193087 L171.329278,196.193087 L171.329278,199.998813 L204.785386,199.998813 C212.103875,199.998813 218.273409,205.377632 219.202776,212.474375" id="Fill-29" stroke="none" fill="#FFFFFF" fill-rule="evenodd" mask="url(#mask-11)"></path>
                                                    </g>
                                                </g>
                                                <path d="M60.9966507,126.80422 L68.0108346,114.79319 L76.3012692,99.1318052 C76.6076296,98.5530626 77.05139,98.0583837 77.5935871,97.6912025 L100.110483,82.4425429 L151.937112,92.7656696 L151.937112,97.1139853 C151.937112,97.8568976 152.144006,98.585131 152.534608,99.2170714 L166.584276,121.947496 C167.745778,123.826646 167.164009,126.291583 165.284858,127.453085 C164.888516,127.698064 164.452418,127.871912 163.996237,127.966785 L115.046714,138.146964 L60.9966507,126.80422 Z" id="Path-2" stroke="#35B1D1" stroke-width="2" fill-opacity="0.5" fill="url(#linearGradient-12)" fill-rule="evenodd" stroke-linecap="round" stroke-linejoin="round" mask="url(#mask-7)"></path>
                                                <rect id="Rectangle" stroke="none" fill="#343342" fill-rule="evenodd" mask="url(#mask-7)" x="0" y="0" width="259.513023" height="44.5635367"></rect>
                                                <g id="Group" stroke="none" stroke-width="1" fill="none" fill-rule="evenodd" mask="url(#mask-7)">
                                                    <g transform="translate(23.289630, 12.254973)" id="Group-46">
                                                        <g>
                                                            <rect id="Rectangle" fill="#737885" x="0" y="17.8254147" width="49.9063506" height="5.57044209"></rect>
                                                            <rect id="Rectangle-Copy" fill="#737885" x="54.3424706" y="17.8254147" width="49.9063506" height="5.57044209"></rect>
                                                            <rect id="Rectangle-Copy-2" fill="#737885" x="108.684941" y="17.8254147" width="49.9063506" height="5.57044209"></rect>
                                                            <rect id="Rectangle-Copy-3" fill="#737885" x="163.027412" y="17.8254147" width="49.9063506" height="5.57044209"></rect>
                                                            <rect id="Rectangle-Copy-3" fill="#737885" x="54.3424706" y="0" width="104.248821" height="10.0267958"></rect>
                                                        </g>
                                                    </g>
                                                </g>
                                            </g>
                                        </g>
                                    </g>
                                </g>
                                <path d="M135.828397,91.5948182 C132.477268,91.5948182 129.760246,89.1209027 129.760246,86.0696166 C129.760246,83.0179184 132.477268,80.5448271 135.828397,80.5448271 C139.179527,80.5448271 141.896096,83.0179184 141.896096,86.0696166 C141.896096,89.1209027 139.179527,91.5948182 135.828397,91.5948182 M148.700009,73.6176972 L148.700009,73.6176972 C141.591195,66.6472166 130.065255,66.6472166 122.956005,73.6176972 C115.847192,80.5890346 115.847192,91.8913822 122.956005,98.8627196 L135.828225,111.484802 L148.700009,98.8627196 C155.809259,91.8913822 155.809259,80.5890346 148.700009,73.6176972" id="Fill-17" stroke="#FFFFFF" stroke-width="3" fill="#EE0033"></path>
                            </g>
                        </g>
                    </g>
                    <g id="Group-8" transform="translate(10.029268, 33.000000)">
                        <g id="Group-7">
                            <g id="Group-47">
                                <g id="Snapshot">
                                    <g>
                                        <mask id="mask-14" fill="white">
                                            <use xlink:href="#path-13"></use>
                                        </mask>
                                        <g id="Mask">
                                            <use fill="black" fill-opacity="1" filter="url(#filter-15)" xlink:href="#path-13"></use>
                                            <use fill="#FFFFFF" fill-rule="evenodd" xlink:href="#path-13"></use>
                                        </g>
                                        <g id="tile-email" mask="url(#mask-14)">
                                            <g transform="translate(8.862938, 8.905599)">
                                                <mask id="mask-17" fill="white">
                                                    <use xlink:href="#path-16"></use>
                                                </mask>
                                                <use id="Mask" stroke="none" fill="#E5F4F6" fill-rule="evenodd" xlink:href="#path-16"></use>
                                            </g>
                                        </g>
                                    </g>
                                </g>
                            </g>
                            <path d="M12.8629376,8.90559866 L184.210345,8.90559866 L46.2501321,15.865324 L8.86293762,53.433592 L8.86293762,12.9055987 C8.86293762,10.6964597 10.6537986,8.90559866 12.8629376,8.90559866 Z" id="Rectangle" fill="#343342"></path>
                        </g>
                        <mask id="mask-19" fill="white">
                            <use xlink:href="#path-18"></use>
                        </mask>
                        <use id="Mask" fill="#FFFFFF" xlink:href="#path-18"></use>
                    </g>
                </g>
            </g>
        </g>
    </g>
</svg>