<?xml version="1.0" encoding="UTF-8"?>
<svg width="219px" height="218px" viewBox="0 0 219 218" version="1.1" xmlns="http://www.w3.org/2000/svg" xmlns:xlink="http://www.w3.org/1999/xlink">
    <!-- Generator: sketchtool 55 (78076) - https://sketchapp.com -->
    <title>467D02CE-82EB-433C-93DC-3668DE2824EF@2x</title>
    <desc>Created with sketchtool.</desc>
    <defs>
        <path d="M109.5,218 C49.3183566,218 0.531553398,169.199708 0.531553398,108.999589 C0.531553398,48.8002925 49.3183566,0 109.5,0 C169.681643,0 218.468447,48.8002925 218.468447,108.999589 C218.468447,169.199708 169.681643,218 109.5,218 Z" id="path-1"></path>
        <rect id="path-3" x="0" y="0" width="40.3980583" height="47.8536585" rx="2"></rect>
    </defs>
    <g id="-V_2" stroke="none" stroke-width="1" fill="none" fill-rule="evenodd">
        <g id="Step3_16" transform="translate(-213.000000, -392.000000)">
            <g id="Group-16" transform="translate(164.000000, 392.000000)">
                <g id="Group-15" transform="translate(48.468293, 0.000000)">
                    <g id="Group-3" transform="translate(0.531707, 0.000000)">
                        <mask id="mask-2" fill="white">
                            <use xlink:href="#path-1"></use>
                        </mask>
                        <use id="Fill-1" fill="#E5F4F6" xlink:href="#path-1"></use>
                        <rect id="Rectangle" fill="#FFFFFF" opacity="0.0637834821" mask="url(#mask-2)" x="-27.1092233" y="2.12682927" width="170.097087" height="227.570732"></rect>
                        <polygon id="Fill-17-Copy" fill="#99D6DC" opacity="0.656305804" mask="url(#mask-2)" transform="translate(49.434466, 57.956098) scale(-1, 1) rotate(90.000000) translate(-49.434466, -57.956098) " points="45.1808075 182.871146 53.6881246 182.871146 53.6881246 -66.958951 45.1808075 -66.958951"></polygon>
                        <polygon id="Fill-17" fill="#FFFFFF" mask="url(#mask-2)" transform="translate(178.070388, 147.282927) scale(-1, 1) translate(-178.070388, -147.282927) " points="171.691748 252.029268 184.449029 252.029268 184.449029 42.5365854 171.691748 42.5365854"></polygon>
                        <polygon id="Fill-17-Copy" fill="#99D6DC" opacity="0.656305804" mask="url(#mask-2)" transform="translate(45.182039, 143.029268) scale(-1, 1) rotate(90.000000) translate(-45.182039, -143.029268) " points="40.9283803 267.944317 49.4356974 267.944317 49.4356974 18.1142197 40.9283803 18.1142197"></polygon>
                        <polygon id="Fill-17-Copy" fill="#FFFFFF" mask="url(#mask-2)" transform="translate(48.371359, 134.521951) scale(-1, 1) rotate(90.000000) translate(-48.371359, -134.521951) " points="40.9274568 259.437 55.8152617 259.437 55.8152617 9.60690268 40.9274568 9.60690268"></polygon>
                        <g id="Post" mask="url(#mask-2)">
                            <g transform="translate(65.381068, 71.248780)" id="Group-2">
                                <g>
                                    <mask id="mask-4" fill="white">
                                        <use xlink:href="#path-3"></use>
                                    </mask>
                                    <use id="Rectangle-9" fill="#0099A7" xlink:href="#path-3"></use>
                                    <g id="Image" mask="url(#mask-4)">
                                        <g transform="translate(5.508826, 4.430894)">
                                            <path d="M24.7640333,28.9545239 L2.94630039,28.9545239 C1.68498774,28.9545239 0.661744998,27.9621418 0.661744998,26.7399798 C0.661744998,25.5167078 1.68498774,24.5254357 2.94630039,24.5254357 L24.7640333,24.5254357 C26.0253459,24.5254357 27.0474441,25.5167078 27.0474441,26.7399798 C27.0474441,27.9621418 26.0253459,28.9545239 24.7640333,28.9545239" id="Fill-9" fill="#FFFFFF" fill-rule="evenodd"></path>
                                            <path d="M2.94874594,35.9936106 C1.68608309,35.9936106 0.661744998,35.0012284 0.661744998,33.7790665 C0.661744998,32.5557945 1.68608309,31.5645224 2.94874594,31.5645224 L17.8783631,31.5645224 C19.1410259,31.5645224 20.1642182,32.5557945 20.1642182,33.7790665 C20.1642182,35.0012284 19.1410259,35.9936106 17.8783631,35.9936106 L2.94874594,35.9936106 Z" id="Fill-9-Copy" fill="#FFFFFF" fill-rule="evenodd"></path>
                                            <path d="M27.2646974,22.0449438 L2.11570858,22.0449438 C1.45405066,22.0449438 0.918137688,21.5751766 0.918137688,20.9951846 L0.918137688,1.04975923 C0.918137688,0.469767255 1.45405066,0 2.11570858,0 L27.2646974,0 C27.9263553,0 28.4622683,0.469767255 28.4622683,1.04975923 L28.4622683,20.9951846 C28.4622683,21.5751766 27.9263553,22.0449438 27.2646974,22.0449438 Z" id="Shape" fill="#FFFFFF" fill-rule="nonzero"></path>
                                            <ellipse id="Oval" fill="#3EC5D3" fill-rule="nonzero" cx="12.9966008" cy="6.34948949" rx="1.97894859" ry="1.91859518"></ellipse>
                                            <path d="M24.2651388,17.4836554 L18.7685046,10.8232008 C18.5607319,10.5711282 18.1050609,10.5711282 17.8972881,10.8232008 L13.3664126,16.3129524 L9.96729406,12.3525436 C9.75897163,12.1091809 9.31704225,12.1091809 9.10871981,12.3525436 L4.71141251,17.4759702 C4.42503787,17.81053 4.68008169,18.3085271 5.1412493,18.3085271 L23.8298053,18.3085271 C24.2854763,18.3085271 24.5432685,17.8202645 24.2651388,17.4836554 Z" id="Shape" fill="#3EC5D3" fill-rule="nonzero"></path>
                                        </g>
                                    </g>
                                </g>
                            </g>
                        </g>
                        <g id="Post-Copy" mask="url(#mask-2)">
                            <g transform="translate(10.099515, 71.248780)">
                                <rect id="Rectangle-9" fill="#FFF5D3" fill-rule="evenodd" x="0" y="0" width="40.3980583" height="47.8536585" rx="2"></rect>
                                <path d="M30.5655655,33.2542373 L8.99199828,33.2542373 C7.74480118,33.2542373 6.73300971,32.3455849 6.73300971,31.2265399 C6.73300971,30.1064785 7.74480118,29.1988425 8.99199828,29.1988425 L30.5655655,29.1988425 C31.8127626,29.1988425 32.8234223,30.1064785 32.8234223,31.2265399 C32.8234223,32.3455849 31.8127626,33.2542373 30.5655655,33.2542373" id="Fill-9" fill="#FFFFFF" fill-rule="evenodd"></path>
                                <path d="M8.16137244,40.5539479 C6.90810199,40.5539479 5.8913835,39.6452955 5.8913835,38.5262505 C5.8913835,37.4061891 6.90810199,36.4985531 8.16137244,36.4985531 L22.9799347,36.4985531 C24.2332052,36.4985531 25.2487864,37.4061891 25.2487864,38.5262505 C25.2487864,39.6452955 24.2332052,40.5539479 22.9799347,40.5539479 L8.16137244,40.5539479 Z" id="Fill-9-Copy" fill="#FFFFFF" fill-rule="evenodd"></path>
                                <path d="M33.2991241,26.7656056 L7.94056036,26.7656056 C7.27338863,26.7656056 6.73300971,26.2989456 6.73300971,25.7227898 L6.73300971,5.90928955 C6.73300971,5.33313382 7.27338863,4.86647375 7.94056036,4.86647375 L33.2991241,4.86647375 C33.9662958,4.86647375 34.5066748,5.33313382 34.5066748,5.90928955 L34.5066748,25.7227898 C34.5066748,26.2989456 33.9662958,26.7656056 33.2991241,26.7656056 Z" id="Shape" fill="#FFFFFF" fill-rule="nonzero"></path>
                                <ellipse id="Oval" fill="#FFE27C" fill-rule="nonzero" cx="18.0949636" cy="10.9495659" rx="2.10406553" ry="2.0276974"></ellipse>
                                <path d="M30.1811275,21.9256101 L24.5707405,15.5903248 C24.3586679,15.3505587 23.8935668,15.3505587 23.6814942,15.5903248 L19.0568523,20.8120619 L15.587389,17.0450038 C15.3747553,16.8135222 14.9236802,16.8135222 14.7110466,17.0450038 L10.222737,21.9183002 C9.93043586,22.2365264 10.1907578,22.7102108 10.6614693,22.7102108 L29.7367848,22.7102108 C30.2018859,22.7102108 30.4650131,22.2457857 30.1811275,21.9256101 Z" id="Shape" fill="#FFE27C" fill-rule="nonzero"></path>
                            </g>
                        </g>
                        <polygon id="Fill-17-Copy-2" fill="#FFFFFF" mask="url(#mask-2)" transform="translate(48.371359, 50.512195) scale(-1, 1) rotate(90.000000) translate(-48.371359, -50.512195) " points="40.9274568 175.427244 55.8152617 175.427244 55.8152617 -74.4028534 40.9274568 -74.4028534"></polygon>
                        <g id="Post-Copy" mask="url(#mask-2)">
                            <g transform="translate(65.381068, 155.258537)">
                                <rect id="Rectangle-9" fill="#FFF5D3" fill-rule="evenodd" x="0" y="0" width="40.3980583" height="47.8536585" rx="2"></rect>
                                <path d="M30.5655655,33.2542373 L8.99199828,33.2542373 C7.74480118,33.2542373 6.73300971,32.3455849 6.73300971,31.2265399 C6.73300971,30.1064785 7.74480118,29.1988425 8.99199828,29.1988425 L30.5655655,29.1988425 C31.8127626,29.1988425 32.8234223,30.1064785 32.8234223,31.2265399 C32.8234223,32.3455849 31.8127626,33.2542373 30.5655655,33.2542373" id="Fill-9" fill="#FFFFFF" fill-rule="evenodd"></path>
                                <path d="M8.16137244,40.5539479 C6.90810199,40.5539479 5.8913835,39.6452955 5.8913835,38.5262505 C5.8913835,37.4061891 6.90810199,36.4985531 8.16137244,36.4985531 L22.9799347,36.4985531 C24.2332052,36.4985531 25.2487864,37.4061891 25.2487864,38.5262505 C25.2487864,39.6452955 24.2332052,40.5539479 22.9799347,40.5539479 L8.16137244,40.5539479 Z" id="Fill-9-Copy" fill="#FFFFFF" fill-rule="evenodd"></path>
                                <path d="M33.2991241,26.7656056 L7.94056036,26.7656056 C7.27338863,26.7656056 6.73300971,26.2989456 6.73300971,25.7227898 L6.73300971,5.90928955 C6.73300971,5.33313382 7.27338863,4.86647375 7.94056036,4.86647375 L33.2991241,4.86647375 C33.9662958,4.86647375 34.5066748,5.33313382 34.5066748,5.90928955 L34.5066748,25.7227898 C34.5066748,26.2989456 33.9662958,26.7656056 33.2991241,26.7656056 Z" id="Shape" fill="#FFFFFF" fill-rule="nonzero"></path>
                                <ellipse id="Oval" fill="#FFE27C" fill-rule="nonzero" cx="18.0949636" cy="10.9495659" rx="2.10406553" ry="2.0276974"></ellipse>
                                <path d="M30.1811275,21.9256101 L24.5707405,15.5903248 C24.3586679,15.3505587 23.8935668,15.3505587 23.6814942,15.5903248 L19.0568523,20.8120619 L15.587389,17.0450038 C15.3747553,16.8135222 14.9236802,16.8135222 14.7110466,17.0450038 L10.222737,21.9183002 C9.93043586,22.2365264 10.1907578,22.7102108 10.6614693,22.7102108 L29.7367848,22.7102108 C30.2018859,22.7102108 30.4650131,22.2457857 30.1811275,21.9256101 Z" id="Shape" fill="#FFE27C" fill-rule="nonzero"></path>
                            </g>
                        </g>
                        <g id="Post-Copy" mask="url(#mask-2)">
                            <g transform="translate(118.536408, 155.258537)">
                                <rect id="Rectangle-9" fill="#FFF5D3" fill-rule="evenodd" x="0" y="0" width="40.3980583" height="47.8536585" rx="2"></rect>
                                <path d="M30.5655655,33.2542373 L8.99199828,33.2542373 C7.74480118,33.2542373 6.73300971,32.3455849 6.73300971,31.2265399 C6.73300971,30.1064785 7.74480118,29.1988425 8.99199828,29.1988425 L30.5655655,29.1988425 C31.8127626,29.1988425 32.8234223,30.1064785 32.8234223,31.2265399 C32.8234223,32.3455849 31.8127626,33.2542373 30.5655655,33.2542373" id="Fill-9" fill="#FFFFFF" fill-rule="evenodd"></path>
                                <path d="M8.16137244,40.5539479 C6.90810199,40.5539479 5.8913835,39.6452955 5.8913835,38.5262505 C5.8913835,37.4061891 6.90810199,36.4985531 8.16137244,36.4985531 L22.9799347,36.4985531 C24.2332052,36.4985531 25.2487864,37.4061891 25.2487864,38.5262505 C25.2487864,39.6452955 24.2332052,40.5539479 22.9799347,40.5539479 L8.16137244,40.5539479 Z" id="Fill-9-Copy" fill="#FFFFFF" fill-rule="evenodd"></path>
                                <path d="M33.2991241,26.7656056 L7.94056036,26.7656056 C7.27338863,26.7656056 6.73300971,26.2989456 6.73300971,25.7227898 L6.73300971,5.90928955 C6.73300971,5.33313382 7.27338863,4.86647375 7.94056036,4.86647375 L33.2991241,4.86647375 C33.9662958,4.86647375 34.5066748,5.33313382 34.5066748,5.90928955 L34.5066748,25.7227898 C34.5066748,26.2989456 33.9662958,26.7656056 33.2991241,26.7656056 Z" id="Shape" fill="#FFFFFF" fill-rule="nonzero"></path>
                                <ellipse id="Oval" fill="#FFE27C" fill-rule="nonzero" cx="18.0949636" cy="10.9495659" rx="2.10406553" ry="2.0276974"></ellipse>
                                <path d="M30.1811275,21.9256101 L24.5707405,15.5903248 C24.3586679,15.3505587 23.8935668,15.3505587 23.6814942,15.5903248 L19.0568523,20.8120619 L15.587389,17.0450038 C15.3747553,16.8135222 14.9236802,16.8135222 14.7110466,17.0450038 L10.222737,21.9183002 C9.93043586,22.2365264 10.1907578,22.7102108 10.6614693,22.7102108 L29.7367848,22.7102108 C30.2018859,22.7102108 30.4650131,22.2457857 30.1811275,21.9256101 Z" id="Shape" fill="#FFE27C" fill-rule="nonzero"></path>
                            </g>
                        </g>
                        <g id="Post-Copy" mask="url(#mask-2)">
                            <g transform="translate(118.536408, 70.185366)">
                                <rect id="Rectangle-9" fill="#FFF5D3" fill-rule="evenodd" x="0" y="0" width="40.3980583" height="47.8536585" rx="2"></rect>
                                <path d="M30.5655655,33.2542373 L8.99199828,33.2542373 C7.74480118,33.2542373 6.73300971,32.3455849 6.73300971,31.2265399 C6.73300971,30.1064785 7.74480118,29.1988425 8.99199828,29.1988425 L30.5655655,29.1988425 C31.8127626,29.1988425 32.8234223,30.1064785 32.8234223,31.2265399 C32.8234223,32.3455849 31.8127626,33.2542373 30.5655655,33.2542373" id="Fill-9" fill="#FFFFFF" fill-rule="evenodd"></path>
                                <path d="M8.16137244,40.5539479 C6.90810199,40.5539479 5.8913835,39.6452955 5.8913835,38.5262505 C5.8913835,37.4061891 6.90810199,36.4985531 8.16137244,36.4985531 L22.9799347,36.4985531 C24.2332052,36.4985531 25.2487864,37.4061891 25.2487864,38.5262505 C25.2487864,39.6452955 24.2332052,40.5539479 22.9799347,40.5539479 L8.16137244,40.5539479 Z" id="Fill-9-Copy" fill="#FFFFFF" fill-rule="evenodd"></path>
                                <path d="M33.2991241,26.7656056 L7.94056036,26.7656056 C7.27338863,26.7656056 6.73300971,26.2989456 6.73300971,25.7227898 L6.73300971,5.90928955 C6.73300971,5.33313382 7.27338863,4.86647375 7.94056036,4.86647375 L33.2991241,4.86647375 C33.9662958,4.86647375 34.5066748,5.33313382 34.5066748,5.90928955 L34.5066748,25.7227898 C34.5066748,26.2989456 33.9662958,26.7656056 33.2991241,26.7656056 Z" id="Shape" fill="#FFFFFF" fill-rule="nonzero"></path>
                                <ellipse id="Oval" fill="#FFE27C" fill-rule="nonzero" cx="18.0949636" cy="10.9495659" rx="2.10406553" ry="2.0276974"></ellipse>
                                <path d="M30.1811275,21.9256101 L24.5707405,15.5903248 C24.3586679,15.3505587 23.8935668,15.3505587 23.6814942,15.5903248 L19.0568523,20.8120619 L15.587389,17.0450038 C15.3747553,16.8135222 14.9236802,16.8135222 14.7110466,17.0450038 L10.222737,21.9183002 C9.93043586,22.2365264 10.1907578,22.7102108 10.6614693,22.7102108 L29.7367848,22.7102108 C30.2018859,22.7102108 30.4650131,22.2457857 30.1811275,21.9256101 Z" id="Shape" fill="#FFE27C" fill-rule="nonzero"></path>
                            </g>
                        </g>
                        <g id="Post-Copy" mask="url(#mask-2)">
                            <g transform="translate(10.099515, 155.258537)"></g>
                        </g>
                    </g>
                    <g id="Group-49" transform="translate(49.531707, 33.000000)">
                        <path d="M10.3448276,6.85714286 L54.7448276,6.85714286 C55.8493971,6.85714286 56.7448276,7.75257336 56.7448276,8.85714286 L56.7448276,9.14285714 C56.7448276,10.2474266 55.8493971,11.1428571 54.7448276,11.1428571 L10.3448276,11.1428571 C9.24025809,11.1428571 8.34482759,10.2474266 8.34482759,9.14285714 L8.34482759,8.85714286 C8.34482759,7.75257336 9.24025809,6.85714286 10.3448276,6.85714286 Z" id="Rectangle-9" fill="#0099A7"></path>
                        <path d="M65.4206897,6.85714286 L109.82069,6.85714286 C110.925259,6.85714286 111.82069,7.75257336 111.82069,8.85714286 L111.82069,9.14285714 C111.82069,10.2474266 110.925259,11.1428571 109.82069,11.1428571 L65.4206897,11.1428571 C64.3161202,11.1428571 63.4206897,10.2474266 63.4206897,9.14285714 L63.4206897,8.85714286 C63.4206897,7.75257336 64.3161202,6.85714286 65.4206897,6.85714286 Z" id="Rectangle-9" fill="#CACFD3"></path>
                        <g id="Group-48">
                            <g id="Group">
                                <ellipse id="Oval" fill="#0099A7" cx="9.02192982" cy="9" rx="9.02192982" ry="9"></ellipse>
                                <polyline id="Path-2" stroke="#FFFFFF" stroke-width="2" stroke-linecap="round" stroke-linejoin="round" points="6.01461988 9.51471863 8.14110914 12 12.0292398 6"></polyline>
                            </g>
                            <g id="Group-2" transform="translate(52.008772, 0.000000)">
                                <ellipse id="Oval" fill="#FFFFFF" cx="9.02192982" cy="9" rx="9.02192982" ry="9"></ellipse>
                                <ellipse id="Oval" fill="#0099A7" cx="9.02192982" cy="9" rx="6.01461988" ry="6"></ellipse>
                            </g>
                            <g id="progress_indicator/inactive" transform="translate(102.956140, 0.000000)" fill="#FFFFFF" stroke="#CACFD3" stroke-width="2">
                                <ellipse id="Oval-Copy-7" cx="9.02192982" cy="9" rx="8.02192982" ry="8"></ellipse>
                            </g>
                        </g>
                    </g>
                    <rect id="Rectangle-9" fill="#FFF5D3" x="9.53170732" y="155" width="40" height="48" rx="2"></rect>
                    <path d="M40.2816748,188 L18.7828677,188 C17.5399926,188 16.5317073,187.103759 16.5317073,186 C16.5317073,184.895238 17.5399926,184 18.7828677,184 L40.2816748,184 C41.5245499,184 42.5317073,184.895238 42.5317073,186 C42.5317073,187.103759 41.5245499,188 40.2816748,188" id="Fill-9" fill="#FFFFFF"></path>
                    <path d="M17.7597846,196 C16.5296538,196 15.5317073,195.103759 15.5317073,194 C15.5317073,192.895238 16.5296538,192 17.7597846,192 L32.3047463,192 C33.5348771,192 34.5317073,192.895238 34.5317073,194 C34.5317073,195.103759 33.5348771,196 32.3047463,196 L17.7597846,196 Z" id="Fill-9-Copy" fill="#FFFFFF"></path>
                    <path d="M43.314316,182 L17.7490986,182 C17.0764899,182 16.5317073,181.53119 16.5317073,180.952381 L16.5317073,161.047619 C16.5317073,160.46881 17.0764899,160 17.7490986,160 L43.314316,160 C43.9869247,160 44.5317073,160.46881 44.5317073,161.047619 L44.5317073,180.952381 C44.5317073,181.53119 43.9869247,182 43.314316,182 Z" id="Shape" fill="#FFFFFF" fill-rule="nonzero"></path>
                    <circle id="Oval" fill="#FFE27C" fill-rule="nonzero" cx="27.5317073" cy="166" r="2"></circle>
                    <path d="M39.4154481,177.247613 L33.8603425,171.172441 C33.6503595,170.94252 33.1898413,170.94252 32.9798583,171.172441 L28.4007848,176.179785 L24.9655075,172.567394 C24.754969,172.345417 24.3083385,172.345417 24.0978,172.567394 L19.6537156,177.240604 C19.3642946,177.545764 19.6220515,178 20.0881249,178 L38.9754837,178 C39.4360019,178 39.6965364,177.554643 39.4154481,177.247613 Z" id="Shape" fill="#FFE27C" fill-rule="nonzero"></path>
                </g>
            </g>
        </g>
    </g>
</svg>