<?xml version="1.0" encoding="UTF-8"?>
<svg width="231px" height="218px" viewBox="0 0 231 218" version="1.1" xmlns="http://www.w3.org/2000/svg" xmlns:xlink="http://www.w3.org/1999/xlink">
    <!-- Generator: sketchtool 55 (78076) - https://sketchapp.com -->
    <title>088E17BA-7C78-40A4-8C61-451937775A6B@2x</title>
    <desc>Created with sketchtool.</desc>
    <defs>
        <circle id="path-1" cx="109" cy="109" r="109"></circle>
        <rect id="path-3" x="0" y="0" width="214.15859" height="128.687225" rx="4"></rect>
        <filter x="-11.7%" y="-17.9%" width="123.3%" height="138.9%" filterUnits="objectBoundingBox" id="filter-5">
            <feOffset dx="0" dy="2" in="SourceAlpha" result="shadowOffsetOuter1"></feOffset>
            <feGaussianBlur stdDeviation="8" in="shadowOffsetOuter1" result="shadowBlurOuter1"></feGaussianBlur>
            <feColorMatrix values="0 0 0 0 0.215686275   0 0 0 0 0.247058824   0 0 0 0 0.317647059  0 0 0 0.08 0" type="matrix" in="shadowBlurOuter1"></feColorMatrix>
        </filter>
        <rect id="path-6" x="0" y="0" width="197.025903" height="80.0720509" rx="5"></rect>
        <path d="M57.0474376,0.168153277 C25.9009633,0.168153277 0.651398913,25.4552485 0.651398913,56.647074 L0.651398913,56.647074 C0.651398913,87.8398442 25.9009633,113.126939 57.0474376,113.126939 L57.0474376,113.126939 C88.1929686,113.126939 113.44159,87.8398442 113.44159,56.647074 L113.44159,56.647074 C113.44159,25.4552485 88.1929686,0.168153277 57.0474376,0.168153277 Z" id="path-8"></path>
        <rect id="path-10" x="0" y="0" width="214.15859" height="128.687225" rx="4"></rect>
        <filter x="-11.7%" y="-17.9%" width="123.3%" height="138.9%" filterUnits="objectBoundingBox" id="filter-12">
            <feOffset dx="0" dy="2" in="SourceAlpha" result="shadowOffsetOuter1"></feOffset>
            <feGaussianBlur stdDeviation="8" in="shadowOffsetOuter1" result="shadowBlurOuter1"></feGaussianBlur>
            <feColorMatrix values="0 0 0 0 0.215686275   0 0 0 0 0.247058824   0 0 0 0 0.317647059  0 0 0 0.08 0" type="matrix" in="shadowBlurOuter1"></feColorMatrix>
        </filter>
        <rect id="path-13" x="0" y="0" width="197.025903" height="80.0720509" rx="5"></rect>
        <path d="M57.0474376,0.168153277 C25.9009633,0.168153277 0.651398913,25.4552485 0.651398913,56.647074 L0.651398913,56.647074 C0.651398913,87.8398442 25.9009633,113.126939 57.0474376,113.126939 L57.0474376,113.126939 C88.1929686,113.126939 113.44159,87.8398442 113.44159,56.647074 L113.44159,56.647074 C113.44159,25.4552485 88.1929686,0.168153277 57.0474376,0.168153277 Z" id="path-15"></path>
        <rect id="path-17" x="0" y="0" width="214.15859" height="128.687225" rx="4"></rect>
        <filter x="-11.7%" y="-17.9%" width="123.3%" height="138.9%" filterUnits="objectBoundingBox" id="filter-19">
            <feOffset dx="0" dy="2" in="SourceAlpha" result="shadowOffsetOuter1"></feOffset>
            <feGaussianBlur stdDeviation="8" in="shadowOffsetOuter1" result="shadowBlurOuter1"></feGaussianBlur>
            <feColorMatrix values="0 0 0 0 0.215686275   0 0 0 0 0.247058824   0 0 0 0 0.317647059  0 0 0 0.08 0" type="matrix" in="shadowBlurOuter1"></feColorMatrix>
        </filter>
        <path d="M57.0474376,0.168153277 C25.9009633,0.168153277 0.651398913,25.4552485 0.651398913,56.647074 L0.651398913,56.647074 C0.651398913,87.8398442 25.9009633,113.126939 57.0474376,113.126939 L57.0474376,113.126939 C88.1929686,113.126939 113.44159,87.8398442 113.44159,56.647074 L113.44159,56.647074 C113.44159,25.4552485 88.1929686,0.168153277 57.0474376,0.168153277 Z" id="path-20"></path>
        <rect id="path-22" x="0" y="0" width="214.15859" height="128.687225" rx="4"></rect>
        <filter x="-11.7%" y="-17.9%" width="123.3%" height="138.9%" filterUnits="objectBoundingBox" id="filter-24">
            <feOffset dx="0" dy="2" in="SourceAlpha" result="shadowOffsetOuter1"></feOffset>
            <feGaussianBlur stdDeviation="8" in="shadowOffsetOuter1" result="shadowBlurOuter1"></feGaussianBlur>
            <feColorMatrix values="0 0 0 0 0.215686275   0 0 0 0 0.247058824   0 0 0 0 0.317647059  0 0 0 0.08 0" type="matrix" in="shadowBlurOuter1"></feColorMatrix>
        </filter>
        <rect id="path-25" x="0" y="0" width="105.483871" height="156.718894"></rect>
        <rect id="path-27" x="0" y="0" width="213.844575" height="128.836391" rx="4"></rect>
        <filter x="-7.0%" y="-11.6%" width="114.0%" height="123.3%" filterUnits="objectBoundingBox" id="filter-29">
            <feOffset dx="0" dy="0" in="SourceAlpha" result="shadowOffsetOuter1"></feOffset>
            <feGaussianBlur stdDeviation="5" in="shadowOffsetOuter1" result="shadowBlurOuter1"></feGaussianBlur>
            <feColorMatrix values="0 0 0 0 0.215686275   0 0 0 0 0.247058824   0 0 0 0 0.317647059  0 0 0 0.08 0" type="matrix" in="shadowBlurOuter1"></feColorMatrix>
        </filter>
        <rect id="path-30" x="0" y="0" width="196.737009" height="80.1648658" rx="5"></rect>
        <path d="M56.9637903,0.16834819 C25.8629854,0.16834819 0.650443782,25.4847547 0.650443782,56.712736 L0.650443782,56.712736 C0.650443782,87.941663 25.8629854,113.25807 56.9637903,113.25807 L56.9637903,113.25807 C88.0636534,113.25807 113.275253,87.941663 113.275253,56.712736 L113.275253,56.712736 C113.275253,25.4847547 88.0636534,0.16834819 56.9637903,0.16834819 Z" id="path-32"></path>
    </defs>
    <g id="-V_2" stroke="none" stroke-width="1" fill="none" fill-rule="evenodd">
        <g id="Step3_16" transform="translate(-1006.000000, -392.000000)">
            <g id="Group-10" transform="translate(962.000000, 392.000000)">
                <g id="Group-54" transform="translate(42.619512, 0.000000)">
                    <g id="Group-53" transform="translate(13.442149, 0.000000)">
                        <g id="Group-52">
                            <mask id="mask-2" fill="white">
                                <use xlink:href="#path-1"></use>
                            </mask>
                            <use id="Mask" fill="#FEC3BD" xlink:href="#path-1"></use>
                            <g mask="url(#mask-2)">
                                <g transform="translate(-64.203073, -76.280090)">
                                    <g id="tile-email-copy-4" transform="translate(0.000000, 9.570732)">
                                        <g id="bg">
                                            <mask id="mask-4" fill="white">
                                                <use xlink:href="#path-3"></use>
                                            </mask>
                                            <g id="Mask">
                                                <use fill="black" fill-opacity="1" filter="url(#filter-5)" xlink:href="#path-3"></use>
                                                <use fill="#FFFFFF" fill-rule="evenodd" xlink:href="#path-3"></use>
                                            </g>
                                            <path d="M9.28447381,111.528928 L124.589008,111.528928 C126.168385,111.528928 127.448724,112.809267 127.448724,114.388644 L127.448724,114.388644 C127.448724,115.968022 126.168385,117.24836 124.589008,117.24836 L9.28447381,117.24836 C7.70509622,117.24836 6.42475771,115.968022 6.42475771,114.388644 L6.42475771,114.388644 C6.42475771,112.809267 7.70509622,111.528928 9.28447381,111.528928 Z" id="Rectangle-3-Copy-3" fill="#373F51" mask="url(#mask-4)"></path>
                                            <path d="M9.28447381,100.090064 L166.132451,100.090064 C167.711829,100.090064 168.992167,101.370402 168.992167,102.94978 L168.992167,102.94978 C168.992167,104.529157 167.711829,105.809496 166.132451,105.809496 L9.28447381,105.809496 C7.70509622,105.809496 6.42475771,104.529157 6.42475771,102.94978 L6.42475771,102.94978 C6.42475771,101.370402 7.70509622,100.090064 9.28447381,100.090064 Z" id="Rectangle-3-Copy-3" fill="#373F51" mask="url(#mask-4)"></path>
                                            <g id="Settings" mask="url(#mask-4)" fill="#D7D9DC">
                                                <g transform="translate(198.453627, 100.090064)">
                                                    <ellipse id="Oval-5" cx="2.1415859" cy="2.14478708" rx="2.1415859" ry="2.14478708"></ellipse>
                                                    <ellipse id="Oval-5-Copy" cx="2.1415859" cy="8.57914831" rx="2.1415859" ry="2.14478708"></ellipse>
                                                    <ellipse id="Oval-5-Copy-2" cx="2.1415859" cy="15.0135095" rx="2.1415859" ry="2.14478708"></ellipse>
                                                </g>
                                            </g>
                                        </g>
                                        <g id="content" transform="translate(8.566344, 8.579148)">
                                            <mask id="mask-7" fill="white">
                                                <use xlink:href="#path-6"></use>
                                            </mask>
                                            <use id="Mask" fill="#E5F4F6" xlink:href="#path-6"></use>
                                            <g id="Illustration/ListingExperience/Onboarding-Copy-15" mask="url(#mask-7)">
                                                <g transform="translate(41.415776, -17.158297)" id="Page-1">
                                                    <g transform="translate(56.984636, 56.907756) rotate(90.000000) translate(-56.984636, -56.907756) translate(0.224267, 0.147388)">
                                                        <mask id="mask-9" fill="white">
                                                            <use xlink:href="#path-8"></use>
                                                        </mask>
                                                        <use id="Clip-2" fill="#FFFFFF" opacity="0.324521019" xlink:href="#path-8"></use>
                                                        <g id="mail" mask="url(#mask-9)">
                                                            <g transform="translate(30.990533, 28.050385)">
                                                                <g id="newsletter" stroke="none" fill-rule="evenodd" transform="translate(36.646863, 28.289528) rotate(-90.000000) translate(-36.646863, -28.289528) translate(9.020135, 12.215796)">
                                                                    <path d="M27.9289105,15.1248742 C27.7515841,15.2136699 27.6629209,15.2136699 27.4855945,15.2136699 C27.3082681,15.2136699 27.2196049,15.2136699 27.0422784,15.1248742 L0,0.0295985796 L0,29.4209882 C0,30.4021811 0.793535712,31.196903 1.77326416,31.196903 L53.1979248,31.196903 C54.1776532,31.196903 54.971189,30.4021811 54.971189,29.4209882 L54.971189,0.0295985796 L27.9289105,15.1248742 Z" id="Path" fill="#373F51"></path>
                                                                </g>
                                                                <path d="M40.7951556,52.6164339 C44.3023633,52.6164339 47.1455168,49.7907993 47.1455168,46.3052023 C47.1455168,42.8196054 44.3023633,39.9939708 40.7951556,39.9939708 C37.2879479,39.9939708 34.4447943,42.8196054 34.4447943,46.3052023 C34.4447943,49.7907993 37.2879479,52.6164339 40.7951556,52.6164339 Z" id="Oval-20" stroke="#3EC5D3" stroke-dasharray="3,4"></path>
                                                            </g>
                                                        </g>
                                                    </g>
                                                </g>
                                            </g>
                                        </g>
                                    </g>
                                    <g id="tile-email-copy-4" transform="translate(61.462555, 150.639476)">
                                        <g id="bg">
                                            <mask id="mask-11" fill="white">
                                                <use xlink:href="#path-10"></use>
                                            </mask>
                                            <g id="Mask">
                                                <use fill="black" fill-opacity="1" filter="url(#filter-12)" xlink:href="#path-10"></use>
                                                <use fill="#FFFFFF" fill-rule="evenodd" xlink:href="#path-10"></use>
                                            </g>
                                            <path d="M10.7121977,110.09907 L126.016732,110.09907 C127.596109,110.09907 128.876448,111.379409 128.876448,112.958786 L128.876448,112.958786 C128.876448,114.538164 127.596109,115.818502 126.016732,115.818502 L10.7121977,115.818502 C9.13282016,115.818502 7.85248164,114.538164 7.85248164,112.958786 L7.85248164,112.958786 C7.85248164,111.379409 9.13282016,110.09907 10.7121977,110.09907 Z" id="Rectangle-3-Copy-3" fill="#373F51" mask="url(#mask-11)"></path>
                                            <path d="M10.7121977,98.6602056 L167.560175,98.6602056 C169.139553,98.6602056 170.419891,99.9405441 170.419891,101.519922 L170.419891,101.519922 C170.419891,103.099299 169.139553,104.379638 167.560175,104.379638 L10.7121977,104.379638 C9.13282016,104.379638 7.85248164,103.099299 7.85248164,101.519922 L7.85248164,101.519922 C7.85248164,99.9405441 9.13282016,98.6602056 10.7121977,98.6602056 Z" id="Rectangle-3-Copy-3" fill="#373F51" mask="url(#mask-11)"></path>
                                            <g id="Settings" mask="url(#mask-11)" fill="#D7D9DC">
                                                <g transform="translate(198.453627, 100.090064)">
                                                    <ellipse id="Oval-5" cx="2.1415859" cy="2.14478708" rx="2.1415859" ry="2.14478708"></ellipse>
                                                    <ellipse id="Oval-5-Copy" cx="2.1415859" cy="8.57914831" rx="2.1415859" ry="2.14478708"></ellipse>
                                                    <ellipse id="Oval-5-Copy-2" cx="2.1415859" cy="15.0135095" rx="2.1415859" ry="2.14478708"></ellipse>
                                                </g>
                                            </g>
                                        </g>
                                        <g id="content" transform="translate(8.566344, 8.579148)">
                                            <mask id="mask-14" fill="white">
                                                <use xlink:href="#path-13"></use>
                                            </mask>
                                            <use id="Mask" fill="#E5F4F6" xlink:href="#path-13"></use>
                                            <g id="Illustration/ListingExperience/Onboarding-Copy-15" mask="url(#mask-14)">
                                                <g transform="translate(41.415776, -17.158297)" id="Page-1">
                                                    <g transform="translate(56.984636, 56.907756) rotate(90.000000) translate(-56.984636, -56.907756) translate(0.224267, 0.147388)">
                                                        <mask id="mask-16" fill="white">
                                                            <use xlink:href="#path-15"></use>
                                                        </mask>
                                                        <use id="Clip-2" fill="#FFFFFF" opacity="0.324521019" xlink:href="#path-15"></use>
                                                        <g id="mail" mask="url(#mask-16)">
                                                            <g transform="translate(30.990533, 28.050385)">
                                                                <g id="Group" stroke="none" fill-rule="evenodd" transform="translate(19.676183, 28.289528) rotate(-90.000000) translate(-19.676183, -28.289528) translate(-7.950545, 9.201971)">
                                                                    <polygon id="Rectangle" fill="#222733" fill-rule="nonzero" points="0 19.5745273 26.9103989 2.60824425 54.971189 19.5745273 54.971189 37.3139427 0 37.3139427"></polygon>
                                                                    <polygon id="Fill-1" fill="#FFFFFF" points="4.89278484 37.2159203 49.8308883 37.2159203 49.8308883 0.138569677 4.89278484 0.138569677"></polygon>
                                                                    <path d="M13.8867087,12.7031134 L11.4721232,12.7031134 C10.9503414,12.7031134 10.5272586,12.2793981 10.5272586,11.7568365 L10.5272586,9.33864164 C10.5272586,8.81577206 10.9503414,8.39205678 11.4721232,8.39205678 L13.8867087,8.39205678 C14.4084904,8.39205678 14.8318808,8.81577206 14.8318808,9.33864164 L14.8318808,11.7568365 C14.8318808,12.2793981 14.4084904,12.7031134 13.8867087,12.7031134" id="Fill-7" fill="#01707B"></path>
                                                                    <path d="M29.74712,11.4903516 L18.9520499,11.4903516 C18.3278797,11.4903516 17.8220866,10.9838024 17.8220866,10.3590072 C17.8220866,9.73421187 18.3278797,9.22735479 18.9520499,9.22735479 L29.74712,9.22735479 C30.3709827,9.22735479 30.8767759,9.73421187 30.8767759,10.3590072 C30.8767759,10.9838024 30.3709827,11.4903516 29.74712,11.4903516" id="Fill-9" fill="#E5F4F6"></path>
                                                                    <path d="M37.1817252,11.4903516 L32.9020084,11.4903516 C32.2781456,11.4903516 31.7723525,10.9838024 31.7723525,10.3590072 C31.7723525,9.73421187 32.2781456,9.22735479 32.9020084,9.22735479 L37.1817252,9.22735479 C37.805588,9.22735479 38.3113811,9.73421187 38.3113811,10.3590072 C38.3113811,10.9838024 37.805588,11.4903516 37.1817252,11.4903516" id="Fill-11" fill="#E5F4F6"></path>
                                                                    <path d="M13.8867087,19.2400917 L11.4721232,19.2400917 C10.9503414,19.2400917 10.5272586,18.8163764 10.5272586,18.2938148 L10.5272586,15.87562 C10.5272586,15.3530583 10.9503414,14.929343 11.4721232,14.929343 L13.8867087,14.929343 C14.4084904,14.929343 14.8318808,15.3530583 14.8318808,15.87562 L14.8318808,18.2938148 C14.8318808,18.8163764 14.4084904,19.2400917 13.8867087,19.2400917" id="Fill-13" fill="#01707B"></path>
                                                                    <path d="M26.1655206,18.027607 L18.9518962,18.027607 C18.3280334,18.027607 17.8219329,17.52075 17.8219329,16.8959547 C17.8219329,16.2711594 18.3280334,15.7646102 18.9518962,15.7646102 L26.1655206,15.7646102 C26.7893833,15.7646102 27.2954839,16.2711594 27.2954839,16.8959547 C27.2954839,17.52075 26.7893833,18.027607 26.1655206,18.027607" id="Fill-15" fill="#E5F4F6"></path>
                                                                    <path d="M44.4301556,18.027607 L29.629942,18.027607 C29.0060793,18.027607 28.4999787,17.52075 28.4999787,16.8959547 C28.4999787,16.2711594 29.0060793,15.7646102 29.629942,15.7646102 L44.4301556,15.7646102 C45.0540183,15.7646102 45.5601189,16.2711594 45.5601189,16.8959547 C45.5601189,17.52075 45.0540183,18.027607 44.4301556,18.027607" id="Fill-17" fill="#E5F4F6"></path>
                                                                    <path d="M13.8867087,25.7773164 L11.4721232,25.7773164 C10.9503414,25.7773164 10.5272586,25.3536011 10.5272586,24.8307315 L10.5272586,22.4128446 C10.5272586,21.889975 10.9503414,21.4662598 11.4721232,21.4662598 L13.8867087,21.4662598 C14.4084904,21.4662598 14.8318808,21.889975 14.8318808,22.4128446 L14.8318808,24.8307315 C14.8318808,25.3536011 14.4084904,25.7773164 13.8867087,25.7773164" id="Fill-19" fill="#01707B"></path>
                                                                    <path d="M29.009646,24.5645546 L18.9518962,24.5645546 C18.3280334,24.5645546 17.8219329,24.0580054 17.8219329,23.4332101 C17.8219329,22.8084149 18.3280334,22.3015578 18.9518962,22.3015578 L29.009646,22.3015578 C29.6332012,22.3015578 30.1393018,22.8084149 30.1393018,23.4332101 C30.1393018,24.0580054 29.6332012,24.5645546 29.009646,24.5645546" id="Fill-21" fill="#E5F4F6"></path>
                                                                    <path d="M37.5801488,24.5645546 L32.5034618,24.5645546 C31.8795991,24.5645546 31.3734985,24.0580054 31.3734985,23.4332101 C31.3734985,22.8084149 31.8795991,22.3015578 32.5034618,22.3015578 L37.5801488,22.3015578 C38.2040115,22.3015578 38.7098046,22.8084149 38.7098046,23.4332101 C38.7098046,24.0580054 38.2040115,24.5645546 37.5801488,24.5645546" id="Fill-23" fill="#E5F4F6"></path>
                                                                </g>
                                                                <g id="newsletter" stroke="none" fill-rule="evenodd" transform="translate(36.646863, 28.289528) rotate(-90.000000) translate(-36.646863, -28.289528) translate(9.020135, 12.215796)">
                                                                    <path d="M27.9289105,15.1248742 C27.7515841,15.2136699 27.6629209,15.2136699 27.4855945,15.2136699 C27.3082681,15.2136699 27.2196049,15.2136699 27.0422784,15.1248742 L0,0.0295985796 L0,29.4209882 C0,30.4021811 0.793535712,31.196903 1.77326416,31.196903 L53.1979248,31.196903 C54.1776532,31.196903 54.971189,30.4021811 54.971189,29.4209882 L54.971189,0.0295985796 L27.9289105,15.1248742 Z" id="Path" fill="#373F51"></path>
                                                                </g>
                                                                <path d="M40.7951556,52.6164339 C44.3023633,52.6164339 47.1455168,49.7907993 47.1455168,46.3052023 C47.1455168,42.8196054 44.3023633,39.9939708 40.7951556,39.9939708 C37.2879479,39.9939708 34.4447943,42.8196054 34.4447943,46.3052023 C34.4447943,49.7907993 37.2879479,52.6164339 40.7951556,52.6164339 Z" id="Oval-20" stroke="#3EC5D3" stroke-dasharray="3,4"></path>
                                                            </g>
                                                        </g>
                                                    </g>
                                                </g>
                                            </g>
                                        </g>
                                    </g>
                                    <g id="tile-email-copy-5" transform="translate(224.722467, 0.000000)">
                                        <g id="bg" transform="translate(0.000000, 9.570732)">
                                            <mask id="mask-18" fill="white">
                                                <use xlink:href="#path-17"></use>
                                            </mask>
                                            <g id="Mask">
                                                <use fill="black" fill-opacity="1" filter="url(#filter-19)" xlink:href="#path-17"></use>
                                                <use fill="#FFFFFF" fill-rule="evenodd" xlink:href="#path-17"></use>
                                            </g>
                                            <path d="M13.5676456,111.528928 L128.872179,111.528928 C130.451557,111.528928 131.731896,112.809267 131.731896,114.388644 L131.731896,114.388644 C131.731896,115.968022 130.451557,117.24836 128.872179,117.24836 L13.5676456,117.24836 C11.988268,117.24836 10.7079295,115.968022 10.7079295,114.388644 L10.7079295,114.388644 C10.7079295,112.809267 11.988268,111.528928 13.5676456,111.528928 Z" id="Rectangle-3-Copy-3" fill="#373F51" mask="url(#mask-18)"></path>
                                            <path d="M12.1399217,100.090064 L168.987899,100.090064 C170.567277,100.090064 171.847615,101.370402 171.847615,102.94978 L171.847615,102.94978 C171.847615,104.529157 170.567277,105.809496 168.987899,105.809496 L12.1399217,105.809496 C10.5605441,105.809496 9.28020558,104.529157 9.28020558,102.94978 L9.28020558,102.94978 C9.28020558,101.370402 10.5605441,100.090064 12.1399217,100.090064 Z" id="Rectangle-3-Copy-3" fill="#373F51" mask="url(#mask-18)"></path>
                                        </g>
                                        <g id="content" transform="translate(49.980708, 0.071831)">
                                            <g id="Illustration/ListingExperience/Onboarding-Copy-15" transform="translate(0.001412, 0.919752)">
                                                <g id="Page-1" transform="translate(56.984636, 56.907756) rotate(90.000000) translate(-56.984636, -56.907756) translate(0.224267, 0.147388)">
                                                    <mask id="mask-21" fill="white">
                                                        <use xlink:href="#path-20"></use>
                                                    </mask>
                                                    <use id="Clip-2" fill="#FFFFFF" opacity="0.324521019" xlink:href="#path-20"></use>
                                                </g>
                                            </g>
                                        </g>
                                    </g>
                                    <g id="tile-email-copy-5" transform="translate(281.931363, 146.385817)">
                                        <g id="bg">
                                            <mask id="mask-23" fill="white">
                                                <use xlink:href="#path-22"></use>
                                            </mask>
                                            <g id="Mask">
                                                <use fill="black" fill-opacity="1" filter="url(#filter-24)" xlink:href="#path-22"></use>
                                                <use fill="#FFFFFF" fill-rule="evenodd" xlink:href="#path-22"></use>
                                            </g>
                                            <path d="M-277.688037,-31.4568771 L-120.84006,-31.4568771 C-119.260682,-31.4568771 -117.980344,-30.1765386 -117.980344,-28.597161 L-117.980344,-28.597161 C-117.980344,-27.0177834 -119.260682,-25.7374449 -120.84006,-25.7374449 L-277.688037,-25.7374449 C-279.267415,-25.7374449 -280.547753,-27.0177834 -280.547753,-28.597161 L-280.547753,-28.597161 C-280.547753,-30.1765386 -279.267415,-31.4568771 -277.688037,-31.4568771 Z" id="Rectangle-3-Copy-3" fill="#373F51" mask="url(#mask-23)"></path>
                                            <path d="M-49.2522075,-31.4568771 L107.59577,-31.4568771 C109.175147,-31.4568771 110.455486,-30.1765386 110.455486,-28.597161 L110.455486,-28.597161 C110.455486,-27.0177834 109.175147,-25.7374449 107.59577,-25.7374449 L-49.2522075,-25.7374449 C-50.8315851,-25.7374449 -52.1119236,-27.0177834 -52.1119236,-28.597161 L-52.1119236,-28.597161 C-52.1119236,-30.1765386 -50.8315851,-31.4568771 -49.2522075,-31.4568771 Z" id="Rectangle-3-Copy-3" fill="#373F51" mask="url(#mask-23)"></path>
                                        </g>
                                    </g>
                                </g>
                            </g>
                        </g>
                    </g>
                    <g id="tile-email-copy-4" transform="translate(0.382241, 58.267281)">
                        <mask id="mask-26" fill="white">
                            <use xlink:href="#path-25"></use>
                        </mask>
                        <g id="Mask"></g>
                        <g mask="url(#mask-26)">
                            <g transform="translate(10.548387, 16.344915)">
                                <g id="bg">
                                    <mask id="mask-28" fill="white">
                                        <use xlink:href="#path-27"></use>
                                    </mask>
                                    <g id="Mask">
                                        <use fill="black" fill-opacity="1" filter="url(#filter-29)" xlink:href="#path-27"></use>
                                        <use fill="#FFFFFF" fill-rule="evenodd" xlink:href="#path-27"></use>
                                    </g>
                                    <path d="M10.7039987,110.22669 L125.824448,110.22669 C127.405657,110.22669 128.687479,111.508513 128.687479,113.089721 L128.687479,113.089721 C128.687479,114.67093 127.405657,115.952752 125.824448,115.952752 L10.7039987,115.952752 C9.12279035,115.952752 7.84096774,114.67093 7.84096774,113.089721 L7.84096774,113.089721 C7.84096774,111.508513 9.12279035,110.22669 10.7039987,110.22669 Z" id="Rectangle-3-Copy-3" fill="#373F51" mask="url(#mask-28)"></path>
                                    <path d="M10.7039987,98.7745667 L167.306978,98.7745667 C168.888186,98.7745667 170.170009,100.056389 170.170009,101.637598 L170.170009,101.637598 C170.170009,103.218806 168.888186,104.500629 167.306978,104.500629 L10.7039987,104.500629 C9.12279035,104.500629 7.84096774,103.218806 7.84096774,101.637598 L7.84096774,101.637598 C7.84096774,100.056389 9.12279035,98.7745667 10.7039987,98.7745667 Z" id="Rectangle-3-Copy-3" fill="#373F51" mask="url(#mask-28)"></path>
                                    <g id="Settings" mask="url(#mask-28)" fill="#D7D9DC">
                                        <g transform="translate(198.162639, 100.206082)">
                                            <ellipse id="Oval-5" cx="2.13844575" cy="2.14727319" rx="2.13844575" ry="2.14727319"></ellipse>
                                            <ellipse id="Oval-5-Copy" cx="2.13844575" cy="8.58909276" rx="2.13844575" ry="2.14727319"></ellipse>
                                            <ellipse id="Oval-5-Copy-2" cx="2.13844575" cy="15.0309123" rx="2.13844575" ry="2.14727319"></ellipse>
                                        </g>
                                    </g>
                                </g>
                                <g id="content" transform="translate(8.553783, 8.589093)">
                                    <mask id="mask-31" fill="white">
                                        <use xlink:href="#path-30"></use>
                                    </mask>
                                    <use id="Mask" fill="#E5F4F6" xlink:href="#path-30"></use>
                                    <g id="Illustration/ListingExperience/Onboarding-Copy-15" mask="url(#mask-31)">
                                        <g transform="translate(41.522047, -17.100950)" id="Page-1">
                                            <g transform="translate(56.799832, 56.980314) rotate(90.000000) translate(-56.799832, -56.980314) translate(0.039463, 0.219946)">
                                                <mask id="mask-33" fill="white">
                                                    <use xlink:href="#path-32"></use>
                                                </mask>
                                                <use id="Clip-2" fill="#FFFFFF" opacity="0.324521019" xlink:href="#path-32"></use>
                                                <g id="mail" mask="url(#mask-33)">
                                                    <g transform="translate(30.945092, 28.082900)">
                                                        <g id="Group" stroke="none" fill-rule="evenodd" transform="translate(19.626757, 28.281844) rotate(-90.000000) translate(-19.626757, -28.281844) translate(-7.999971, 9.194286)">
                                                            <polygon id="Rectangle" fill="#222733" fill-rule="nonzero" points="0 19.597217 26.8709408 2.61126757 54.890586 19.597217 54.890586 37.3571949 0 37.3571949"></polygon>
                                                            <polygon id="Fill-1" fill="#FFFFFF" points="4.88561067 37.2590588 49.7578225 37.2590588 49.7578225 0.138730299 4.88561067 0.138730299"></polygon>
                                                            <path d="M13.866347,12.7178381 L11.4553019,12.7178381 C10.9342852,12.7178381 10.5118227,12.2936317 10.5118227,11.7704643 L10.5118227,9.34946645 C10.5118227,8.82599078 10.9342852,8.40178436 11.4553019,8.40178436 L13.866347,8.40178436 C14.3873636,8.40178436 14.8101332,8.82599078 14.8101332,9.34946645 L14.8101332,11.7704643 C14.8101332,12.2936317 14.3873636,12.7178381 13.866347,12.7178381" id="Fill-7" fill="#01707B"></path>
                                                            <path d="M29.7035025,11.5036705 L18.924261,11.5036705 C18.301006,11.5036705 17.7959545,10.9965342 17.7959545,10.3710147 C17.7959545,9.74549521 18.301006,9.2380506 18.924261,9.2380506 L29.7035025,9.2380506 C30.3264505,9.2380506 30.831502,9.74549521 30.831502,10.3710147 C30.831502,10.9965342 30.3264505,11.5036705 29.7035025,11.5036705" id="Fill-9" fill="#E5F4F6"></path>
                                                            <path d="M37.1272066,11.5036705 L32.8537649,11.5036705 C32.2308169,11.5036705 31.7257655,10.9965342 31.7257655,10.3710147 C31.7257655,9.74549521 32.2308169,9.2380506 32.8537649,9.2380506 L37.1272066,9.2380506 C37.7501546,9.2380506 38.2552061,9.74549521 38.2552061,10.3710147 C38.2552061,10.9965342 37.7501546,11.5036705 37.1272066,11.5036705" id="Fill-11" fill="#E5F4F6"></path>
                                                            <path d="M13.866347,19.2623937 L11.4553019,19.2623937 C10.9342852,19.2623937 10.5118227,18.8381873 10.5118227,18.3150199 L10.5118227,15.8940221 C10.5118227,15.3708547 10.9342852,14.9466483 11.4553019,14.9466483 L13.866347,14.9466483 C14.3873636,14.9466483 14.8101332,15.3708547 14.8101332,15.8940221 L14.8101332,18.3150199 C14.8101332,18.8381873 14.3873636,19.2623937 13.866347,19.2623937" id="Fill-13" fill="#01707B"></path>
                                                            <path d="M26.1271547,18.0485036 L18.9241075,18.0485036 C18.3011595,18.0485036 17.795801,17.541059 17.795801,16.9155395 C17.795801,16.29002 18.3011595,15.7828837 18.9241075,15.7828837 L26.1271547,15.7828837 C26.7501027,15.7828837 27.2554612,16.29002 27.2554612,16.9155395 C27.2554612,17.541059 26.7501027,18.0485036 26.1271547,18.0485036" id="Fill-15" fill="#E5F4F6"></path>
                                                            <path d="M44.3650087,18.0485036 L29.5864964,18.0485036 C28.9635484,18.0485036 28.4581899,17.541059 28.4581899,16.9155395 C28.4581899,16.29002 28.9635484,15.7828837 29.5864964,15.7828837 L44.3650087,15.7828837 C44.9879567,15.7828837 45.4933152,16.29002 45.4933152,16.9155395 C45.4933152,17.541059 44.9879567,18.0485036 44.3650087,18.0485036" id="Fill-17" fill="#E5F4F6"></path>
                                                            <path d="M13.866347,25.8071959 L11.4553019,25.8071959 C10.9342852,25.8071959 10.5118227,25.3829895 10.5118227,24.8595139 L10.5118227,22.4388243 C10.5118227,21.9153486 10.9342852,21.4911422 11.4553019,21.4911422 L13.866347,21.4911422 C14.3873636,21.4911422 14.8101332,21.9153486 14.8101332,22.4388243 L14.8101332,24.8595139 C14.8101332,25.3829895 14.3873636,25.8071959 13.866347,25.8071959" id="Fill-19" fill="#01707B"></path>
                                                            <path d="M28.9671098,24.5930284 L18.9241075,24.5930284 C18.3011595,24.5930284 17.795801,24.0858921 17.795801,23.4603726 C17.795801,22.834853 18.3011595,22.3274084 18.9241075,22.3274084 L28.9671098,22.3274084 C29.5897508,22.3274084 30.0951093,22.834853 30.0951093,23.4603726 C30.0951093,24.0858921 29.5897508,24.5930284 28.9671098,24.5930284" id="Fill-21" fill="#E5F4F6"></path>
                                                            <path d="M37.5250459,24.5930284 L32.4558028,24.5930284 C31.8328548,24.5930284 31.3274963,24.0858921 31.3274963,23.4603726 C31.3274963,22.834853 31.8328548,22.3274084 32.4558028,22.3274084 L37.5250459,22.3274084 C38.1479939,22.3274084 38.6530454,22.834853 38.6530454,23.4603726 C38.6530454,24.0858921 38.1479939,24.5930284 37.5250459,24.5930284" id="Fill-23" fill="#E5F4F6"></path>
                                                        </g>
                                                        <g id="newsletter" stroke="none" fill-rule="evenodd" transform="translate(36.575404, 28.281844) rotate(-90.000000) translate(-36.575404, -28.281844) translate(8.948676, 12.208111)">
                                                            <path d="M27.887959,15.1424061 C27.7108926,15.2313047 27.6223594,15.2313047 27.445293,15.2313047 C27.2682266,15.2313047 27.1796934,15.2313047 27.002627,15.1424061 L0,0.0296328886 L0,29.4550913 C0,30.4374215 0.792372169,31.2330646 1.77066407,31.2330646 L53.119922,31.2330646 C54.0982139,31.2330646 54.890586,30.4374215 54.890586,29.4550913 L54.890586,0.0296328886 L27.887959,15.1424061 Z" id="Path" fill="#373F51"></path>
                                                        </g>
                                                        <path d="M40.7353386,52.6774238 C44.2374038,52.6774238 47.0763885,49.8485139 47.0763885,46.3588766 C47.0763885,42.8692394 44.2374038,40.0403295 40.7353386,40.0403295 C37.2332735,40.0403295 34.3942887,42.8692394 34.3942887,46.3588766 C34.3942887,49.8485139 37.2332735,52.6774238 40.7353386,52.6774238 Z" id="Oval-20" stroke="#3EC5D3" stroke-dasharray="3,4"></path>
                                                    </g>
                                                </g>
                                            </g>
                                        </g>
                                    </g>
                                </g>
                            </g>
                        </g>
                    </g>
                </g>
            </g>
        </g>
    </g>
</svg>