<?xml version="1.0" encoding="UTF-8"?>
<svg width="75px" height="75px" viewBox="0 0 75 75" version="1.1" xmlns="http://www.w3.org/2000/svg" xmlns:xlink="http://www.w3.org/1999/xlink">
    <!-- Generator: Sketch 54.1 (76490) - https://sketchapp.com -->
    <title>Group 7@2x</title>
    <desc>Created with Sketch.</desc>
    <defs>
        <circle id="path-1" cx="18.5" cy="18.5" r="18.5"></circle>
        <filter x="-83.8%" y="-78.4%" width="267.6%" height="267.6%" filterUnits="objectBoundingBox" id="filter-2">
            <feOffset dx="0" dy="2" in="SourceAlpha" result="shadowOffsetOuter1"></feOffset>
            <feGaussianBlur stdDeviation="10" in="shadowOffsetOuter1" result="shadowBlurOuter1"></feGaussianBlur>
            <feColorMatrix values="0 0 0 0 0.843137255   0 0 0 0 0.850980392   0 0 0 0 0.862745098  0 0 0 0.402032382 0" type="matrix" in="shadowBlurOuter1"></feColorMatrix>
        </filter>
    </defs>
    <g id="Symbols" stroke="none" stroke-width="1" fill="none" fill-rule="evenodd">
        <g id="organisms/kelle-guides-sidebar/default" transform="translate(-5.000000, -92.000000)" fill-rule="nonzero">
            <g id="Group-4">
                <g id="Group-7" transform="translate(24.000000, 109.000000)">
                    <g id="Oval-2">
                        <use fill="black" fill-opacity="1" filter="url(#filter-2)" xlink:href="#path-1"></use>
                        <use fill="#FFFFFF" xlink:href="#path-1"></use>
                    </g>
                    <g id="bulb-63" transform="translate(7.000000, 7.000000)" fill="#FFCE24">
                        <path d="M2.5,12 L0.5,12 C0.224,12 0,11.7765 0,11.5 C0,11.2235 0.224,11 0.5,11 L2.5,11 C2.776,11 3,11.2235 3,11.5 C3,11.7765 2.776,12 2.5,12 Z" id="Shape"></path>
                        <path d="M5.414125,5.914625 C5.286125,5.914625 5.158125,5.865625 5.060625,5.768125 L3.646625,4.353625 C3.451125,4.158125 3.451125,3.842125 3.646625,3.646625 C3.842125,3.451125 4.158125,3.451125 4.353625,3.646625 L5.767625,5.061125 C5.963125,5.256625 5.963125,5.572625 5.767625,5.768125 C5.670125,5.866125 5.542125,5.914625 5.414125,5.914625 Z" id="Shape"></path>
                        <path d="M11.5,3 C11.224,3 11,2.7765 11,2.5 L11,0.5 C11,0.2235 11.224,0 11.5,0 C11.776,0 12,0.2235 12,0.5 L12,2.5 C12,2.7765 11.776,3 11.5,3 Z" id="Shape"></path>
                        <path d="M18.000125,5.914625 C17.872125,5.914625 17.744125,5.865625 17.646625,5.768125 C17.451125,5.572625 17.451125,5.256625 17.646625,5.061125 L19.060625,3.646625 C19.255625,3.451125 19.572125,3.451125 19.767625,3.646625 C19.963125,3.842125 19.963125,4.158125 19.767625,4.353625 L18.353625,5.768125 C18.256125,5.866125 18.128125,5.914625 18.000125,5.914625 Z" id="Shape"></path>
                        <path d="M22.5,12 L20.5,12 C20.224,12 20,11.7765 20,11.5 C20,11.2235 20.224,11 20.5,11 L22.5,11 C22.776,11 23,11.2235 23,11.5 C23,11.7765 22.776,12 22.5,12 Z" id="Shape"></path>
                        <path d="M11.5,5 C7.916,5 5,7.916 5,11.5 C5,14.125 6.5935,16.49 9,17.494 L9,20.5 L14,20.5 L14,17.494 C16.4065,16.49 18,14.125 18,11.5 C18,7.916 15.084,5 11.5,5 Z" id="Shape"></path>
                        <path d="M10.5,23 L12.5,23 C13.3285,23 14,22.3285 14,21.5 L9,21.5 C9,22.3285 9.6715,23 10.5,23 Z" id="Shape"></path>
                    </g>
                </g>
            </g>
        </g>
    </g>
</svg>