<?xml version="1.0" encoding="UTF-8"?>
<svg width="212px" height="206px" viewBox="0 0 212 206" version="1.1" xmlns="http://www.w3.org/2000/svg" xmlns:xlink="http://www.w3.org/1999/xlink">
    <!-- Generator: sketchtool 55 (78076) - https://sketchapp.com -->
    <title>59597AE4-8924-47FA-BB43-7EA5E485BCCB@2x</title>
    <desc>Created with sketchtool.</desc>
    <defs>
        <polygon id="path-1" points="0.0900619573 0.514614229 204.858704 0.514614229 204.858704 205.228376 0.0900619573 205.228376"></polygon>
        <path d="M102.101093,0.514614229 C45.7270895,0.715985021 0.0902934772,46.4649602 0.0902934772,102.871157 L0.0902934772,102.871157 C0.0902934772,159.402342 45.9292852,205.22847 102.474614,205.22847 L102.474614,205.22847 C159.019944,205.22847 204.858935,159.402342 204.858935,102.871157 L204.858935,102.871157 C204.858935,46.4649602 159.221368,0.715985021 102.848136,0.514614229 L102.848136,0.514614229" id="path-3"></path>
        <path d="M102.101093,0.514614229 C45.7270895,0.715985021 0.0902934772,46.4649602 0.0902934772,102.871157 L0.0902934772,102.871157 C0.0902934772,159.402342 45.9292852,205.22847 102.474614,205.22847 L102.474614,205.22847 C159.019944,205.22847 204.858935,159.402342 204.858935,102.871157 L204.858935,102.871157 C204.858935,46.4649602 159.221368,0.715985021 102.848136,0.514614229 L102.848136,0.514614229" id="path-5"></path>
        <path d="M102.101093,0.514614229 C45.7270895,0.715985021 0.0902934772,46.4649602 0.0902934772,102.871157 L0.0902934772,102.871157 C0.0902934772,159.402342 45.9292852,205.22847 102.474614,205.22847 L102.474614,205.22847 C159.019944,205.22847 204.858935,159.402342 204.858935,102.871157 L204.858935,102.871157 C204.858935,46.4649602 159.221368,0.715985021 102.848136,0.514614229 L102.848136,0.514614229 L102.101093,0.514614229 Z" id="path-7"></path>
        <path d="M102.101093,0.514614229 C45.7270895,0.715985021 0.0902934772,46.4649602 0.0902934772,102.871157 L0.0902934772,102.871157 C0.0902934772,159.402342 45.9292852,205.22847 102.474614,205.22847 L102.474614,205.22847 C159.019944,205.22847 204.858935,159.402342 204.858935,102.871157 L204.858935,102.871157 C204.858935,46.4649602 159.221368,0.715985021 102.848136,0.514614229 L102.848136,0.514614229" id="path-9"></path>
        <path d="M102.101093,0.514614229 C45.7270895,0.715985021 0.0902934772,46.4649602 0.0902934772,102.871157 L0.0902934772,102.871157 C0.0902934772,159.402342 45.9292852,205.22847 102.474614,205.22847 L102.474614,205.22847 C159.019944,205.22847 204.858935,159.402342 204.858935,102.871157 L204.858935,102.871157 C204.858935,46.4649602 159.221368,0.715985021 102.848136,0.514614229 L102.848136,0.514614229" id="path-11"></path>
        <path d="M102.101093,0.514614229 C45.7270895,0.715985021 0.0902934772,46.4649602 0.0902934772,102.871157 L0.0902934772,102.871157 C0.0902934772,159.402342 45.9292852,205.22847 102.474614,205.22847 L102.474614,205.22847 C159.019944,205.22847 204.858935,159.402342 204.858935,102.871157 L204.858935,102.871157 C204.858935,46.4649602 159.221368,0.715985021 102.848136,0.514614229 L102.848136,0.514614229 L102.101093,0.514614229 Z" id="path-13"></path>
        <path d="M102.101093,0.514614229 C45.7270895,0.715985021 0.0902934772,46.4649602 0.0902934772,102.871157 L0.0902934772,102.871157 C0.0902934772,159.402342 45.9292852,205.22847 102.474614,205.22847 L102.474614,205.22847 C159.019944,205.22847 204.858935,159.402342 204.858935,102.871157 L204.858935,102.871157 C204.858935,46.4649602 159.221368,0.715985021 102.848136,0.514614229 L102.848136,0.514614229 L102.101093,0.514614229 Z" id="path-15"></path>
        <path d="M102.101093,0.514614229 C45.7270895,0.715985021 0.0902934772,46.4649602 0.0902934772,102.871157 L0.0902934772,102.871157 C0.0902934772,159.402342 45.9292852,205.22847 102.474614,205.22847 L102.474614,205.22847 C159.019944,205.22847 204.858935,159.402342 204.858935,102.871157 L204.858935,102.871157 C204.858935,46.4649602 159.221368,0.715985021 102.848136,0.514614229 L102.848136,0.514614229 L102.101093,0.514614229 Z" id="path-17"></path>
        <path d="M102.101093,0.514614229 C45.7270895,0.715985021 0.0902934772,46.4649602 0.0902934772,102.871157 L0.0902934772,102.871157 C0.0902934772,159.402342 45.9292852,205.22847 102.474614,205.22847 L102.474614,205.22847 C159.019944,205.22847 204.858935,159.402342 204.858935,102.871157 L204.858935,102.871157 C204.858935,46.4649602 159.221368,0.715985021 102.848136,0.514614229 L102.848136,0.514614229 L102.101093,0.514614229 Z" id="path-19"></path>
        <path d="M102.101093,0.514614229 C45.7270895,0.715985021 0.0902934772,46.4649602 0.0902934772,102.871157 L0.0902934772,102.871157 C0.0902934772,159.402342 45.9292852,205.22847 102.474614,205.22847 L102.474614,205.22847 C159.019944,205.22847 204.858935,159.402342 204.858935,102.871157 L204.858935,102.871157 C204.858935,46.4649602 159.221368,0.715985021 102.848136,0.514614229 L102.848136,0.514614229 L102.101093,0.514614229 Z" id="path-21"></path>
        <path d="M102.101093,0.514614229 C45.7270895,0.715985021 0.0902934772,46.4649602 0.0902934772,102.871157 L0.0902934772,102.871157 C0.0902934772,159.402342 45.9292852,205.22847 102.474614,205.22847 L102.474614,205.22847 C159.019944,205.22847 204.858935,159.402342 204.858935,102.871157 L204.858935,102.871157 C204.858935,46.4649602 159.221368,0.715985021 102.848136,0.514614229 L102.848136,0.514614229 L102.101093,0.514614229 Z" id="path-23"></path>
        <path d="M102.101093,0.514614229 C45.7270895,0.715985021 0.0902934772,46.4649602 0.0902934772,102.871157 L0.0902934772,102.871157 C0.0902934772,159.402342 45.9292852,205.22847 102.474614,205.22847 L102.474614,205.22847 C159.019944,205.22847 204.858935,159.402342 204.858935,102.871157 L204.858935,102.871157 C204.858935,46.4649602 159.221368,0.715985021 102.848136,0.514614229 L102.848136,0.514614229 L102.101093,0.514614229 Z" id="path-25"></path>
        <path d="M102.101093,0.514614229 C45.7270895,0.715985021 0.0902934772,46.4649602 0.0902934772,102.871157 L0.0902934772,102.871157 C0.0902934772,159.402342 45.9292852,205.22847 102.474614,205.22847 L102.474614,205.22847 C159.019944,205.22847 204.858935,159.402342 204.858935,102.871157 L204.858935,102.871157 C204.858935,46.4649602 159.221368,0.715985021 102.848136,0.514614229 L102.848136,0.514614229 L102.101093,0.514614229 Z" id="path-27"></path>
        <path d="M102.101093,0.514614229 C45.7270895,0.715985021 0.0902934772,46.4649602 0.0902934772,102.871157 L0.0902934772,102.871157 C0.0902934772,159.402342 45.9292852,205.22847 102.474614,205.22847 L102.474614,205.22847 C159.019944,205.22847 204.858935,159.402342 204.858935,102.871157 L204.858935,102.871157 C204.858935,46.4649602 159.221368,0.715985021 102.848136,0.514614229 L102.848136,0.514614229" id="path-29"></path>
        <path d="M102.101093,0.514614229 C45.7270895,0.715985021 0.0902934772,46.4649602 0.0902934772,102.871157 L0.0902934772,102.871157 C0.0902934772,159.402342 45.9292852,205.22847 102.474614,205.22847 L102.474614,205.22847 C159.019944,205.22847 204.858935,159.402342 204.858935,102.871157 L204.858935,102.871157 C204.858935,46.4649602 159.221368,0.715985021 102.848136,0.514614229 L102.848136,0.514614229" id="path-31"></path>
        <path d="M102.101093,0.514614229 C45.7270895,0.715985021 0.0902934772,46.4649602 0.0902934772,102.871157 L0.0902934772,102.871157 C0.0902934772,159.402342 45.9292852,205.22847 102.474614,205.22847 L102.474614,205.22847 C159.019944,205.22847 204.858935,159.402342 204.858935,102.871157 L204.858935,102.871157 C204.858935,46.4649602 159.221368,0.715985021 102.848136,0.514614229 L102.848136,0.514614229" id="path-33"></path>
        <path d="M102.101093,0.514614229 C45.7270895,0.715985021 0.0902934772,46.4649602 0.0902934772,102.871157 L0.0902934772,102.871157 C0.0902934772,159.402342 45.9292852,205.22847 102.474614,205.22847 L102.474614,205.22847 C159.019944,205.22847 204.858935,159.402342 204.858935,102.871157 L204.858935,102.871157 C204.858935,46.4649602 159.221368,0.715985021 102.848136,0.514614229 L102.848136,0.514614229 L102.101093,0.514614229 Z" id="path-35"></path>
        <path d="M102.101093,0.514614229 C45.7270895,0.715985021 0.0902934772,46.4649602 0.0902934772,102.871157 L0.0902934772,102.871157 C0.0902934772,159.402342 45.9292852,205.22847 102.474614,205.22847 L102.474614,205.22847 C159.019944,205.22847 204.858935,159.402342 204.858935,102.871157 L204.858935,102.871157 C204.858935,46.4649602 159.221368,0.715985021 102.848136,0.514614229 L102.848136,0.514614229" id="path-37"></path>
        <path d="M102.101093,0.514614229 C45.7270895,0.715985021 0.0902934772,46.4649602 0.0902934772,102.871157 L0.0902934772,102.871157 C0.0902934772,159.402342 45.9292852,205.22847 102.474614,205.22847 L102.474614,205.22847 C159.019944,205.22847 204.858935,159.402342 204.858935,102.871157 L204.858935,102.871157 C204.858935,46.4649602 159.221368,0.715985021 102.848136,0.514614229 L102.848136,0.514614229" id="path-39"></path>
        <path d="M102.101093,0.514614229 C45.7270895,0.715985021 0.0902934772,46.4649602 0.0902934772,102.871157 L0.0902934772,102.871157 C0.0902934772,159.402342 45.9292852,205.22847 102.474614,205.22847 L102.474614,205.22847 C159.019944,205.22847 204.858935,159.402342 204.858935,102.871157 L204.858935,102.871157 C204.858935,46.4649602 159.221368,0.715985021 102.848136,0.514614229 L102.848136,0.514614229" id="path-41"></path>
        <path d="M102.101093,0.514614229 C45.7270895,0.715985021 0.0902934772,46.4649602 0.0902934772,102.871157 L0.0902934772,102.871157 C0.0902934772,159.402342 45.9292852,205.22847 102.474614,205.22847 L102.474614,205.22847 C159.019944,205.22847 204.858935,159.402342 204.858935,102.871157 L204.858935,102.871157 C204.858935,46.4649602 159.221368,0.715985021 102.848136,0.514614229 L102.848136,0.514614229" id="path-43"></path>
    </defs>
    <g id="V_2" stroke="none" stroke-width="1" fill="none" fill-rule="evenodd">
        <g id="Step1_1" transform="translate(-215.000000, -398.000000)">
            <g id="Group-23" transform="translate(164.000000, 392.000000)">
                <g id="Group-16" transform="translate(0.000000, 6.000000)">
                    <g id="resources/illustrations/marketingprofile" transform="translate(51.000000, 0.000000)">
                        <g id="Group-170">
                            <g id="Group-20" transform="translate(0.000000, 0.256921)">
                                <path d="M55.167695,18.595859 L2.20015111,18.595859 C0.985433704,18.595859 -7.71739111e-05,19.5803384 -7.71739111e-05,20.7955069 L-7.71739111e-05,152.443389 C-7.71739111e-05,153.658557 0.985433704,154.643037 2.20015111,154.643037 L24.9456187,154.643037 C16.0189121,139.453816 10.8945642,121.762506 10.8945642,102.870687 C10.8945642,67.917812 28.4230752,37.0625624 55.167695,18.595859" id="Fill-1" fill="#3EC5D3"></path>
                                <polygon id="Fill-3" fill="#FDA69B" points="127.240103 152.827229 89.2936902 152.827229 87.6877011 152.827229 48.1368424 152.827229 -0.000385869584 152.827229 -0.000385869584 170.170577 30.9664185 170.170577 70.5180489 170.170577 110.069679 170.170577 158.206136 170.170577 158.206136 152.827229"></polygon>
                                <polygon id="Fill-5" fill="#FC6A59" points="39.6054982 170.133317 27.939118 170.133317 40.4243134 152.864807 52.0914654 152.864807"></polygon>
                                <polygon id="Fill-7" fill="#FC6A59" points="68.3723833 170.133317 56.7191226 170.133317 69.1911985 152.864807 80.8606658 152.864807"></polygon>
                                <polygon id="Fill-9" fill="#FC6A59" points="125.654414 170.133317 113.988034 170.133317 126.473229 152.864807 138.140381 152.864807"></polygon>
                                <polygon id="Fill-11" fill="#FC6A59" points="154.42129 170.133317 142.76803 170.133317 155.240106 152.864807 166.909573 152.864807"></polygon>
                                <polygon id="Fill-13" fill="#FC6A59" points="96.8879144 170.133317 85.2207619 170.133317 97.7067297 152.864807 109.36848 152.864807"></polygon>
                                <g id="Group-17" transform="translate(6.945652, 0.000000)">
                                    <mask id="mask-2" fill="white">
                                        <use xlink:href="#path-1"></use>
                                    </mask>
                                    <g id="Clip-16"></g>
                                    <path d="M204.858704,102.871079 C204.858704,159.402265 159.019712,205.228393 102.474383,205.228393 C45.9290537,205.228393 0.0900619573,159.402265 0.0900619573,102.871079 C0.0900619573,46.3406658 45.9290537,0.514537063 102.474383,0.514537063 C159.019712,0.514537063 204.858704,46.3406658 204.858704,102.871079" id="Fill-15" fill="#C9C7EC" mask="url(#mask-2)"></path>
                                </g>
                                <path d="M98.9943703,170.170969 L41.3068724,170.170969 L32.2875576,170.170969 C34.8543618,173.108205 37.5793726,175.901935 40.4610464,178.528242 L152.444249,174.414414 C152.798477,179.197935 156.805346,182.982317 161.67965,182.982317 C166.553955,182.982317 170.560052,179.197935 170.914281,174.414414 L182.631595,174.414414 C183.974421,173.041081 185.263997,171.616826 186.528106,170.170969 L156.681868,170.170969 L98.9943703,170.170969 Z" id="Fill-18" fill="#9290D9"></path>
                            </g>
                            <g id="Group-84" transform="translate(6.945652, 0.256921)">
                                <g id="Group-23">
                                    <mask id="mask-4" fill="white">
                                        <use xlink:href="#path-3"></use>
                                    </mask>
                                    <g id="Clip-22"></g>
                                    <path d="M-8.60442794,18.595859 L217.745887,18.595859 C218.960605,18.595859 219.945344,19.5803384 219.945344,20.7955069 L219.945344,152.443389 C219.945344,153.658557 218.960605,154.643037 217.745887,154.643037 L-8.60442794,154.643037 C-9.81914534,154.643037 -10.8046562,153.658557 -10.8046562,152.443389 L-10.8046562,20.7955069 C-10.8046562,19.5803384 -9.81914534,18.595859 -8.60442794,18.595859" id="Fill-21" fill="#3EC5D3" mask="url(#mask-4)"></path>
                                </g>
                                <g id="Group-26">
                                    <mask id="mask-6" fill="white">
                                        <use xlink:href="#path-5"></use>
                                    </mask>
                                    <g id="Clip-25"></g>
                                    <path d="M202.793674,68.494073 C206.726456,68.494073 209.912967,71.4475113 209.912967,75.0853017 C209.912967,78.7261782 206.726456,81.6765303 202.793674,81.6765303 L134.768729,81.6765303 C130.835946,81.6765303 127.645577,78.7261782 127.645577,75.0853017 C127.645577,71.4475113 130.835946,68.494073 134.768729,68.494073 L202.793674,68.494073" id="Fill-24" fill="#CCEBED" mask="url(#mask-6)"></path>
                                </g>
                                <g id="Group-29">
                                    <mask id="mask-8" fill="white">
                                        <use xlink:href="#path-7"></use>
                                    </mask>
                                    <g id="Clip-28"></g>
                                    <path d="M177.116752,45.4252374 C180.744698,45.4252374 183.685024,48.3786757 183.685024,52.0164661 C183.685024,55.6573426 180.744698,58.6076947 177.116752,58.6076947 L134.217318,58.6076947 C130.588601,58.6076947 127.645188,55.6573426 127.645188,52.0164661 C127.645188,48.3786757 130.588601,45.4252374 134.217318,45.4252374 L177.116752,45.4252374 Z" id="Fill-27" fill="#CCEBED" mask="url(#mask-8)"></path>
                                </g>
                                <g id="Group-32">
                                    <mask id="mask-10" fill="white">
                                        <use xlink:href="#path-9"></use>
                                    </mask>
                                    <g id="Clip-31"></g>
                                    <path d="M175.935062,101.98805 C175.293747,101.347676 174.441747,100.995084 173.536497,100.995084 L173.534953,100.995084 L136.557074,100.995084 C134.685606,100.995084 133.162965,100.974253 133.162965,102.844455 L133.162965,123.794733 C133.162965,125.665706 134.685606,127.187946 136.557074,127.187946 L148.619356,127.187946 L153.304584,136.071407 C153.668073,136.700209 154.319421,137.076718 155.045628,137.076718 L155.046399,137.076718 C155.773378,137.076718 156.423954,136.700209 156.786671,136.071407 L161.471128,127.187946 L173.534953,127.187946 C175.406421,127.187946 176.929062,125.665706 176.929062,123.794733 L176.929062,102.844455 C176.929062,101.938672 176.576377,102.629196 175.935062,101.98805" id="Fill-30" fill="#33ADB9" mask="url(#mask-10)"></path>
                                </g>
                                <g id="Group-35">
                                    <mask id="mask-12" fill="white">
                                        <use xlink:href="#path-11"></use>
                                    </mask>
                                    <g id="Clip-34"></g>
                                    <path d="M176.929144,102.073157 L176.929144,123.022663 C176.929144,124.470835 175.755329,125.645112 174.306775,125.645112 L161.025916,125.645112 L156.118427,134.142034 C155.642264,134.968348 154.449928,134.968348 153.972993,134.142034 L149.064732,125.645112 L135.785417,125.645112 C134.337635,125.645112 133.163048,124.470835 133.163048,123.022663 L133.163048,102.073157 C133.163048,100.624985 134.337635,99.4522505 135.785417,99.4522505 L174.306775,99.4522505 C175.755329,99.451479 176.929144,100.624985 176.929144,102.073157" id="Fill-33" fill="#FFFFFF" mask="url(#mask-12)"></path>
                                </g>
                                <g id="Group-38">
                                    <mask id="mask-14" fill="white">
                                        <use xlink:href="#path-13"></use>
                                    </mask>
                                    <g id="Clip-37"></g>
                                    <polygon id="Fill-36" fill="#FDA69B" mask="url(#mask-14)" points="174.780083 152.827229 119.434039 152.827229 117.091039 152.827229 59.4050829 152.827229 -10.8046562 152.827229 -10.8046562 170.170577 34.3613764 170.170577 92.0488764 170.170577 149.736376 170.170577 219.945344 170.170577 219.945344 152.827229"></polygon>
                                </g>
                                <g id="Group-41">
                                    <mask id="mask-16" fill="white">
                                        <use xlink:href="#path-15"></use>
                                    </mask>
                                    <g id="Clip-40"></g>
                                    <polygon id="Fill-39" fill="#D7D9DC" mask="url(#mask-16)" points="208.163428 152.827229 193.725733 152.827229 193.114515 152.827229 178.065602 152.827229 159.749918 152.827229 159.749918 170.170577 171.532059 170.170577 186.580972 170.170577 201.629885 170.170577 219.94557 170.170577 219.94557 152.827229"></polygon>
                                </g>
                                <g id="Group-44">
                                    <mask id="mask-18" fill="white">
                                        <use xlink:href="#path-17"></use>
                                    </mask>
                                    <g id="Clip-43"></g>
                                    <polygon id="Fill-42" fill="#FC6A59" mask="url(#mask-18)" points="32.6598461 170.133317 20.9934658 170.133317 33.4786613 152.864807 45.1458133 152.864807"></polygon>
                                </g>
                                <g id="Group-47">
                                    <mask id="mask-20" fill="white">
                                        <use xlink:href="#path-19"></use>
                                    </mask>
                                    <g id="Clip-46"></g>
                                    <polygon id="Fill-45" fill="#FC6A59" mask="url(#mask-20)" points="61.4267311 170.133317 49.7734704 170.133317 62.2455463 152.864807 73.9150136 152.864807"></polygon>
                                </g>
                                <g id="Group-50">
                                    <mask id="mask-22" fill="white">
                                        <use xlink:href="#path-21"></use>
                                    </mask>
                                    <g id="Clip-49"></g>
                                    <polygon id="Fill-48" fill="#FC6A59" mask="url(#mask-22)" points="3.89334701 177.848673 -7.7738055 177.848673 4.71216225 160.580163 16.3739126 160.580163"></polygon>
                                </g>
                                <g id="Group-53">
                                    <mask id="mask-24" fill="white">
                                        <use xlink:href="#path-23"></use>
                                    </mask>
                                    <g id="Clip-52"></g>
                                    <polygon id="Fill-51" fill="#FC6A59" mask="url(#mask-24)" points="118.708762 170.133317 107.042382 170.133317 119.527577 152.864807 131.194729 152.864807"></polygon>
                                </g>
                                <g id="Group-56">
                                    <mask id="mask-26" fill="white">
                                        <use xlink:href="#path-25"></use>
                                    </mask>
                                    <g id="Clip-55"></g>
                                    <polygon id="Fill-54" fill="#FC6A59" mask="url(#mask-26)" points="149.717387 170.133317 135.822224 170.133317 148.2943 152.864807 159.963768 152.864807"></polygon>
                                </g>
                                <g id="Group-59">
                                    <mask id="mask-28" fill="white">
                                        <use xlink:href="#path-27"></use>
                                    </mask>
                                    <g id="Clip-58"></g>
                                    <polygon id="Fill-57" fill="#FC6A59" mask="url(#mask-28)" points="89.9422623 170.133317 78.2751097 170.133317 90.7610775 152.864807 102.422828 152.864807"></polygon>
                                </g>
                                <g id="Group-62">
                                    <mask id="mask-30" fill="white">
                                        <use xlink:href="#path-29"></use>
                                    </mask>
                                    <g id="Clip-61"></g>
                                    <path d="M154.733696,144.020156 L154.733696,144.020156 C151.537152,144.020156 148.945652,146.6102 148.945652,149.806672 L148.945652,172.95274 C148.945652,176.149212 151.537152,178.739257 154.733696,178.739257 C157.930239,178.739257 160.521739,176.149212 160.521739,172.95274 L160.521739,149.806672 C160.521739,146.6102 157.930239,144.020156 154.733696,144.020156" id="Fill-60" fill="#373F51" mask="url(#mask-30)"></path>
                                </g>
                                <g id="Group-65">
                                    <mask id="mask-32" fill="white">
                                        <use xlink:href="#path-31"></use>
                                    </mask>
                                    <g id="Clip-64"></g>
                                    <path d="M146.798518,106.338514 L138.413573,106.338514 C138.199801,106.338514 138.027703,106.512109 138.027703,106.724281 L138.027703,109.150761 C138.027703,109.362933 138.199801,109.536529 138.413573,109.536529 L142.730681,109.536529 C141.908007,110.632109 141.281355,111.682169 140.865388,112.665877 C140.468714,113.598663 140.101366,115.320731 139.772605,117.780386 C139.757942,117.891487 139.791899,118.001817 139.865214,118.086686 C139.938529,118.170012 140.044257,118.217075 140.155388,118.217075 L143.01854,118.217075 C143.219964,118.217075 143.388203,118.061997 143.403638,117.862169 C143.541007,116.077607 143.736257,114.679585 143.938453,114.019922 C144.269529,112.917398 144.726399,111.904371 145.297486,111.007075 C145.76516,110.274888 146.357083,109.582049 147.057051,108.950162 C147.138083,108.876866 147.184388,108.772708 147.184388,108.663922 L147.184388,106.724281 C147.184388,106.512109 147.011518,106.338514 146.798518,106.338514" id="Fill-63" fill="#373F51" mask="url(#mask-32)"></path>
                                </g>
                                <g id="Group-68">
                                    <mask id="mask-34" fill="white">
                                        <use xlink:href="#path-33"></use>
                                    </mask>
                                    <g id="Clip-67"></g>
                                    <path d="M156.570749,111.547839 C155.855346,110.854229 154.917683,110.502409 153.78477,110.502409 C153.450607,110.502409 153.108727,110.542529 152.766846,110.625854 C152.631792,110.657487 152.496738,110.696064 152.36014,110.741585 L152.502912,109.402199 L156.774488,109.402199 C156.988259,109.402199 157.160357,109.228604 157.160357,109.016431 L157.160357,106.724199 C157.160357,106.512027 156.988259,106.338431 156.774488,106.338431 L149.955401,106.338431 C149.763238,106.338431 149.600401,106.480394 149.57339,106.670192 L148.66351,112.996783 C148.633412,113.207413 148.77927,113.402611 148.990727,113.433472 L151.437912,113.786064 C151.567564,113.80381 151.694901,113.757517 151.780564,113.660304 C152.026749,113.384866 152.20039,113.264506 152.307662,113.209727 C152.819325,112.938918 153.384238,113.013757 153.697564,113.355547 C153.892042,113.566948 153.990825,113.934971 153.990825,114.448042 C153.990825,114.951854 153.890499,115.324506 153.692933,115.552881 C153.335618,115.968738 152.72826,115.984169 152.334673,115.614604 C152.14251,115.435607 152.015944,115.153225 151.958064,114.777487 C151.927194,114.573802 151.741977,114.431068 151.535151,114.451899 L148.629553,114.769772 C148.516107,114.781345 148.414238,114.843068 148.350955,114.938738 C148.287673,115.033637 148.269151,115.150911 148.301564,115.260469 C148.451281,115.777398 148.64576,116.221031 148.877281,116.576708 C149.112662,116.936244 149.422129,117.262604 149.797194,117.544986 C150.176118,117.829682 150.63839,118.045712 151.17089,118.186903 C151.688727,118.324236 152.31152,118.393675 153.023064,118.393675 C154.031727,118.393675 154.879096,118.21545 155.54202,117.862858 C156.21652,117.503323 156.74439,116.975592 157.110966,116.294326 C157.471368,115.623862 157.65427,114.915592 157.65427,114.186491 C157.65427,113.134888 157.290009,112.246079 156.570749,111.547839" id="Fill-66" fill="#373F51" mask="url(#mask-34)"></path>
                                </g>
                                <g id="Group-71">
                                    <mask id="mask-36" fill="white">
                                        <use xlink:href="#path-35"></use>
                                    </mask>
                                    <g id="Clip-70"></g>
                                    <polygon id="Fill-69" fill="#373F51" mask="url(#mask-36)" points="164.58356 117.542289 163.225299 116.80933 168.764071 106.541734 170.122332 107.273921"></polygon>
                                </g>
                                <g id="Group-74">
                                    <mask id="mask-38" fill="white">
                                        <use xlink:href="#path-37"></use>
                                    </mask>
                                    <g id="Clip-73"></g>
                                    <path d="M170.343735,116.80393 C169.893811,116.80393 169.505626,116.716747 169.189213,116.544694 C168.899811,116.388073 168.692985,116.174357 168.557159,115.890432 C168.398952,115.563301 168.32255,115.223825 168.32255,114.85426 C168.32255,114.483151 168.398952,114.144447 168.557159,113.817316 C168.692985,113.534163 168.899811,113.319676 169.189213,113.163054 C169.505626,112.991773 169.893811,112.903818 170.343735,112.903818 C171.007431,112.903818 171.500572,113.073556 171.851713,113.423062 C172.202083,113.771024 172.371866,114.239346 172.371866,114.85426 C172.371866,115.468402 172.202083,115.935953 171.851713,116.283915 C171.500572,116.633421 171.006659,116.80393 170.343735,116.80393" id="Fill-72" fill="#FFFFFF" mask="url(#mask-38)"></path>
                                </g>
                                <g id="Group-77">
                                    <mask id="mask-40" fill="white">
                                        <use xlink:href="#path-39"></use>
                                    </mask>
                                    <g id="Clip-76"></g>
                                    <path d="M170.343735,112.132518 C169.761072,112.132518 169.253268,112.249791 168.820322,112.48511 C168.388148,112.720428 168.068648,113.052188 167.861822,113.482705 C167.654996,113.91245 167.550811,114.3692 167.550811,114.853724 C167.550811,115.337477 167.654996,115.794997 167.861822,116.225514 C168.068648,116.654488 168.388148,116.987791 168.820322,117.22311 C169.253268,117.457656 169.761072,117.575701 170.343735,117.575701 C171.213485,117.575701 171.898018,117.326495 172.39579,116.83117 C172.894333,116.335072 173.143605,115.676952 173.143605,114.853724 C173.143605,114.031267 172.894333,113.371604 172.39579,112.876278 C171.898018,112.380181 171.213485,112.132518 170.343735,112.132518 M170.343735,113.675589 C171.011289,113.675589 171.23355,113.89702 171.307637,113.970316 C171.443463,114.106106 171.600126,114.32908 171.600126,114.853724 C171.600126,115.37914 171.443463,115.602114 171.306865,115.737904 C171.23355,115.8112 171.011289,116.03263 170.343735,116.03263 C170.023463,116.03263 169.759528,115.976308 169.556561,115.86675 C169.409931,115.786511 169.318865,115.693926 169.252496,115.555821 C169.145996,115.335162 169.094289,115.106016 169.094289,114.853724 C169.094289,114.602203 169.145996,114.371514 169.252496,114.151627 C169.318865,114.013522 169.409931,113.920166 169.557333,113.840698 C169.759528,113.730368 170.023463,113.675589 170.343735,113.675589" id="Fill-75" fill="#373F51" mask="url(#mask-40)"></path>
                                </g>
                                <g id="Group-80">
                                    <mask id="mask-42" fill="white">
                                        <use xlink:href="#path-41"></use>
                                    </mask>
                                    <g id="Clip-79"></g>
                                    <path d="M162.896844,111.212536 C162.440746,111.212536 162.051018,111.126896 161.737692,110.957158 C161.449833,110.801308 161.243778,110.586821 161.105637,110.301353 C160.945887,109.972679 160.868713,109.633203 160.868713,109.263637 C160.868713,108.89793 160.945887,108.559997 161.105637,108.231323 C161.243778,107.945083 161.449833,107.730596 161.736148,107.576289 C162.051789,107.40578 162.442289,107.319368 162.896844,107.319368 C163.555909,107.319368 164.047507,107.489106 164.398648,107.837068 C164.747474,108.182716 164.918029,108.649495 164.918029,109.263637 C164.918029,109.880866 164.748246,110.34996 164.39942,110.694836 C164.047507,111.04357 163.555909,111.212536 162.896844,111.212536" id="Fill-78" fill="#FFFFFF" mask="url(#mask-42)"></path>
                                </g>
                                <g id="Group-83">
                                    <mask id="mask-44" fill="white">
                                        <use xlink:href="#path-43"></use>
                                    </mask>
                                    <g id="Clip-82"></g>
                                    <path d="M162.896844,106.547903 C162.308778,106.547903 161.800202,106.664405 161.369572,106.897409 C160.939713,107.129641 160.620213,107.462944 160.411072,107.895004 C160.201159,108.327835 160.096974,108.783041 160.096974,109.263708 C160.096974,109.746689 160.201159,110.204982 160.411072,110.637813 C160.620213,111.069873 160.939713,111.402405 161.369572,111.635409 C161.800202,111.868412 162.308778,111.984143 162.896844,111.984143 C163.761963,111.984143 164.443409,111.738023 164.941952,111.243468 C165.439724,110.750457 165.689768,110.090794 165.689768,109.263708 C165.689768,108.44048 165.439724,107.78236 164.941952,107.288577 C164.443409,106.794794 163.761963,106.547903 162.896844,106.547903 M162.896844,108.090974 C163.558996,108.090974 163.782028,108.312405 163.855344,108.384929 C163.990398,108.519176 164.146289,108.739835 164.146289,109.263708 C164.146289,109.798382 163.980365,110.024442 163.856115,110.147116 C163.782028,110.220412 163.558996,110.441071 162.896844,110.441071 C162.57117,110.441071 162.304148,110.386292 162.104268,110.278277 C161.959181,110.198809 161.868115,110.106225 161.800202,109.965034 C161.692931,109.743603 161.640452,109.513686 161.640452,109.263708 C161.640452,109.016817 161.692931,108.789214 161.800974,108.56624 C161.868115,108.426592 161.959181,108.333236 162.105039,108.25454 C162.30492,108.145753 162.57117,108.090974 162.896844,108.090974" id="Fill-81" fill="#373F51" mask="url(#mask-44)"></path>
                                </g>
                            </g>
                            <g id="Group-169" transform="translate(0.000000, 31.889880)">
                                <polygon id="Fill-85" fill="#FC6A59" points="10.8389987 138.500358 0.479944582 138.500358 12.9659117 121.231849 23.3195636 121.231849"></polygon>
                                <path d="M17.2597139,0.609821745 L120.40728,0.609821745 C123.121487,0.609821745 125.3194,2.92751451 125.3194,5.78836829 L125.3194,104.18461 C125.3194,107.046236 123.121487,109.363928 120.40728,109.363928 L17.2597139,109.363928 C14.5455073,109.363928 12.3475943,107.046236 12.3475943,104.18461 L12.3475943,5.78836829 C12.3475943,2.92751451 14.5455073,0.609821745 17.2597139,0.609821745" id="Fill-87" fill="#FFFFFF"></path>
                                <path d="M44.5811325,84.7678452 C45.4624586,85.5170063 46.3815999,86.2191037 47.3277521,86.8887966 C47.3408717,86.1774408 47.3555347,85.4792011 47.3709695,84.8179951 L44.5811325,84.7678452 Z" id="Fill-89" fill="#99D6DC"></path>
                                <path d="M90.0699853,88.4891909 C90.6063439,88.166689 91.1542787,87.862704 91.6728874,87.515513 L90.1201483,84.0289436 L90.0699853,88.4891909 Z" id="Fill-91" fill="#99D6DC"></path>
                                <path d="M42.711671,60.4313736 C47.3073776,55.5668417 50.4259754,57.9408567 50.5610297,51.0502724 C50.7223232,42.8125869 58.5585624,41.5125495 58.5585624,37.6016356 C58.5585624,33.6891786 60.6646385,24.0619576 73.0039754,24.0619576 C85.3425407,24.0619576 85.6118776,37.4318977 85.6118776,37.4318977 C85.6118776,44.4528716 83.6539755,59.5842275 75.1100515,60.6049691 L75.1100515,71.7197107 L82.6337363,71.7197107 L82.5951494,71.8308119 L86.4422689,71.822325 L87.8259972,71.757516 C88.4896929,71.7197107 89.1641929,71.7505722 89.8363776,71.8138381 L90.2577472,71.8130666 L90.2569755,71.8624448 C93.4805298,72.2744448 96.5327581,73.8761527 97.5985298,76.9352913 L99.0463124,81.0892389 C105.297399,74.1461902 109.133715,64.9880628 109.133715,54.911808 C109.133715,33.2686917 91.5843668,15.7239725 69.9363124,15.7239725 C48.288258,15.7239725 30.7381384,33.2686917 30.7381384,54.911808 C30.7381384,60.7831938 32.0663015,66.3328493 34.3815188,71.3323999 C34.7179971,71.2845647 35.0529319,71.2336433 35.4141058,71.2405871 C41.1627906,71.3393437 39.037421,64.3206845 42.711671,60.4313736" id="Fill-93" fill="#99D6DC"></path>
                                <path d="M47.666544,77.7939339 C47.9806418,74.2078365 50.2696202,72.3708102 52.5555116,71.9665256 L52.5393051,71.899402 L53.7069465,71.8970874 C53.7771747,71.899402 53.8481747,71.8916866 53.918403,71.8963158 L64.6471209,71.8716267 L64.5776644,71.7196342 L67.5866754,71.7196342 L67.5866754,56.7896488 C66.7886971,57.7286077 65.6141101,58.3373492 64.2851752,58.3373492 C61.8827512,58.3373492 59.9348815,56.3899934 59.9348815,53.9889746 C59.9348815,51.993012 61.2877403,50.3288098 63.1206208,49.8172816 C62.2663056,49.2687198 61.4976534,48.2873266 61.0654794,47.0274089 C60.2875663,44.7598658 60.8825772,42.5000381 62.395186,41.9823377 C62.91611,41.8041129 63.4763926,41.8689219 64.0204687,42.1050118 C63.6670122,39.508023 63.5535665,37.6748544 63.5535665,37.6748544 L85.6114154,37.4325923 C85.6114154,37.4325923 85.3420784,24.0618804 73.0042844,24.0618804 C60.6649468,24.0618804 58.5580989,33.6891015 58.5580989,37.6015585 C58.5580989,41.5124725 50.7226311,42.81251 50.5605659,51.0501955 C50.4255115,57.9415515 47.3069135,55.5667649 42.7119785,60.4312969 C39.0369566,64.3206078 41.1623263,71.3392671 35.414413,71.2405106 C35.053239,71.2335667 34.7175325,71.2844881 34.3810542,71.3323233 C36.7850217,76.5247579 40.2709675,81.1061362 44.5811308,84.7678442 L47.3709679,84.817994 C47.4450549,81.719507 47.5415222,79.2235894 47.666544,77.7939339" id="Fill-95" fill="#373F51"></path>
                                <path d="M84.7194361,71.902643 L86.4419577,71.8224033 L82.5948383,71.8308902 L74.8905669,93.7525305 C80.3915232,93.0573769 85.5235882,91.2195792 90.0699032,88.4891148 L90.1200663,84.0288676 L84.7194361,71.902643 Z" id="Fill-97" fill="#FFCE24"></path>
                                <path d="M60.7536958,82.5904127 C61.6010653,85.6757834 62.1868153,89.2842552 62.0479023,93.1650791 C62.0455871,93.2113712 62.0425001,93.2576633 62.0409566,93.3039555 C64.5915544,93.8255135 67.2316739,94.0994086 69.9358478,94.0994086 C71.5572716,94.0994086 73.1462825,93.9705622 74.7152281,93.7792214 L66.4468152,75.7877837 C64.5707174,78.0885028 62.3465653,80.7202105 60.7536958,82.5904127" id="Fill-99" fill="#FFCE24"></path>
                                <path d="M89.8359903,71.8137608 C89.9772185,71.8276484 90.1169033,71.8446222 90.2573598,71.8623675 L90.2573598,71.8129892 L89.8359903,71.8137608 Z" id="Fill-101" fill="#FFCE24"></path>
                                <path d="M60.7536937,82.5904155 C62.3465632,80.7202133 64.5707153,78.0885055 66.446813,75.7877864 L64.6471175,71.8714719 L53.9184006,71.8969326 C54.7788896,71.9601985 55.5807266,72.2263783 56.2019765,72.6908427 C56.7993026,73.1360187 59.214846,76.9875242 60.7536937,82.5904155" id="Fill-103" fill="#FFCE24"></path>
                                <path d="M52.5396894,71.899633 L52.5558959,71.9667566 C52.9440807,71.8980899 53.3291785,71.8842023 53.7073307,71.8973184 L52.5396894,71.899633 Z" id="Fill-105" fill="#FFCE24"></path>
                                <polygon id="Fill-107" fill="#FFFFFF" points="75.1104388 71.719554 75.1104388 71.8484004 82.5947646 71.8314266 82.6341233 71.719554"></polygon>
                                <polygon id="Fill-109" fill="#FFFFFF" points="67.5866754 71.7195535 64.5776646 71.7195535 64.6471211 71.871546 67.5866754 71.8646022"></polygon>
                                <path d="M74.8093027,93.9841424 L74.8903353,93.7526818 C74.8316831,93.7603971 74.7745744,93.7727417 74.7151505,93.778914 L74.8093027,93.9841424 Z" id="Fill-111" fill="#FFFFFF"></path>
                                <path d="M75.1104344,74.9082345 L67.5867497,74.9082345 L67.5867497,74.3743319 C67.2271193,74.8256802 66.8497389,75.2940023 66.446891,75.7877851 L74.715304,93.7792236 C74.7747279,93.7722798 74.8318366,93.7607067 74.8904888,93.7529914 L82.5947604,71.8313505 L75.1104344,71.8483243 L75.1104344,74.9082345 Z" id="Fill-113" fill="#FFFFFF"></path>
                                <path d="M67.5866726,74.3740248 L67.5866726,71.864991 L64.6471183,71.8719349 L66.4468139,75.787478 C66.8496618,75.2936952 67.2270422,74.8253731 67.5866726,74.3740248" id="Fill-115" fill="#FFFFFF"></path>
                                <path d="M55.6673172,84.9698301 L47.3711215,84.8186091 C47.354915,85.4790436 47.3410237,86.1772833 47.3271324,86.8886391 C50.3762737,89.0466241 53.7425998,90.7733207 57.3489368,91.9969761 L55.6673172,84.9698301 Z" id="Fill-117" fill="#FFCE24"></path>
                                <path d="M47.6665439,77.7939329 C47.5415222,79.2235884 47.4450548,81.719506 47.3709678,84.8179929 L55.6671635,84.9699854 L52.5555113,71.9665247 C50.26962,72.3708093 47.9806417,74.2078355 47.6665439,77.7939329" id="Fill-119" fill="#FFCE24"></path>
                                <path d="M60.753699,82.590414 C59.5274055,84.0308709 58.6700033,85.0246087 58.6700033,85.0246087 L55.6671664,84.9698297 L57.348786,91.9969756 C58.8776012,92.5154475 60.4334272,92.9752827 62.0409598,93.3039568 C62.0425033,93.2576647 62.0455902,93.2113725 62.0479055,93.1650804 C62.1868185,89.2842565 61.6010685,85.6757847 60.753699,82.590414" id="Fill-121" fill="#FFCE24"></path>
                                <path d="M60.753695,82.5904174 C59.2148472,76.9875259 56.7993037,73.1360202 56.2019776,72.6908441 C55.5807276,72.2263797 54.7788906,71.9601999 53.9184015,71.896934 C53.8481732,71.8915333 53.7771732,71.9000202 53.7069449,71.8977056 C53.3287928,71.8845894 52.9436949,71.8984771 52.5555101,71.9663722 L55.6671624,84.9698332 L58.6699994,85.0246122 C58.6699994,85.0246122 59.5274015,84.0308744 60.753695,82.5904174" id="Fill-123" fill="#FFCE24"></path>
                                <path d="M69.9942698,70.9970123 C69.9942698,71.0957688 69.8391502,71.3619486 69.5975959,71.7199411 L75.1101286,71.7199411 L75.1101286,60.6044283 C74.9472916,60.6244882 74.7867699,60.6491774 74.6193025,60.6584358 C72.0247155,66.2165779 69.9942698,70.6714243 69.9942698,70.9970123" id="Fill-125" fill="#FFFFFF"></path>
                                <path d="M69.9942676,70.9970137 C69.9942676,70.6714257 72.0247132,66.2165794 74.6193002,60.6584371 C74.4788436,60.6653809 74.3515067,60.7024147 74.2079632,60.7024147 C71.5508654,60.7024147 69.5605502,58.8059802 68.0479415,56.133381 C67.9136589,56.3679278 67.7600828,56.5855009 67.5864415,56.7899578 L67.5864415,71.7199426 L69.5975937,71.7199426 C69.839148,71.3619501 69.9942676,71.0957703 69.9942676,70.9970137" id="Fill-127" fill="#FFFFFF"></path>
                                <path d="M69.5062981,71.8612098 L75.1106677,71.8480937 L75.1106677,71.7192472 L69.5973633,71.7192472 C69.562635,71.7717117 69.5456568,71.8048877 69.5062981,71.8612098" id="Fill-129" fill="#FFFFFF"></path>
                                <path d="M69.5062985,71.8612117 C69.5456572,71.8048896 69.5626354,71.7717135 69.5973637,71.7192491 L67.5869832,71.7192491 L67.5869832,71.8650693 L69.5062985,71.8612117 Z" id="Fill-131" fill="#FFFFFF"></path>
                                <path d="M67.5866771,74.3740218 L67.5866771,74.9079244 L75.1103615,74.9079244 L75.1103615,71.8487859 L69.5059922,71.8611305 C69.0815357,72.4714151 68.3962314,73.3594525 67.5866771,74.3740218" id="Fill-133" fill="#FFFFFF"></path>
                                <path d="M67.5866771,71.8649932 L67.5866771,74.3740268 C68.3962314,73.3594576 69.0815357,72.4714201 69.5059923,71.8611355 L67.5866771,71.8649932 Z" id="Fill-135" fill="#FFFFFF"></path>
                                <path d="M75.1104388,60.6046608 C83.6543629,59.5846908 85.6114934,44.4525632 85.6114934,37.4323609 C85.6114934,37.4323609 79.6652433,49.8687431 75.1104388,59.6070653 L75.1104388,60.6046608 Z" id="Fill-137" fill="#FFFFFF"></path>
                                <path d="M66.5417381,45.1497986 C67.219325,47.1257011 66.8535207,49.0931168 65.7476185,49.910173 C67.1568142,50.4155288 68.2349338,51.6114089 68.5436294,53.1035587 L75.1103578,54.000083 L75.1103578,59.6068319 C79.6651623,49.8692816 85.6114125,37.4321284 85.6114125,37.4321284 L63.5535641,37.6751621 C63.5535641,37.6751621 63.6670097,39.5083306 64.0204663,42.1053192 C65.0569119,42.5551245 66.0316185,43.6630495 66.5417381,45.1497986" id="Fill-139" fill="#FFFFFF"></path>
                                <path d="M74.6193766,60.6581303 C74.786844,60.6488719 74.9473657,60.6241827 75.1102027,60.6048943 L75.1102027,59.6065273 C74.9442788,59.9622052 74.7814418,60.3109393 74.6193766,60.6581303" id="Fill-141" fill="#FFFFFF"></path>
                                <path d="M75.1104388,54.0002371 L68.5437102,53.1029412 C68.6031342,53.3891809 68.6347755,53.6846791 68.6347755,53.9886641 C68.6347755,54.7725443 68.4109711,55.4985593 68.047482,56.1335331 C69.5600907,58.8061325 71.550406,60.702567 74.2082757,60.702567 C74.3518192,60.702567 74.4783844,60.6655333 74.6196127,60.6578179 C74.7816779,60.3106269 74.9445149,59.9618928 75.1104388,59.6069864 L75.1104388,54.0002371 Z" id="Fill-143" fill="#FFFFFF"></path>
                                <path d="M65.5744441,49.8562436 C64.8127376,47.1018614 64.323455,44.3289625 64.0209333,42.1053968 C63.4760854,41.8685354 62.9158028,41.8037264 62.3948789,41.9819511 C60.8822702,42.5004231 60.2872593,44.7594793 61.0651724,47.0270225 C61.4973463,48.2877117 62.2659985,49.2683334 63.1203137,49.8176668 C63.4938354,49.7135095 63.8789333,49.6402136 64.284868,49.6402136 C64.7371072,49.6402136 65.1646506,49.7281687 65.5744441,49.8562436" id="Fill-145" fill="#FFFFFF"></path>
                                <path d="M65.747391,49.9101728 C66.8532932,49.0931166 67.2198693,47.1257009 66.5415106,45.1497982 C66.031391,43.6630491 65.0566845,42.555124 64.0210105,42.1053188 C64.3235323,44.3288843 64.8128149,47.1017833 65.5745214,49.8561653 C65.6324019,49.8746822 65.691054,49.8901129 65.747391,49.9101728" id="Fill-147" fill="#FFFFFF"></path>
                                <path d="M97.5986083,76.9349822 C96.5328366,73.8758436 93.4806084,72.2741357 90.2570542,71.8629073 L90.1204564,84.0284804 L91.6731954,87.5158212 C94.4005214,85.6949972 96.8592822,83.5177238 99.0456191,81.0897013 L97.5986083,76.9349822 Z" id="Fill-149" fill="#FFCE24"></path>
                                <path d="M87.8263829,71.7572854 L86.4426547,71.8220944 L89.8359916,71.8136075 C89.1638068,71.7503415 88.4900786,71.7194801 87.8263829,71.7572854" id="Fill-151" fill="#FFCE24"></path>
                                <path d="M86.4423469,71.8220901 L84.7198251,71.9023298 L90.1204557,84.0285543 L90.2570535,71.8629815 C90.116597,71.8444646 89.9769122,71.8274908 89.8356839,71.8136032 L86.4423469,71.8220901 Z" id="Fill-153" fill="#FFCE24"></path>
                                <path d="M65.6117952,49.9862474 C65.4844583,50.0664871 65.3555779,50.1451837 65.2112626,50.1953335 C64.5398496,50.4244796 63.8036105,50.2562848 63.1206214,49.8172811 C61.2877411,50.3288092 59.9356542,51.9930115 59.9356542,53.9882025 C59.9356542,56.3899928 61.8827519,58.3373487 64.2851757,58.3373487 C65.6141105,58.3373487 66.7886974,57.7286071 67.5866756,56.7896483 L67.5866756,55.3260452 C66.7771213,53.7089066 66.1365778,51.8610789 65.6117952,49.9862474" id="Fill-155" fill="#3EC5D3"></path>
                                <path d="M67.5866771,55.3259681 L67.5866771,56.7895711 C67.7603184,56.5858857 67.9131228,56.3675411 68.0474054,56.1337659 C67.894601,55.8629569 67.7302206,55.6122078 67.5866771,55.3259681" id="Fill-157" fill="#3EC5D3"></path>
                                <path d="M68.5438647,53.1032532 C68.235169,51.611875 67.1570495,50.4159948 65.7470821,49.9098675 C65.7054081,49.9407289 65.6560168,49.9584742 65.6120277,49.9862495 C66.1360386,51.861081 66.7765821,53.7089087 67.5869082,55.3260472 L67.5869082,52.9728637 L68.5438647,53.1032532 Z" id="Fill-159" fill="#3EC5D3"></path>
                                <path d="M68.5438632,53.1032483 L67.5869067,52.9728588 L67.5869067,55.3260424 C67.7296784,55.6115106 67.8948306,55.8630312 68.047635,56.1338402 C68.4111241,55.4980948 68.6349285,54.7728513 68.6349285,53.9881996 C68.6349285,53.6849861 68.6032871,53.389488 68.5438632,53.1032483" id="Fill-161" fill="#3EC5D3"></path>
                                <path d="M65.2115682,50.1949471 C65.3558834,50.1455688 65.4847638,50.0661006 65.6121008,49.9858609 C65.5997529,49.9426549 65.5866334,49.899449 65.5742855,49.856243 C65.1644921,49.7281681 64.7369486,49.640213 64.2847095,49.640213 C63.8787747,49.640213 63.4936769,49.7135089 63.1209269,49.8176662 C63.8031443,50.2558984 64.5401551,50.4248647 65.2115682,50.1949471" id="Fill-163" fill="#3EC5D3"></path>
                                <path d="M65.5744449,49.8562426 C65.5867927,49.8994485 65.5999122,49.9426545 65.6114883,49.9858605 C65.6554775,49.9588568 65.7056405,49.9411115 65.7473144,49.91025 C65.6909775,49.8894186 65.6323253,49.8739879 65.5744449,49.8562426" id="Fill-165" fill="#3EC5D3"></path>
                                <path d="M60.5016492,12.2914104 C60.1605405,12.2914104 59.8549318,12.054549 59.7793013,11.7081295 C59.6928665,11.3092456 59.945997,10.916534 60.3457579,10.8301221 C62.2943993,10.4073206 64.2947472,10.112594 66.2896929,9.95365767 C66.7133777,9.92279625 67.0537147,10.2236951 67.0861277,10.6310659 C67.1193125,11.0376651 66.8152473,11.3948861 66.4085408,11.426519 C64.4776494,11.5808262 62.5428993,11.8670658 60.659084,12.2744366 C60.6066057,12.2860097 60.5533557,12.2914104 60.5016492,12.2914104 M79.5774962,12.3377025 C79.5250179,12.3377025 79.4709962,12.3315302 79.4177462,12.3207287 C77.5377897,11.9048711 75.6045832,11.6101445 73.6713766,11.4450359 C73.2646701,11.4103168 72.9621484,11.0523243 72.9968766,10.6464966 C73.0316049,10.2391258 73.3788875,9.93745542 73.7971701,9.97217452 C75.7952027,10.1411408 77.794007,10.4458974 79.7364744,10.8764142 C80.1362353,10.9643692 80.3878222,11.360167 80.2990722,11.7590509 C80.2226701,12.1023842 79.9170614,12.3377025 79.5774962,12.3377025 M48.119865,17.0124368 C47.8621041,17.0124368 47.6105172,16.8781896 47.4754628,16.6366989 C47.2732672,16.2817926 47.3982889,15.8312158 47.7548324,15.6290734 C49.4989628,14.6422794 51.3202671,13.767358 53.1678105,13.02977 C53.5428757,12.8793206 53.9781366,13.062946 54.1293975,13.4409985 C54.2806583,13.8190509 54.0962127,14.2495678 53.716517,14.4015603 C51.9307127,15.1160023 50.1696041,15.9623768 48.4825824,16.9167664 C48.3675933,16.9823469 48.2433433,17.0124368 48.119865,17.0124368 M91.9484767,17.1204515 C91.8242267,17.1204515 91.6976615,17.0888185 91.5819006,17.0224665 C89.903368,16.0634478 88.1438027,15.2070433 86.3533678,14.4794853 C85.9744439,14.3259497 85.7923135,13.8946613 85.9466613,13.5158374 C86.1002374,13.1362419 86.5316396,12.9541595 86.9105635,13.1107812 C88.761194,13.8630284 90.5809549,14.7464366 92.3158246,15.7401744 C92.6708246,15.9423167 92.7943028,16.3944365 92.5913354,16.7477998 C92.4547376,16.9862043 92.2046941,17.1204515 91.9484767,17.1204515 M37.6805504,25.1845415 C37.4976483,25.1845415 37.3162896,25.1181894 37.1727461,24.9823991 C36.8763983,24.7023317 36.862507,24.2340096 37.14342,23.9369684 C38.5148005,22.4864815 39.9980831,21.1123767 41.5500505,19.8540021 C41.8687788,19.5955377 42.3333657,19.6464591 42.5903549,19.9643317 C42.8481158,20.2798898 42.7987245,20.7466688 42.4815397,21.0035902 C40.9797353,22.2195302 39.5450722,23.5496576 38.2176809,24.9538523 C38.0733657,25.1066164 37.8773439,25.1845415 37.6805504,25.1845415 M102.349203,25.3488791 C102.151638,25.3488791 101.954073,25.270954 101.808214,25.1151039 C100.483138,23.7001076 99.0554208,22.3645794 97.5644208,21.1440101 C97.2487795,20.8855457 97.2024752,20.4203097 97.4617795,20.1039801 C97.7195404,19.7876505 98.1848991,19.7413584 98.5020839,19.9998228 C100.042475,21.260512 101.518812,22.6415607 102.888649,24.1043922 C103.168019,24.4014334 103.152584,24.8697555 102.853921,25.149823 C102.711149,25.2825271 102.52979,25.3488791 102.349203,25.3488791 M30.1067025,36.0701368 C29.9971156,36.0701368 29.8859852,36.0462192 29.7802569,35.9937547 C29.4136808,35.8132154 29.26242,35.370354 29.4437787,35.0046462 C30.3258765,33.2139121 31.3391699,31.463298 32.4543329,29.8029535 C32.6812242,29.4619348 33.1427242,29.3708936 33.4807459,29.6008112 C33.8195394,29.8276426 33.9098329,30.2882493 33.6829416,30.6261819 C32.6040503,32.2332905 31.6239416,33.9260395 30.7711699,35.6573652 C30.6415177,35.9189158 30.3798982,36.0701368 30.1067025,36.0701368 M109.86208,36.2668784 C109.588113,36.2668784 109.32495,36.1133428 109.197613,35.8510208 C108.349472,34.1135227 107.379396,32.4176876 106.31208,30.8105791 C106.086733,30.4711034 106.179341,30.0120398 106.519678,29.7852083 C106.860015,29.5599199 107.3192,29.6525042 107.544548,29.9935229 C108.647363,31.6538674 109.650624,33.4075677 110.525776,35.2037024 C110.705591,35.5701818 110.552787,36.0122717 110.186211,36.1920395 C110.081254,36.2421893 109.970896,36.2668784 109.86208,36.2668784 M26.1021482,48.7078897 C26.0643329,48.7078897 26.025746,48.7048035 25.9863873,48.6986312 C25.5827677,48.6353653 25.3080286,48.2573129 25.3713112,47.8545713 C25.6815503,45.8786686 26.1283873,43.9073951 26.6994743,41.9939868 C26.8160069,41.5997321 27.2273438,41.3837021 27.6201591,41.4963463 C28.0114308,41.6128482 28.2336917,42.0248482 28.1171591,42.4152453 C27.5645938,44.2669307 27.1324199,46.1733952 26.8329851,48.0821743 C26.7751047,48.4478822 26.4610069,48.7078897 26.1021482,48.7078897 M113.803352,48.923149 C113.444493,48.923149 113.128852,48.6600554 113.073287,48.2951191 C112.781569,46.3817109 112.359428,44.4737035 111.816124,42.6227897 C111.701135,42.2308496 111.925711,41.8188497 112.318526,41.7054339 C112.712885,41.5927897 113.121135,41.814992 113.236124,42.2061605 C113.797178,44.1195687 114.233982,46.0939282 114.535732,48.0721453 C114.5967,48.4748869 114.319645,48.8537108 113.915254,48.9138906 C113.878211,48.9200629 113.840395,48.923149 113.803352,48.923149 M113.922977,61.5454716 C113.890564,61.5454716 113.858151,61.5439285 113.824966,61.5408424 C113.419031,61.4852918 113.135031,61.1141832 113.189053,60.7098986 C113.442955,58.8018912 113.571064,56.8522208 113.571064,54.9118089 C113.571064,54.502895 113.90214,54.1726778 114.311162,54.1726778 C114.719412,54.1726778 115.050488,54.502895 115.050488,54.9118089 C115.050488,56.9178013 114.917749,58.9338237 114.655357,60.9027825 C114.605966,61.2762057 114.288009,61.5454716 113.922977,61.5454716 M26.0064525,61.9613282 C25.6437351,61.9613282 25.327322,61.6966915 25.2748438,61.3263544 C24.9939307,59.3543096 24.8418981,57.3390587 24.8241481,55.3392386 C24.8202894,54.9303247 25.1482786,54.5970214 25.5573003,54.5923922 L25.5634742,54.5923922 C25.9686372,54.5923922 26.2997133,54.9187517 26.303572,55.3245794 C26.3205503,57.2611336 26.4671807,59.2092609 26.7396046,61.1188114 C26.797485,61.523096 26.5150285,61.8965192 26.1106372,61.9551559 C26.075909,61.9590136 26.0411807,61.9613282 26.0064525,61.9613282 M110.22094,74.2788931 C110.116755,74.2788931 110.011026,74.2572901 109.909929,74.2102265 C109.539494,74.0389456 109.3782,73.5983987 109.550298,73.2288332 C110.364483,71.4728182 111.065994,69.647365 111.635537,67.8018519 C111.755157,67.4106834 112.163407,67.1900242 112.560081,67.3134699 C112.949809,67.4338295 113.168983,67.8481441 113.04782,68.2377695 C112.459755,70.1473201 111.733548,72.0344961 110.892353,73.8499193 C110.767331,74.1199568 110.500309,74.2788931 110.22094,74.2788931 M29.8281048,74.6546291 C29.5518222,74.6546291 29.2863439,74.4980074 29.1597787,74.2325991 C28.3023765,72.4256627 27.5591917,70.5469735 26.951833,68.6459098 C26.8268112,68.2570559 27.0421265,67.8396551 27.4303113,67.7146663 C27.821583,67.5919922 28.2360069,67.8064791 28.3602569,68.195333 C28.9483222,70.0331308 29.6668113,71.8516402 30.4956592,73.5968538 C30.6716157,73.9671909 30.5141809,74.4069662 30.1452896,74.5836478 C30.0426483,74.6307115 29.9346048,74.6546291 29.8281048,74.6546291 M102.910256,85.3404012 C102.732756,85.3404012 102.556028,85.2786784 102.415571,85.149832 C102.111506,84.8774799 102.087582,84.4091578 102.360006,84.1059443 C103.655756,82.6685735 104.866615,81.1324462 105.957082,79.5415398 C106.188604,79.2028357 106.647789,79.1164237 106.98581,79.3494275 C107.322289,79.5785735 107.407952,80.0391803 107.177974,80.3763413 C106.049691,82.0220267 104.798702,83.6106185 103.459734,85.096596 C103.313876,85.2586185 103.112452,85.3404012 102.910256,85.3404012 M37.2368006,85.6428408 C37.0376919,85.6428408 36.8385832,85.561058 36.6927245,85.4028932 C35.3390941,83.9300318 34.0742136,82.3545561 32.9320397,80.7181292 C32.6989745,80.3825112 32.7807789,79.922676 33.1157136,79.6881292 C33.4498767,79.455897 33.9113767,79.5369082 34.1452136,79.8717547 C35.2495723,81.4534026 36.4735506,82.9787284 37.7824201,84.4029831 C38.0587028,84.703882 38.0386375,85.1714325 37.7376593,85.4476423 C37.5956593,85.5780318 37.4166158,85.6428408 37.2368006,85.6428408 M92.6700512,93.7570803 C92.4176925,93.7570803 92.1730512,93.6282338 92.0341381,93.3975447 C91.8249968,93.046496 91.9392142,92.5936046 92.2895838,92.3837469 C93.9457361,91.3930952 95.5540405,90.2805409 97.0681927,89.0784885 C97.386921,88.8223387 97.8530515,88.8771177 98.1077254,89.1965334 C98.3623993,89.5167207 98.3083776,89.9819567 97.9888776,90.2365634 C96.4230188,91.4795072 94.7606926,92.6290952 93.0482034,93.6521514 C92.9301273,93.7231327 92.7997034,93.7570803 92.6700512,93.7570803 M47.5588115,93.9677122 C47.4314746,93.9677122 47.3041376,93.9345362 47.1860615,93.8666411 C45.4619964,92.858244 43.788866,91.7240867 42.2122031,90.4950304 C41.8903879,90.2435098 41.8332792,89.7782739 42.0840944,89.4565435 C42.3349096,89.1355847 42.7994965,89.0754049 43.1220835,89.3276971 C44.6470399,90.517405 46.2653768,91.6153002 47.933105,92.5905212 C48.2857897,92.7965212 48.4038658,93.248641 48.1985832,93.6012328 C48.0604419,93.8365512 47.8134854,93.9677122 47.5588115,93.9677122 M80.4001712,98.7736026 C80.0667799,98.7736026 79.7642582,98.5467712 79.6824538,98.2096101 C79.5859864,97.8122693 79.829856,97.4126139 80.2273016,97.3154004 C82.1064864,96.8601944 83.9717798,96.2738274 85.7714754,95.5740446 C86.1503993,95.4259098 86.580258,95.6141645 86.7284319,95.99376 C86.8766058,96.3748986 86.6890732,96.8031008 86.3086058,96.9512356 C84.4479428,97.6757075 82.5185951,98.282906 80.575356,98.7535427 C80.5167038,98.7666588 80.4580516,98.7736026 80.4001712,98.7736026 M59.8850284,98.871592 C59.8294632,98.871592 59.773898,98.8661912 59.717561,98.8530751 C57.7704631,98.4024983 55.835713,97.8130452 53.962702,97.105547 C53.5814629,96.9620414 53.3885281,96.5338392 53.5328433,96.1527006 C53.6779303,95.770019 54.1054738,95.5825358 54.4867129,95.7221838 C56.2964413,96.4088504 58.1694522,96.9759291 60.0509523,97.4126182 C60.4491697,97.5044309 60.696898,97.9010002 60.605061,98.2998841 C60.5255719,98.6409028 60.2215067,98.871592 59.8850284,98.871592 M69.9369305,100.014236 C69.0000392,100.014236 68.0700935,99.9872322 67.1478652,99.9301386 C66.7403869,99.906221 66.4301478,99.5551722 66.4540717,99.1478014 C66.4795391,98.7404306 66.837626,98.4318164 67.2373869,98.4541909 C69.1482131,98.5691497 71.1161479,98.5629774 73.050898,98.4256441 C73.4722676,98.3878389 73.8110611,98.7041685 73.8403872,99.1123108 C73.8689415,99.5189101 73.5617893,99.8730449 73.1550828,99.9015917 C72.089311,99.9772022 71.006561,100.014236 69.9369305,100.014236" id="Fill-167" fill="#D7D9DC"></path>
                            </g>
                        </g>
                    </g>
                </g>
            </g>
        </g>
    </g>
</svg>