<?xml version="1.0" encoding="UTF-8"?>
<svg width="41px" height="40px" viewBox="0 0 41 40" version="1.1" xmlns="http://www.w3.org/2000/svg" xmlns:xlink="http://www.w3.org/1999/xlink">
    <!-- Generator: sketchtool 55 (78076) - https://sketchapp.com -->
    <title>D38CF58A-B9BD-4A27-83B5-CC7C5BF7C8EA@2x</title>
    <desc>Created with sketchtool.</desc>
    <defs>
        <polygon id="path-1" points="0.0173358697 0.099925093 39.4328961 0.099925093 39.4328961 39.8501701 0.0173358697 39.8501701"></polygon>
        <path d="M19.653262,0.099925093 C8.80192803,0.139026218 0.0173804346,9.02232236 0.0173804346,19.9749819 L0.0173804346,19.9749819 C0.0173804346,30.951911 8.84084832,39.8501884 19.7251605,39.8501884 L19.7251605,39.8501884 C30.6094727,39.8501884 39.4329406,30.951911 39.4329406,19.9749819 L39.4329406,19.9749819 C39.4329406,9.02232236 30.6482445,0.139026218 19.7970591,0.099925093 L19.7970591,0.099925093" id="path-3"></path>
        <path d="M19.653262,0.099925093 C8.80192803,0.139026218 0.0173804346,9.02232236 0.0173804346,19.9749819 L0.0173804346,19.9749819 C0.0173804346,30.951911 8.84084832,39.8501884 19.7251605,39.8501884 L19.7251605,39.8501884 C30.6094727,39.8501884 39.4329406,30.951911 39.4329406,19.9749819 L39.4329406,19.9749819 C39.4329406,9.02232236 30.6482445,0.139026218 19.7970591,0.099925093 L19.7970591,0.099925093" id="path-5"></path>
        <path d="M19.653262,0.099925093 C8.80192803,0.139026218 0.0173804346,9.02232236 0.0173804346,19.9749819 L0.0173804346,19.9749819 C0.0173804346,30.951911 8.84084832,39.8501884 19.7251605,39.8501884 L19.7251605,39.8501884 C30.6094727,39.8501884 39.4329406,30.951911 39.4329406,19.9749819 L39.4329406,19.9749819 C39.4329406,9.02232236 30.6482445,0.139026218 19.7970591,0.099925093 L19.7970591,0.099925093 L19.653262,0.099925093 Z" id="path-7"></path>
        <path d="M19.653262,0.099925093 C8.80192803,0.139026218 0.0173804346,9.02232236 0.0173804346,19.9749819 L0.0173804346,19.9749819 C0.0173804346,30.951911 8.84084832,39.8501884 19.7251605,39.8501884 L19.7251605,39.8501884 C30.6094727,39.8501884 39.4329406,30.951911 39.4329406,19.9749819 L39.4329406,19.9749819 C39.4329406,9.02232236 30.6482445,0.139026218 19.7970591,0.099925093 L19.7970591,0.099925093" id="path-9"></path>
        <path d="M19.653262,0.099925093 C8.80192803,0.139026218 0.0173804346,9.02232236 0.0173804346,19.9749819 L0.0173804346,19.9749819 C0.0173804346,30.951911 8.84084832,39.8501884 19.7251605,39.8501884 L19.7251605,39.8501884 C30.6094727,39.8501884 39.4329406,30.951911 39.4329406,19.9749819 L39.4329406,19.9749819 C39.4329406,9.02232236 30.6482445,0.139026218 19.7970591,0.099925093 L19.7970591,0.099925093" id="path-11"></path>
        <path d="M19.653262,0.099925093 C8.80192803,0.139026218 0.0173804346,9.02232236 0.0173804346,19.9749819 L0.0173804346,19.9749819 C0.0173804346,30.951911 8.84084832,39.8501884 19.7251605,39.8501884 L19.7251605,39.8501884 C30.6094727,39.8501884 39.4329406,30.951911 39.4329406,19.9749819 L39.4329406,19.9749819 C39.4329406,9.02232236 30.6482445,0.139026218 19.7970591,0.099925093 L19.7970591,0.099925093 L19.653262,0.099925093 Z" id="path-13"></path>
        <path d="M19.653262,0.099925093 C8.80192803,0.139026218 0.0173804346,9.02232236 0.0173804346,19.9749819 L0.0173804346,19.9749819 C0.0173804346,30.951911 8.84084832,39.8501884 19.7251605,39.8501884 L19.7251605,39.8501884 C30.6094727,39.8501884 39.4329406,30.951911 39.4329406,19.9749819 L39.4329406,19.9749819 C39.4329406,9.02232236 30.6482445,0.139026218 19.7970591,0.099925093 L19.7970591,0.099925093 L19.653262,0.099925093 Z" id="path-15"></path>
        <path d="M19.653262,0.099925093 C8.80192803,0.139026218 0.0173804346,9.02232236 0.0173804346,19.9749819 L0.0173804346,19.9749819 C0.0173804346,30.951911 8.84084832,39.8501884 19.7251605,39.8501884 L19.7251605,39.8501884 C30.6094727,39.8501884 39.4329406,30.951911 39.4329406,19.9749819 L39.4329406,19.9749819 C39.4329406,9.02232236 30.6482445,0.139026218 19.7970591,0.099925093 L19.7970591,0.099925093 L19.653262,0.099925093 Z" id="path-17"></path>
        <path d="M19.653262,0.099925093 C8.80192803,0.139026218 0.0173804346,9.02232236 0.0173804346,19.9749819 L0.0173804346,19.9749819 C0.0173804346,30.951911 8.84084832,39.8501884 19.7251605,39.8501884 L19.7251605,39.8501884 C30.6094727,39.8501884 39.4329406,30.951911 39.4329406,19.9749819 L39.4329406,19.9749819 C39.4329406,9.02232236 30.6482445,0.139026218 19.7970591,0.099925093 L19.7970591,0.099925093 L19.653262,0.099925093 Z" id="path-19"></path>
        <path d="M19.653262,0.099925093 C8.80192803,0.139026218 0.0173804346,9.02232236 0.0173804346,19.9749819 L0.0173804346,19.9749819 C0.0173804346,30.951911 8.84084832,39.8501884 19.7251605,39.8501884 L19.7251605,39.8501884 C30.6094727,39.8501884 39.4329406,30.951911 39.4329406,19.9749819 L39.4329406,19.9749819 C39.4329406,9.02232236 30.6482445,0.139026218 19.7970591,0.099925093 L19.7970591,0.099925093 L19.653262,0.099925093 Z" id="path-21"></path>
        <path d="M19.653262,0.099925093 C8.80192803,0.139026218 0.0173804346,9.02232236 0.0173804346,19.9749819 L0.0173804346,19.9749819 C0.0173804346,30.951911 8.84084832,39.8501884 19.7251605,39.8501884 L19.7251605,39.8501884 C30.6094727,39.8501884 39.4329406,30.951911 39.4329406,19.9749819 L39.4329406,19.9749819 C39.4329406,9.02232236 30.6482445,0.139026218 19.7970591,0.099925093 L19.7970591,0.099925093 L19.653262,0.099925093 Z" id="path-23"></path>
        <path d="M19.653262,0.099925093 C8.80192803,0.139026218 0.0173804346,9.02232236 0.0173804346,19.9749819 L0.0173804346,19.9749819 C0.0173804346,30.951911 8.84084832,39.8501884 19.7251605,39.8501884 L19.7251605,39.8501884 C30.6094727,39.8501884 39.4329406,30.951911 39.4329406,19.9749819 L39.4329406,19.9749819 C39.4329406,9.02232236 30.6482445,0.139026218 19.7970591,0.099925093 L19.7970591,0.099925093 L19.653262,0.099925093 Z" id="path-25"></path>
        <path d="M19.653262,0.099925093 C8.80192803,0.139026218 0.0173804346,9.02232236 0.0173804346,19.9749819 L0.0173804346,19.9749819 C0.0173804346,30.951911 8.84084832,39.8501884 19.7251605,39.8501884 L19.7251605,39.8501884 C30.6094727,39.8501884 39.4329406,30.951911 39.4329406,19.9749819 L39.4329406,19.9749819 C39.4329406,9.02232236 30.6482445,0.139026218 19.7970591,0.099925093 L19.7970591,0.099925093 L19.653262,0.099925093 Z" id="path-27"></path>
        <path d="M19.653262,0.099925093 C8.80192803,0.139026218 0.0173804346,9.02232236 0.0173804346,19.9749819 L0.0173804346,19.9749819 C0.0173804346,30.951911 8.84084832,39.8501884 19.7251605,39.8501884 L19.7251605,39.8501884 C30.6094727,39.8501884 39.4329406,30.951911 39.4329406,19.9749819 L39.4329406,19.9749819 C39.4329406,9.02232236 30.6482445,0.139026218 19.7970591,0.099925093 L19.7970591,0.099925093" id="path-29"></path>
        <path d="M19.653262,0.099925093 C8.80192803,0.139026218 0.0173804346,9.02232236 0.0173804346,19.9749819 L0.0173804346,19.9749819 C0.0173804346,30.951911 8.84084832,39.8501884 19.7251605,39.8501884 L19.7251605,39.8501884 C30.6094727,39.8501884 39.4329406,30.951911 39.4329406,19.9749819 L39.4329406,19.9749819 C39.4329406,9.02232236 30.6482445,0.139026218 19.7970591,0.099925093 L19.7970591,0.099925093" id="path-31"></path>
        <path d="M19.653262,0.099925093 C8.80192803,0.139026218 0.0173804346,9.02232236 0.0173804346,19.9749819 L0.0173804346,19.9749819 C0.0173804346,30.951911 8.84084832,39.8501884 19.7251605,39.8501884 L19.7251605,39.8501884 C30.6094727,39.8501884 39.4329406,30.951911 39.4329406,19.9749819 L39.4329406,19.9749819 C39.4329406,9.02232236 30.6482445,0.139026218 19.7970591,0.099925093 L19.7970591,0.099925093" id="path-33"></path>
        <path d="M19.653262,0.099925093 C8.80192803,0.139026218 0.0173804346,9.02232236 0.0173804346,19.9749819 L0.0173804346,19.9749819 C0.0173804346,30.951911 8.84084832,39.8501884 19.7251605,39.8501884 L19.7251605,39.8501884 C30.6094727,39.8501884 39.4329406,30.951911 39.4329406,19.9749819 L39.4329406,19.9749819 C39.4329406,9.02232236 30.6482445,0.139026218 19.7970591,0.099925093 L19.7970591,0.099925093 L19.653262,0.099925093 Z" id="path-35"></path>
        <path d="M19.653262,0.099925093 C8.80192803,0.139026218 0.0173804346,9.02232236 0.0173804346,19.9749819 L0.0173804346,19.9749819 C0.0173804346,30.951911 8.84084832,39.8501884 19.7251605,39.8501884 L19.7251605,39.8501884 C30.6094727,39.8501884 39.4329406,30.951911 39.4329406,19.9749819 L39.4329406,19.9749819 C39.4329406,9.02232236 30.6482445,0.139026218 19.7970591,0.099925093 L19.7970591,0.099925093" id="path-37"></path>
        <path d="M19.653262,0.099925093 C8.80192803,0.139026218 0.0173804346,9.02232236 0.0173804346,19.9749819 L0.0173804346,19.9749819 C0.0173804346,30.951911 8.84084832,39.8501884 19.7251605,39.8501884 L19.7251605,39.8501884 C30.6094727,39.8501884 39.4329406,30.951911 39.4329406,19.9749819 L39.4329406,19.9749819 C39.4329406,9.02232236 30.6482445,0.139026218 19.7970591,0.099925093 L19.7970591,0.099925093" id="path-39"></path>
        <path d="M19.653262,0.099925093 C8.80192803,0.139026218 0.0173804346,9.02232236 0.0173804346,19.9749819 L0.0173804346,19.9749819 C0.0173804346,30.951911 8.84084832,39.8501884 19.7251605,39.8501884 L19.7251605,39.8501884 C30.6094727,39.8501884 39.4329406,30.951911 39.4329406,19.9749819 L39.4329406,19.9749819 C39.4329406,9.02232236 30.6482445,0.139026218 19.7970591,0.099925093 L19.7970591,0.099925093" id="path-41"></path>
        <path d="M19.653262,0.099925093 C8.80192803,0.139026218 0.0173804346,9.02232236 0.0173804346,19.9749819 L0.0173804346,19.9749819 C0.0173804346,30.951911 8.84084832,39.8501884 19.7251605,39.8501884 L19.7251605,39.8501884 C30.6094727,39.8501884 39.4329406,30.951911 39.4329406,19.9749819 L39.4329406,19.9749819 C39.4329406,9.02232236 30.6482445,0.139026218 19.7970591,0.099925093 L19.7970591,0.099925093" id="path-43"></path>
    </defs>
    <g id="-V_2" stroke="none" stroke-width="1" fill="none" fill-rule="evenodd">
        <g id="Step3_13" transform="translate(-44.000000, -340.000000)">
            <g id="resources/illustrations/marketingprofile" transform="translate(44.000000, 340.000000)">
                <g id="Group-170">
                    <g id="Group-20" transform="translate(0.000000, 0.049888)">
                        <path d="M10.6191338,3.61084642 L0.423503264,3.61084642 C0.189684422,3.61084642 -1.48550721e-05,3.80200746 -1.48550721e-05,4.0379625 L-1.48550721e-05,29.6006581 C-1.48550721e-05,29.8366131 0.189684422,30.0277741 0.423503264,30.0277741 L4.80173881,30.0277741 C3.08345256,27.078411 2.09707574,23.6432051 2.09707574,19.9748907 C2.09707574,13.1879247 5.47110838,7.19661405 10.6191338,3.61084642" id="Fill-1" fill="#3EC5D3"></path>
                        <polygon id="Fill-3" fill="#FDA69B" points="24.4922264 29.6751901 17.1879873 29.6751901 16.8788533 29.6751901 9.26577717 29.6751901 -7.42753658e-05 29.6751901 -7.42753658e-05 33.0428306 5.9606721 33.0428306 13.5738967 33.0428306 21.1871214 33.0428306 30.4528243 33.0428306 30.4528243 29.6751901"></polygon>
                        <polygon id="Fill-5" fill="#FC6A59" points="7.62359356 33.0355955 5.37795229 33.0355955 7.78120587 29.6824869 10.0269957 29.6824869"></polygon>
                        <polygon id="Fill-7" fill="#FC6A59" points="13.1608813 33.0355955 10.9177654 33.0355955 13.3184936 29.6824869 15.5647291 29.6824869"></polygon>
                        <polygon id="Fill-9" fill="#FC6A59" points="24.1869999 33.0355955 21.9413586 33.0355955 24.3446122 29.6824869 26.5904021 29.6824869"></polygon>
                        <polygon id="Fill-11" fill="#FC6A59" points="29.724286 33.0355955 27.48117 33.0355955 29.8818983 29.6824869 32.1281338 29.6824869"></polygon>
                        <polygon id="Fill-13" fill="#FC6A59" points="18.6497863 33.0355955 16.4039964 33.0355955 18.8073987 29.6824869 21.0521487 29.6824869"></polygon>
                        <g id="Group-17" transform="translate(1.336957, 0.000000)">
                            <mask id="mask-2" fill="white">
                                <use xlink:href="#path-1"></use>
                            </mask>
                            <g id="Clip-16"></g>
                            <path d="M39.4328961,19.9749669 C39.4328961,30.951896 30.6094282,39.8501735 19.725116,39.8501735 C8.84080376,39.8501735 0.0173358697,30.951896 0.0173358697,19.9749669 C0.0173358697,8.99818752 8.84080376,0.0999101092 19.725116,0.0999101092 C30.6094282,0.0999101092 39.4328961,8.99818752 39.4328961,19.9749669" id="Fill-15" fill="#C9C7EC" mask="url(#mask-2)"></path>
                        </g>
                        <path d="M19.0552544,33.0429066 L7.95108812,33.0429066 L6.21497587,33.0429066 C6.70905556,33.6132436 7.23358815,34.1557155 7.78827653,34.6656781 L29.3437286,33.8668766 C29.4119134,34.7957155 30.1831887,35.530547 31.1214351,35.530547 C32.0596814,35.530547 32.8308082,34.7957155 32.898993,33.8668766 L35.1544385,33.8668766 C35.4129168,33.6002099 35.661145,33.3236556 35.9044711,33.0429066 L30.1594206,33.0429066 L19.0552544,33.0429066 Z" id="Fill-18" fill="#9290D9"></path>
                    </g>
                    <g id="Group-84" transform="translate(1.336957, 0.049888)">
                        <g id="Group-23">
                            <mask id="mask-4" fill="white">
                                <use xlink:href="#path-3"></use>
                            </mask>
                            <g id="Clip-22"></g>
                            <path d="M-1.65625139,3.61084642 L41.9135276,3.61084642 C42.1473464,3.61084642 42.3368972,3.80200746 42.3368972,4.0379625 L42.3368972,29.6006581 C42.3368972,29.8366131 42.1473464,30.0277741 41.9135276,30.0277741 L-1.65625139,30.0277741 C-1.89007023,30.0277741 -2.0797695,29.8366131 -2.0797695,29.6006581 L-2.0797695,4.0379625 C-2.0797695,3.80200746 -1.89007023,3.61084642 -1.65625139,3.61084642" id="Fill-21" fill="#3EC5D3" mask="url(#mask-4)"></path>
                        </g>
                        <g id="Group-26">
                            <mask id="mask-6" fill="white">
                                <use xlink:href="#path-5"></use>
                            </mask>
                            <g id="Clip-25"></g>
                            <path d="M39.035402,13.29982 C39.7924164,13.29982 40.4057824,13.8733032 40.4057824,14.5796702 C40.4057824,15.2866365 39.7924164,15.8595204 39.035402,15.8595204 L25.9413985,15.8595204 C25.184384,15.8595204 24.5702753,15.2866365 24.5702753,14.5796702 C24.5702753,13.8733032 25.184384,13.29982 25.9413985,13.29982 L39.035402,13.29982" id="Fill-24" fill="#CCEBED" mask="url(#mask-6)"></path>
                        </g>
                        <g id="Group-29">
                            <mask id="mask-8" fill="white">
                                <use xlink:href="#path-7"></use>
                            </mask>
                            <g id="Clip-28"></g>
                            <path d="M34.0928959,8.82043446 C34.7912329,8.82043446 35.3572111,9.39391762 35.3572111,10.1002847 C35.3572111,10.807251 34.7912329,11.3801349 34.0928959,11.3801349 L25.8352585,11.3801349 C25.136773,11.3801349 24.5702005,10.807251 24.5702005,10.1002847 C24.5702005,9.39391762 25.136773,8.82043446 25.8352585,8.82043446 L34.0928959,8.82043446 Z" id="Fill-27" fill="#CCEBED" mask="url(#mask-8)"></path>
                        </g>
                        <g id="Group-32">
                            <mask id="mask-10" fill="white">
                                <use xlink:href="#path-9"></use>
                            </mask>
                            <g id="Clip-31"></g>
                            <path d="M33.8654345,19.8035049 C33.7419888,19.6791603 33.5779888,19.6106959 33.4037388,19.6106959 L33.4034417,19.6106959 L26.2856339,19.6106959 C25.9253984,19.6106959 25.6323079,19.606651 25.6323079,19.9697971 L25.6323079,24.0378121 C25.6323079,24.401108 25.9253984,24.6966886 26.2856339,24.6966886 L28.6074817,24.6966886 L29.5093331,26.4216324 C29.5793005,26.5437298 29.7046773,26.6168384 29.8444635,26.6168384 L29.8446121,26.6168384 C29.9845469,26.6168384 30.1097751,26.5437298 30.179594,26.4216324 L31.0812968,24.6966886 L33.4034417,24.6966886 C33.7636772,24.6966886 34.0567678,24.401108 34.0567678,24.0378121 L34.0567678,19.9697971 C34.0567678,19.7939169 33.9888801,19.9279993 33.8654345,19.8035049" id="Fill-30" fill="#33ADB9" mask="url(#mask-10)"></path>
                        </g>
                        <g id="Group-35">
                            <mask id="mask-12" fill="white">
                                <use xlink:href="#path-11"></use>
                            </mask>
                            <g id="Clip-34"></g>
                            <path d="M34.0567836,19.8200305 L34.0567836,23.8878957 C34.0567836,24.1690942 33.830838,24.3971092 33.5520083,24.3971092 L30.9955989,24.3971092 L30.0509649,26.0469969 C29.9593091,26.2074463 29.7297983,26.2074463 29.6379939,26.0469969 L28.6932113,24.3971092 L26.1370991,24.3971092 C25.8584179,24.3971092 25.6323237,24.1690942 25.6323237,23.8878957 L25.6323237,19.8200305 C25.6323237,19.538832 25.8584179,19.3111166 26.1370991,19.3111166 L33.5520083,19.3111166 C33.830838,19.3109668 34.0567836,19.538832 34.0567836,19.8200305" id="Fill-33" fill="#FFFFFF" mask="url(#mask-12)"></path>
                        </g>
                        <g id="Group-38">
                            <mask id="mask-14" fill="white">
                                <use xlink:href="#path-13"></use>
                            </mask>
                            <g id="Clip-37"></g>
                            <polygon id="Fill-36" fill="#FDA69B" mask="url(#mask-14)" points="33.6431146 29.6751901 22.9896508 29.6751901 22.5386508 29.6751901 11.4347812 29.6751901 -2.0797695 29.6751901 -2.0797695 33.0428306 6.61416166 33.0428306 17.7183283 33.0428306 28.822495 33.0428306 42.3368972 33.0428306 42.3368972 29.6751901"></polygon>
                        </g>
                        <g id="Group-41">
                            <mask id="mask-16" fill="white">
                                <use xlink:href="#path-15"></use>
                            </mask>
                            <g id="Clip-40"></g>
                            <polygon id="Fill-39" fill="#D7D9DC" mask="url(#mask-16)" points="40.0690167 29.6751901 37.2899298 29.6751901 37.1722776 29.6751901 34.2755385 29.6751901 30.7499841 29.6751901 30.7499841 33.0428306 33.017908 33.0428306 35.9146472 33.0428306 38.8113863 33.0428306 42.3369407 33.0428306 42.3369407 29.6751901"></polygon>
                        </g>
                        <g id="Group-44">
                            <mask id="mask-18" fill="white">
                                <use xlink:href="#path-17"></use>
                            </mask>
                            <g id="Clip-43"></g>
                            <polygon id="Fill-42" fill="#FC6A59" mask="url(#mask-18)" points="6.28663703 33.0355955 4.04099576 33.0355955 6.44424935 29.6824869 8.69003917 29.6824869"></polygon>
                        </g>
                        <g id="Group-47">
                            <mask id="mask-20" fill="white">
                                <use xlink:href="#path-19"></use>
                            </mask>
                            <g id="Clip-46"></g>
                            <polygon id="Fill-45" fill="#FC6A59" mask="url(#mask-20)" points="11.8239248 33.0355955 9.58080886 33.0355955 11.9815371 29.6824869 14.2277726 29.6824869"></polygon>
                        </g>
                        <g id="Group-50">
                            <mask id="mask-22" fill="white">
                                <use xlink:href="#path-21"></use>
                            </mask>
                            <g id="Clip-49"></g>
                            <polygon id="Fill-48" fill="#FC6A59" mask="url(#mask-22)" points="0.749423603 34.5337228 -1.49636632 34.5337228 0.907035927 31.1806142 3.15178599 31.1806142"></polygon>
                        </g>
                        <g id="Group-53">
                            <mask id="mask-24" fill="white">
                                <use xlink:href="#path-23"></use>
                            </mask>
                            <g id="Clip-52"></g>
                            <polygon id="Fill-51" fill="#FC6A59" mask="url(#mask-24)" points="22.8500434 33.0355955 20.6044021 33.0355955 23.0076557 29.6824869 25.2534455 29.6824869"></polygon>
                        </g>
                        <g id="Group-56">
                            <mask id="mask-26" fill="white">
                                <use xlink:href="#path-25"></use>
                            </mask>
                            <g id="Clip-55"></g>
                            <polygon id="Fill-54" fill="#FC6A59" mask="url(#mask-26)" points="28.8188398 33.0355955 26.1441841 33.0355955 28.5449123 29.6824869 30.7911478 29.6824869"></polygon>
                        </g>
                        <g id="Group-59">
                            <mask id="mask-28" fill="white">
                                <use xlink:href="#path-27"></use>
                            </mask>
                            <g id="Clip-58"></g>
                            <polygon id="Fill-57" fill="#FC6A59" mask="url(#mask-28)" points="17.3128298 33.0355955 15.0670399 33.0355955 17.4704421 29.6824869 19.7151922 29.6824869"></polygon>
                        </g>
                        <g id="Group-62">
                            <mask id="mask-30" fill="white">
                                <use xlink:href="#path-29"></use>
                            </mask>
                            <g id="Clip-61"></g>
                            <path d="M29.7844203,27.9650787 L29.7844203,27.9650787 C29.1691232,27.9650787 28.6702899,28.4680001 28.6702899,29.0886743 L28.6702899,33.5830563 C28.6702899,34.2037304 29.1691232,34.7066518 29.7844203,34.7066518 C30.3997174,34.7066518 30.8985507,34.2037304 30.8985507,33.5830563 L30.8985507,29.0886743 C30.8985507,28.4680001 30.3997174,27.9650787 29.7844203,27.9650787" id="Fill-60" fill="#373F51" mask="url(#mask-30)"></path>
                        </g>
                        <g id="Group-65">
                            <mask id="mask-32" fill="white">
                                <use xlink:href="#path-31"></use>
                            </mask>
                            <g id="Clip-64"></g>
                            <path d="M28.2569918,20.6482551 L26.6429882,20.6482551 C26.6018396,20.6482551 26.5687128,20.6819629 26.5687128,20.7231614 L26.5687128,21.1943225 C26.5687128,21.235521 26.6018396,21.2692289 26.6429882,21.2692289 L27.4739809,21.2692289 C27.3156258,21.4819629 27.1950027,21.6858581 27.1149338,21.8768693 C27.0385787,22.0579929 26.9678686,22.3923749 26.904586,22.8699779 C26.9017635,22.8915509 26.9082998,22.9129742 26.9224121,22.9294536 C26.9365244,22.9456333 26.9568759,22.9547719 26.9782672,22.9547719 L27.5293903,22.9547719 C27.5681621,22.9547719 27.6005461,22.9246596 27.6035171,22.8858581 C27.6299592,22.5393412 27.6675425,22.2678805 27.7064628,22.1397907 C27.7701911,21.9257083 27.8581331,21.7290041 27.9680606,21.5547719 C28.0580824,21.4125996 28.1720208,21.2780678 28.3067563,21.1553712 C28.3223541,21.141139 28.3312671,21.1209143 28.3312671,21.0997907 L28.3312671,20.7231614 C28.3312671,20.6819629 28.2979918,20.6482551 28.2569918,20.6482551" id="Fill-63" fill="#373F51" mask="url(#mask-32)"></path>
                        </g>
                        <g id="Group-68">
                            <mask id="mask-34" fill="white">
                                <use xlink:href="#path-33"></use>
                            </mask>
                            <g id="Clip-67"></g>
                            <path d="M30.1380314,21.6597747 C30.0003249,21.525093 29.8198358,21.4567784 29.6017633,21.4567784 C29.5374408,21.4567784 29.4716329,21.4645687 29.4058249,21.4807484 C29.3798285,21.4868908 29.3538322,21.4943814 29.3275387,21.5032204 L29.3550206,21.2431454 L30.1772488,21.2431454 C30.2183974,21.2431454 30.2515242,21.2094376 30.2515242,21.1682391 L30.2515242,20.7231454 C30.2515242,20.6819469 30.2183974,20.6482391 30.1772488,20.6482391 L28.8646546,20.6482391 C28.8276655,20.6482391 28.7963213,20.6758046 28.791122,20.7126586 L28.6159807,21.941123 C28.6101872,21.9820219 28.6382633,22.0199245 28.6789662,22.025917 L29.1500206,22.0943814 C29.1749771,22.0978271 29.199488,22.0888383 29.2159771,22.0699619 C29.2633648,22.0164788 29.2967887,21.993108 29.3174372,21.9824713 C29.4159264,21.929887 29.5246655,21.9444189 29.5849771,22.0107859 C29.6224119,22.0518346 29.6414264,22.1232953 29.6414264,22.2229207 C29.6414264,22.3207484 29.6221148,22.393108 29.5840858,22.4374526 C29.5153068,22.5182016 29.3983974,22.5211979 29.3226365,22.4494376 C29.2856474,22.414681 29.2612851,22.3598496 29.2501437,22.2868908 C29.2442017,22.2473402 29.2085495,22.2196248 29.168738,22.2236698 L28.6094445,22.2853926 C28.5876075,22.2876398 28.5679988,22.2996248 28.5558177,22.3182016 C28.5436365,22.3366286 28.5400713,22.3594001 28.5463104,22.3806735 C28.5751293,22.4810481 28.612564,22.5671904 28.6571293,22.6362541 C28.7024372,22.7060668 28.7620061,22.7694376 28.8342017,22.824269 C28.9071401,22.8795499 28.996122,22.9214975 29.098622,22.9489132 C29.1982995,22.9755799 29.31818,22.989063 29.4551437,22.989063 C29.6492995,22.989063 29.8124082,22.9544563 29.9400133,22.8859919 C30.0698466,22.8161792 30.1714553,22.7137072 30.2420169,22.5814226 C30.3113901,22.4512353 30.3465966,22.3137072 30.3465966,22.1721342 C30.3465966,21.9679395 30.2764807,21.7953552 30.1380314,21.6597747" id="Fill-66" fill="#373F51" mask="url(#mask-34)"></path>
                        </g>
                        <g id="Group-71">
                            <mask id="mask-36" fill="white">
                                <use xlink:href="#path-35"></use>
                            </mask>
                            <g id="Clip-70"></g>
                            <polygon id="Fill-69" fill="#373F51" mask="url(#mask-36)" points="31.6804036 22.8237454 31.4189543 22.6814233 32.4851029 20.6877153 32.7465521 20.8298876"></polygon>
                        </g>
                        <g id="Group-74">
                            <mask id="mask-38" fill="white">
                                <use xlink:href="#path-37"></use>
                            </mask>
                            <g id="Clip-73"></g>
                            <path d="M32.7891697,22.6803748 C32.7025646,22.6803748 32.6278436,22.663446 32.5669378,22.6300377 C32.5112313,22.5996258 32.4714197,22.5581276 32.4452747,22.5029965 C32.4148218,22.4394759 32.4001153,22.3735583 32.4001153,22.3017981 C32.4001153,22.2297381 32.4148218,22.1639703 32.4452747,22.1004497 C32.4714197,22.0454685 32.5112313,22.0038205 32.5669378,21.9734085 C32.6278436,21.9401501 32.7025646,21.9230715 32.7891697,21.9230715 C32.9169233,21.9230715 33.0118472,21.9560303 33.0794378,22.0238954 C33.1468798,22.091461 33.179561,22.1823973 33.179561,22.3017981 C33.179561,22.421049 33.1468798,22.5118355 33.0794378,22.579401 C33.0118472,22.6472662 32.9167747,22.6803748 32.7891697,22.6803748" id="Fill-72" fill="#FFFFFF" mask="url(#mask-38)"></path>
                        </g>
                        <g id="Group-77">
                            <mask id="mask-40" fill="white">
                                <use xlink:href="#path-39"></use>
                            </mask>
                            <g id="Clip-76"></g>
                            <path d="M32.7891697,21.7733045 C32.6770139,21.7733045 32.5792675,21.796076 32.4959305,21.8417689 C32.4127421,21.8874618 32.3512421,21.9518812 32.3114305,22.0354767 C32.2716189,22.1189224 32.2515646,22.2076116 32.2515646,22.301694 C32.2515646,22.3956265 32.2716189,22.4844655 32.3114305,22.568061 C32.3512421,22.6513569 32.4127421,22.716076 32.4959305,22.7617689 C32.5792675,22.8073119 32.6770139,22.8302333 32.7891697,22.8302333 C32.9565863,22.8302333 33.0883508,22.7818438 33.1841661,22.685664 C33.2801298,22.5893344 33.3281117,22.4615441 33.3281117,22.301694 C33.3281117,22.1419936 33.2801298,22.0139037 33.1841661,21.9177239 C33.0883508,21.8213943 32.9565863,21.7733045 32.7891697,21.7733045 M32.7891696,22.0729299 C32.917666,22.0729299 32.9604486,22.1159262 32.9747095,22.1301584 C33.0008544,22.1565254 33.0310102,22.1998213 33.0310102,22.301694 C33.0310102,22.4037164 33.0008544,22.4470123 32.974561,22.4733794 C32.9604486,22.4876116 32.917666,22.5306078 32.7891696,22.5306078 C32.7275211,22.5306078 32.6767168,22.5196715 32.6376479,22.4983981 C32.6094233,22.4828176 32.5918943,22.46484 32.5791189,22.4380236 C32.5586189,22.3951771 32.548666,22.3506827 32.548666,22.301694 C32.548666,22.252855 32.5586189,22.208061 32.5791189,22.1653644 C32.5918943,22.1385479 32.6094233,22.1204206 32.6377965,22.1049899 C32.6767168,22.0835666 32.7275211,22.0729299 32.7891696,22.0729299" id="Fill-75" fill="#373F51" mask="url(#mask-40)"></path>
                        </g>
                        <g id="Group-80">
                            <mask id="mask-42" fill="white">
                                <use xlink:href="#path-41"></use>
                            </mask>
                            <g id="Clip-79"></g>
                            <path d="M31.3557305,21.5946673 C31.267937,21.5946673 31.1929189,21.578038 31.1326073,21.5450792 C31.0771979,21.5148171 31.0375348,21.4731691 31.0109442,21.4177384 C30.9801942,21.3539182 30.9653392,21.2880006 30.9653392,21.2162403 C30.9653392,21.1452291 30.9801942,21.0796111 31.0109442,21.0157909 C31.0375348,20.9602103 31.0771979,20.9185624 31.1323102,20.8885998 C31.1930674,20.8554912 31.2682341,20.8387122 31.3557305,20.8387122 C31.4825928,20.8387122 31.5772196,20.871671 31.6448102,20.9392365 C31.7119551,21.0063526 31.7447848,21.0969894 31.7447848,21.2162403 C31.7447848,21.3360905 31.7121037,21.4271766 31.6449588,21.4941429 C31.5772196,21.5618583 31.4825928,21.5946673 31.3557305,21.5946673" id="Fill-78" fill="#FFFFFF" mask="url(#mask-42)"></path>
                        </g>
                        <g id="Group-83">
                            <mask id="mask-44" fill="white">
                                <use xlink:href="#path-43"></use>
                            </mask>
                            <g id="Clip-82"></g>
                            <path d="M31.3557305,20.6889132 C31.2425348,20.6889132 31.1446399,20.7115349 31.0617486,20.7567783 C30.9790058,20.801872 30.9175058,20.8665911 30.8772486,20.9504862 C30.8368428,21.0345312 30.8167884,21.1229207 30.8167884,21.216254 C30.8167884,21.3100368 30.8368428,21.3990255 30.8772486,21.4830705 C30.9175058,21.5669656 30.9790058,21.6315349 31.0617486,21.6767784 C31.1446399,21.7220218 31.2425348,21.7444937 31.3557305,21.7444937 C31.5222559,21.7444937 31.6534261,21.6967034 31.7493899,21.6006735 C31.8452051,21.5049431 31.8933356,21.3768533 31.8933356,21.216254 C31.8933356,21.0564038 31.8452051,20.9286136 31.7493899,20.8327334 C31.6534261,20.7368533 31.5222559,20.6889132 31.3557305,20.6889132 M31.3557305,20.9885386 C31.483187,20.9885386 31.5261181,21.0315349 31.5402305,21.0456173 C31.5662268,21.0716847 31.5962341,21.1145312 31.5962341,21.216254 C31.5962341,21.3200742 31.5642957,21.3639694 31.540379,21.3877896 C31.5261181,21.4020218 31.483187,21.4448682 31.3557305,21.4448682 C31.2930421,21.4448682 31.2416435,21.4342315 31.2031689,21.4132578 C31.1752413,21.397827 31.1577124,21.3798495 31.1446399,21.3524338 C31.1239913,21.3094375 31.1138899,21.2647933 31.1138899,21.216254 C31.1138899,21.1683139 31.1239913,21.1241192 31.1447884,21.0808233 C31.1577124,21.0537072 31.1752413,21.0355798 31.2033174,21.0202989 C31.2417921,20.9991754 31.2930421,20.9885386 31.3557305,20.9885386" id="Fill-81" fill="#373F51" mask="url(#mask-44)"></path>
                        </g>
                    </g>
                    <g id="Group-169" transform="translate(0.000000, 6.192210)">
                        <polygon id="Fill-85" fill="#FC6A59" points="2.08638003 26.8932734 0.0923836989 26.8932734 2.49578582 23.5401648 4.48874229 23.5401648"></polygon>
                        <path d="M3.32229234,0.118411989 L23.1769882,0.118411989 C23.6994411,0.118411989 24.1225136,0.568449419 24.1225136,1.12395501 L24.1225136,20.2300214 C24.1225136,20.7856768 23.6994411,21.2357142 23.1769882,21.2357142 L3.32229234,21.2357142 C2.79983944,21.2357142 2.37676697,20.7856768 2.37676697,20.2300214 L2.37676697,1.12395501 C2.37676697,0.568449419 2.79983944,0.118411989 3.32229234,0.118411989" id="Fill-87" fill="#FFFFFF"></path>
                        <path d="M8.58134476,16.4597758 C8.75098968,16.6052439 8.9279136,16.7415735 9.11003679,16.871611 C9.11256215,16.7334836 9.11538461,16.5979031 9.11835563,16.4695136 L8.58134476,16.4597758 Z" id="Fill-89" fill="#99D6DC"></path>
                        <path d="M17.337415,17.1823672 C17.4406578,17.1197454 17.5461288,17.0607192 17.6459548,16.9933035 L17.3470708,16.3162997 L17.337415,17.1823672 Z" id="Fill-91" fill="#99D6DC"></path>
                        <path d="M8.22149536,11.7342473 C9.10611493,10.789678 9.70640841,11.2506518 9.73240479,9.91267425 C9.76345189,8.31312367 11.2718359,8.06068922 11.2718359,7.30128846 C11.2718359,6.54158808 11.6772309,4.67222477 14.0524084,4.67222477 C16.4274374,4.67222477 16.4792816,7.26832966 16.4792816,7.26832966 C16.4792816,8.63162555 16.1024084,11.5697529 14.4578033,11.7679552 L14.4578033,13.9261574 L15.9060244,13.9261574 L15.8985968,13.9477305 L16.6391222,13.9460825 L16.9054736,13.9334983 C17.0332273,13.9261574 17.1630606,13.9321499 17.2924483,13.9444346 L17.373557,13.9442848 L17.3734084,13.9538728 C17.9939048,14.0338728 18.5814229,14.344884 18.7865715,14.9388915 L19.0652526,15.7454833 C20.2685135,14.3973185 21.0069592,12.6190413 21.0069592,10.662487 C21.0069592,6.45994014 17.6289157,3.05319854 13.4619193,3.05319854 C9.2949229,3.05319854 5.91673087,6.45994014 5.91673087,10.662487 C5.91673087,11.8025619 6.17238666,12.8801649 6.61803884,13.8509514 C6.68280696,13.841663 6.74727797,13.8317754 6.81679971,13.8331237 C7.92335406,13.8522997 7.51424536,12.4894533 8.22149536,11.7342473" id="Fill-93" fill="#99D6DC"></path>
                        <path d="M9.17525025,15.1056182 C9.2357104,14.4092886 9.67631187,14.0525845 10.1163191,13.9740826 L10.1131996,13.9610489 L10.3379568,13.9605995 C10.3514749,13.9610489 10.3651416,13.9595508 10.3786597,13.9604497 L12.443812,13.9556557 L12.4304424,13.9261426 L13.0096417,13.9261426 L13.0096417,11.0271163 C12.8560403,11.2094384 12.6299461,11.3276406 12.3741417,11.3276406 C11.9117033,11.3276406 11.5367612,10.9495133 11.5367612,10.483296 C11.5367612,10.0957305 11.7971707,9.77258442 12.1499787,9.67325857 C11.985533,9.56674172 11.8375765,9.37617991 11.7543881,9.13153571 C11.6046489,8.69123608 11.7191815,8.25243457 12.010341,8.15191023 C12.1106127,8.11730348 12.2184605,8.12988775 12.3231888,8.17573045 C12.2551526,7.67146078 12.2333156,7.31550571 12.2333156,7.31550571 L16.4791926,7.26846451 C16.4791926,7.26846451 16.4273484,4.67220978 14.0524679,4.67220978 C11.6772902,4.67220978 11.2717467,6.54157311 11.2717467,7.3012735 C11.2717467,8.06067427 9.76351115,8.31310873 9.7323155,9.91265933 C9.70631912,11.2507867 9.10602561,10.7896631 8.22155455,11.7342324 C7.51415597,12.4894384 7.92326468,13.8522849 6.81685883,13.8331088 C6.74733709,13.8317605 6.68271752,13.8416482 6.6179494,13.8509366 C7.08068493,14.8591763 7.75168859,15.7487643 8.58134443,16.4597756 L9.11835532,16.4695134 C9.13261619,15.8678654 9.15118503,15.3832212 9.17525025,15.1056182" id="Fill-95" fill="#373F51"></path>
                        <path d="M16.3074971,13.9616783 L16.6390623,13.9460977 L15.898537,13.9477457 L14.4155551,18.2043748 C15.4744246,18.0693936 16.4622869,17.7125396 17.3373992,17.1823524 L17.347055,16.316285 L16.3074971,13.9616783 Z" id="Fill-97" fill="#FFCE24"></path>
                        <path d="M11.6943734,16.0369733 C11.8574821,16.6360745 11.9702321,17.3367486 11.9434929,18.0903066 C11.9430473,18.0992954 11.9424531,18.1082841 11.942156,18.1172729 C12.4331161,18.2185463 12.9413081,18.2717298 13.4618298,18.2717298 C13.7739349,18.2717298 14.0798008,18.2467111 14.3818045,18.2095575 L12.790232,14.7160745 C12.4291052,15.1628161 12.0009821,15.6738273 11.6943734,16.0369733" id="Fill-99" fill="#FFCE24"></path>
                        <path d="M17.2923737,13.9444196 C17.3195585,13.9471162 17.3464462,13.9504121 17.3734824,13.9538578 L17.3734824,13.9442698 L17.2923737,13.9444196 Z" id="Fill-101" fill="#FFCE24"></path>
                        <path d="M11.694373,16.0369739 C12.0009817,15.6738278 12.4291048,15.1628166 12.7902316,14.716075 L12.4438113,13.9556256 L10.3786593,13.9605694 C10.5442933,13.9728541 10.6986375,14.0245395 10.8182208,14.1147267 C10.9331991,14.2011687 11.3981628,14.9490338 11.694373,16.0369739" id="Fill-103" fill="#FFCE24"></path>
                        <path d="M10.1132735,13.9610938 L10.1163931,13.9741275 C10.1911141,13.9607942 10.2652409,13.9580975 10.3380308,13.9606443 L10.1132735,13.9610938 Z" id="Fill-105" fill="#FFCE24"></path>
                        <polygon id="Fill-107" fill="#FFFFFF" points="14.4578779 13.926127 14.4578779 13.9511457 15.8985228 13.9478498 15.9060988 13.926127"></polygon>
                        <polygon id="Fill-109" fill="#FFFFFF" points="13.0096417 13.9261269 12.4304425 13.9261269 12.443812 13.95564 13.0096417 13.9542917"></polygon>
                        <path d="M14.3999127,18.249348 L14.4155106,18.2044042 C14.4042207,18.2059024 14.3932279,18.2082994 14.3817895,18.2094979 L14.3999127,18.249348 Z" id="Fill-111" fill="#FFFFFF"></path>
                        <path d="M14.457877,14.5452883 L13.009656,14.5452883 L13.009656,14.4416178 C12.9404314,14.5292583 12.8677901,14.6201946 12.7902466,14.7160748 L14.3818191,18.209558 C14.3932575,18.2082097 14.4042502,18.2059625 14.4155401,18.2044643 L15.898522,13.9478351 L14.457877,13.9511309 L14.457877,14.5452883 Z" id="Fill-113" fill="#FFFFFF"></path>
                        <path d="M13.0096412,14.4415582 L13.0096412,13.9543672 L12.4438115,13.9557155 L12.7902318,14.7160151 C12.8677753,14.620135 12.9404166,14.5291987 13.0096412,14.4415582" id="Fill-115" fill="#FFFFFF"></path>
                        <path d="M10.7153052,16.4989961 L9.11838489,16.4696328 C9.11526533,16.5978725 9.11259142,16.7334531 9.1099175,16.8715804 C9.69684142,17.2906066 10.3448197,17.6258875 11.0389972,17.8634905 L10.7153052,16.4989961 Z" id="Fill-117" fill="#FFCE24"></path>
                        <path d="M9.17525024,15.105618 C9.15118502,15.383221 9.13261618,15.8678652 9.11835531,16.4695132 L10.7152756,16.4990263 L10.1163191,13.9740825 C9.67631183,14.0525843 9.23571038,14.4092885 9.17525024,15.105618" id="Fill-119" fill="#FFCE24"></path>
                        <path d="M11.694374,16.0369736 C11.4583269,16.316674 11.293287,16.5096328 11.293287,16.5096328 L10.7152762,16.4989961 L11.0389682,17.8634904 C11.3332472,17.9641646 11.6327254,18.0534529 11.9421566,18.1172732 C11.9424537,18.1082844 11.9430479,18.0992956 11.9434935,18.0903069 C11.9702327,17.3367488 11.8574827,16.6360747 11.694374,16.0369736" id="Fill-121" fill="#FFCE24"></path>
                        <path d="M11.6943732,16.0369743 C11.3981631,14.9490342 10.9331993,14.201169 10.818221,14.114727 C10.6986377,14.0245398 10.5442935,13.9728544 10.3786594,13.9605697 C10.3651413,13.959521 10.3514747,13.961169 10.3379565,13.9607195 C10.2651667,13.9581727 10.1910399,13.9608693 10.1163189,13.9740529 L10.7152754,16.4989967 L11.2932863,16.5096334 C11.2932863,16.5096334 11.4583261,16.3166746 11.6943732,16.0369743" id="Fill-123" fill="#FFCE24"></path>
                        <path d="M13.4730754,13.7858276 C13.4730754,13.8050037 13.4432167,13.856689 13.3967203,13.9262022 L14.4578182,13.9262022 L14.4578182,11.7678502 C14.426474,11.7717453 14.3955754,11.7765393 14.3633399,11.778337 C13.8639124,12.857588 13.4730754,13.7226067 13.4730754,13.7858276" id="Fill-125" fill="#FFFFFF"></path>
                        <path d="M13.473075,13.7858279 C13.473075,13.7226069 13.8639119,12.8575882 14.3633395,11.7783373 C14.3363032,11.7796856 14.3117924,11.7868766 14.2841619,11.7868766 C13.7727018,11.7868766 13.3895895,11.4186369 13.0984301,10.8996856 C13.0725822,10.9452287 13.0430206,10.9874759 13.0095967,11.0271763 L13.0095967,13.9262024 L13.3967199,13.9262024 C13.4432163,13.8566893 13.473075,13.8050039 13.473075,13.7858279" id="Fill-127" fill="#FFFFFF"></path>
                        <path d="M13.3791466,13.953633 L14.457922,13.9510862 L14.457922,13.9260674 L13.3966756,13.9260674 C13.3899908,13.9362547 13.3867227,13.9426966 13.3791466,13.953633" id="Fill-129" fill="#FFFFFF"></path>
                        <path d="M13.3791467,13.9536333 C13.3867227,13.942697 13.3899909,13.9362551 13.3966756,13.9260678 L13.009701,13.9260678 L13.009701,13.9543824 L13.3791467,13.9536333 Z" id="Fill-131" fill="#FFFFFF"></path>
                        <path d="M13.0096421,14.4415576 L13.0096421,14.545228 L14.457863,14.545228 L14.457863,13.9512206 L13.3790877,13.9536176 C13.2973848,14.0721194 13.1654718,14.2445539 13.0096421,14.4415576" id="Fill-133" fill="#FFFFFF"></path>
                        <path d="M13.0096421,13.9543676 L13.0096421,14.4415586 C13.1654718,14.2445549 13.2973848,14.0721204 13.3790877,13.9536185 L13.0096421,13.9543676 Z" id="Fill-135" fill="#FFFFFF"></path>
                        <path d="M14.4578779,11.7678953 C16.102483,11.5698429 16.4792077,8.63156567 16.4792077,7.26841959 C16.4792077,7.26841959 15.3346243,9.68325108 14.4578779,11.5741874 L14.4578779,11.7678953 Z" id="Fill-137" fill="#FFFFFF"></path>
                        <path d="M12.8085036,8.76695118 C12.9389311,9.15062158 12.8685181,9.53264404 12.6556449,9.69129572 C12.9268985,9.78942306 13.1344239,10.0216328 13.1938442,10.3113706 L14.4578623,10.485453 L14.4578623,11.5741421 C15.3346087,9.68335565 16.4791921,7.26837444 16.4791921,7.26837444 L12.2333151,7.31556545 C12.2333151,7.31556545 12.2551521,7.6715205 12.3231883,8.17579015 C12.522692,8.26313097 12.7103115,8.47826205 12.8085036,8.76695118" id="Fill-139" fill="#FFFFFF"></path>
                        <path d="M14.3633542,11.7782777 C14.3955897,11.77648 14.4264882,11.771686 14.4578324,11.7679406 L14.4578324,11.574083 C14.425894,11.6431466 14.3945498,11.710862 14.3633542,11.7782777" id="Fill-141" fill="#FFFFFF"></path>
                        <path d="M14.4578779,10.4854829 L13.1938597,10.3112507 C13.2052981,10.3668312 13.2113887,10.4242095 13.2113887,10.4832357 C13.2113887,10.6354455 13.168309,10.7764193 13.0983416,10.8997152 C13.389501,11.4186665 13.7726134,11.7869062 14.2842221,11.7869062 C14.3118525,11.7869062 14.3362148,11.7797152 14.3633996,11.7782171 C14.3945953,11.7108013 14.4259395,11.643086 14.4578779,11.5741721 L14.4578779,10.4854829 Z" id="Fill-143" fill="#FFFFFF"></path>
                        <path d="M12.6223108,9.68082399 C12.4756913,9.14599251 12.3815101,8.60756553 12.3232782,8.17580521 C12.2184014,8.1298127 12.1105536,8.11722843 12.0102819,8.15183517 C11.7191224,8.25250933 11.6045898,8.69116104 11.754329,9.13146068 C11.8375174,9.37625469 11.9854739,9.56666669 12.1499195,9.67333336 C12.2218181,9.65310864 12.2959449,9.63887643 12.3740826,9.63887643 C12.4611333,9.63887643 12.5434304,9.65595508 12.6223108,9.68082399" id="Fill-145" fill="#FFFFFF"></path>
                        <path d="M12.6556011,9.6912957 C12.8684743,9.53264401 12.9390359,9.15062153 12.8084598,8.76695111 C12.7102678,8.47826197 12.5226482,8.26313088 12.3232931,8.17579005 C12.381525,8.60755036 12.4757062,9.14597733 12.6223257,9.6808088 C12.633467,9.68440431 12.6447569,9.68740056 12.6556011,9.6912957" id="Fill-147" fill="#FFFFFF"></path>
                        <path d="M18.7865866,14.9388315 C18.581438,14.344824 17.9939199,14.0338128 17.3734236,13.9539626 L17.3471301,16.3162098 L17.6460141,16.9933633 C18.1709924,16.6398053 18.644275,16.2170337 19.0651192,15.7455731 L18.7865866,14.9388315 Z" id="Fill-149" fill="#FFCE24"></path>
                        <path d="M16.9055479,13.9334535 L16.6391965,13.9460377 L17.292374,13.9443898 C17.1629863,13.9321052 17.0333015,13.9261126 16.9055479,13.9334535" id="Fill-151" fill="#FFCE24"></path>
                        <path d="M16.6391372,13.9460369 L16.307572,13.9616174 L17.34713,16.3162241 L17.3734234,13.953977 C17.3463872,13.9503815 17.3194995,13.9470856 17.2923147,13.944389 L16.6391372,13.9460369 Z" id="Fill-153" fill="#FFCE24"></path>
                        <path d="M12.6295005,9.70606745 C12.6049896,9.72164798 12.5801817,9.73692888 12.5524027,9.7466667 C12.4231635,9.79116109 12.2814462,9.75850191 12.1499788,9.67325846 C11.7971708,9.77258431 11.53691,10.0957304 11.53691,10.4831461 C11.53691,10.9495132 11.9117034,11.3276405 12.3741418,11.3276405 C12.6299461,11.3276405 12.8560403,11.2094383 13.0096418,11.0271162 L13.0096418,10.7429214 C12.8538121,10.4289139 12.730515,10.0701124 12.6295005,9.70606745" id="Fill-155" fill="#3EC5D3"></path>
                        <path d="M13.0096421,10.7429064 L13.0096421,11.0271012 C13.043066,10.9875506 13.072479,10.9451536 13.0983269,10.8997604 C13.0689138,10.8471761 13.0372725,10.798487 13.0096421,10.7429064" id="Fill-157" fill="#3EC5D3"></path>
                        <path d="M13.1938894,10.3113113 C13.1344692,10.0217233 12.9269438,9.78951356 12.6555416,9.6912364 C12.6475199,9.69722891 12.6380126,9.70067461 12.6295452,9.70606786 C12.7304112,10.0701128 12.8537083,10.4289143 13.0096865,10.7429218 L13.0096865,10.285993 L13.1938894,10.3113113 Z" id="Fill-159" fill="#3EC5D3"></path>
                        <path d="M13.1938892,10.3113104 L13.0096863,10.285992 L13.0096863,10.7429208 C13.0371681,10.7983516 13.068958,10.8471905 13.098371,10.8997748 C13.1683384,10.7763291 13.2114182,10.6355051 13.2114182,10.4831456 C13.2114182,10.4242692 13.2053276,10.3668909 13.1938892,10.3113104" id="Fill-161" fill="#3EC5D3"></path>
                        <path d="M12.5524615,9.74659167 C12.5802405,9.73700365 12.6050484,9.72157294 12.6295593,9.70599241 C12.6271825,9.6976029 12.6246571,9.68921339 12.6222803,9.68082388 C12.5433999,9.65595496 12.4611028,9.63887631 12.3740521,9.63887631 C12.2959144,9.63887631 12.2217876,9.65310852 12.1500376,9.67333324 C12.2813564,9.75842687 12.4232223,9.79123586 12.5524615,9.74659167" id="Fill-163" fill="#3EC5D3"></path>
                        <path d="M12.622311,9.6808238 C12.6246878,9.68921331 12.6272132,9.69760282 12.6294414,9.70599234 C12.6379088,9.70074889 12.6475646,9.6973032 12.6555863,9.69131069 C12.6447421,9.68726574 12.6334523,9.68426949 12.622311,9.6808238" id="Fill-165" fill="#3EC5D3"></path>
                        <path d="M11.6458574,2.38668163 C11.5801979,2.38668163 11.5213718,2.34068912 11.5068139,2.27342321 C11.4901762,2.19597003 11.5389008,2.11971535 11.6158501,2.10293632 C11.9909407,2.02083895 12.3759842,1.96361048 12.7599878,1.93274906 C12.8415422,1.92675655 12.9070531,1.98518352 12.9132922,2.06428464 C12.9196799,2.14323595 12.8611509,2.21259924 12.7828647,2.21874156 C12.4111907,2.24870411 12.038774,2.30428463 11.6761617,2.38338575 C11.6660603,2.38563294 11.6558103,2.38668163 11.6458574,2.38668163 M15.317734,2.39567039 C15.3076326,2.39567039 15.297234,2.39447189 15.286984,2.39237451 C14.9251144,2.31162545 14.5529949,2.25439699 14.1808753,2.22233707 C14.1025891,2.21559549 14.0443572,2.14608239 14.051042,2.06728089 C14.0577268,1.98817977 14.1245746,1.92960299 14.2050891,1.93634457 C14.5896869,1.96915356 14.9744333,2.02832958 15.3483355,2.11192509 C15.4252847,2.12900374 15.4737123,2.20585767 15.4566289,2.28331085 C15.4419224,2.34997751 15.3830963,2.39567039 15.317734,2.39567039 M9.26250923,3.30338578 C9.21289329,3.30338578 9.16446575,3.27731836 9.13846937,3.23042698 C9.09954908,3.16151312 9.1236143,3.07402248 9.19224473,3.03477154 C9.52796936,2.84316105 9.87854907,2.67327341 10.2341795,2.53005243 C10.3063751,2.50083894 10.3901578,2.53649438 10.4192737,2.60990262 C10.4483896,2.68331086 10.412886,2.76690637 10.3397991,2.79641948 C9.99605269,2.93514607 9.65705994,3.09949064 9.33232806,3.284809 C9.31019401,3.29754308 9.28627734,3.30338578 9.26250923,3.30338578 M17.6990026,3.32435951 C17.6750859,3.32435951 17.6507236,3.31821719 17.628441,3.30533329 C17.3053431,3.11911607 16.9666475,2.95282394 16.6220098,2.81155054 C16.5490714,2.78173781 16.5140134,2.69799249 16.5437235,2.62443444 C16.5732851,2.55072658 16.656325,2.51537078 16.7292634,2.54578276 C17.085488,2.69185017 17.4357707,2.86338574 17.7697127,3.05634454 C17.838046,3.09559547 17.8618142,3.18338573 17.8227453,3.25199996 C17.7964518,3.29829209 17.7483214,3.32435951 17.6990026,3.32435951 M7.2530637,4.89020223 C7.21785718,4.89020223 7.18294776,4.87731833 7.15531732,4.85095129 C7.09827384,4.79656927 7.09559993,4.70563294 7.14967239,4.64795504 C7.41364704,4.3663071 7.69916153,4.09949062 7.99789705,3.85514605 C8.0592485,3.80495878 8.14867604,3.81484642 8.19814343,3.87656927 C8.24775937,3.93784268 8.23825212,4.02847938 8.17719778,4.07836702 C7.88811806,4.31447189 7.61196226,4.57274904 7.35645501,4.84540822 C7.32867602,4.87507114 7.29094414,4.89020223 7.2530637,4.89020223 M19.7010204,4.92211245 C19.6629914,4.92211245 19.6249624,4.90698137 19.5968863,4.87671919 C19.3418247,4.60196263 19.0670059,4.34263678 18.7800059,4.10563303 C18.7192486,4.05544576 18.7103356,3.96510868 18.7602486,3.90368546 C18.8098646,3.84226223 18.8994407,3.83327347 18.960495,3.88346074 C19.2570023,4.12825475 19.5411798,4.39641955 19.8048573,4.68046451 C19.8586327,4.73814241 19.8556617,4.82907874 19.7981726,4.88346077 C19.7706907,4.90922856 19.7357813,4.92211245 19.7010204,4.92211245 M5.79518688,7.00391005 C5.77409267,7.00391005 5.75270137,6.99926586 5.73234992,6.98907859 C5.66178833,6.95402241 5.63267239,6.86802991 5.66758181,6.79701867 C5.83737528,6.44930333 6.03242237,6.10937825 6.24707816,5.78698126 C6.29075208,5.72076403 6.37958541,5.70308613 6.44465062,5.74773032 C6.50986439,5.79177526 6.52724482,5.88121346 6.48357091,5.94683144 C6.275897,6.25889135 6.08723759,6.58758048 5.92308905,6.92376024 C5.89813252,6.97454676 5.84777383,7.00391005 5.79518688,7.00391005 M21.147161,7.04211231 C21.0944255,7.04211231 21.0437697,7.01229958 21.0192589,6.96136325 C20.8560016,6.62398499 20.6692733,6.29469662 20.4638277,5.98263671 C20.4204509,5.91671911 20.438277,5.82758054 20.5037878,5.7835356 C20.5692987,5.73979028 20.6576864,5.75776781 20.7010632,5.82398503 C20.9133422,6.14638202 21.1064581,6.48690635 21.2749147,6.83567038 C21.309527,6.90683142 21.2801139,6.99267411 21.2095523,7.02758048 C21.1893494,7.03731831 21.1681067,7.04211231 21.147161,7.04211231 M5.02435716,9.45784265 C5.01707817,9.45784265 5.00965064,9.4572434 5.00207455,9.4560449 C4.92438252,9.44376025 4.87149846,9.37035201 4.88367962,9.29214976 C4.94339701,8.90847934 5.02940788,8.52570779 5.13933542,8.1541722 C5.16176658,8.07761789 5.24094412,8.03567032 5.31655644,8.05754298 C5.39187166,8.0801647 5.43465427,8.16016471 5.41222311,8.23596995 C5.30586079,8.59552053 5.22267238,8.9657078 5.1650347,9.33634452 C5.15389339,9.40735576 5.09343325,9.45784265 5.02435716,9.45784265 M21.9058095,9.49964059 C21.8367335,9.49964059 21.7759762,9.44855445 21.7652806,9.37769303 C21.7091284,9.00615746 21.6278711,8.63567058 21.5232914,8.27626985 C21.5011574,8.20016498 21.5443856,8.12016498 21.6199979,8.09814251 C21.6959074,8.07626985 21.7744907,8.11941592 21.7966248,8.19537097 C21.9046211,8.56690654 21.9887008,8.95027731 22.0467842,9.33439715 C22.0585197,9.41259939 22.00519,9.48615744 21.9273494,9.49784284 C21.920219,9.49904134 21.91294,9.49964059 21.9058095,9.49964059 M21.9288359,11.950577 C21.9225968,11.950577 21.9163576,11.9502774 21.90997,11.9496781 C21.8318323,11.9388916 21.7771656,11.8668317 21.7875642,11.7883298 C21.8364374,11.4178429 21.8610968,11.0392662 21.8610968,10.6624872 C21.8610968,10.5830864 21.924825,10.5189666 22.0035569,10.5189666 C22.0821403,10.5189666 22.1458685,10.5830864 22.1458685,10.6624872 C22.1458685,11.0520003 22.1203178,11.4434609 22.0698106,11.825783 C22.0603033,11.8982924 21.9991004,11.950577 21.9288359,11.950577 M5.00593686,12.0313259 C4.93611802,12.0313259 4.87521222,11.9799401 4.86511077,11.90803 C4.81103831,11.5251087 4.78177382,11.1337978 4.77835715,10.7454832 C4.7776144,10.6660825 4.84074845,10.6013634 4.91948034,10.6004645 L4.92066874,10.6004645 C4.99865787,10.6004645 5.06238613,10.6638353 5.06312888,10.7426368 C5.066397,11.1186667 5.09462164,11.4969439 5.14706004,11.8677304 C5.15820135,11.9462322 5.10383178,12.0187416 5.0259912,12.0301274 C5.01930642,12.0308764 5.01262164,12.0313259 5.00593686,12.0313259 M21.2162372,14.423086 C21.1961828,14.423086 21.1758314,14.4188913 21.1563712,14.4097527 C21.0850669,14.3764943 21.0540198,14.2909512 21.0871466,14.2191909 C21.2438676,13.8782171 21.3789002,13.5237602 21.4885307,13.1654081 C21.511556,13.0894531 21.5901394,13.0466066 21.6664944,13.0705767 C21.7415126,13.0939475 21.783701,13.1743969 21.7603785,13.2500523 C21.6471829,13.6208389 21.5073966,13.9872808 21.3454763,14.3397902 C21.3214111,14.3922246 21.2700126,14.423086 21.2162372,14.423086 M5.74156008,14.4960445 C5.68837892,14.4960445 5.63727747,14.4656325 5.61291515,14.4140969 C5.44787529,14.0632355 5.30482094,13.6984415 5.18791151,13.3293029 C5.16384629,13.2537973 5.20529195,13.1727486 5.28001296,13.1484789 C5.35532818,13.1246587 5.43509993,13.1663066 5.45901659,13.2418122 C5.57221225,13.5986662 5.71051298,13.9517748 5.87005647,14.2906512 C5.90392603,14.3625613 5.87362168,14.4479546 5.80261443,14.4822617 C5.78285719,14.4914003 5.76206008,14.4960445 5.74156008,14.4960445 M19.8090164,16.5709517 C19.7748498,16.5709517 19.7408316,16.5589667 19.7137954,16.533948 C19.6552664,16.4810641 19.6506613,16.3901277 19.7030998,16.3312513 C19.9525164,16.0521502 20.1855925,15.753873 20.3954947,15.4449592 C20.4400599,15.3791914 20.5284476,15.3624124 20.5935128,15.4076558 C20.6582809,15.4521502 20.6747701,15.5415884 20.630502,15.6070566 C20.4133208,15.9266071 20.1725201,16.2350715 19.9147845,16.5236109 C19.8867085,16.5550715 19.8479367,16.5709517 19.8090164,16.5709517 M7.16764706,16.6296778 C7.12932097,16.6296778 7.09099489,16.6137977 7.0629188,16.5830861 C6.80236083,16.2970936 6.55888619,15.991176 6.33903112,15.6734231 C6.2941688,15.6082546 6.30991518,15.5189662 6.3743862,15.4734231 C6.43870866,15.4283295 6.52754199,15.4440598 6.57255286,15.5090786 C6.78512895,15.8161947 7.02073039,16.1123745 7.27267242,16.3889288 C7.32585358,16.4473557 7.32199126,16.5381422 7.26405648,16.5917752 C7.23672315,16.6170935 7.20225938,16.6296778 7.16764706,16.6296778 M17.8378972,18.2052583 C17.7893211,18.2052583 17.7422305,18.1802396 17.7154914,18.1354456 C17.6752341,18.0672808 17.6972196,17.9793407 17.7646617,17.9385916 C18.0834515,17.7462321 18.3930313,17.5302021 18.6844878,17.2967939 C18.7458393,17.2470561 18.8355639,17.2576928 18.8845856,17.3197152 C18.9336074,17.3818875 18.9232088,17.4722246 18.8617088,17.5216628 C18.5602994,17.7630111 18.2403211,17.9862321 17.910687,18.1848838 C17.8879588,18.1986665 17.8628537,18.2052583 17.8378972,18.2052583 M9.15451302,18.2461577 C9.13000215,18.2461577 9.10549128,18.2397158 9.08276302,18.2265322 C8.75090071,18.030727 8.42884276,17.8105023 8.12535364,17.5718506 C8.06340799,17.5230116 8.05241524,17.4326745 8.10069422,17.3702026 C8.1489732,17.3078805 8.23840074,17.2961951 8.30049494,17.3451839 C8.59403116,17.5761951 8.90554201,17.7893787 9.22656011,17.978742 C9.29444779,18.018742 9.31717605,18.1065322 9.27766156,18.1749967 C9.25107098,18.2206895 9.20353475,18.2461577 9.15451302,18.2461577 M15.4760893,19.1793403 C15.4119154,19.1793403 15.3536835,19.1352954 15.3379371,19.0698272 C15.3193683,18.9926737 15.3663103,18.9150707 15.4428139,18.8961943 C15.8045349,18.8078047 16.163582,18.6939471 16.5100023,18.5580669 C16.5829407,18.5293029 16.6656835,18.5658572 16.6942052,18.639565 C16.7227269,18.7135725 16.6866291,18.7967186 16.6133936,18.8254826 C16.2552378,18.9661568 15.883861,19.0840594 15.5098103,19.1754452 C15.4985205,19.177992 15.4872306,19.1793403 15.4760893,19.1793403 M11.5271651,19.1983674 C11.5164694,19.1983674 11.5057738,19.1973187 11.4949296,19.1947719 C11.1201361,19.1072812 10.7477194,18.9928243 10.3871868,18.855446 C10.3138027,18.8275809 10.276665,18.7444348 10.304444,18.6704273 C10.3323716,18.5961202 10.4146687,18.5597157 10.4880527,18.5868318 C10.8364042,18.7201651 11.1969368,18.8302775 11.5591035,18.9150715 C11.6357557,18.9328992 11.6834405,19.009903 11.6657629,19.0873561 C11.6504622,19.1535734 11.5919332,19.1983674 11.5271651,19.1983674 M13.4620383,19.42024 C13.2816977,19.42024 13.102694,19.4149965 12.9251759,19.4039104 C12.8467411,19.3992662 12.7870237,19.3311014 12.7916288,19.2520003 C12.796531,19.1728992 12.8654585,19.1129741 12.9424078,19.1173186 C13.3102194,19.1396407 13.6890238,19.1384422 14.0614405,19.1117756 C14.1425492,19.1044347 14.2077629,19.165858 14.2134079,19.2451089 C14.2189042,19.3240602 14.159781,19.3928243 14.0814948,19.3983673 C13.8763463,19.413049 13.6679296,19.42024 13.4620383,19.42024" id="Fill-167" fill="#D7D9DC"></path>
                    </g>
                </g>
            </g>
        </g>
    </g>
</svg>