<svg xmlns="http://www.w3.org/2000/svg" width="210" height="214" viewBox="0 0 210 214">
  <g fill="none" transform="translate(.773 .779)">
    <path fill="#E5F4F6" d="M207.918808,103.01381 C208.088752,144.849149 182.913771,182.667371 144.132318,198.833501 C105.350866,214.999632 60.6004998,206.329942 30.7487132,176.867181 C0.896926597,147.404422 -8.17731777,102.950943 7.75738107,64.2357963 C23.6920799,25.52065 61.4975683,0.16833491 103.544811,0 C131.115485,-0.111019951 157.601471,10.679545 177.175506,29.9984917 C196.749541,49.3174383 207.808023,75.5820641 207.918808,103.01381"/>
    <path fill="#CCF8ED" d="M37.7938305,37.091828 L180.827146,36.5125316 C181.351479,36.5227912 181.850107,36.7408117 182.212742,37.1183714 C182.575376,37.495931 182.772135,38.001916 182.759498,38.5244122 L183.301499,171.512065 C210.765565,139.628728 216.245885,94.3942322 197.185626,56.9126466 C178.125367,19.431061 138.280613,-2.91135297 96.240861,0.309216233 C54.2011091,3.52978543 18.2508689,31.6786804 5.16265811,71.6230868 C-7.92555268,111.567493 4.42747746,155.435817 36.4584654,182.761374 L35.8693337,39.1506785 C35.8459688,38.6221026 36.0366335,38.106327 36.3985058,37.7191915 C36.7603781,37.332056 37.2631241,37.1060122 37.7938305,37.091828 Z"/>
    <path fill="#99F1DB" d="M40.9656225,37.9388555 C40.9783164,37.416952 40.780673,36.9115411 40.4164077,36.5344098 C40.0521424,36.1572784 39.5512727,35.9395052 39.0245819,35.9292573 L36.4227997,36.5078965 C35.889707,36.5220646 35.3847004,36.747852 35.0212009,37.1345483 C34.6577015,37.5212446 34.4661795,38.0364351 34.4896494,38.5644113 L35.0814302,181.543465 L41.5100604,186.880634 L40.9656225,37.9388555 Z"/>
    <path fill="#FFF" d="M42.0242238,207.773053 L186.145817,207.39484 C187.239861,207.360825 188.099945,206.45577 188.06981,205.371094 L187.367512,33.2512447 C187.380192,32.7297254 187.182762,32.2246867 186.818889,31.847833 C186.455017,31.4709792 185.954687,31.2533664 185.428564,31.2431259 L41.3069708,31.6213391 C40.7701394,31.6352947 40.261885,31.8641482 39.8980698,32.2557291 C39.5342545,32.6473101 39.3458851,33.1682451 39.3759038,33.6997811 L40.0773938,205.81963 C40.0857196,206.885947 40.9487766,207.751927 42.0242238,207.773053 Z"/>
    <g transform="translate(55.644 111.281)">
      <path fill="#C9E9EC" d="M35.4890446,7.3764852 C28.3858031,7.41552691 17.7313476,7.37275696 3.5256781,7.24817533 C1.79462725,7.24813663 0.391280501,5.84941315 0.391280501,4.12401806 C0.391280501,2.39866297 1.79447259,1 3.52548322,1 C15.5284535,1.11558992 24.5308842,1.15172818 30.5327752,1.1084148 C33.046615,3.54030209 34.3655093,5.6273006 35.4890446,7.3764852 Z" transform="rotate(-.23 17.94 4.195)"/>
      <path fill="#E4F4F5" d="M3.12408759,12.1222242 C14.6867829,12.1222242 26.2494783,12.1222242 37.8121736,12.1222242 C38.5456209,14.5901976 38.7744512,15.8201605 39.0738912,18.3703994 C27.0906233,18.3703994 15.1073555,18.3703994 3.12408759,18.3703994 C1.39870166,18.3703994 -4.67368247e-15,16.9716977 0,15.2463118 C-2.11298836e-16,13.5209259 1.39870166,12.1222242 3.12408759,12.1222242 Z"/>
      <path fill="#E9EAEC" d="M38.1882324,28.468614 C37.2705555,31.185593 36.924723,32.115475 35.5303596,34.7061191 C35.5303469,34.7061191 24.8988861,34.6634415 3.63597708,34.5780862 C1.90492622,34.5780485 0.501579476,33.179325 0.501579476,31.4539289 C0.501579476,29.7285738 1.90477147,28.3299108 3.63578209,28.3299108 C26.670749,28.4223796 38.1882324,28.468614 38.1882324,28.468614 Z" transform="rotate(-.23 19.345 31.518)"/>
      <path fill="#F9F9FA" d="M31.9970562,39.4447992 C29.5173262,41.9122813 27.6287895,43.6532086 23.4896896,45.6588228 C23.4896769,45.6588228 16.8866075,45.6323162 3.68048133,45.5793031 C1.94943047,45.5792654 0.54608373,44.1805419 0.54608373,42.4551468 C0.54608373,40.7297917 1.94927582,39.3311278 3.68028645,39.3311278 C22.558133,39.4069087 31.9970562,39.4447992 31.9970562,39.4447992 Z" transform="rotate(-.23 16.272 42.495)"/>
    </g>
    <path fill="#373F51" d="M121.758673,25.945175 L121.520994,23.529594 C121.338773,21.6695967 120.213758,20.3088194 118.8986,20.3088194 L105.857933,20.3088194 C104.542775,20.3088194 103.433605,21.7018044 103.259307,23.529594 L103.045395,25.945175 L89.0302434,26.0015386 L92.5003602,45.3261867 L133.246503,45.1570961 L136.56609,25.8324479 L121.758673,25.945175 Z"/>
    <path fill="#E5F4F6" d="M115.182893,27.1449136 C115.187229,28.7002884 113.950899,29.9651666 112.420505,29.9710978 C110.890111,29.9769874 109.644359,28.7216951 109.637043,27.1663316 C109.629792,25.6109681 110.863731,24.3436819 112.394112,24.3347759 C113.926854,24.3303244 115.174154,25.5871764 115.182893,27.1449136"/>
    <path fill="#00C392" d="M162.565974,110.389398 C167.898979,110.389398 172.228476,114.647882 172.250781,119.915374 C172.267033,123.787979 169.917812,127.288243 166.300203,128.781419 C162.682595,130.274595 158.510421,129.466051 155.732237,126.733404 C152.954052,124.000758 152.118046,119.883214 153.614662,116.303811 C155.111277,112.724408 158.645205,110.389398 162.565974,110.389398 Z M162.493339,83.7963282 C167.842063,83.7963282 172.178061,88.108499 172.178061,93.4278314 C172.178061,98.7471637 167.842063,103.059335 162.493339,103.059335 C157.144614,103.059335 152.808616,98.7471637 152.808616,93.4278314 C152.808616,88.108499 157.144614,83.7963282 162.493339,83.7963282 Z M162.199545,56.460478 C164.744172,56.4498892 167.188213,57.4599205 168.991288,59.2673358 C170.794364,61.0747511 171.80792,63.5306631 171.80792,66.092065 C171.80792,71.4061631 167.531983,75.7161254 162.252648,75.7234848 C156.973314,75.7308254 152.685595,71.4327854 152.670908,66.1187077 C152.656296,60.80463 156.920251,56.4827038 162.199545,56.460478 Z"/>
    <path fill="#FFF" d="M167.077441,115.953525 L168.207325,117.061567 L160.879218,124.347544 L156.916553,119.899431 L158.046437,118.783417 L160.879218,120.441495 L167.077441,115.953525 Z M166.996735,89.4387838 L168.13469,90.5624592 L160.814654,97.8904279 L156.843917,93.4117789 L157.973802,92.2881035 L160.806583,93.9575641 L166.996735,89.4387838 Z M166.688769,62.1030174 L167.813069,63.2266928 L160.580873,70.5546615 L156.657786,66.0760125 L157.766138,64.9523371 L160.564926,66.6217977 L166.688769,62.1030174 Z"/>
    <path fill="#99D6DC" d="M58.9409683,57.5130874 L136.703412,57.5148027 C138.434463,57.5148409 139.83781,58.9135646 139.83781,60.6389598 L139.83781,60.6389598 C139.83781,62.3643149 138.434619,63.7629784 136.703608,63.7629784 C136.703589,63.7629784 136.70357,63.7629784 136.703551,63.7629784 L58.9411069,63.7612631 C57.210056,63.7612249 55.8067093,62.3625012 55.8067093,60.6371062 L55.8067093,60.6371062 C55.8067093,58.9117511 57.2099013,57.5130874 58.940912,57.5130874 C58.9409307,57.5130874 58.9409495,57.5130874 58.9409683,57.5130874 Z" transform="rotate(-.23 97.822 60.638)"/>
    <path fill="#CCEBED" d="M58.9935045,68.5553815 L110.054477,68.5565079 C111.785528,68.5565461 113.188875,69.9552698 113.188875,71.6806649 L113.188875,71.6806649 C113.188875,73.40602 111.785683,74.8046836 110.054673,74.8046836 C110.054654,74.8046836 110.054635,74.8046836 110.054617,74.8046836 L58.9936431,74.8035573 C57.2625923,74.8035191 55.8592455,73.4047955 55.8592455,71.6794003 L55.8592455,71.6794003 C55.8592455,69.9540452 57.2624376,68.5553815 58.9934482,68.5553815 C58.993467,68.5553815 58.9934858,68.5553815 58.9935045,68.5553815 Z" transform="rotate(-.23 84.524 71.68)"/>
    <rect width="83.843" height="6.248" x="55.644" y="85.134" fill="#99D6DC" rx="3.124"/>
    <path fill="#CCEBED" d="M59.0959891,95.8904888 L110.156962,95.8916151 C111.888013,95.8916533 113.29136,97.290377 113.29136,99.0157722 L113.29136,99.0157722 C113.29136,100.741127 111.888167,102.139791 110.157157,102.139791 C110.157139,102.139791 110.15712,102.139791 110.157101,102.139791 L59.0961277,102.138664 C57.3650768,102.138627 55.9617301,100.739902 55.9617301,99.0145076 L55.9617301,99.0145076 C55.9617301,97.2891525 57.3649221,95.8904888 59.0959328,95.8904888 C59.0959515,95.8904888 59.0959703,95.8904888 59.0959891,95.8904888 Z" transform="rotate(-.23 84.627 99.015)"/>
    <path fill="#99D6DC" d="M138.428562,112.028907 C139.39676,112.022021 140.184787,113.415101 140.188883,115.140482 C140.192578,116.865823 139.410875,118.270116 138.4427,118.277057 L94.9492039,118.587525 C93.9810065,118.59441 93.1929789,117.201331 93.1888832,115.47595 C93.1851884,113.750609 93.9668915,112.346316 94.9350663,112.339375 L138.428562,112.028907 Z"/>
    <rect width="29" height="6.248" x="97.189" y="123.404" fill="#CCEBED" rx="3.124"/>
    <path fill="#EBEBED" d="M162.731898,165.841953 C168.028542,165.841953 172.328519,170.100437 172.350673,175.367929 C172.366814,179.240534 170.03361,182.740798 166.440667,184.233974 C162.847724,185.72715 158.703997,184.918605 155.944755,182.185959 C153.185513,179.453313 152.355206,175.335769 153.841617,171.756366 C155.328029,168.176963 158.837862,165.841953 162.731898,165.841953 Z M162.64668,137.725081 C165.215235,137.714572 167.682847,138.712252 169.506657,140.498724 C171.330467,142.285196 172.361076,144.714117 172.371841,147.251141 C172.393995,152.534138 168.076098,156.834669 162.727442,156.856751 C157.378785,156.878663 153.02478,152.613797 153.002393,147.3308 C152.980177,142.047803 157.298024,137.747223 162.64668,137.725081 Z"/>
    <path fill="#D7D9DC" d="M98.7864838,139.674482 L138.578377,139.364014 C139.464174,139.357129 140.185136,140.750208 140.188883,142.475589 L140.188883,142.475589 C140.192264,144.20093 139.477089,145.605223 138.591312,145.612165 C138.591302,145.612165 138.591292,145.612165 138.591282,145.612165 L98.7993894,145.922632 C97.9135918,145.929518 97.1926303,144.536439 97.1888832,142.811057 L97.1888832,142.811057 C97.1855028,141.085716 97.9006779,139.681423 98.7864549,139.674482 C98.7864646,139.674482 98.7864742,139.674482 98.7864838,139.674482 Z"/>
    <path fill="#F5F5F6" d="M91.1492998,150.663183 L123.21263,150.459312 C124.29963,150.452427 125.184352,151.845506 125.188883,153.570887 L125.188883,153.570887 C125.193098,155.296228 124.315476,156.700521 123.228502,156.707463 C123.22849,156.707463 123.228479,156.707463 123.228467,156.707463 L91.1651368,156.911333 C90.0781372,156.918219 89.1934151,155.52514 89.1888832,153.799759 L89.1888832,153.799759 C89.1846686,152.074418 90.0622902,150.670124 91.1492644,150.663183 C91.1492762,150.663183 91.149288,150.663183 91.1492998,150.663183 Z"/>
    <path fill="#D7D9DC" d="M59.38232,166.853485 L137.144764,166.8552 C138.875815,166.855239 140.279162,168.253962 140.279162,169.979357 L140.279162,169.979357 C140.279162,171.704712 138.87597,173.103376 137.144959,173.103376 C137.144941,173.103376 137.144922,173.103376 137.144903,173.103376 L59.3824586,173.10166 C57.6514077,173.101623 56.248061,171.702899 56.248061,169.977504 L56.248061,169.977504 C56.248061,168.252149 57.6512531,166.853485 59.3822637,166.853485 C59.3822825,166.853485 59.3823012,166.853485 59.38232,166.853485 Z" transform="rotate(-.23 98.264 169.978)"/>
    <path fill="#F5F5F6" d="M59.4348562,177.903589 L110.495829,177.904716 C112.22688,177.904754 113.630227,179.303478 113.630227,181.028873 L113.630227,181.028873 C113.630227,182.754228 112.227035,184.152891 110.496024,184.152891 C110.496006,184.152891 110.495987,184.152891 110.495968,184.152891 L59.4349948,184.151765 C57.703944,184.151727 56.3005972,182.753003 56.3005972,181.027608 L56.3005972,181.027608 C56.3005972,179.302253 57.7037893,177.903589 59.4348,177.903589 C59.4348187,177.903589 59.4348375,177.903589 59.4348562,177.903589 Z" transform="rotate(-.23 84.965 181.028)"/>
    <path fill="#373F51" d="M80.073161,133.018535 C80.9343651,131.922049 80.9343651,130.388942 80.073161,129.292455 C77.9968191,126.260144 73.1572844,121.029602 66.9677329,121.060644 C60.7781814,121.091964 55.9939107,126.345892 53.9412533,129.230095 C53.0778368,130.389433 53.0778368,131.968329 53.9412533,133.127667 C56.0175951,136.167773 60.8492349,141.39052 67.0387864,141.367214 C73.228338,141.343749 78.0441881,136.074232 80.073161,133.018535 Z M72.1783247,131.186676 C72.1942792,133.246821 70.9509549,135.113319 69.0287783,135.914822 C67.1066019,136.716325 64.8846525,136.294767 63.4002124,134.846947 C61.9157724,133.399126 61.4615936,131.210571 62.2497021,129.302976 C63.0378106,127.39538 64.9127808,126.144947 66.9993123,126.135423 C68.3715042,126.103623 69.6979199,126.623533 70.6744093,127.575934 C71.6508986,128.528334 72.1936917,129.831523 72.1783247,131.186676 L72.1783247,131.186676 Z"/>
    <path fill="#5F6574" d="M13.7007568,158.587286 L51.5744311,158.630156 C53.7832792,158.632656 55.5732879,160.443515 55.5757592,162.678091 L55.5848628,170.907487 C55.5873353,173.145604 53.7958798,174.961986 51.583532,174.964493 C51.5805443,174.964493 51.5775565,174.964493 51.5745686,174.964493 L13.7008943,174.921623 C11.4920463,174.919123 9.70203755,173.108264 9.6995663,170.873688 L9.69046273,162.644292 C9.68799013,160.406175 11.4794457,158.589792 13.6917934,158.587286 C13.6947812,158.587286 13.697769,158.587286 13.7007568,158.587286 Z" transform="rotate(-45.23 32.638 166.776)"/>
    <path fill="#4B5262" d="M32.982807,166.487874 L17.2489148,183.067804 L19.6556626,185.509037 C20.7365402,186.469712 21.887381,186.83237 23.1081849,186.597012 C24.0030402,186.424493 24.5375551,186.194819 25.3242383,185.372247 C25.5657023,185.119767 25.9757782,184.722024 26.5544657,184.179019 L48.5921984,161.847051 C46.5309998,160.30177 44.5348527,158.596878 42.6037571,156.732377 C40.6726615,154.867875 38.8340411,152.870242 37.0878959,150.739476 L33.0498227,154.778594 L32.982807,166.487874 Z"/>
    <path fill="#5F6574" d="M41.9199243,106.030437 C52.2979218,95.6014196 67.9571223,92.4303021 81.5955983,97.9957856 C95.2340744,103.56127 104.165931,116.767314 104.226527,131.455907 C104.286508,146.144499 95.4633552,159.422938 81.8710212,165.099454 C68.2786873,170.775968 52.5939799,167.732654 42.1307208,157.388614 C27.8436794,143.264363 27.7493035,120.270723 41.9199243,106.030437 L41.9199243,106.030437 Z M86.4214071,150.042839 C96.6349933,139.778601 96.5671407,123.205559 86.2698495,113.024744 C75.9725582,102.843929 59.3446985,102.910109 49.1293128,113.172567 C38.9139272,123.435026 38.9788739,140.00808 49.2743799,150.190688 C54.2223179,155.084406 60.919153,157.816901 67.8896831,157.786505 C74.8602132,157.7556 81.5325981,154.964316 86.4370217,150.027276 L86.4214071,150.042839 Z"/>
    <path fill="#EBEBED" d="M182.576766,207.187023 L181.931,207.187023 L103.257833,207.499272 L98.59572,207.499272 L41.9888415,207.756877 C41.4624727,207.746628 40.9617827,207.529477 40.5969701,207.15322 C40.2321575,206.776962 40.0331217,206.272433 40.0436691,205.750679 L39.9964179,193.588595 L39.9964179,185.557585 L35.0713028,181.538205 L35.0713028,186.222489 L35.1264288,193.958449 L35.1894308,211.038449 C35.1793789,212.08962 36.0048559,212.962874 37.0637268,213.021228 L180.663094,212.643568 C181.146394,212.637569 181.608843,212.447502 181.954625,212.112746 C182.362267,211.72259 182.590092,211.183423 182.585168,210.621758 L182.576766,207.187023 Z"/>
  </g>
</svg>
