<?xml version="1.0" encoding="UTF-8"?>
<svg width="236px" height="218px" viewBox="0 0 236 218" version="1.1" xmlns="http://www.w3.org/2000/svg" xmlns:xlink="http://www.w3.org/1999/xlink">
    <!-- Generator: sketchtool 55 (78076) - https://sketchapp.com -->
    <title>9E837525-CF37-4214-A79D-347AAFE91BA3@2x</title>
    <desc>Created with sketchtool.</desc>
    <g id="V_2" stroke="none" stroke-width="1" fill="none" fill-rule="evenodd">
        <g id="Step1_1" transform="translate(-602.000000, -392.000000)">
            <g id="Group-23" transform="translate(164.000000, 392.000000)">
                <g id="Group-17" transform="translate(399.000000, 0.000000)">
                    <g id="resources/illustrations/smartplans" transform="translate(39.000000, 0.000000)">
                        <g id="Asset-2">
                            <path d="M212.0915,102.19809 C212.0915,158.639534 166.282551,204.394762 109.773419,204.39618 C53.2642869,204.397598 7.45303549,158.644669 7.45019596,102.203225 C7.44735643,45.7617814 53.254004,0.00425427329 109.763136,-3.1262756e-14 C136.902223,-0.00408670148 162.931052,10.7616229 182.122008,29.9281471 C201.312964,49.0946712 212.093546,75.0915102 212.0915,102.19809" id="Fill-1-2" fill="#FFEBA7"></path>
                            <path d="M153.191765,32.3533573 L82.0986928,32.3533573 C81.6004136,32.3450959 81.1196837,32.5370341 80.7644102,32.8860886 C80.4091368,33.235143 80.2090817,33.7120728 80.2091503,34.2098238 L80.2091503,200.067001 C105.037163,207.505251 131.76356,205.284388 155.019608,193.850534 L155.019608,34.2098238 C155.019748,33.1964392 154.206225,32.370177 153.191765,32.3533573 Z" id="Path" fill="#FFE27C" fill-rule="nonzero"></path>
                            <path d="M72.1419585,152.892722 L72.1419585,20.4904594 C72.1419585,18.1101767 69.8976449,16.1766784 67.1365993,16.1766784 L54.4959462,16.1766784 C7.74924887,46.1662276 -6.51044509,107.926387 22.3660127,155.33463 L68.9875796,155.604241 C70.6048158,155.71497 72.0106679,154.506493 72.1419585,152.892722 Z" id="Path" fill="#FFE27C" fill-rule="nonzero"></path>
                            <path d="M212.091505,102.198091 C212.118675,71.1114666 197.949584,41.70966 173.606539,22.3392224 L168.130722,22.3392224 C166.819559,22.324843 165.556387,22.8313266 164.619129,23.7472365 C163.681871,24.6631465 163.147315,25.9134441 163.133075,27.2230386 L163.133075,176.734063 C163.133011,177.557984 163.463321,178.347612 164.050232,178.926582 C164.637143,179.505553 165.431759,179.825634 166.256605,179.815335 L176.236474,179.884663 C199.010612,160.489796 212.117683,132.090896 212.091505,102.198091 Z" id="Path" fill="#FFE27C" fill-rule="nonzero"></path>
                            <path d="M150.916602,165.040636 L84.6669272,165.040636 C83.815037,165.040636 83.1244435,164.35087 83.1244435,163.5 L83.1244435,33.0620481 L152.459085,33.0620481 L152.459085,163.5 C152.459085,164.35087 151.768492,165.040636 150.916602,165.040636 Z" id="Path" fill="#FFFFFF"></path>
                            <rect id="Rectangle" fill="#99D6DC" fill-rule="nonzero" x="83.1244435" y="83.4485526" width="69.3423558" height="7.15625439"></rect>
                            <path d="M83.1244435,90.6048078 L152.466799,90.6048078 L152.466799,216.45937 C152.466799,217.31024 151.776206,218.000006 150.924316,218.000006 L84.6977769,218.000006 C83.8458867,218.000006 83.1552932,217.31024 83.1552932,216.45937 L83.1552932,90.6048078 L83.1244435,90.6048078 Z" id="Path" fill="#E5F4F6" fill-rule="nonzero"></path>
                            <rect id="Rectangle" fill="#EBEBED" fill-rule="nonzero" x="133.278299" y="39.070531" width="12.8951629" height="7.15625439" rx="2.5"></rect>
                            <rect id="Rectangle" fill="#878C97" fill-rule="nonzero" x="135.013593" y="40.6188689" width="4.29581713" height="4.29067151" rx="1.5"></rect>
                            <rect id="Rectangle" fill="#D7D9DC" fill-rule="nonzero" x="88.8547705" y="39.070531" width="34.3973844" height="7.15625439" rx="2.5"></rect>
                            <rect id="Rectangle" fill="#D7D9DC" fill-rule="nonzero" x="88.8547705" y="67.7032504" width="15.7641834" height="5.72346277" rx="2"></rect>
                            <rect id="Rectangle" fill="#D7D9DC" fill-rule="nonzero" x="109.632021" y="67.7032504" width="15.7641834" height="5.72346277" rx="2"></rect>
                            <rect id="Rectangle" fill="#D7D9DC" fill-rule="nonzero" x="130.416998" y="67.7032504" width="15.7641834" height="5.72346277" rx="2"></rect>
                            <rect id="Rectangle" fill="#D7D9DC" fill-rule="nonzero" x="88.8547705" y="50.5251562" width="57.3264066" height="12.8797168" rx="2.5"></rect>
                            <rect id="Rectangle" fill="#33ADB9" fill-rule="nonzero" x="83.1244435" y="83.4485526" width="34.3973844" height="7.15625439"></rect>
                            <rect id="Rectangle" fill="#AFB2B9" fill-rule="nonzero" x="104.61895" y="97.7610629" width="40.1277115" height="2.86558306" rx="1"></rect>
                            <rect id="Rectangle" fill="#D7D9DC" fill-rule="nonzero" transform="translate(94.615945, 153.112267) rotate(90.000000) translate(-94.615945, -153.112267) " x="43.7409805" y="152.395871" width="101.749929" height="1.43279153" rx="0.5"></rect>
                            <rect id="Rectangle" fill="#D7D9DC" fill-rule="nonzero" x="104.61895" y="103.48452" width="29.4305881" height="2.86558306" rx="1"></rect>
                            <ellipse id="Oval" fill="#FFCE24" fill-rule="nonzero" cx="94.5850972" cy="153.347208" rx="5.73032666" ry="5.72346277"></ellipse>
                            <path d="M94.5850974,150.481625 C95.7462043,150.478507 96.7947177,151.174704 97.2412185,152.245249 C97.6877193,153.315793 97.4441655,154.549593 96.6242417,155.370742 C95.8043179,156.191891 94.5696987,156.438473 93.4966723,155.99539 C92.423646,155.552308 91.7237944,154.506928 91.7237902,153.347208 C91.7280028,151.769339 93.0053529,150.49008 94.5850974,150.481625 L94.5850974,150.481625 Z M94.5850972,147.623745 C91.4203252,147.623745 88.8547705,150.186227 88.8547705,153.347208 C88.8547705,156.508189 91.4203252,159.070671 94.5850972,159.070671 C97.7498692,159.070671 100.315424,156.508189 100.315424,153.347208 C100.315424,150.186227 97.7498692,147.623745 94.5850972,147.623745 Z" id="Shape" fill="#FFF5D3" fill-rule="nonzero"></path>
                            <rect id="Rectangle" fill="#AFB2B9" fill-rule="nonzero" x="104.61895" y="114.862121" width="40.1277115" height="2.86558306" rx="1"></rect>
                            <rect id="Rectangle" fill="#D7D9DC" fill-rule="nonzero" x="104.61895" y="120.585578" width="29.4305881" height="2.86558306" rx="1"></rect>
                            <ellipse id="Oval" fill="#EC7618" fill-rule="nonzero" cx="94.5850972" cy="119.152791" rx="5.73032666" ry="5.72346277"></ellipse>
                            <path d="M94.5850974,116.318016 C95.7462043,116.314898 96.7947177,117.011095 97.2412185,118.08164 C97.6877193,119.152184 97.4441655,120.385984 96.6242417,121.207133 C95.8043179,122.028282 94.5696987,122.274864 93.4966723,121.831781 C92.423646,121.388699 91.7237944,120.343319 91.7237902,119.183599 C91.7280028,117.60573 93.0053529,116.326471 94.5850974,116.318016 L94.5850974,116.318016 Z M94.5850972,113.460136 C91.4203252,113.460136 88.8547705,116.022618 88.8547705,119.183599 C88.8547705,122.34458 91.4203252,124.907062 94.5850972,124.907062 C97.7498692,124.907062 100.315424,122.34458 100.315424,119.183599 C100.315424,116.022618 97.7498692,113.460136 94.5850972,113.460136 L94.5850972,113.460136 Z" id="Shape" fill="#FCE9DA" fill-rule="nonzero"></path>
                            <rect id="Rectangle" fill="#AFB2B9" fill-rule="nonzero" x="104.61895" y="131.955479" width="40.1277115" height="2.86558306" rx="1"></rect>
                            <rect id="Rectangle" fill="#D7D9DC" fill-rule="nonzero" x="104.61895" y="137.678937" width="29.4305881" height="2.86558306" rx="1"></rect>
                            <ellipse id="Oval" fill="#F1335C" fill-rule="nonzero" cx="94.5850972" cy="136.253849" rx="5.73032666" ry="5.72346277"></ellipse>
                            <path d="M94.5850961,133.388264 C95.746203,133.385146 96.7947164,134.081343 97.2412172,135.151888 C97.687718,136.222432 97.4441642,137.456232 96.6242404,138.277381 C95.8043167,139.09853 94.5696974,139.345112 93.496671,138.902029 C92.4236447,138.458947 91.7237931,137.413567 91.7237889,136.253847 C91.7280015,134.675978 93.0053516,133.396719 94.5850961,133.388264 L94.5850961,133.388264 Z M94.5850962,130.522681 C92.2635767,130.519564 90.1689135,131.91394 89.2783435,134.055282 C88.3877735,136.196623 88.8767903,138.662962 90.5172497,140.303662 C92.157709,141.944361 94.626346,142.436109 96.7714514,141.549487 C98.9165567,140.662864 100.315421,138.572588 100.315423,136.253847 C100.315426,133.091617 97.7511155,130.526931 94.5850962,130.522681 Z" id="Shape" fill="#FCCCD6" fill-rule="nonzero"></path>
                            <rect id="Rectangle" fill="#AFB2B9" fill-rule="nonzero" x="104.61895" y="149.056537" width="40.1277115" height="2.86558306" rx="1"></rect>
                            <rect id="Rectangle" fill="#D7D9DC" fill-rule="nonzero" x="104.61895" y="154.779994" width="29.4305881" height="2.86558306" rx="1"></rect>
                            <rect id="Rectangle" fill="#AFB2B9" fill-rule="nonzero" x="104.61895" y="166.311656" width="40.1277115" height="2.86558306" rx="1"></rect>
                            <rect id="Rectangle" fill="#D7D9DC" fill-rule="nonzero" x="104.61895" y="172.035125" width="29.4305881" height="2.86558306" rx="1"></rect>
                            <rect id="Rectangle" fill="#AFB2B9" fill-rule="nonzero" x="104.61895" y="183.443533" width="40.1277115" height="2.86558306" rx="1"></rect>
                            <rect id="Rectangle" fill="#D7D9DC" fill-rule="nonzero" x="104.61895" y="189.174701" width="29.4305881" height="2.86558306" rx="1"></rect>
                            <rect id="Rectangle" fill="#AFB2B9" fill-rule="nonzero" x="104.61895" y="200.583121" width="40.1277115" height="2.86558306" rx="1"></rect>
                            <rect id="Rectangle" fill="#D7D9DC" fill-rule="nonzero" x="104.61895" y="206.306578" width="29.4305881" height="2.86558306" rx="1"></rect>
                            <ellipse id="Oval" fill="#00DDA6" fill-rule="nonzero" cx="94.5850972" cy="102.051734" rx="5.73032666" ry="5.72346277"></ellipse>
                            <path d="M94.5850976,99.1938533 C95.7469055,99.1907381 96.7959055,99.8877706 97.2419521,100.959262 C97.6879987,102.030754 97.4430281,103.265158 96.6215029,104.085699 C95.7999777,104.90624 94.5640932,105.150917 93.4913165,104.705405 C92.4185399,104.259893 91.7206715,103.212149 91.7237905,102.051733 C91.7280281,100.475126 93.0065999,99.1980859 94.5850976,99.1938533 L94.5850976,99.1938533 Z M94.5850977,96.3282702 C92.2628768,96.3251548 90.1677264,97.7203654 89.2776094,99.8626533 C88.3874925,102.004941 88.8779244,104.471885 90.519984,106.111978 C92.1620437,107.75207 94.6319458,108.241915 96.7768028,107.352864 C98.9216598,106.463813 100.318544,104.371172 100.315425,102.051733 C100.315425,98.8907519 97.7498698,96.3282702 94.5850977,96.3282702 L94.5850977,96.3282702 Z" id="Shape" fill="#CCF8ED" fill-rule="nonzero"></path>
                            <ellipse id="Oval" fill="#33ADB9" fill-rule="nonzero" cx="94.5850972" cy="170.602327" rx="5.73032666" ry="5.72346277"></ellipse>
                            <path d="M94.5850976,167.744452 C95.7469055,167.741337 96.7959055,168.43837 97.2419521,169.509861 C97.6879987,170.581353 97.4430281,171.815757 96.6215029,172.636298 C95.7999777,173.456839 94.5640932,173.701517 93.4913165,173.256004 C92.4185399,172.810492 91.7206715,171.762748 91.7237905,170.602332 C91.7280281,169.025725 93.0065999,167.748685 94.5850976,167.744452 L94.5850976,167.744452 Z M94.5850977,164.878869 C92.2628768,164.875754 90.1677264,166.270965 89.2776094,168.413252 C88.3874925,170.55554 88.8779244,173.022484 90.519984,174.662577 C92.1620437,176.302669 94.6319458,176.792514 96.7768028,175.903463 C98.9216598,175.014412 100.318544,172.921772 100.315425,170.602332 C100.315425,167.441351 97.7498698,164.878869 94.5850977,164.878869 Z" id="Shape" fill="#CCEBED" fill-rule="nonzero"></path>
                            <ellipse id="Oval" fill="#9290D9" fill-rule="nonzero" cx="94.5850972" cy="187.741903" rx="5.73032666" ry="5.72346277"></ellipse>
                            <path d="M94.5850974,184.87632 C95.7462043,184.873202 96.7947177,185.569399 97.2412185,186.639944 C97.6877193,187.710488 97.4441655,188.944288 96.6242417,189.765437 C95.8043179,190.586586 94.5696987,190.833168 93.4966723,190.390085 C92.423646,189.947003 91.7237944,188.901623 91.7237902,187.741903 C91.7280028,186.164034 93.0053529,184.884775 94.5850974,184.87632 L94.5850974,184.87632 Z M94.5850972,182.01844 C91.4203252,182.01844 88.8547705,184.580922 88.8547705,187.741903 C88.8547705,190.902884 91.4203252,193.465366 94.5850972,193.465366 C97.7498692,193.465366 100.315424,190.902884 100.315424,187.741903 C100.315424,184.580922 97.7498692,182.01844 94.5850972,182.01844 L94.5850972,182.01844 Z" id="Shape" fill="#E4E3F5" fill-rule="nonzero"></path>
                            <ellipse id="Oval" fill="#FC6A59" fill-rule="nonzero" cx="94.5850972" cy="204.881491" rx="5.73032666" ry="5.72346277"></ellipse>
                            <path d="M94.5850961,202.015905 C95.746203,202.012788 96.7947164,202.708985 97.2412172,203.779529 C97.687718,204.850073 97.4441642,206.083873 96.6242404,206.905022 C95.8043167,207.726171 94.5696974,207.972753 93.496671,207.529671 C92.4236447,207.086588 91.7237931,206.041208 91.7237889,204.881488 C91.7280015,203.303619 93.0053516,202.02436 94.5850961,202.015905 L94.5850961,202.015905 Z M94.5850962,199.150322 C92.2635767,199.147206 90.1689135,200.541582 89.2783435,202.682923 C88.3877735,204.824265 88.8767903,207.290604 90.5172497,208.931303 C92.157709,210.572003 94.626346,211.063751 96.7714514,210.177128 C98.9165567,209.290506 100.315421,207.200229 100.315423,204.881488 C100.315426,201.719259 97.7511155,199.154573 94.5850962,199.150322 Z" id="Shape" fill="#FEE1DE" fill-rule="nonzero"></path>
                            <path d="M84.6669272,26.1908127 L150.908887,26.1908127 C151.760778,26.1908127 152.451371,26.880579 152.451371,27.7314487 L152.451371,33.3393638 L83.1244435,33.3393638 L83.1244435,27.7314487 C83.1244435,26.880579 83.815037,26.1908127 84.6669272,26.1908127 Z" id="Path" fill="#373F51" fill-rule="nonzero"></path>
                            <polygon id="Path" fill="#D7D9DC" fill-rule="nonzero" points="83.1244435 90.6048061 152.459085 90.6048061 152.459085 92.0298945 83.1244435 92.0298945 83.1244435 90.5971029"></polygon>
                            <g id="Group" transform="translate(0.000000, 13.865724)">
                                <path d="M67.799872,138.849825 L1.54248372,138.849825 C0.690593486,138.849825 1.04326465e-16,138.160059 0,137.309189 L0,6.87123681 L69.3423558,6.87123681 L69.3423558,137.309189 C69.3423558,138.160059 68.6517623,138.849825 67.799872,138.849825 Z" id="Path" fill="#FFFFFF"></path>
                                <rect id="Rectangle" fill="#99D6DC" fill-rule="nonzero" x="0" y="57.2577399" width="69.3423558" height="7.15625439"></rect>
                                <path d="M0,64.413995 L69.3423558,64.413995 L69.3423558,137.309187 C69.3423558,138.160057 68.6517623,138.849823 67.799872,138.849823 L1.54248372,138.849823 C0.690593486,138.849823 1.04326465e-16,138.160057 0,137.309187 L0,64.413995 Z" id="Path" fill="#E5F4F6" fill-rule="nonzero"></path>
                                <rect id="Rectangle" fill="#CCF8ED" fill-rule="nonzero" x="50.1615693" y="12.8797168" width="12.8951629" height="7.15625439" rx="2.5"></rect>
                                <rect id="Rectangle" fill="#00C392" fill-rule="nonzero" x="57.6194764" y="14.4280562" width="4.29581713" height="4.29067151" rx="1.5"></rect>
                                <rect id="Rectangle" fill="#D7D9DC" fill-rule="nonzero" x="5.73032666" y="12.8797168" width="34.3973844" height="7.15625439" rx="2.5"></rect>
                                <rect id="Rectangle" fill="#D7D9DC" fill-rule="nonzero" x="5.73032666" y="41.5124377" width="15.7641834" height="5.72346277" rx="2"></rect>
                                <rect id="Rectangle" fill="#D7D9DC" fill-rule="nonzero" x="26.5152949" y="41.5124377" width="15.7641834" height="5.72346277" rx="2"></rect>
                                <rect id="Rectangle" fill="#D7D9DC" fill-rule="nonzero" x="47.2925488" y="41.5124377" width="15.7641834" height="5.72346277" rx="2"></rect>
                                <rect id="Rectangle" fill="#D7D9DC" fill-rule="nonzero" x="5.73032666" y="24.3343464" width="57.3264066" height="12.8797168" rx="2.5"></rect>
                                <rect id="Rectangle" fill="#33ADB9" fill-rule="nonzero" x="0" y="57.2577399" width="34.3973844" height="7.15625439"></rect>
                                <rect id="Rectangle" fill="#AFB2B9" fill-rule="nonzero" x="21.4945105" y="71.5702502" width="40.1277115" height="2.86558306" rx="1"></rect>
                                <rect id="Rectangle" fill="#D7D9DC" fill-rule="nonzero" transform="translate(11.499215, 99.124523) rotate(90.000000) translate(-11.499215, -99.124523) " x="-11.5454904" y="98.4081272" width="46.0894105" height="1.43279153" rx="0.5"></rect>
                                <rect id="Rectangle" fill="#D7D9DC" fill-rule="nonzero" x="21.4945105" y="77.2937074" width="29.4305881" height="2.86558306" rx="1"></rect>
                                <ellipse id="Oval" fill="#FC6A59" fill-rule="nonzero" cx="11.4683659" cy="75.8609209" rx="5.73032666" ry="5.72346277"></ellipse>
                                <path d="M11.468366,73.0030405 C12.629477,73.0030447 13.6761102,73.702058 14.1197242,74.7737991 C14.5633383,75.8455401 14.3164602,77.0786806 13.4943265,77.8976222 C12.6721928,78.7165638 11.4369135,78.9598259 10.3650852,78.5138599 C9.29325691,78.067894 8.59622517,77.0206365 8.59934644,75.8609204 C8.6035978,74.2813117 9.88685724,73.0030348 11.468366,73.0030405 L11.468366,73.0030405 Z M11.4683661,70.1374575 C9.14614514,70.1343421 7.05099472,71.5295527 6.16087776,73.6718406 C5.27076081,75.8141285 5.76119274,78.2810721 7.4032524,79.9211648 C9.04531206,81.5612576 11.5152142,82.0511021 13.6600712,81.1620513 C15.8049282,80.2730006 17.2018121,78.1803598 17.1986929,75.8609204 C17.1944444,72.7016985 14.6313767,70.1417009 11.4683661,70.1374575 L11.4683661,70.1374575 Z" id="Shape" fill="#FEE1DE" fill-rule="nonzero"></path>
                                <rect id="Rectangle" fill="#AFB2B9" fill-rule="nonzero" x="21.4945105" y="88.6713079" width="40.1277115" height="2.86558306" rx="1"></rect>
                                <rect id="Rectangle" fill="#D7D9DC" fill-rule="nonzero" x="21.4945105" y="94.394771" width="29.4305881" height="2.86558306" rx="1"></rect>
                                <ellipse id="Oval" fill="#33ADB9" fill-rule="nonzero" cx="11.4683659" cy="92.9619787" rx="5.73032666" ry="5.72346277"></ellipse>
                                <path d="M11.4683661,90.1272092 C13.0528819,90.1272092 14.3373857,91.4101745 14.3373857,92.9927923 C14.3373857,94.5754101 13.0528819,95.8583753 11.4683661,95.8583753 C9.88385032,95.8583753 8.59934648,94.5754101 8.59934648,92.9927923 C8.59934648,91.4101745 9.88385032,90.1272092 11.4683661,90.1272092 L11.4683661,90.1272092 Z M11.4683659,87.2693293 C8.3035939,87.2693293 5.73803926,89.8318109 5.73803926,92.9927921 C5.73803926,96.1537733 8.3035939,98.7162549 11.4683659,98.7162549 C14.633138,98.7162549 17.1986926,96.1537733 17.1986926,92.9927921 C17.1944441,89.8335702 14.6313765,87.2735727 11.4683659,87.2693293 Z" id="Shape" fill="#CCEBED" fill-rule="nonzero"></path>
                                <rect id="Rectangle" fill="#AFB2B9" fill-rule="nonzero" x="21.4945105" y="105.764667" width="40.1277115" height="2.86558306" rx="1"></rect>
                                <rect id="Rectangle" fill="#D7D9DC" fill-rule="nonzero" x="21.4945105" y="111.488124" width="29.4305881" height="2.86558306" rx="1"></rect>
                                <ellipse id="Oval" fill="#F1335C" fill-rule="nonzero" cx="11.4683659" cy="110.063036" rx="5.73032666" ry="5.72346277"></ellipse>
                                <path d="M11.4683659,107.197451 C13.0528817,107.197451 14.3373856,108.480416 14.3373856,110.063034 C14.3373856,111.645652 13.0528817,112.928617 11.4683659,112.928617 C9.88385014,112.928617 8.59934629,111.645652 8.59934629,110.063034 C8.59934629,108.480416 9.88385014,107.197451 11.4683659,107.197451 L11.4683659,107.197451 Z M11.4683661,104.331868 C9.14684652,104.328752 7.05218335,105.723128 6.16161334,107.864469 C5.27104333,110.00581 5.7600601,112.47215 7.40051949,114.112849 C9.04097887,115.753549 11.5096158,116.245296 13.6547212,115.358674 C15.7998265,114.472052 17.1986909,112.381775 17.198693,110.063034 C17.1986958,106.900804 14.6343854,104.336118 11.4683661,104.331868 L11.4683661,104.331868 Z" id="Shape" fill="#FCCCD6" fill-rule="nonzero"></path>
                                <rect id="Rectangle" fill="#AFB2B9" fill-rule="nonzero" x="21.4945105" y="122.865724" width="40.1277115" height="2.86558306" rx="1"></rect>
                                <rect id="Rectangle" fill="#D7D9DC" fill-rule="nonzero" x="21.4945105" y="128.589182" width="29.4305881" height="2.86558306" rx="1"></rect>
                                <ellipse id="Oval" fill="#00DDA6" fill-rule="nonzero" cx="11.4683659" cy="127.156395" rx="5.73032666" ry="5.72346277"></ellipse>
                                <path d="M11.4683661,124.290812 C13.0528819,124.290812 14.3373857,125.573778 14.3373857,127.156395 C14.3373857,128.739013 13.0528819,130.021978 11.4683661,130.021978 C9.88385032,130.021978 8.59934648,128.739013 8.59934648,127.156395 C8.59934648,125.573778 9.88385032,124.290812 11.4683661,124.290812 L11.4683661,124.290812 Z M11.4683659,121.432932 C8.3035939,121.432932 5.73803926,123.995414 5.73803926,127.156395 C5.73803926,130.317376 8.3035939,132.879858 11.4683659,132.879858 C14.633138,132.879858 17.1986926,130.317376 17.1986926,127.156395 C17.1944441,123.997173 14.6313765,121.437176 11.4683659,121.432932 Z" id="Shape" fill="#CCF8ED" fill-rule="nonzero"></path>
                                <path d="M1.54248365,0 L67.784444,0 C68.6363342,0 69.3269276,0.689766231 69.3269276,1.540636 L69.3269276,7.14855103 L0,7.14855103 L0,1.540636 C-1.0432646e-16,0.689766231 0.690593453,0 1.54248365,0 Z" id="Path" fill="#373F51" fill-rule="nonzero"></path>
                                <polygon id="Path" fill="#D7D9DC" fill-rule="nonzero" points="0 64.4139934 69.3346417 64.4139934 69.3346417 65.8390818 0 65.8390818 0 64.4062902"></polygon>
                                <path d="M234.041051,145.012369 L167.783663,145.012369 C166.931772,145.012369 166.241179,144.322603 166.241179,143.471733 L166.241179,13.033781 L235.583535,13.033781 L235.583535,143.471733 C235.583535,143.880335 235.421023,144.272202 235.131752,144.561127 C234.84248,144.850052 234.450143,145.012369 234.041051,145.012369 Z" id="Path" fill="#FFFFFF"></path>
                                <rect id="Rectangle" fill="#99D6DC" fill-rule="nonzero" x="166.241179" y="63.4202841" width="69.3423558" height="7.15625439"></rect>
                                <path d="M166.241179,70.5765392 L235.583535,70.5765392 L235.583535,160.649826 C235.583535,161.500695 234.892941,162.190462 234.041051,162.190462 L167.822225,162.190462 C166.970334,162.190462 166.279741,161.500695 166.279741,160.649826 L166.279741,70.5765392 L166.241179,70.5765392 Z" id="Path" fill="#E5F4F6" fill-rule="nonzero"></path>
                                <rect id="Rectangle" fill="#EBEBED" fill-rule="nonzero" x="216.402742" y="19.042261" width="12.8951629" height="7.15625439" rx="2.5"></rect>
                                <rect id="Rectangle" fill="#878C97" fill-rule="nonzero" x="218.130316" y="20.5906004" width="4.29581713" height="4.29067151" rx="1.5"></rect>
                                <rect id="Rectangle" fill="#D7D9DC" fill-rule="nonzero" x="171.97922" y="19.042261" width="34.3973844" height="7.15625439" rx="2.5"></rect>
                                <rect id="Rectangle" fill="#D7D9DC" fill-rule="nonzero" x="171.97922" y="47.6749819" width="15.7641834" height="5.72346277" rx="2"></rect>
                                <rect id="Rectangle" fill="#D7D9DC" fill-rule="nonzero" x="192.756465" y="47.6749819" width="15.7641834" height="5.72346277" rx="2"></rect>
                                <rect id="Rectangle" fill="#D7D9DC" fill-rule="nonzero" x="213.533722" y="47.6749819" width="15.7641834" height="5.72346277" rx="2"></rect>
                                <rect id="Rectangle" fill="#D7D9DC" fill-rule="nonzero" x="171.97922" y="30.4968906" width="57.3264066" height="12.8797168" rx="2.5"></rect>
                                <rect id="Rectangle" fill="#33ADB9" fill-rule="nonzero" x="166.241179" y="63.4202841" width="34.3973844" height="7.15625439"></rect>
                                <rect id="Rectangle" fill="#AFB2B9" fill-rule="nonzero" x="187.743393" y="77.7327943" width="40.1277115" height="2.86558306" rx="1"></rect>
                                <rect id="Rectangle" fill="#D7D9DC" fill-rule="nonzero" transform="translate(177.732686, 117.935688) rotate(90.000000) translate(-177.732686, -117.935688) " x="144.769809" y="117.219292" width="65.9257542" height="1.43279153" rx="0.5"></rect>
                                <rect id="Rectangle" fill="#D7D9DC" fill-rule="nonzero" x="187.743393" y="83.4562516" width="29.4305881" height="2.86558306" rx="1"></rect>
                                <ellipse id="Oval" fill="#FC6A59" fill-rule="nonzero" cx="177.709547" cy="82.0234651" rx="5.73032666" ry="5.72346277"></ellipse>
                                <path d="M177.709541,79.1655847 C178.870652,79.1655889 179.917285,79.8646022 180.360899,80.9363432 C180.804513,82.0080843 180.557635,83.2412247 179.735502,84.0601664 C178.913368,84.879108 177.678089,85.1223701 176.60626,84.6764041 C175.534432,84.2304381 174.8374,83.1831807 174.840522,82.0234646 C174.844773,80.4438559 176.128032,79.165579 177.709541,79.1655847 L177.709541,79.1655847 Z M177.709541,76.3000017 C175.38732,76.2968862 173.29217,77.6920969 172.402053,79.8343848 C171.511936,81.9766726 172.002368,84.4436162 173.644428,86.083709 C175.286487,87.7238018 177.756389,88.2136462 179.901246,87.3245955 C182.046103,86.4355447 183.442987,84.3429039 183.439868,82.0234646 C183.439868,78.8624833 180.874313,76.3000017 177.709541,76.3000017 L177.709541,76.3000017 Z" id="Shape" fill="#FEE1DE" fill-rule="nonzero"></path>
                                <rect id="Rectangle" fill="#AFB2B9" fill-rule="nonzero" x="187.743393" y="94.8338521" width="40.1277115" height="2.86558306" rx="1"></rect>
                                <rect id="Rectangle" fill="#D7D9DC" fill-rule="nonzero" x="187.743393" y="100.557309" width="29.4305881" height="2.86558306" rx="1"></rect>
                                <ellipse id="Oval" fill="#00DDA6" fill-rule="nonzero" cx="177.709547" cy="99.1245228" rx="5.73032666" ry="5.72346277"></ellipse>
                                <path d="M177.709547,96.2897534 C179.294063,96.2897534 180.578566,97.5727186 180.578566,99.1553364 C180.578566,100.737954 179.294063,102.02092 177.709547,102.02092 C176.125031,102.02092 174.840527,100.737954 174.840527,99.1553364 C174.840527,97.5727186 176.125031,96.2897534 177.709547,96.2897534 L177.709547,96.2897534 Z M177.709547,93.4318735 C174.544775,93.4318735 171.97922,95.9943551 171.97922,99.1553363 C171.97922,102.316317 174.544775,104.878799 177.709547,104.878799 C180.874319,104.878799 183.439873,102.316317 183.439873,99.1553363 C183.439873,95.9943551 180.874319,93.4318735 177.709547,93.4318735 L177.709547,93.4318735 Z" id="Shape" fill="#CCF8ED" fill-rule="nonzero"></path>
                                <rect id="Rectangle" fill="#AFB2B9" fill-rule="nonzero" x="187.743393" y="111.927211" width="40.1277115" height="2.86558306" rx="1"></rect>
                                <rect id="Rectangle" fill="#D7D9DC" fill-rule="nonzero" x="187.743393" y="117.650668" width="29.4305881" height="2.86558306" rx="1"></rect>
                                <ellipse id="Oval" fill="#33ADB9" fill-rule="nonzero" cx="177.709547" cy="116.225581" rx="5.73032666" ry="5.72346277"></ellipse>
                                <path d="M177.709545,113.359995 C179.294061,113.359995 180.578565,114.642961 180.578565,116.225578 C180.578565,117.808196 179.294061,119.091161 177.709545,119.091161 C176.12503,119.091161 174.840526,117.808196 174.840526,116.225578 C174.840526,114.642961 176.12503,113.359995 177.709545,113.359995 L177.709545,113.359995 Z M177.709546,110.494412 C175.388026,110.491296 173.293363,111.885672 172.402793,114.027013 C171.512223,116.168355 172.00124,118.634694 173.641699,120.275393 C175.282158,121.916093 177.750795,122.407841 179.895901,121.521218 C182.041006,120.634596 183.43987,118.544319 183.439872,116.225578 C183.44192,114.706287 182.839095,113.248522 181.764228,112.173498 C180.689361,111.098474 179.23066,110.494411 177.709546,110.494412 Z" id="Shape" fill="#CCEBED" fill-rule="nonzero"></path>
                                <rect id="Rectangle" fill="#AFB2B9" fill-rule="nonzero" x="187.743393" y="129.028269" width="40.1277115" height="2.86558306" rx="1"></rect>
                                <rect id="Rectangle" fill="#D7D9DC" fill-rule="nonzero" x="187.743393" y="134.751726" width="29.4305881" height="2.86558306" rx="1"></rect>
                                <rect id="Rectangle" fill="#AFB2B9" fill-rule="nonzero" x="187.743393" y="146.198652" width="40.1277115" height="2.86558306" rx="1"></rect>
                                <rect id="Rectangle" fill="#D7D9DC" fill-rule="nonzero" x="187.743393" y="151.92982" width="29.4305881" height="2.86558306" rx="1"></rect>
                                <ellipse id="Oval" fill="#EC7618" fill-rule="nonzero" cx="177.709547" cy="133.318939" rx="5.73032666" ry="5.72346277"></ellipse>
                                <path d="M177.709547,130.453356 C179.294063,130.453356 180.578566,131.736322 180.578566,133.31894 C180.578566,134.901557 179.294063,136.184523 177.709547,136.184523 C176.125031,136.184523 174.840527,134.901557 174.840527,133.31894 C174.840527,131.736322 176.125031,130.453356 177.709547,130.453356 L177.709547,130.453356 Z M177.709547,127.595477 C174.544775,127.595477 171.97922,130.157958 171.97922,133.318939 C171.97922,136.479921 174.544775,139.042402 177.709547,139.042402 C180.874319,139.042402 183.439873,136.479921 183.439873,133.318939 C183.439873,130.157958 180.874319,127.595477 177.709547,127.595477 Z" id="Shape" fill="#FCE9DA" fill-rule="nonzero"></path>
                                <ellipse id="Oval" fill="#9290D9" fill-rule="nonzero" cx="177.709547" cy="150.574058" rx="5.73032666" ry="5.72346277"></ellipse>
                                <path d="M177.709541,147.716184 C178.870652,147.716188 179.917285,148.415201 180.360899,149.486942 C180.804513,150.558683 180.557635,151.791824 179.735502,152.610765 C178.913368,153.429707 177.678089,153.672969 176.60626,153.227003 C175.534432,152.781037 174.8374,151.73378 174.840522,150.574064 C174.840519,149.81477 175.143036,149.086688 175.681304,148.550509 C176.219572,148.014331 176.94934,147.714137 177.709541,147.716184 L177.709541,147.716184 Z M177.709541,144.850601 C175.38732,144.847485 173.29217,146.242696 172.402053,148.384984 C171.511936,150.527272 172.002368,152.994215 173.644428,154.634308 C175.286487,156.274401 177.756389,156.764245 179.901246,155.875195 C182.046103,154.986144 183.442987,152.893503 183.439868,150.574064 C183.439868,147.413082 180.874313,144.850601 177.709541,144.850601 L177.709541,144.850601 Z" id="Shape" fill="#E4E3F5" fill-rule="nonzero"></path>
                                <path d="M167.783662,6.16254417 L234.025623,6.16254417 C234.877513,6.16254417 235.568106,6.8523104 235.568106,7.70318017 L235.568106,13.3110952 L166.241179,13.3110952 L166.241179,7.70318017 C166.241179,6.8523104 166.931772,6.16254417 167.783662,6.16254417 Z" id="Path" fill="#373F51" fill-rule="nonzero"></path>
                                <polygon id="Path" fill="#D7D9DC" fill-rule="nonzero" points="166.241179 70.5765376 235.575821 70.5765376 235.575821 72.0016259 166.241179 72.0016259 166.241179 70.5688344"></polygon>
                            </g>
                        </g>
                    </g>
                </g>
            </g>
        </g>
    </g>
</svg>