<?xml version="1.0" encoding="UTF-8"?>
<svg width="40px" height="37px" viewBox="0 0 40 37" version="1.1" xmlns="http://www.w3.org/2000/svg" xmlns:xlink="http://www.w3.org/1999/xlink">
    <!-- Generator: sketchtool 55 (78076) - https://sketchapp.com -->
    <title>123ED28A-E984-4EE9-8E39-8D13E86FBFD2@2x</title>
    <desc>Created with sketchtool.</desc>
    <g id="-V_2" stroke="none" stroke-width="1" fill="none" fill-rule="evenodd">
        <g id="Step3_13" transform="translate(-527.000000, -341.000000)">
            <g id="resources/illustrations/smartplans" transform="translate(527.000000, 341.000000)">
                <g id="Asset-2">
                    <path d="M35.9477119,17.3217108 C35.9477119,26.8880576 28.1834831,34.6431812 18.6056642,34.6434216 C9.02784523,34.6436619 1.26322635,26.8889279 1.26274508,17.3225812 C1.2622638,7.75623442 9.02610237,0.000721063297 18.6039213,-5.29877241e-15 C23.2037666,-0.000692661294 27.6154325,1.82400395 30.8681369,5.07256748 C34.1208414,8.32113102 35.9480587,12.7273751 35.9477119,17.3217108" id="Fill-1-2" fill="#FFEBA7"></path>
                    <path d="M25.9647059,5.48362008 L13.9150327,5.48362008 C13.8305786,5.48221984 13.7490989,5.51475175 13.6888831,5.57391352 C13.6286673,5.63307529 13.5947596,5.71391086 13.5947712,5.79827543 L13.5947712,33.9096624 C17.8029089,35.1703828 22.3328067,34.7939654 26.2745098,32.8560239 L26.2745098,5.79827543 C26.2745335,5.62651533 26.1366483,5.48647087 25.9647059,5.48362008 Z" id="Path" fill="#FFE27C" fill-rule="nonzero"></path>
                    <path d="M12.2274506,25.9140216 L12.2274506,3.47295935 C12.2274506,3.06952159 11.8470585,2.74181001 11.3790846,2.74181001 L9.23660104,2.74181001 C1.31343201,7.82478462 -1.10346527,18.2926086 3.79084962,26.3279044 L11.6928101,26.3736012 C11.9669179,26.3923688 12.205198,26.1875421 12.2274506,25.9140216 Z" id="Path" fill="#FFE27C" fill-rule="nonzero"></path>
                    <path d="M35.9477128,17.321711 C35.9523178,12.0527914 33.550777,7.06943415 29.4248371,3.78630902 L28.4967326,3.78630902 C28.2745015,3.78387183 28.0604045,3.86971651 27.9015473,4.02495549 C27.74269,4.18019447 27.6520874,4.39210934 27.6496738,4.61407451 L27.6496738,29.9549269 C27.6496628,30.0945747 27.7056477,30.2284098 27.8051241,30.3265405 C27.9046005,30.4246711 28.0392813,30.4789221 28.1790855,30.4771765 L29.8705887,30.4889271 C33.7306122,27.2016614 35.9521497,22.3882883 35.9477128,17.321711 Z" id="Path" fill="#FFE27C" fill-rule="nonzero"></path>
                    <path d="M25.579085,27.9729902 L14.3503266,27.9729902 C14.2059385,27.9729902 14.0888887,27.8560806 14.0888887,27.7118654 L14.0888887,5.60373717 L25.8405229,5.60373717 L25.8405229,27.7118654 C25.8405229,27.8560806 25.7234732,27.9729902 25.579085,27.9729902 Z" id="Path" fill="#FFFFFF"></path>
                    <rect id="Rectangle" fill="#99D6DC" fill-rule="nonzero" x="14.0888887" y="14.143823" width="11.7529417" height="1.21292452"></rect>
                    <path d="M14.0888887,15.3567476 L25.8418304,15.3567476 L25.8418304,36.6880301 C25.8418304,36.8322454 25.7247806,36.9491549 25.5803925,36.9491549 L14.3555554,36.9491549 C14.2111672,36.9491549 14.0941175,36.8322454 14.0941175,36.6880301 L14.0941175,15.3567476 L14.0888887,15.3567476 Z" id="Path" fill="#E5F4F6" fill-rule="nonzero"></path>
                    <rect id="Rectangle" fill="#EBEBED" fill-rule="nonzero" x="22.5895422" y="6.62212414" width="2.18562083" height="1.21292452" rx="0.606462259"></rect>
                    <rect id="Rectangle" fill="#878C97" fill-rule="nonzero" x="22.8836598" y="6.8845543" width="1" height="1" rx="0.5"></rect>
                    <rect id="Rectangle" fill="#D7D9DC" fill-rule="nonzero" x="15.0601306" y="6.62212414" width="5.83006516" height="1.21292452" rx="0.606462259"></rect>
                    <rect id="Rectangle" fill="#D7D9DC" fill-rule="nonzero" x="15.0601306" y="11.4751276" width="2.67189549" height="1" rx="0.5"></rect>
                    <rect id="Rectangle" fill="#D7D9DC" fill-rule="nonzero" x="18.5816985" y="11.4751276" width="2.67189549" height="1" rx="0.5"></rect>
                    <rect id="Rectangle" fill="#D7D9DC" fill-rule="nonzero" x="22.104576" y="11.4751276" width="2.67189549" height="1" rx="0.5"></rect>
                    <rect id="Rectangle" fill="#D7D9DC" fill-rule="nonzero" x="15.0601306" y="8.56358611" width="9.71634011" height="2.18300293" rx="1.09150146"></rect>
                    <rect id="Rectangle" fill="#33ADB9" fill-rule="nonzero" x="14.0888887" y="14.143823" width="5.83006516" height="1.21292452"></rect>
                    <rect id="Rectangle" fill="#AFB2B9" fill-rule="nonzero" x="17.7320253" y="16.5696723" width="6.80130703" height="1" rx="0.5"></rect>
                    <rect id="Rectangle" fill="#D7D9DC" fill-rule="nonzero" transform="translate(16.036601, 25.951233) rotate(90.000000) translate(-16.036601, -25.951233) " x="7.41372551" y="25.8298096" width="17.2457507" height="1" rx="0.5"></rect>
                    <rect id="Rectangle" fill="#D7D9DC" fill-rule="nonzero" x="17.7320253" y="17.5397498" width="4.98823527" height="1" rx="0.5"></rect>
                    <ellipse id="Oval" fill="#FFCE24" fill-rule="nonzero" cx="16.0313724" cy="25.9910531" rx="1" ry="1"></ellipse>
                    <path d="M16.0313724,25.5053611 C16.2281702,25.5048327 16.4058844,25.6228322 16.4815625,25.8042804 C16.5572406,25.9857286 16.5159602,26.1948472 16.3769901,26.334025 C16.23802,26.4732028 16.0287625,26.5149964 15.8468936,26.4398976 C15.6650247,26.3647989 15.5464058,26.1876159 15.5464051,25.9910531 C15.5471191,25.7236177 15.7636191,25.5067941 16.0313724,25.5053611 L16.0313724,25.5053611 Z M16.0313724,25.0209747 C15.4949704,25.0209747 15.0601306,25.4552936 15.0601306,25.9910531 C15.0601306,26.5268127 15.4949704,26.9611316 16.0313724,26.9611316 C16.5677744,26.9611316 17.0026142,26.5268127 17.0026142,25.9910531 C17.0026142,25.4552936 16.5677744,25.0209747 16.0313724,25.0209747 Z" id="Shape" fill="#FFF5D3" fill-rule="nonzero"></path>
                    <rect id="Rectangle" fill="#AFB2B9" fill-rule="nonzero" x="17.7320253" y="19.4681568" width="6.80130703" height="1" rx="0.5"></rect>
                    <rect id="Rectangle" fill="#D7D9DC" fill-rule="nonzero" x="17.7320253" y="20.4382343" width="4.98823527" height="1" rx="0.5"></rect>
                    <ellipse id="Oval" fill="#EC7618" fill-rule="nonzero" cx="16.0313724" cy="20.1953891" rx="1" ry="1"></ellipse>
                    <path d="M16.0313724,19.7149187 C16.2281702,19.7143903 16.4058844,19.8323898 16.4815625,20.013838 C16.5572406,20.1952862 16.5159602,20.4044048 16.3769901,20.5435826 C16.23802,20.6827604 16.0287625,20.724554 15.8468936,20.6494552 C15.6650247,20.5743565 15.5464058,20.3971735 15.5464051,20.2006107 C15.5471191,19.9331753 15.7636191,19.7163517 16.0313724,19.7149187 L16.0313724,19.7149187 Z M16.0313724,19.2305323 C15.4949704,19.2305323 15.0601306,19.6648512 15.0601306,20.2006107 C15.0601306,20.7363703 15.4949704,21.1706892 16.0313724,21.1706892 C16.5677744,21.1706892 17.0026142,20.7363703 17.0026142,20.2006107 C17.0026142,19.6648512 16.5677744,19.2305323 16.0313724,19.2305323 L16.0313724,19.2305323 Z" id="Shape" fill="#FCE9DA" fill-rule="nonzero"></path>
                    <rect id="Rectangle" fill="#AFB2B9" fill-rule="nonzero" x="17.7320253" y="22.3653363" width="6.80130703" height="1" rx="0.5"></rect>
                    <rect id="Rectangle" fill="#D7D9DC" fill-rule="nonzero" x="17.7320253" y="23.3354138" width="4.98823527" height="1" rx="0.5"></rect>
                    <ellipse id="Oval" fill="#F1335C" fill-rule="nonzero" cx="16.0313724" cy="23.0938736" rx="1" ry="1"></ellipse>
                    <path d="M16.0313722,22.6081811 C16.22817,22.6076527 16.4058841,22.7256522 16.4815622,22.9071004 C16.5572403,23.0885486 16.51596,23.2976672 16.3769899,23.436845 C16.2380198,23.5760228 16.0287623,23.6178164 15.8468934,23.5427177 C15.6650245,23.4676189 15.5464056,23.2904359 15.5464049,23.0938732 C15.5471189,22.8264377 15.7636189,22.6096142 16.0313722,22.6081811 L16.0313722,22.6081811 Z M16.0313722,22.1224891 C15.6378944,22.1219609 15.2828667,22.3582958 15.1319226,22.721235 C14.9809786,23.0841743 15.0638628,23.5021979 15.3419067,23.7802825 C15.6199507,24.0583672 16.0383637,24.1417143 16.4019409,23.9914393 C16.7655181,23.8411643 17.0026137,23.4868801 17.0026141,23.0938732 C17.0026146,22.557902 16.5679857,22.1232095 16.0313722,22.1224891 Z" id="Shape" fill="#FCCCD6" fill-rule="nonzero"></path>
                    <rect id="Rectangle" fill="#AFB2B9" fill-rule="nonzero" x="17.7320253" y="25.2638208" width="6.80130703" height="1" rx="0.5"></rect>
                    <rect id="Rectangle" fill="#D7D9DC" fill-rule="nonzero" x="17.7320253" y="26.2338983" width="4.98823527" height="1" rx="0.5"></rect>
                    <rect id="Rectangle" fill="#AFB2B9" fill-rule="nonzero" x="17.7320253" y="28.1884173" width="6.80130703" height="1" rx="0.5"></rect>
                    <rect id="Rectangle" fill="#D7D9DC" fill-rule="nonzero" x="17.7320253" y="29.1584968" width="4.98823527" height="1" rx="0.5"></rect>
                    <rect id="Rectangle" fill="#AFB2B9" fill-rule="nonzero" x="17.7320253" y="31.0921254" width="6.80130703" height="1" rx="0.5"></rect>
                    <rect id="Rectangle" fill="#D7D9DC" fill-rule="nonzero" x="17.7320253" y="32.0635098" width="4.98823527" height="1" rx="0.5"></rect>
                    <rect id="Rectangle" fill="#AFB2B9" fill-rule="nonzero" x="17.7320253" y="33.9971404" width="6.80130703" height="1" rx="0.5"></rect>
                    <rect id="Rectangle" fill="#D7D9DC" fill-rule="nonzero" x="17.7320253" y="34.9672179" width="4.98823527" height="1" rx="0.5"></rect>
                    <ellipse id="Oval" fill="#00DDA6" fill-rule="nonzero" cx="16.0313724" cy="17.2969046" rx="1" ry="1"></ellipse>
                    <path d="M16.0313725,16.8125181 C16.2282891,16.8119901 16.4060857,16.9301312 16.4816868,17.11174 C16.5572879,17.2933487 16.5157675,17.5025698 16.3765259,17.6416446 C16.2372844,17.7807194 16.0278124,17.8221901 15.8459859,17.7466795 C15.6641593,17.6711689 15.5458765,17.4935853 15.5464052,17.2969046 C15.5471234,17.029683 15.7638305,16.8132355 16.0313725,16.8125181 L16.0313725,16.8125181 Z M16.0313725,16.3268261 C15.6377757,16.326298 15.2826655,16.5627744 15.1317982,16.9258741 C14.9809309,17.2889737 15.064055,17.7070998 15.3423702,17.9850816 C15.6206854,18.2630634 16.0393128,18.3460879 16.4028479,18.1954014 C16.766383,18.0447148 17.003143,17.6900299 17.0026143,17.2969046 C17.0026143,16.761145 16.5677745,16.3268261 16.0313725,16.3268261 L16.0313725,16.3268261 Z" id="Shape" fill="#CCF8ED" fill-rule="nonzero"></path>
                    <ellipse id="Oval" fill="#33ADB9" fill-rule="nonzero" cx="16.0313724" cy="28.9156497" rx="1" ry="1"></ellipse>
                    <path d="M16.0313725,28.4312642 C16.2282891,28.4307362 16.4060857,28.5488773 16.4816868,28.730486 C16.5572879,28.9120948 16.5157675,29.1213158 16.3765259,29.2603906 C16.2372844,29.3994654 16.0278124,29.4409361 15.8459859,29.3654255 C15.6641593,29.289915 15.5458765,29.1123313 15.5464052,28.9156506 C15.5471234,28.6484291 15.7638305,28.4319815 16.0313725,28.4312642 L16.0313725,28.4312642 Z M16.0313725,27.9455721 C15.6377757,27.9450441 15.2826655,28.1815204 15.1317982,28.5446201 C14.9809309,28.9077197 15.064055,29.3258458 15.3423702,29.6038276 C15.6206854,29.8818095 16.0393128,29.964834 16.4028479,29.8141474 C16.766383,29.6634608 17.003143,29.3087759 17.0026143,28.9156506 C17.0026143,28.379891 16.5677745,27.9455721 16.0313725,27.9455721 Z" id="Shape" fill="#CCEBED" fill-rule="nonzero"></path>
                    <ellipse id="Oval" fill="#9290D9" fill-rule="nonzero" cx="16.0313724" cy="31.8206627" rx="1" ry="1"></ellipse>
                    <path d="M16.0313724,31.3349706 C16.2281702,31.3344422 16.4058844,31.4524417 16.4815625,31.6338899 C16.5572406,31.8153381 16.5159602,32.0244567 16.3769901,32.1636345 C16.23802,32.3028123 16.0287625,32.3446059 15.8468936,32.2695072 C15.6650247,32.1944084 15.5464058,32.0172254 15.5464051,31.8206627 C15.5471191,31.5532272 15.7636191,31.3364037 16.0313724,31.3349706 L16.0313724,31.3349706 Z M16.0313724,30.8505842 C15.4949704,30.8505842 15.0601306,31.2849031 15.0601306,31.8206627 C15.0601306,32.3564222 15.4949704,32.7907411 16.0313724,32.7907411 C16.5677744,32.7907411 17.0026142,32.3564222 17.0026142,31.8206627 C17.0026142,31.2849031 16.5677744,30.8505842 16.0313724,30.8505842 L16.0313724,30.8505842 Z" id="Shape" fill="#E4E3F5" fill-rule="nonzero"></path>
                    <ellipse id="Oval" fill="#FC6A59" fill-rule="nonzero" cx="16.0313724" cy="34.7256776" rx="1" ry="1"></ellipse>
                    <path d="M16.0313722,34.2399852 C16.22817,34.2394568 16.4058841,34.3574563 16.4815622,34.5389045 C16.5572403,34.7203527 16.51596,34.9294713 16.3769899,35.0686491 C16.2380198,35.2078269 16.0287623,35.2496205 15.8468934,35.1745217 C15.6650245,35.099423 15.5464056,34.92224 15.5464049,34.7256772 C15.5471189,34.4582418 15.7636189,34.2414182 16.0313722,34.2399852 L16.0313722,34.2399852 Z M16.0313722,33.7542932 C15.6378944,33.7537649 15.2828667,33.9900999 15.1319226,34.3530391 C14.9809786,34.7159783 15.0638628,35.1340019 15.3419067,35.4120866 C15.6199507,35.6901713 16.0383637,35.7735184 16.4019409,35.6232434 C16.7655181,35.4729684 17.0026137,35.1186842 17.0026141,34.7256773 C17.0026146,34.1897061 16.5679857,33.7550135 16.0313722,33.7542932 Z" id="Shape" fill="#FEE1DE" fill-rule="nonzero"></path>
                    <path d="M14.3503266,4.43912096 L25.5777775,4.43912096 C25.7221657,4.43912096 25.8392154,4.5560305 25.8392154,4.70024572 L25.8392154,5.65073983 L14.0888887,5.65073983 L14.0888887,4.70024572 C14.0888887,4.5560305 14.2059385,4.43912096 14.3503266,4.43912096 Z" id="Path" fill="#373F51" fill-rule="nonzero"></path>
                    <polygon id="Path" fill="#D7D9DC" fill-rule="nonzero" points="14.0888887 15.3567474 25.8405229 15.3567474 25.8405229 15.5982878 14.0888887 15.5982878 14.0888887 15.3554417"></polygon>
                    <g id="Group" transform="translate(0.000000, 2.350123)">
                        <path d="M11.4915037,23.5338695 L0.261437919,23.5338695 C0.117049743,23.5338695 1.76824517e-17,23.4169599 0,23.2727447 L0,1.16461645 L11.7529417,1.16461645 L11.7529417,23.2727447 C11.7529417,23.4169599 11.6358919,23.5338695 11.4915037,23.5338695 Z" id="Path" fill="#FFFFFF"></path>
                        <rect id="Rectangle" fill="#99D6DC" fill-rule="nonzero" x="0" y="9.70470204" width="11.7529417" height="1.21292452"></rect>
                        <path d="M0,10.9176267 L11.7529417,10.9176267 L11.7529417,23.2727445 C11.7529417,23.4169597 11.6358919,23.5338692 11.4915037,23.5338692 L0.261437919,23.5338692 C0.117049743,23.5338692 1.76824517e-17,23.4169597 0,23.2727445 L0,10.9176267 Z" id="Path" fill="#E5F4F6" fill-rule="nonzero"></path>
                        <rect id="Rectangle" fill="#CCF8ED" fill-rule="nonzero" x="8.5019609" y="2.18300293" width="2.18562083" height="1.21292452" rx="0.606462259"></rect>
                        <rect id="Rectangle" fill="#00C392" fill-rule="nonzero" x="9.76601295" y="2.44543334" width="1" height="1" rx="0.5"></rect>
                        <rect id="Rectangle" fill="#D7D9DC" fill-rule="nonzero" x="0.971241808" y="2.18300293" width="5.83006516" height="1.21292452" rx="0.606462259"></rect>
                        <rect id="Rectangle" fill="#D7D9DC" fill-rule="nonzero" x="0.971241808" y="7.03600665" width="2.67189549" height="1" rx="0.5"></rect>
                        <rect id="Rectangle" fill="#D7D9DC" fill-rule="nonzero" x="4.49411779" y="7.03600665" width="2.67189549" height="1" rx="0.5"></rect>
                        <rect id="Rectangle" fill="#D7D9DC" fill-rule="nonzero" x="8.01568623" y="7.03600665" width="2.67189549" height="1" rx="0.5"></rect>
                        <rect id="Rectangle" fill="#D7D9DC" fill-rule="nonzero" x="0.971241808" y="4.12446564" width="9.71634011" height="2.18300293" rx="1.09150146"></rect>
                        <rect id="Rectangle" fill="#33ADB9" fill-rule="nonzero" x="0" y="9.70470204" width="5.83006516" height="1.21292452"></rect>
                        <rect id="Rectangle" fill="#AFB2B9" fill-rule="nonzero" x="3.64313736" y="12.1305513" width="6.80130703" height="1" rx="0.5"></rect>
                        <rect id="Rectangle" fill="#D7D9DC" fill-rule="nonzero" transform="translate(1.949019, 16.800767) rotate(90.000000) translate(-1.949019, -16.800767) " x="-1.95686278" y="16.6793442" width="7.81176449" height="1" rx="0.5"></rect>
                        <rect id="Rectangle" fill="#D7D9DC" fill-rule="nonzero" x="3.64313736" y="13.1006289" width="4.98823527" height="1" rx="0.5"></rect>
                        <ellipse id="Oval" fill="#FC6A59" fill-rule="nonzero" cx="1.94379083" cy="12.8577837" rx="1" ry="1"></ellipse>
                        <path d="M1.94379084,12.3733972 C2.14058932,12.3733979 2.31798478,12.4918747 2.3931736,12.6735257 C2.46836242,12.8551768 2.42651869,13.0641836 2.28717398,13.2029873 C2.14782928,13.341791 1.93845991,13.3830218 1.7567941,13.3074344 C1.57512829,13.2318469 1.45698732,13.0543457 1.45751635,12.8577836 C1.45823692,12.5900533 1.67573851,12.3733962 1.94379084,12.3733972 L1.94379084,12.3733972 Z M1.94379086,11.8877051 C1.55019409,11.8871771 1.19508385,12.1236534 1.04421657,12.4867531 C0.89334929,12.8498528 0.976473346,13.2679788 1.25478854,13.5459606 C1.53310374,13.8239425 1.95173121,13.906967 2.3152663,13.7562804 C2.67880139,13.6055938 2.91556137,13.2509089 2.91503269,12.8577836 C2.91431261,12.3223222 2.47989436,11.8884243 1.94379086,11.8877051 L1.94379086,11.8877051 Z" id="Shape" fill="#FEE1DE" fill-rule="nonzero"></path>
                        <rect id="Rectangle" fill="#AFB2B9" fill-rule="nonzero" x="3.64313736" y="15.0290358" width="6.80130703" height="1" rx="0.5"></rect>
                        <rect id="Rectangle" fill="#D7D9DC" fill-rule="nonzero" x="3.64313736" y="15.9991143" width="4.98823527" height="1" rx="0.5"></rect>
                        <ellipse id="Oval" fill="#33ADB9" fill-rule="nonzero" cx="1.94379083" cy="15.7562681" rx="1" ry="1"></ellipse>
                        <path d="M1.94379087,15.2757987 C2.21235286,15.2757987 2.43006538,15.4932505 2.43006538,15.7614908 C2.43006538,16.0297311 2.21235286,16.2471829 1.94379087,16.2471829 C1.67522887,16.2471829 1.45751635,16.0297311 1.45751635,15.7614908 C1.45751635,15.4932505 1.67522887,15.2757987 1.94379087,15.2757987 L1.94379087,15.2757987 Z M1.94379083,14.7914123 C1.4073888,14.7914123 0.972549027,15.2257312 0.972549027,15.7614908 C0.972549027,16.2972503 1.4073888,16.7315692 1.94379083,16.7315692 C2.48019287,16.7315692 2.91503264,16.2972503 2.91503264,15.7614908 C2.91431256,15.2260294 2.47989432,14.7921315 1.94379083,14.7914123 Z" id="Shape" fill="#CCEBED" fill-rule="nonzero"></path>
                        <rect id="Rectangle" fill="#AFB2B9" fill-rule="nonzero" x="3.64313736" y="17.9262153" width="6.80130703" height="1" rx="0.5"></rect>
                        <rect id="Rectangle" fill="#D7D9DC" fill-rule="nonzero" x="3.64313736" y="18.8962929" width="4.98823527" height="1" rx="0.5"></rect>
                        <ellipse id="Oval" fill="#F1335C" fill-rule="nonzero" cx="1.94379083" cy="18.6547526" rx="1" ry="1"></ellipse>
                        <path d="M1.94379083,18.1690602 C2.21235283,18.1690602 2.43006535,18.3865119 2.43006535,18.6547522 C2.43006535,18.9229926 2.21235283,19.1404443 1.94379083,19.1404443 C1.67522884,19.1404443 1.45751632,18.9229926 1.45751632,18.6547522 C1.45751632,18.3865119 1.67522884,18.1690602 1.94379083,18.1690602 L1.94379083,18.1690602 Z M1.94379086,17.6833681 C1.55031297,17.6828399 1.19528531,17.9191748 1.04434124,18.2821141 C0.893397175,18.6450533 0.976281373,19.0630769 1.25432534,19.3411616 C1.5323693,19.6192463 1.95078235,19.7025933 2.31435952,19.5523184 C2.6779367,19.4020434 2.91503235,19.0477592 2.9150327,18.6547522 C2.91503319,18.1187811 2.4804043,17.6840885 1.94379086,17.6833681 L1.94379086,17.6833681 Z" id="Shape" fill="#FCCCD6" fill-rule="nonzero"></path>
                        <rect id="Rectangle" fill="#AFB2B9" fill-rule="nonzero" x="3.64313736" y="20.8246998" width="6.80130703" height="1" rx="0.5"></rect>
                        <rect id="Rectangle" fill="#D7D9DC" fill-rule="nonzero" x="3.64313736" y="21.7947773" width="4.98823527" height="1" rx="0.5"></rect>
                        <ellipse id="Oval" fill="#00DDA6" fill-rule="nonzero" cx="1.94379083" cy="21.5519322" rx="1" ry="1"></ellipse>
                        <path d="M1.94379087,21.0662401 C2.21235286,21.0662401 2.43006538,21.2836919 2.43006538,21.5519322 C2.43006538,21.8201725 2.21235286,22.0376243 1.94379087,22.0376243 C1.67522887,22.0376243 1.45751635,21.8201725 1.45751635,21.5519322 C1.45751635,21.2836919 1.67522887,21.0662401 1.94379087,21.0662401 L1.94379087,21.0662401 Z M1.94379083,20.5818537 C1.4073888,20.5818537 0.972549027,21.0161726 0.972549027,21.5519322 C0.972549027,22.0876917 1.4073888,22.5220106 1.94379083,22.5220106 C2.48019287,22.5220106 2.91503264,22.0876917 2.91503264,21.5519322 C2.91431256,21.0164708 2.47989432,20.5825729 1.94379083,20.5818537 Z" id="Shape" fill="#CCF8ED" fill-rule="nonzero"></path>
                        <path d="M0.261437907,0 L11.4888888,0 C11.633277,0 11.7503267,0.116909535 11.7503267,0.261124755 L11.7503267,1.21161886 L0,1.21161886 L0,0.261124755 C-1.76824509e-17,0.116909535 0.117049738,0 0.261437907,0 Z" id="Path" fill="#373F51" fill-rule="nonzero"></path>
                        <polygon id="Path" fill="#D7D9DC" fill-rule="nonzero" points="0 10.9176264 11.7516342 10.9176264 11.7516342 11.1591668 0 11.1591668 0 10.9163208"></polygon>
                        <path d="M39.6679747,24.5783685 L28.4379089,24.5783685 C28.2935207,24.5783685 28.176471,24.461459 28.176471,24.3172438 L28.176471,2.2091155 L39.9294126,2.2091155 L39.9294126,24.3172438 C39.9294126,24.3864984 39.9018684,24.4529165 39.8528392,24.5018869 C39.8038101,24.5508572 39.7373124,24.5783685 39.6679747,24.5783685 Z" id="Path" fill="#FFFFFF"></path>
                        <rect id="Rectangle" fill="#99D6DC" fill-rule="nonzero" x="28.176471" y="10.7492011" width="11.7529417" height="1.21292452"></rect>
                        <path d="M28.176471,11.9621257 L39.9294126,11.9621257 L39.9294126,27.228785 C39.9294126,27.3730002 39.8123629,27.4899098 39.6679747,27.4899098 L28.4444449,27.4899098 C28.3000567,27.4899098 28.1830069,27.3730002 28.1830069,27.228785 L28.1830069,11.9621257 L28.176471,11.9621257 Z" id="Path" fill="#E5F4F6" fill-rule="nonzero"></path>
                        <rect id="Rectangle" fill="#EBEBED" fill-rule="nonzero" x="36.6784309" y="3.22750198" width="2.18562083" height="1.21292452" rx="0.606462259"></rect>
                        <rect id="Rectangle" fill="#878C97" fill-rule="nonzero" x="36.9712401" y="3.48993239" width="1" height="1" rx="0.5"></rect>
                        <rect id="Rectangle" fill="#D7D9DC" fill-rule="nonzero" x="29.1490203" y="3.22750198" width="5.83006516" height="1.21292452" rx="0.606462259"></rect>
                        <rect id="Rectangle" fill="#D7D9DC" fill-rule="nonzero" x="29.1490203" y="8.0805057" width="2.67189549" height="1" rx="0.5"></rect>
                        <rect id="Rectangle" fill="#D7D9DC" fill-rule="nonzero" x="32.6705873" y="8.0805057" width="2.67189549" height="1" rx="0.5"></rect>
                        <rect id="Rectangle" fill="#D7D9DC" fill-rule="nonzero" x="36.1921562" y="8.0805057" width="2.67189549" height="1" rx="0.5"></rect>
                        <rect id="Rectangle" fill="#D7D9DC" fill-rule="nonzero" x="29.1490203" y="5.16896469" width="9.71634011" height="2.18300293" rx="1.09150146"></rect>
                        <rect id="Rectangle" fill="#33ADB9" fill-rule="nonzero" x="28.176471" y="10.7492011" width="5.83006516" height="1.21292452"></rect>
                        <rect id="Rectangle" fill="#AFB2B9" fill-rule="nonzero" x="31.8209141" y="13.1750504" width="6.80130703" height="1" rx="0.5"></rect>
                        <rect id="Rectangle" fill="#D7D9DC" fill-rule="nonzero" transform="translate(30.124184, 19.989100) rotate(90.000000) translate(-30.124184, -19.989100) " x="24.5372558" y="19.8676773" width="11.1738566" height="1" rx="0.5"></rect>
                        <rect id="Rectangle" fill="#D7D9DC" fill-rule="nonzero" x="31.8209141" y="14.1451279" width="4.98823527" height="1" rx="0.5"></rect>
                        <ellipse id="Oval" fill="#FC6A59" fill-rule="nonzero" cx="30.1202621" cy="13.9022827" rx="1" ry="1"></ellipse>
                        <path d="M30.1202612,13.4178962 C30.3170597,13.4178969 30.4944551,13.5363738 30.569644,13.7180248 C30.6448328,13.8996758 30.602989,14.1086827 30.4636443,14.2474863 C30.3242996,14.38629 30.1149303,14.4275209 29.9332645,14.3519334 C29.7515987,14.276346 29.6334577,14.0988447 29.6339867,13.9022826 C29.6347073,13.6345523 29.8522089,13.4178952 30.1202612,13.4178962 L30.1202612,13.4178962 Z M30.1202612,12.9322041 C29.7266645,12.9316761 29.3715542,13.1681525 29.2206869,13.5312522 C29.0698197,13.8943518 29.1529437,14.3124779 29.4312589,14.5904597 C29.7095741,14.8684415 30.1282016,14.951466 30.4917367,14.8007794 C30.8552718,14.6500929 31.0920317,14.295408 31.0915031,13.9022826 C31.0915031,13.3665231 30.6566633,12.9322041 30.1202612,12.9322041 L30.1202612,12.9322041 Z" id="Shape" fill="#FEE1DE" fill-rule="nonzero"></path>
                        <rect id="Rectangle" fill="#AFB2B9" fill-rule="nonzero" x="31.8209141" y="16.0735348" width="6.80130703" height="1" rx="0.5"></rect>
                        <rect id="Rectangle" fill="#D7D9DC" fill-rule="nonzero" x="31.8209141" y="17.0436124" width="4.98823527" height="1" rx="0.5"></rect>
                        <ellipse id="Oval" fill="#00DDA6" fill-rule="nonzero" cx="30.1202621" cy="16.8007672" rx="1" ry="1"></ellipse>
                        <path d="M30.1202622,16.3202978 C30.3888242,16.3202978 30.6065367,16.5377495 30.6065367,16.8059898 C30.6065367,17.0742302 30.3888242,17.2916819 30.1202622,17.2916819 C29.8517002,17.2916819 29.6339877,17.0742302 29.6339877,16.8059898 C29.6339877,16.5377495 29.8517002,16.3202978 30.1202622,16.3202978 L30.1202622,16.3202978 Z M30.1202621,15.8359113 C29.5838601,15.8359113 29.1490203,16.2702303 29.1490203,16.8059898 C29.1490203,17.3417494 29.5838601,17.7760683 30.1202621,17.7760683 C30.6566642,17.7760683 31.0915039,17.3417494 31.0915039,16.8059898 C31.0915039,16.2702303 30.6566642,15.8359113 30.1202621,15.8359113 L30.1202621,15.8359113 Z" id="Shape" fill="#CCF8ED" fill-rule="nonzero"></path>
                        <rect id="Rectangle" fill="#AFB2B9" fill-rule="nonzero" x="31.8209141" y="18.9707144" width="6.80130703" height="1" rx="0.5"></rect>
                        <rect id="Rectangle" fill="#D7D9DC" fill-rule="nonzero" x="31.8209141" y="19.9407919" width="4.98823527" height="1" rx="0.5"></rect>
                        <ellipse id="Oval" fill="#33ADB9" fill-rule="nonzero" cx="30.1202621" cy="19.6992517" rx="1" ry="1"></ellipse>
                        <path d="M30.1202619,19.2135592 C30.3888239,19.2135592 30.6065365,19.431011 30.6065365,19.6992513 C30.6065365,19.9674916 30.3888239,20.1849434 30.1202619,20.1849434 C29.8516999,20.1849434 29.6339874,19.9674916 29.6339874,19.6992513 C29.6339874,19.431011 29.8516999,19.2135592 30.1202619,19.2135592 L30.1202619,19.2135592 Z M30.120262,18.7278672 C29.7267841,18.7273389 29.3717564,18.9636739 29.2208124,19.3266131 C29.0698683,19.6895523 29.1527525,20.1075759 29.4307964,20.3856606 C29.7088404,20.6637453 30.1272535,20.7470924 30.4908306,20.5968174 C30.8544078,20.4465424 31.0915035,20.0922582 31.0915038,19.6992513 C31.0918508,19.4417443 30.989677,19.1946655 30.8074962,19.012458 C30.6253154,18.8302506 30.378078,18.7278669 30.120262,18.7278672 Z" id="Shape" fill="#CCEBED" fill-rule="nonzero"></path>
                        <rect id="Rectangle" fill="#AFB2B9" fill-rule="nonzero" x="31.8209141" y="21.8691989" width="6.80130703" height="1" rx="0.5"></rect>
                        <rect id="Rectangle" fill="#D7D9DC" fill-rule="nonzero" x="31.8209141" y="22.8392764" width="4.98823527" height="1" rx="0.5"></rect>
                        <rect id="Rectangle" fill="#AFB2B9" fill-rule="nonzero" x="31.8209141" y="24.7794335" width="6.80130703" height="1" rx="0.5"></rect>
                        <rect id="Rectangle" fill="#D7D9DC" fill-rule="nonzero" x="31.8209141" y="25.7508179" width="4.98823527" height="1" rx="0.5"></rect>
                        <ellipse id="Oval" fill="#EC7618" fill-rule="nonzero" cx="30.1202621" cy="22.5964312" rx="1" ry="1"></ellipse>
                        <path d="M30.1202622,22.1107392 C30.3888242,22.1107392 30.6065367,22.3281909 30.6065367,22.5964313 C30.6065367,22.8646716 30.3888242,23.0821233 30.1202622,23.0821233 C29.8517002,23.0821233 29.6339877,22.8646716 29.6339877,22.5964313 C29.6339877,22.3281909 29.8517002,22.1107392 30.1202622,22.1107392 L30.1202622,22.1107392 Z M30.1202621,21.6263528 C29.5838601,21.6263528 29.1490203,22.0606717 29.1490203,22.5964312 C29.1490203,23.1321908 29.5838601,23.5665097 30.1202621,23.5665097 C30.6566642,23.5665097 31.0915039,23.1321908 31.0915039,22.5964312 C31.0915039,22.0606717 30.6566642,21.6263528 30.1202621,21.6263528 Z" id="Shape" fill="#FCE9DA" fill-rule="nonzero"></path>
                        <ellipse id="Oval" fill="#9290D9" fill-rule="nonzero" cx="30.1202621" cy="25.5210278" rx="1" ry="1"></ellipse>
                        <path d="M30.1202612,25.0366423 C30.3170597,25.036643 30.4944551,25.1551198 30.569644,25.3367708 C30.6448328,25.5184219 30.602989,25.7274287 30.4636443,25.8662324 C30.3242996,26.005036 30.1149303,26.0462669 29.9332645,25.9706795 C29.7515987,25.895092 29.6334577,25.7175907 29.6339867,25.5210287 C29.6339862,25.3923349 29.6852603,25.268931 29.7764922,25.1780533 C29.8677241,25.0871756 29.9914135,25.0362954 30.1202612,25.0366423 L30.1202612,25.0366423 Z M30.1202612,24.5509502 C29.7266645,24.5504221 29.3715542,24.7868985 29.2206869,25.1499982 C29.0698197,25.5130978 29.1529437,25.9312239 29.4312589,26.2092057 C29.7095741,26.4871876 30.1282016,26.570212 30.4917367,26.4195255 C30.8552718,26.2688389 31.0920317,25.914154 31.0915031,25.5210287 C31.0915031,24.9852691 30.6566633,24.5509502 30.1202612,24.5509502 L30.1202612,24.5509502 Z" id="Shape" fill="#E4E3F5" fill-rule="nonzero"></path>
                        <path d="M28.4379089,1.04449905 L39.6653598,1.04449905 C39.809748,1.04449905 39.9267977,1.16140859 39.9267977,1.30562381 L39.9267977,2.25611791 L28.176471,2.25611791 L28.176471,1.30562381 C28.176471,1.16140859 28.2935207,1.04449905 28.4379089,1.04449905 Z" id="Path" fill="#373F51" fill-rule="nonzero"></path>
                        <polygon id="Path" fill="#D7D9DC" fill-rule="nonzero" points="28.176471 11.9621255 39.9281052 11.9621255 39.9281052 12.2036659 28.176471 12.2036659 28.176471 11.9608198"></polygon>
                    </g>
                </g>
            </g>
        </g>
    </g>
</svg>